<?xml version="1.0" encoding="UTF-8"?>
<svg width="383px" height="158px" viewBox="0 0 383 158" version="1.1" xmlns="http://www.w3.org/2000/svg" xmlns:xlink="http://www.w3.org/1999/xlink">
    <title>Group 2</title>
    <g id="Page-1" stroke="none" stroke-width="1" fill="none" fill-rule="evenodd">
        <g id="Group-2" transform="translate(0.132000, 0.784000)">
            <polyline id="Fill-17" fill="#FFFFFE" points="26.442 41.267 26.442 44.416 29.761 45.092 29.761 60.282 10.071 60.282 10.071 45.092 13.39 44.416 13.39 41.267 0.478 41.267 0.478 44.416 3.46 45.092 3.46 80.339 0.084 80.985 0.084 84.08 13.39 84.08 13.39 80.985 10.071 80.339 10.071 63.995 29.761 63.995 29.761 80.339 26.442 80.985 26.442 84.08 39.747 84.08 39.747 80.985 36.371 80.339 36.371 45.092 39.354 44.416 39.354 41.267 26.442 41.267"></polyline>
            <path d="M56.959,51.224 C64.216,51.224 69.673,55.838 69.673,63.995 C69.673,66.143 69.325,68.495 69.325,68.495 L49.083,68.495 C49.252,76.091 53.161,80.394 58.843,80.394 C61.488,80.394 64.835,79.523 66.833,78.032 L68.352,79.945 C66.297,82.673 60.756,84.726 56.931,84.726 C48.267,84.726 42.5,78.595 42.5,68.299 C42.5,58.369 48.295,51.224 56.959,51.224 M63.738,65.233 C63.822,64.501 63.879,63.545 63.879,62.813 C63.879,58.341 61.094,54.628 56.931,54.628 C52.346,54.628 49.307,58.341 49.307,65.233 L63.738,65.233" id="Fill-18" fill="#FFFFFE"></path>
            <path d="M90.637,63.179 C90.637,58.06 89.287,56.09 84.363,56.09 C82.029,56.09 78.71,57.018 76.065,58.425 L74.181,55.923 C77.36,53.278 81.72,51.421 85.939,51.421 C94.04,51.421 96.825,54.459 96.825,62.701 L96.825,80.339 L99.649,80.985 L99.649,83.742 C99.649,83.742 95.503,84.726 94.068,84.726 C91.565,84.726 90.777,84.079 90.777,81.885 L90.777,80.536 C88.752,82.533 85.601,84.726 81.523,84.726 C75.7,84.726 71.79,81.407 71.79,75.555 C71.79,67.764 80.875,64.81 90.637,64.642 L90.637,63.179 Z M90.637,67.821 C84.167,67.821 78.794,69.705 78.794,74.966 C78.794,78.904 80.764,80.479 84.055,80.479 C85.827,80.479 88.808,79.073 90.637,77.638 L90.637,67.821 L90.637,67.821 Z" id="Fill-19" fill="#FFFFFE"></path>
            <polyline id="Fill-20" fill="#FFFFFE" points="110.73 36.85 103.05 38.004 103.05 40.816 105.752 41.294 105.752 80.339 102.571 80.985 102.571 84.08 115.371 84.08 115.371 80.985 112.164 80.339 112.164 38.004 110.73 36.85"></polyline>
            <path d="M118.249,56.737 L118.249,53.53 C119.261,52.996 121.062,52.095 121.062,52.095 C121.568,50.604 122.946,46.694 123.593,44.782 L127.081,44.36 L127.138,52.095 L135.324,52.095 L135.324,56.737 L127.166,56.737 L127.166,73.137 C127.166,75.414 127.222,77.018 127.362,77.89 C127.616,79.691 128.235,80.001 130.372,80.001 L130.4,80.001 C132.286,80.001 133.72,79.437 135.014,78.931 L136.054,81.688 C134.957,82.589 133.72,83.6 131.385,84.22 C130.091,84.556 128.91,84.697 127.813,84.697 L127.756,84.697 C123.115,84.697 120.724,82.842 120.724,78.031 L120.724,56.737 L118.249,56.737" id="Fill-21" fill="#FFFFFE"></path>
            <path d="M170.183,80.985 L170.183,84.08 L159.691,84.08 L159.691,80.985 L161.659,80.339 L161.659,64.614 C161.659,60.254 161.21,57.92 159.549,56.653 C158.734,56.034 157.524,55.725 155.921,55.725 C153.221,55.725 150.014,56.962 147.764,58.65 L147.764,80.339 L149.844,80.985 L149.844,84.08 L139.353,84.08 L139.353,80.957 L141.322,80.339 L141.322,41.294 L138.537,40.816 L138.537,37.975 L146.441,36.906 L147.707,38.003 L147.736,55.556 C150.296,53.306 154.487,51.364 158.847,51.364 C163.657,51.364 166.216,53.166 167.286,56.962 C167.82,58.876 168.073,61.435 168.073,64.642 L168.073,80.339 L170.183,80.985" id="Fill-22" fill="#FFFFFE"></path>
            <path d="M198.068,53.643 L197.673,58.706 L195.059,58.706 L194.861,57.919 C194.692,57.244 194.27,56.513 193.51,55.866 C192.555,55.078 191.092,54.544 189.01,54.544 C186.31,54.544 184.115,56.091 182.596,58.426 C181.162,60.648 180.347,63.629 180.347,66.695 C180.347,70.38 180.993,73.7 182.4,76.147 C183.891,78.763 186.225,80.394 189.544,80.394 C192.751,80.394 195.536,79.354 197.477,78.003 L198.715,80.592 C197.365,81.942 195.059,83.32 192.329,84.108 C190.923,84.529 189.517,84.727 188.109,84.727 C183.862,84.727 180.459,83.348 178.011,80.957 C175.058,78.088 173.482,73.7 173.482,68.496 C173.482,63.77 174.805,59.719 177.252,56.71 C180.037,53.249 184.284,51.224 189.685,51.224 C192.357,51.224 194.945,51.9 198.068,53.643" id="Fill-23" fill="#FFFFFE"></path>
            <path d="M236.396,80.339 L236.396,56.689 L233.695,55.649 L233.695,52.631 L240.84,51.336 L242.528,52.631 L242.528,57.3 L242.696,57.3 C243.372,56.062 244.582,54.234 247.648,52.518 C249.167,51.646 250.826,51.224 252.627,51.224 C253.546,51.224 254.483,51.445 254.483,51.445 L254.483,58.206 C254.483,58.206 253.176,57.778 251.445,57.778 C247.001,57.778 244.638,59.607 242.809,60.984 L242.809,80.339 L247.957,80.984 L247.957,84.079 L233.189,84.079 L233.189,80.984 L236.396,80.339" id="Fill-24" fill="#FFFFFE"></path>
            <path d="M270.751,51.224 C278.008,51.224 283.465,55.838 283.465,63.995 C283.465,66.143 283.116,68.495 283.116,68.495 L262.874,68.495 C263.043,76.091 266.953,80.394 272.634,80.394 C275.28,80.394 278.627,79.523 280.624,78.032 L282.143,79.945 C280.089,82.673 274.548,84.726 270.723,84.726 C262.058,84.726 256.292,78.595 256.292,68.299 C256.292,58.369 262.087,51.224 270.751,51.224 M277.529,65.233 C277.614,64.501 277.671,63.545 277.671,62.813 C277.671,58.341 274.885,54.628 270.723,54.628 C266.137,54.628 263.099,58.341 263.099,65.233 L277.529,65.233" id="Fill-25" fill="#FFFFFE"></path>
            <path d="M221.141,63.179 C221.141,58.06 219.791,56.09 214.868,56.09 C212.533,56.09 209.214,57.018 206.569,58.425 L204.685,55.923 C207.864,53.278 212.224,51.421 216.443,51.421 C224.545,51.421 227.33,54.459 227.33,62.701 L227.33,80.339 L230.153,80.985 L230.153,83.742 C230.153,83.742 226.007,84.726 224.572,84.726 C222.07,84.726 221.281,84.079 221.281,81.885 L221.281,80.536 C219.256,82.533 216.106,84.726 212.027,84.726 C206.204,84.726 202.295,81.407 202.295,75.555 C202.295,67.764 211.38,64.81 221.141,64.642 L221.141,63.179 Z M221.141,67.821 C214.671,67.821 209.299,69.705 209.299,74.966 C209.299,78.904 211.268,80.479 214.559,80.479 C216.331,80.479 219.313,79.073 221.141,77.638 L221.141,67.821 L221.141,67.821 Z" id="Fill-26" fill="#FFFFFE"></path>
            <polyline id="Fill-27" fill="#FFFFFE" points="0.085 98.876 0.085 102.025 3.46 102.701 3.46 137.948 0 138.594 0 141.689 31.15 141.689 32.078 133.589 29.068 133.193 27.072 137.104 10.127 137.133 10.127 102.729 13.389 102.025 13.389 98.876 0.085 98.876"></polyline>
            <path d="M64.56,125.599 C64.56,135.135 58.288,142.337 49.287,142.337 C39.581,142.337 34.742,135.501 34.742,125.571 C34.742,116.176 41.1,108.835 49.989,108.835 C59.722,108.835 64.56,115.64 64.56,125.599 M49.652,112.321 C44.476,112.321 41.831,116.598 41.831,125.065 C41.831,133.504 44.278,138.848 49.652,138.848 C54.855,138.848 57.443,134.6 57.443,126.105 C57.443,117.666 55.053,112.321 49.652,112.321" id="Fill-28" fill="#FFFFFE"></path>
            <path d="M81.4,131.14 C79.853,131.14 78.418,130.971 77.096,130.662 C76.055,131.591 75.408,132.603 75.408,133.868 C75.408,136.485 77.743,136.767 81.737,136.767 L87.87,136.767 C95.211,136.767 98.868,139.579 98.868,145.206 C98.868,152.435 90.176,157.216 81.99,157.216 C71.948,157.216 67.645,154.038 67.645,148.441 C67.645,144.951 69.979,141.942 72.876,140.48 C71.048,139.438 70.148,138.426 70.148,136.316 C70.148,133.504 71.92,131.281 74.536,129.818 C70.796,128.102 68.713,125.374 68.713,120.281 C68.713,113.306 74.677,108.919 82.103,108.834 L82.131,108.834 C86.182,108.834 89.445,109.761 91.667,111.561 C93.205,109.426 96.159,108.211 99.543,108.215985 L99.543,113.953 L96.068,112.668 L93.833,114.234 C94.481,115.612 94.761,117.637 94.761,119.298 C94.761,126.753 88.995,131.14 81.427,131.14 L81.4,131.14 Z M73.945,146.78 C73.945,151.281 76.421,153.644 82.497,153.644 C88.263,153.644 92.567,150.831 92.567,146.837 C92.567,142.73 90.43,141.829 85.76,141.829 L80.106,141.829 C78.558,141.829 77.125,141.717 75.746,141.465 C74.536,142.955 73.945,144.727 73.945,146.78 L73.945,146.78 Z M81.737,112.124 C77.687,112.124 75.351,115.331 75.351,119.747 C75.351,125.317 77.687,127.793 81.765,127.793 L81.822,127.793 C86.097,127.793 88.151,125.797 88.151,120.029 C88.151,115.557 86.126,112.124 81.765,112.124 L81.737,112.124 L81.737,112.124 Z" id="Fill-29" fill="#FFFFFE"></path>
            <path d="M105.838,137.947 L105.838,114.299 L103.024,113.259 L103.024,110.24 L110.929,108.946 L112.279,110.24 L112.279,137.947 L115.514,138.594 L115.514,141.689 L102.546,141.689 L102.546,138.594 L105.838,137.947 Z M109.095,95.247 C111.486,95.247 113.089,96.907 113.089,99.383 C113.089,101.942 111.43,103.657 108.927,103.657 C106.564,103.657 104.989,102.026 104.989,99.579 C104.989,96.991 106.619,95.247 109.095,95.247 L109.095,95.247 Z" id="Fill-30" fill="#FFFFFE"></path>
            <path d="M142.298,111.254 L141.904,116.316 L139.288,116.316 L139.091,115.528 C138.923,114.854 138.501,114.122 137.741,113.475 C136.784,112.687 135.322,112.153 133.241,112.153 C130.54,112.153 128.346,113.7 126.827,116.035 C125.392,118.258 124.576,121.238 124.576,124.304 C124.576,127.99 125.224,131.309 126.63,133.756 C128.121,136.372 130.456,138.005 133.775,138.005 C136.982,138.005 139.767,136.964 141.708,135.612 L142.945,138.201 C141.595,139.552 139.288,140.929 136.56,141.716 C135.154,142.138 133.747,142.337 132.34,142.337 C128.093,142.337 124.69,140.957 122.242,138.567 C119.289,135.697 117.713,131.309 117.713,126.105 C117.713,121.381 119.035,117.329 121.483,114.319 C124.268,110.858 128.515,108.834 133.916,108.834 C136.588,108.834 139.176,109.509 142.298,111.254" id="Fill-31" fill="#FFFFFE"></path>
            <path d="M345.145,0 C324.796,0 308.294,16.484 308.294,36.839 C308.294,57.194 324.796,73.701 345.145,73.701 C365.494,73.701 381.995,57.194 381.995,36.839 C381.995,16.484 365.494,0 345.145,0 M366.258,55.641 C365.952,56.778 365.056,57.651 363.919,57.959 L339.441,64.517 C338.304,64.823 337.079,64.517 336.248,63.665 L318.326,45.738 C317.497,44.906 317.167,43.704 317.474,42.545 L324.031,18.06 C324.338,16.921 325.233,16.026 326.37,15.72 L350.849,9.161 C351.985,8.854 353.209,9.182 354.041,10.013 L371.963,27.941 C372.793,28.772 373.122,29.997 372.816,31.133 L366.258,55.641" id="Fill-32" fill="#46ACD6"></path>
        </g>
    </g>
</svg>