<?xml version="1.0" encoding="UTF-8"?>
<svg width="82px" height="81px" viewBox="0 0 82 81" version="1.1" xmlns="http://www.w3.org/2000/svg" xmlns:xlink="http://www.w3.org/1999/xlink">
    <!-- Generator: sketchtool 50.2 (55047) - http://www.bohemiancoding.com/sketch -->
    <title>FA324DA7-B435-4E67-9F84-CAD1A4DFD059</title>
    <desc>Created with sketchtool.</desc>
    <defs></defs>
    <g id="Page-1" stroke="none" stroke-width="1" fill="none" fill-rule="evenodd">
        <g id="A-broken-system" transform="translate(-739.000000, -1027.000000)" stroke="#FFFFFF" stroke-width="0.5">
            <g id="QUESTIONS-FACED" transform="translate(240.000000, 1027.000000)">
                <g id="QUESTIONS">
                    <g id="Group-7" transform="translate(500.000000, 0.000000)">
                        <g id="bed">
                            <g id="Group-17" transform="translate(0.000000, 0.400000)">
                                <path d="M66.3635699,40.0138495 C66.3635699,54.5828817 54.5528172,66.3936344 39.9837849,66.3936344 C25.4143226,66.3936344 13.6035699,54.5828817 13.6035699,40.0138495 C13.6035699,25.4448172 25.4143226,13.6340645 39.9837849,13.6340645 C54.5528172,13.6340645 66.3635699,25.4448172 66.3635699,40.0138495 Z" id="Stroke-1"></path>
                                <path d="M19.7803871,74.4005161 C8.00791398,67.4689032 0.107698925,54.6637419 0.107698925,40.0138495" id="Stroke-3"></path>
                                <path d="M77.6623656,53.1014194 C72.0477419,68.7538925 56.7526882,80.0855054 39.9836559,79.8898065 C36.3402151,79.8476559 32.8103226,79.4012043 29.4567742,78.4859355" id="Stroke-5"></path>
                                <path d="M55.3204301,3.19380645 C69.7307527,9.20326882 79.8597849,23.4256344 79.8597849,40.0140215 C79.8597849,44.5981075 79.0860215,49.0019785 77.6623656,53.1013333" id="Stroke-7"></path>
                                <path d="M8.20387097,15.923914 C15.4860215,6.33208602 27.0116129,0.137677419 39.9836559,0.137677419 C41.5905376,0.137677419 43.1746237,0.232731183 44.7316129,0.417677419" id="Stroke-9"></path>
                                <path d="M7.52554839,46.671871 C7.08683871,44.5209032 6.85630108,42.2942366 6.85630108,40.0138065 C6.85630108,21.7183226 21.6876989,6.88649462 39.9836129,6.88649462 C48.883828,6.88649462 56.9642581,10.396172 62.9165161,16.1075699" id="Stroke-11"></path>
                                <path d="M57.299914,68.2606882 C52.2612043,71.356172 46.3308817,73.1411183 39.9837849,73.1411183 C27.687871,73.1411183 16.9566882,66.4421935 11.2405591,56.4950968" id="Stroke-13"></path>
                                <path d="M69.4696344,24.8988817 C71.7973763,29.4304946 73.1109247,34.5689892 73.1109247,40.0137204 C73.1109247,46.1406022 71.4476989,51.8790968 68.5483441,56.8021075" id="Stroke-15"></path>
                            </g>
                            <path d="M52.8870968,40.4836989 L49.7688172,40.4836989 L52.8870968,40.4836989 Z M55.3602151,40.4836989 L54.3924731,40.4836989 L55.3602151,40.4836989 Z M22.7077419,33.9482151 L22.7077419,33.3753118 L22.7077419,33.9482151 Z M25.0823656,36.6454194 L27.1292473,36.6454194 L25.0823656,36.6454194 Z M54.7933333,47.6781075 C53.8944086,47.6781075 53.1662366,48.4067097 53.1662366,49.3056344 C53.1662366,50.204129 53.8944086,50.9327312 54.7933333,50.9327312 C55.6922581,50.9327312 56.4208602,50.204129 56.4208602,49.3056344 C56.4208602,48.4067097 55.6922581,47.6781075 54.7933333,47.6781075 Z M24.3352688,47.6781075 C23.4363441,47.6781075 22.7077419,48.4067097 22.7077419,49.3056344 C22.7077419,50.204129 23.4363441,50.9327312 24.3352688,50.9327312 C25.2337634,50.9327312 25.9623656,50.204129 25.9623656,49.3056344 C25.9623656,48.4067097 25.2341935,47.6781075 24.3352688,47.6781075 Z M39.9288172,29.8974624 L39.9288172,35.3692903 L39.9288172,29.8974624 Z M37.1929032,32.6333763 L42.6647312,32.6333763 L37.1929032,32.6333763 Z M54.8036559,47.4523011 L54.8036559,42.4991828 L54.8036559,47.4523011 Z M24.3455914,42.4991828 L24.3455914,47.4523011 L24.3455914,42.4991828 Z M24.3455914,45.4058495 L54.8036559,45.4058495 L24.3455914,45.4058495 Z M22.7077419,38.3236989 L57.2595699,38.3236989 L57.2595699,42.4991828 L22.7077419,42.4991828 L22.7077419,35.3692903 L22.7077419,38.3236989 Z" id="Stroke-18"></path>
                        </g>
                    </g>
                </g>
            </g>
        </g>
    </g>
</svg>