<svg width="814px" height="758px" viewBox="0 0 814 758" version="1.1" xmlns="http://www.w3.org/2000/svg" xmlns:xlink="http://www.w3.org/1999/xlink">
    <!-- Generator: sketchtool 50.2 (55047) - http://www.bohemiancoding.com/sketch -->
    <title>94A3D2C1-4C68-4D59-B124-649F6859CFF0</title>
    <desc>Created with sketchtool.</desc>
    <defs></defs>
    <g id="Page-1" stroke="none" stroke-width="1" fill="none" fill-rule="evenodd" opacity="0.302354925">
        <g id="Homepage" transform="translate(-273.000000, -3483.000000)">
            <g id="DE-STRESSING-HEALTH" transform="translate(0.000000, 3429.000000)">
                <g id="3d-Graphic-07">
                    <g transform="translate(274.000000, 55.000000)">
                        <path d="M202.761919,131.577039 C202.847712,131.491692 202.847712,131.320997 202.933505,131.23565 C202.933505,131.23565 202.933505,131.150302 202.933505,131.150302 C202.933505,131.064955 203.019299,131.064955 203.019299,130.979607 C203.019299,130.979607 203.019299,130.979607 203.019299,130.979607 C203.019299,130.979607 203.019299,130.979607 203.019299,130.979607 L203.105092,130.808912 C203.105092,130.808912 203.190885,130.723565 203.190885,130.723565 C203.362471,130.382175 203.61985,129.955438 203.877229,129.614048 C207.909503,123.554381 215.030326,119.457704 223.781218,118.60423 L473.782181,93.1706949 C474.125353,93.1706949 474.382732,93.0853474 474.725905,93.0853474 C474.897491,93.0853474 474.983284,93.0853474 475.15487,93.0853474 C475.412249,93.0853474 475.669628,93.0853474 475.927007,93 C476.0128,93 476.098593,93 476.27018,93 C476.699145,93 477.042317,93 477.471282,93 L478.24342,93 C478.24342,93 478.24342,93 478.24342,93 C478.329213,93 478.500799,93 478.586592,93 C478.843971,93 479.187143,93 479.444523,93 C480.130867,93 480.817212,93.0853474 481.503556,93.1706949 C481.760935,93.1706949 482.104107,93.2560423 482.361487,93.2560423 C482.44728,93.2560423 482.533073,93.2560423 482.704659,93.2560423 C482.704659,93.2560423 482.704659,93.2560423 482.704659,93.2560423 C482.876245,93.2560423 483.047831,93.3413897 483.30521,93.3413897 C483.476796,93.3413897 483.648382,93.4267372 483.819968,93.4267372 C484.077348,93.5120846 484.42052,93.5120846 484.763692,93.597432 C485.021071,93.6827795 485.27845,93.6827795 485.53583,93.7681269 C485.621623,93.7681269 485.621623,93.7681269 485.707416,93.7681269 C485.793209,93.7681269 485.964795,93.8534743 486.050588,93.8534743 C486.222174,93.8534743 486.39376,93.9388218 486.565346,93.9388218 C486.822725,93.9388218 486.994312,94.0241692 487.251691,94.1095166 C487.251691,94.1095166 487.251691,94.1095166 487.337484,94.1095166 C487.337484,94.1095166 487.337484,94.1095166 487.337484,94.1095166 C487.594863,94.194864 487.852242,94.2802115 488.195414,94.2802115 C488.538586,94.3655589 488.881759,94.4509063 489.224931,94.5362538 C489.396517,94.6216012 489.568103,94.6216012 489.739689,94.7069486 L490.683413,95.0483384 C491.369757,95.3043807 492.141895,95.560423 492.828239,95.8164653 C493.085618,95.9018127 493.342998,95.9871601 493.600377,96.0725076 C493.771963,96.157855 493.943549,96.157855 494.115135,96.2432024 C494.372514,96.3285498 494.715686,96.4992447 494.973066,96.5845921 C495.144652,96.6699396 495.230445,96.755287 495.402031,96.755287 C495.573617,96.8406344 495.745203,96.9259819 496.002582,97.0113293 C496.002582,97.0113293 496.002582,97.0113293 496.002582,97.0113293 C496.002582,97.0113293 496.002582,97.0113293 496.088375,97.0113293 C496.431548,97.1820242 496.688927,97.2673716 496.946306,97.4380665 C497.289478,97.6087613 497.546857,97.7794562 497.804236,97.8648036 C497.89003,97.9501511 498.061616,98.0354985 498.147409,98.0354985 C499.176925,98.5475831 500.206442,99.1450151 501.150166,99.8277946 C501.321752,99.9984894 501.579131,100.083837 501.83651,100.254532 C502.008096,100.339879 502.093889,100.425227 502.265475,100.510574 C502.522855,100.681269 502.866027,100.937311 503.123406,101.108006 C503.466578,101.364048 503.80975,101.534743 504.06713,101.790785 C504.324509,101.96148 504.496095,102.132175 504.753474,102.30287 C505.010853,102.473565 505.268232,102.729607 505.525611,102.98565 C505.611404,103.070997 505.782991,103.156344 505.954577,103.327039 C506.211956,103.583082 506.469335,103.753776 506.726714,104.009819 C506.984093,104.265861 507.241473,104.436556 507.498852,104.692598 L703.793362,288.10423 C712.887426,296.638973 716.748114,307.819486 714.260115,317.549094 L660.21049,526.73565 L655.491872,535.782477 C651.373805,540.561934 645.025119,543.719789 637.389537,544.402568 L631.212437,545 L666.044418,410.06571 C668.532416,400.336103 664.671729,389.155589 655.577665,380.620846 L459.283155,197.209215 C458.768396,196.782477 458.253638,196.270393 457.73888,195.843656 C457.653087,195.758308 457.4815,195.587613 457.309914,195.502266 C456.795156,195.075529 456.280398,194.648792 455.679846,194.222054 C455.079295,193.795317 454.564537,193.36858 453.963985,193.02719 C453.792399,192.941843 453.706606,192.856495 453.53502,192.771148 C452.934469,192.429758 452.41971,192.003021 451.819159,191.661631 C451.819159,191.661631 451.819159,191.661631 451.819159,191.661631 C451.218607,191.320242 450.618056,190.978852 450.017505,190.637462 C449.845919,190.552115 449.674332,190.466767 449.588539,190.38142 C448.987988,190.04003 448.387437,189.783988 447.786885,189.442598 C447.786885,189.442598 447.786885,189.442598 447.786885,189.442598 C447.186334,189.101208 446.499989,188.845166 445.899438,188.589124 C445.727852,188.503776 445.556266,188.418429 445.38468,188.418429 C444.784128,188.162387 444.097784,187.906344 443.497232,187.650302 C443.497232,187.650302 443.497232,187.650302 443.497232,187.650302 C442.810888,187.39426 442.210337,187.223565 441.523992,186.967523 C441.352406,186.882175 441.18082,186.882175 441.009234,186.796828 C440.408682,186.626133 439.722338,186.455438 439.121787,186.284743 C439.121787,186.284743 439.121787,186.284743 439.121787,186.284743 C438.435442,186.114048 437.834891,186.028701 437.148546,185.858006 C436.97696,185.858006 436.805374,185.772659 436.633788,185.772659 C435.947444,185.687311 435.346892,185.516616 434.660548,185.431269 C434.660548,185.431269 434.660548,185.431269 434.660548,185.431269 C433.974203,185.345921 433.373652,185.260574 432.687308,185.260574 C432.515721,185.260574 432.344135,185.260574 432.172549,185.175227 C431.486205,185.175227 430.885653,185.089879 430.199309,185.089879 C430.199309,185.089879 430.199309,185.089879 430.199309,185.089879 C429.512964,185.089879 428.912413,185.089879 428.226069,185.089879 C428.054483,185.089879 427.882896,185.089879 427.71131,185.089879 C427.024966,185.089879 426.424414,185.175227 425.73807,185.260574 L182,210.011329 L201.046058,136.185801 C201.38923,134.820242 201.903989,133.454683 202.50454,132.174471" id="Shape" fill="#FFFFFF" fill-rule="nonzero" opacity="0.07"></path>
                        <path d="M90.1516616,124.757895 C185.211183,-18.3268401 414.517678,-41.8183638 602.583229,72.3931531 C790.563218,186.60467 865.94345,395.2094 770.883929,538.294135 C675.824408,681.37887 446.261226,704.78497 258.281237,590.573453 C70.3012486,476.276513 -4.90785941,267.757206 90.1516616,124.757895 Z M702.690915,288.429747 L507.010335,104.854168 C497.94075,96.3117954 485.106431,91.7843381 473.555544,92.9802702 L224.227512,118.436539 C215.500175,119.290777 208.398518,123.391115 204.377099,129.4562 C203.008105,131.420945 202.066921,133.641962 201.467986,136.11925 L147.64941,345.065675 C145.168108,354.803979 149.27509,366.079911 158.344675,374.622283 L353.854131,558.112439 C363.094841,566.740235 375.758035,571.182268 387.308922,570.07176 L636.636955,544.615491 C645.449853,543.846677 652.380386,539.746339 656.401805,533.766678 C657.770799,531.716509 658.797545,529.410068 659.39648,527.018204 L713.215057,318.071779 C715.696358,308.248051 711.7605,296.972119 702.690915,288.429747 Z" id="Shape" fill="#FFFFFF" fill-rule="nonzero" opacity="0.15"></path>
                        <g id="Group" opacity="0.07" transform="translate(0.000000, 147.000000)" fill="#FFFFFF" fill-rule="nonzero">
                            <path d="M783.828821,369.329032 L735.8131,461.490463 C734.1869,464.565358 732.560699,467.554839 730.848908,470.629734 L778.864629,378.382889 C780.576419,375.393408 782.20262,372.403927 783.828821,369.329032 Z" id="Shape"></path>
                            <path d="M783.828821,369.329032 C781.945852,372.91641 779.977293,376.503787 777.837555,380.091164 C777.666376,380.432819 777.495197,380.68906 777.324017,381.030715 C776.382533,382.653576 775.355459,384.276438 774.413974,385.899299 C774.242795,386.240954 773.986026,386.497195 773.814847,386.83885 C772.787773,388.461711 771.675109,390.169986 770.648035,391.792847 C769.70655,393.244881 768.679476,394.696914 767.737991,396.063534 C767.481223,396.405189 767.224454,396.832258 766.967686,397.173913 C766.11179,398.455119 765.170306,399.650912 764.31441,400.932118 C764.228821,401.102945 764.057642,401.273773 763.972052,401.4446 C762.944978,402.81122 761.917904,404.17784 760.89083,405.54446 C760.634061,405.886115 760.377293,406.22777 760.120524,406.569425 C759.264629,407.679804 758.323144,408.875596 757.467249,409.985975 C757.29607,410.242216 757.039301,410.498457 756.868122,410.754698 C755.755459,412.035905 754.728384,413.402525 753.615721,414.683731 C753.358952,415.025386 753.102183,415.281627 752.845415,415.623282 C751.90393,416.733661 751.048035,417.758626 750.10655,418.78359 C749.849782,419.039832 749.593013,419.381487 749.336245,419.637728 C748.223581,420.918934 747.025328,422.114727 745.912664,423.395933 C745.655895,423.652174 745.399127,423.908415 745.227948,424.164656 C744.286463,425.189621 743.259389,426.214586 742.317904,427.239551 C742.061135,427.581206 741.718777,427.837447 741.462009,428.179102 C740.263755,429.374895 739.065502,430.570687 737.867249,431.76648 C737.69607,431.937307 737.524891,432.108135 737.353712,432.278962 C736.326638,433.303927 735.213974,434.328892 734.10131,435.353857 C733.758952,435.695512 733.416594,435.951753 733.159825,436.293408 C731.875983,437.489201 730.677729,438.599579 729.393886,439.795372 C729.308297,439.880785 729.308297,439.880785 729.222707,439.880785 C728.024454,440.991164 726.740611,442.101543 725.456769,443.126508 C725.11441,443.382749 724.772052,443.724404 724.429694,443.980645 C723.231441,445.00561 722.033188,445.945161 720.834934,446.970126 C720.663755,447.05554 720.578166,447.226367 720.406987,447.311781 C719.123144,448.42216 717.753712,449.447125 716.384279,450.47209 C716.041921,450.728331 715.699563,450.984572 715.357205,451.326227 C714.244541,452.180365 713.046288,453.119916 711.933624,453.974053 C711.676856,454.144881 711.420087,454.315708 711.248908,454.486536 C709.879476,455.511501 708.510044,456.536466 707.140611,457.476017 C706.798253,457.732258 706.455895,457.988499 706.113537,458.244741 C705.000873,459.098878 703.80262,459.867602 702.689956,460.636325 C702.347598,460.892567 702.09083,461.063394 701.748472,461.319635 C700.379039,462.259187 698.924017,463.198738 697.468996,464.138289 C697.126638,464.309116 696.869869,464.565358 696.527511,464.736185 C695.329258,465.504909 694.131004,466.273633 692.932751,467.042356 C692.590393,467.298597 692.248035,467.469425 691.820087,467.725666 C690.365066,468.665217 688.910044,469.519355 687.455022,470.373492 C687.198253,470.54432 686.941485,470.629734 686.770306,470.800561 C685.486463,471.569285 684.20262,472.338008 682.918777,473.021318 C682.49083,473.27756 682.148472,473.448387 681.720524,473.704628 C680.179913,474.558766 678.724891,475.412903 677.184279,476.267041 C677.09869,476.352454 677.0131,476.352454 676.841921,476.437868 C675.3869,477.206592 673.931878,477.975316 672.476856,478.744039 C672.048908,478.914867 671.620961,479.171108 671.278603,479.341935 C669.823581,480.110659 668.368559,480.793969 666.913537,481.562693 C666.827948,481.648107 666.656769,481.648107 666.571179,481.73352 C665.030568,482.502244 663.404367,483.270968 661.863755,484.039691 C661.435808,484.210519 661.00786,484.46676 660.579913,484.637588 C659.21048,485.235484 657.841048,485.918794 656.471616,486.51669 C656.214847,486.602104 655.958079,486.772931 655.70131,486.858345 C654.075109,487.541655 652.534498,488.224965 650.908297,488.908275 C650.480349,489.079102 650.137991,489.24993 649.710044,489.420757 C648.340611,490.018654 646.971179,490.531136 645.687336,491.043619 C645.344978,491.214446 645.00262,491.29986 644.660262,491.470687 C643.034061,492.153997 641.40786,492.751893 639.781659,493.34979 C639.439301,493.520617 639.011354,493.606031 638.668996,493.776858 C637.299563,494.289341 635.930131,494.801823 634.560699,495.314306 C634.132751,495.485133 633.790393,495.570547 633.362445,495.741374 C631.650655,496.339271 630.024454,496.937167 628.312664,497.449649 C628.055895,497.535063 627.713537,497.620477 627.456769,497.705891 C626.001747,498.218373 624.546725,498.645442 623.091703,499.157924 C622.663755,499.328752 622.235808,499.414165 621.722271,499.584993 C620.01048,500.097475 618.29869,500.609958 616.5869,501.12244 C616.415721,501.207854 616.244541,501.207854 616.073362,501.293268 C614.532751,501.720337 612.90655,502.232819 611.280349,502.659888 C610.852402,502.830715 610.338865,502.916129 609.910917,503.001543 C608.199127,503.428612 606.572926,503.941094 604.861135,504.368163 C604.775546,504.368163 604.689956,504.368163 604.604367,504.453576 C602.806987,504.880645 601.095197,505.307714 599.297817,505.734783 C598.869869,505.820196 598.356332,505.991024 597.928384,506.076438 C596.387773,506.418093 594.847162,506.759748 593.30655,507.101403 C593.049782,507.186816 592.793013,507.186816 592.536245,507.27223 C590.738865,507.699299 588.941485,508.040954 587.229694,508.382609 C586.801747,508.468022 586.28821,508.553436 585.860262,508.63885 C584.319651,508.980505 582.864629,509.236746 581.324017,509.492987 C580.981659,509.578401 580.553712,509.663815 580.211354,509.663815 C578.413974,510.00547 576.616594,510.347125 574.819214,510.603366 C574.391266,510.68878 573.963319,510.774194 573.535371,510.774194 C571.99476,511.030435 570.539738,511.286676 568.999127,511.457504 C568.571179,511.542917 568.143231,511.628331 567.715284,511.628331 C565.917904,511.884572 564.034934,512.140813 562.237555,512.397055 C561.895197,512.482468 561.552838,512.482468 561.21048,512.567882 C559.669869,512.73871 558.129258,512.994951 556.503057,513.165778 C555.98952,513.251192 555.561572,513.251192 555.048035,513.336606 C553.165066,513.592847 551.367686,513.763675 549.484716,513.934502 C549.227948,513.934502 549.056769,514.019916 548.8,514.019916 C547.08821,514.190743 545.462009,514.361571 543.750218,514.446985 C543.236681,514.532398 542.723144,514.532398 542.209607,514.617812 C540.326638,514.78864 538.443668,514.959467 536.560699,515.044881 C536.560699,515.044881 536.560699,515.044881 536.475109,515.044881 C534.59214,515.215708 532.70917,515.301122 530.740611,515.386536 C530.227074,515.386536 529.713537,515.47195 529.2,515.47195 C527.48821,515.557363 525.862009,515.642777 524.150218,515.728191 C523.89345,515.728191 523.636681,515.728191 523.379913,515.728191 C521.496943,515.813604 519.528384,515.813604 517.645415,515.899018 C517.131878,515.899018 516.618341,515.899018 516.190393,515.899018 C514.564192,515.899018 512.937991,515.984432 511.39738,515.984432 C511.055022,515.984432 510.627074,515.984432 510.284716,515.984432 C508.401747,515.984432 506.433188,515.984432 504.550218,515.984432 C504.122271,515.984432 503.608734,515.984432 503.180786,515.984432 C501.554585,515.984432 500.013974,515.899018 498.387773,515.899018 C497.959825,515.899018 497.446288,515.899018 497.018341,515.899018 C495.049782,515.813604 493.166812,515.813604 491.198253,515.728191 C490.770306,515.728191 490.427948,515.728191 490,515.642777 C488.373799,515.557363 486.747598,515.47195 485.121397,515.386536 C484.60786,515.386536 484.094323,515.301122 483.666376,515.301122 C481.697817,515.215708 479.729258,515.044881 477.846288,514.959467 C477.58952,514.959467 477.332751,514.959467 476.990393,514.874053 C475.278603,514.78864 473.566812,514.617812 471.855022,514.446985 C471.341485,514.361571 470.827948,514.361571 470.31441,514.276157 C468.345852,514.10533 466.377293,513.934502 464.408734,513.763675 C464.323144,513.763675 464.323144,513.763675 464.237555,513.763675 C462.354585,513.592847 460.386026,513.336606 458.503057,513.165778 C457.98952,513.080365 457.475983,513.080365 456.962445,512.994951 C455.165066,512.824123 453.367686,512.567882 451.570306,512.311641 C451.399127,512.311641 451.142358,512.226227 450.971179,512.226227 C449.00262,511.969986 447.034061,511.713745 445.065502,511.37209 C444.551965,511.286676 444.038428,511.201262 443.524891,511.115849 C441.8131,510.859607 440.1869,510.603366 438.475109,510.347125 C438.132751,510.261711 437.790393,510.261711 437.362445,510.176297 C435.393886,509.834642 433.425328,509.492987 431.456769,509.151332 C430.943231,509.065919 430.515284,508.980505 430.001747,508.895091 C428.375546,508.63885 426.749345,508.297195 425.123144,507.95554 C424.695197,507.870126 424.181659,507.784712 423.753712,507.699299 C421.785153,507.357644 419.816594,506.930575 417.848035,506.503506 C417.248908,506.332679 416.564192,506.247265 415.965066,506.076438 C415.023581,505.90561 414.082096,505.649369 413.140611,505.478541 C412.455895,505.307714 411.771179,505.136886 411.086463,505.051473 C410.144978,504.880645 409.203493,504.624404 408.347598,504.453576 C407.662882,504.282749 406.892576,504.111921 406.20786,503.941094 C405.266376,503.770266 404.41048,503.514025 403.468996,503.257784 C402.784279,503.086957 402.013974,502.916129 401.329258,502.745302 C400.387773,502.48906 399.531878,502.318233 398.590393,502.061992 C397.905677,501.891164 397.135371,501.720337 396.450655,501.549509 C395.50917,501.293268 394.653275,501.037027 393.71179,500.866199 C393.027074,500.695372 392.342358,500.524544 391.572052,500.353717 C390.630568,500.097475 389.689083,499.841234 388.747598,499.584993 C388.062882,499.414165 387.378166,499.243338 386.69345,498.987097 C385.751965,498.730856 384.724891,498.474614 383.783406,498.132959 C383.184279,497.962132 382.499563,497.791304 381.900437,497.620477 C380.787773,497.278822 379.760699,497.022581 378.648035,496.680926 C378.134498,496.510098 377.535371,496.339271 377.021834,496.168443 C375.481223,495.741374 373.940611,495.228892 372.4,494.801823 C372.31441,494.801823 372.228821,494.71641 372.143231,494.71641 C370.517031,494.203927 368.89083,493.691445 367.264629,493.178962 C366.751092,493.008135 366.237555,492.837307 365.638428,492.66648 C364.525764,492.324825 363.49869,491.98317 362.386026,491.641515 C361.7869,491.470687 361.102183,491.214446 360.503057,490.958205 C359.561572,490.61655 358.534498,490.274895 357.593013,489.93324 C356.908297,489.676999 356.223581,489.506171 355.538865,489.24993 C354.59738,488.908275 353.655895,488.56662 352.71441,488.224965 C352.029694,487.968724 351.344978,487.712482 350.660262,487.456241 C349.718777,487.114586 348.862882,486.772931 347.921397,486.431276 C347.236681,486.175035 346.551965,485.918794 345.781659,485.662553 C344.840175,485.320898 343.984279,484.979243 343.042795,484.637588 C342.358079,484.381346 341.673362,484.125105 340.903057,483.868864 C339.961572,483.527209 339.105677,483.185554 338.164192,482.843899 C337.479476,482.587658 336.79476,482.331417 336.110044,481.989762 C335.168559,481.648107 334.227074,481.221038 333.371179,480.879383 C332.686463,480.623142 332.001747,480.3669 331.317031,480.025245 C330.375546,479.598177 329.434061,479.256522 328.492576,478.829453 C327.80786,478.573212 327.208734,478.316971 326.524017,477.975316 C325.496943,477.548247 324.555459,477.121178 323.528384,476.694109 C322.929258,476.437868 322.330131,476.181627 321.731004,475.925386 C320.532751,475.412903 319.334498,474.900421 318.136245,474.387938 C317.708297,474.217111 317.280349,474.046283 316.937991,473.875456 C315.31179,473.192146 313.771179,472.423422 312.144978,471.740112 C311.717031,471.569285 311.374672,471.398457 310.946725,471.22763 C309.748472,470.715147 308.550218,470.117251 307.351965,469.604769 C306.752838,469.348527 306.153712,469.092286 305.554585,468.750631 C304.527511,468.238149 303.586026,467.81108 302.558952,467.298597 C301.874236,466.956942 301.275109,466.700701 300.590393,466.359046 C299.648908,465.931978 298.707424,465.419495 297.765939,464.992426 C297.081223,464.650771 296.396507,464.309116 295.71179,463.967461 C294.770306,463.540393 293.91441,463.02791 292.972926,462.600842 C292.28821,462.259187 291.603493,461.917532 290.918777,461.575877 C290.062882,461.148808 289.121397,460.636325 288.265502,460.209257 C287.580786,459.867602 286.89607,459.525947 286.211354,459.098878 C285.355459,458.671809 284.413974,458.159327 283.558079,457.732258 C282.873362,457.390603 282.188646,456.963534 281.50393,456.621879 C280.648035,456.109397 279.70655,455.682328 278.850655,455.169846 C278.165939,454.828191 277.481223,454.401122 276.796507,454.059467 C275.855022,453.546985 274.999127,453.034502 274.057642,452.52202 C273.372926,452.180365 272.773799,451.753296 272.089083,451.411641 C271.147598,450.899158 270.206114,450.301262 269.264629,449.78878 C268.665502,449.447125 268.066376,449.10547 267.467249,448.763815 C266.440175,448.165919 265.4131,447.568022 264.386026,446.970126 C263.872489,446.713885 263.358952,446.37223 262.845415,446.115989 C261.304803,445.176438 259.764192,444.236886 258.223581,443.382749 C79.3414847,335.676017 2.48209607,142.384712 76.3458515,0.683309958 L28.330131,92.8447405 C-45.5336245,234.546143 31.3257642,427.752034 209.779913,536.142076 C211.320524,537.081627 212.861135,538.021178 214.401747,538.875316 C214.915284,539.131557 215.428821,539.473212 215.942358,539.729453 C216.969432,540.327349 217.996507,540.925245 219.023581,541.523142 C219.622707,541.864797 220.221834,542.206452 220.820961,542.548107 C221.762445,543.060589 222.70393,543.658485 223.645415,544.170968 C224.330131,544.512623 224.929258,544.939691 225.613974,545.281346 C226.555459,545.793829 227.411354,546.306311 228.352838,546.818794 C229.037555,547.160449 229.722271,547.587518 230.406987,547.929173 C231.262882,548.441655 232.204367,548.868724 233.060262,549.381206 C233.744978,549.722861 234.429694,550.14993 235.11441,550.491585 C235.970306,551.004067 236.91179,551.431136 237.767686,551.858205 C238.452402,552.19986 239.137118,552.541515 239.821834,552.968583 C240.677729,553.395652 241.619214,553.908135 242.475109,554.335203 C243.159825,554.676858 243.844541,555.018513 244.529258,555.360168 C245.470742,555.787237 246.326638,556.299719 247.268122,556.726788 C247.952838,557.068443 248.637555,557.410098 249.322271,557.751753 C250.263755,558.178822 251.20524,558.691304 252.146725,559.118373 C252.831441,559.460028 253.430568,559.716269 254.115284,560.057924 C255.142358,560.570407 256.083843,560.997475 257.110917,561.509958 C257.710044,561.766199 258.223581,562.02244 258.822707,562.364095 C260.020961,562.961992 261.219214,563.474474 262.417467,564.07237 C262.759825,564.243198 263.187773,564.414025 263.530131,564.584853 C265.156332,565.268163 266.696943,566.036886 268.323144,566.720196 C268.751092,566.891024 269.09345,567.061851 269.521397,567.232679 C270.719651,567.745161 271.917904,568.257644 273.116157,568.770126 C273.715284,569.026367 274.31441,569.282609 274.913537,569.53885 C275.940611,569.965919 276.882096,570.392987 277.90917,570.820056 C278.593886,571.076297 279.193013,571.332539 279.877729,571.674194 C280.819214,572.101262 281.760699,572.442917 282.702183,572.869986 C283.3869,573.126227 284.071616,573.382468 284.756332,573.724123 C285.697817,574.065778 286.639301,574.492847 287.495197,574.834502 C288.179913,575.090743 288.864629,575.346985 289.549345,575.68864 C290.49083,576.030295 291.346725,576.37195 292.28821,576.713604 C292.972926,576.969846 293.657642,577.226087 294.427948,577.482328 C295.369432,577.823983 296.225328,578.165638 297.166812,578.507293 C297.851528,578.763534 298.536245,579.019776 299.30655,579.276017 C300.248035,579.617672 301.10393,579.959327 302.045415,580.300982 C302.730131,580.557223 303.414847,580.813464 304.099563,581.069705 C305.041048,581.41136 305.982533,581.753015 306.924017,582.09467 C307.608734,582.350912 308.29345,582.521739 308.892576,582.77798 C309.834061,583.119635 310.861135,583.46129 311.80262,583.802945 C312.401747,583.973773 313.086463,584.230014 313.68559,584.400842 C314.798253,584.742496 315.910917,585.084151 316.937991,585.51122 C317.451528,585.682048 317.965066,585.852875 318.478603,586.023703 C320.104803,586.536185 321.731004,587.048668 323.357205,587.56115 C323.442795,587.56115 323.528384,587.646564 323.613974,587.646564 C325.154585,588.159046 326.695197,588.586115 328.235808,589.013184 C328.749345,589.184011 329.262882,589.354839 329.862009,589.440252 C330.974672,589.781907 332.001747,590.038149 333.11441,590.379804 C333.713537,590.550631 334.398253,590.721459 334.99738,590.892286 C336.024454,591.148527 336.965939,591.490182 337.993013,591.746424 C338.677729,591.917251 339.362445,592.088079 340.047162,592.258906 C340.988646,592.515147 341.930131,592.771388 342.871616,593.02763 C343.556332,593.198457 344.241048,593.369285 344.925764,593.540112 C345.867249,593.796353 346.808734,594.052595 347.664629,594.223422 C348.349345,594.39425 349.119651,594.565077 349.804367,594.735905 C350.745852,594.992146 351.601747,595.162973 352.543231,595.419215 C353.227948,595.590042 353.998253,595.76087 354.682969,595.931697 C355.624454,596.187938 356.480349,596.358766 357.421834,596.615007 C358.10655,596.785835 358.791266,596.956662 359.561572,597.127489 C360.503057,597.298317 361.444541,597.554558 362.386026,597.725386 C363.070742,597.896213 363.755459,598.067041 364.440175,598.152454 C365.381659,598.323282 366.408734,598.579523 367.350218,598.750351 C367.863755,598.835764 368.377293,599.006592 368.89083,599.092006 C368.976419,599.092006 369.147598,599.177419 369.233188,599.177419 C371.201747,599.604488 373.170306,599.946143 375.138865,600.373212 C375.566812,600.458626 375.99476,600.544039 376.508297,600.629453 C378.134498,600.971108 379.760699,601.227349 381.472489,601.569004 C381.986026,601.654418 382.413974,601.739832 382.927511,601.825245 C384.89607,602.1669 386.864629,602.508555 388.833188,602.85021 C389.175546,602.935624 389.517904,602.935624 389.945852,603.021038 C391.657642,603.277279 393.283843,603.53352 394.995633,603.789762 C395.50917,603.875175 396.022707,603.960589 396.536245,604.046003 C398.504803,604.302244 400.473362,604.643899 402.441921,604.90014 C402.6131,604.90014 402.869869,604.985554 403.041048,604.985554 C404.838428,605.241795 406.635808,605.412623 408.433188,605.668864 C408.946725,605.754278 409.460262,605.754278 409.973799,605.839691 C411.942358,606.095933 413.825328,606.26676 415.793886,606.437588 C415.879476,606.437588 415.879476,606.437588 415.965066,606.437588 C417.933624,606.608415 419.902183,606.779243 421.870742,606.95007 C422.384279,607.035484 422.897817,607.035484 423.411354,607.120898 C425.123144,607.291725 426.834934,607.377139 428.632314,607.547966 C428.889083,607.547966 429.145852,607.547966 429.40262,607.63338 C431.371179,607.804208 433.339738,607.889621 435.222707,607.975035 C435.736245,607.975035 436.249782,608.060449 436.677729,608.060449 C438.30393,608.145863 439.930131,608.231276 441.556332,608.31669 C441.984279,608.31669 442.326638,608.31669 442.754585,608.402104 C444.723144,608.487518 446.606114,608.572931 448.574672,608.572931 C449.00262,608.572931 449.516157,608.572931 449.944105,608.572931 C451.570306,608.572931 453.110917,608.658345 454.737118,608.658345 C455.165066,608.658345 455.678603,608.658345 456.10655,608.658345 C457.98952,608.658345 459.958079,608.658345 461.841048,608.658345 C462.183406,608.658345 462.611354,608.658345 462.953712,608.658345 C464.579913,608.658345 466.206114,608.658345 467.832314,608.572931 C468.345852,608.572931 468.773799,608.572931 469.287336,608.572931 C471.170306,608.487518 473.138865,608.487518 475.021834,608.402104 C475.278603,608.402104 475.535371,608.402104 475.79214,608.402104 C477.50393,608.31669 479.215721,608.231276 480.841921,608.145863 C481.355459,608.145863 481.868996,608.060449 482.382533,608.060449 C484.265502,607.975035 486.234061,607.804208 488.117031,607.718794 C488.117031,607.718794 488.117031,607.718794 488.20262,607.718794 C490.08559,607.547966 491.968559,607.462553 493.851528,607.291725 C494.365066,607.291725 494.878603,607.206311 495.30655,607.206311 C497.018341,607.035484 498.644541,606.864656 500.356332,606.779243 C500.6131,606.779243 500.784279,606.693829 501.041048,606.693829 C502.924017,606.523001 504.806987,606.26676 506.604367,606.095933 C507.117904,606.010519 507.545852,606.010519 508.059389,605.925105 C509.6,605.754278 511.226201,605.58345 512.766812,605.327209 C513.10917,605.241795 513.451528,605.241795 513.793886,605.156381 C515.591266,604.90014 517.474236,604.643899 519.271616,604.387658 C519.699563,604.302244 520.127511,604.21683 520.555459,604.21683 C522.09607,603.960589 523.551092,603.704348 525.091703,603.53352 C525.519651,603.448107 525.947598,603.362693 526.375546,603.362693 C528.172926,603.021038 529.970306,602.764797 531.767686,602.423142 C532.110044,602.337728 532.537991,602.252314 532.880349,602.252314 C534.420961,601.996073 535.875983,601.654418 537.416594,601.398177 C537.844541,601.312763 538.358079,601.227349 538.786026,601.141935 C540.583406,600.800281 542.380786,600.373212 544.178166,600.031557 C544.434934,599.946143 544.691703,599.946143 544.948472,599.860729 C546.489083,599.519074 548.029694,599.177419 549.570306,598.750351 C549.998253,598.664937 550.51179,598.494109 550.939738,598.408696 C552.737118,597.981627 554.448908,597.554558 556.246288,597.127489 C556.331878,597.127489 556.417467,597.127489 556.503057,597.042076 C558.214847,596.615007 559.841048,596.187938 561.552838,595.675456 C561.980786,595.590042 562.494323,595.419215 562.922271,595.248387 C564.548472,594.821318 566.089083,594.308836 567.715284,593.881767 C567.886463,593.796353 568.057642,593.796353 568.228821,593.71094 C569.940611,593.198457 571.652402,592.685975 573.364192,592.173492 C573.79214,592.002665 574.220087,591.917251 574.733624,591.746424 C576.188646,591.319355 577.643668,590.806872 579.09869,590.29439 C579.355459,590.208976 579.697817,590.123562 580.040175,590.038149 C581.751965,589.440252 583.378166,588.92777 585.089956,588.329874 C585.517904,588.159046 585.860262,588.073633 586.28821,587.902805 C587.657642,587.390323 589.027074,586.87784 590.396507,586.365358 C590.738865,586.19453 591.166812,586.109116 591.50917,585.938289 C593.135371,585.340393 594.761572,584.657083 596.387773,584.059187 C596.730131,583.888359 597.072489,583.802945 597.414847,583.632118 C598.784279,583.119635 600.153712,582.521739 601.437555,582.009257 C601.865502,581.838429 602.20786,581.667602 602.635808,581.496774 C604.262009,580.813464 605.88821,580.130154 607.428821,579.446844 C607.68559,579.361431 607.942358,579.190603 608.199127,579.105189 C609.568559,578.507293 610.937991,577.823983 612.307424,577.226087 C612.735371,577.055259 613.163319,576.799018 613.591266,576.628191 C615.217467,575.859467 616.758079,575.090743 618.29869,574.32202 C618.384279,574.236606 618.555459,574.236606 618.641048,574.151192 C620.09607,573.467882 621.551092,572.699158 623.006114,571.930435 C623.434061,571.759607 623.862009,571.503366 624.204367,571.332539 C625.659389,570.563815 627.11441,569.795091 628.569432,569.026367 C628.655022,568.940954 628.740611,568.940954 628.91179,568.85554 C630.452402,568.001403 631.993013,567.147265 633.448035,566.293128 C633.875983,566.036886 634.218341,565.866059 634.646288,565.609818 C635.930131,564.841094 637.213974,564.157784 638.497817,563.38906 C638.754585,563.218233 639.011354,563.132819 639.268122,562.961992 C640.723144,562.107854 642.178166,561.168303 643.633188,560.314165 C643.975546,560.057924 644.317904,559.887097 644.745852,559.630856 C645.944105,558.862132 647.142358,558.093408 648.340611,557.324684 C648.682969,557.153857 648.939738,556.897616 649.282096,556.726788 C650.737118,555.787237 652.10655,554.847686 653.561572,553.908135 C653.90393,553.651893 654.160699,553.481066 654.503057,553.224825 C655.70131,552.456101 656.813974,551.601964 658.012227,550.83324 C658.354585,550.576999 658.696943,550.320757 659.039301,550.14993 C660.408734,549.124965 661.778166,548.185414 663.147598,547.160449 C663.404367,546.989621 663.661135,546.818794 663.917904,546.647966 C665.116157,545.793829 666.228821,544.854278 667.341485,544.00014 C667.683843,543.743899 668.026201,543.487658 668.368559,543.146003 C669.737991,542.121038 671.021834,541.010659 672.391266,539.985694 C672.562445,539.900281 672.648035,539.729453 672.819214,539.644039 C674.017467,538.619074 675.215721,537.679523 676.413974,536.654558 C676.756332,536.398317 677.09869,536.056662 677.441048,535.800421 C678.724891,534.690042 679.923144,533.665077 681.206987,532.554698 C681.292576,532.554698 681.292576,532.469285 681.378166,532.469285 C682.662009,531.358906 683.945852,530.163114 685.144105,528.967321 C685.486463,528.625666 685.828821,528.369425 686.08559,528.02777 C687.198253,527.002805 688.225328,525.97784 689.337991,524.952875 C689.50917,524.782048 689.680349,524.61122 689.851528,524.440393 C691.049782,523.2446 692.248035,522.048808 693.446288,520.853015 C693.788646,520.51136 694.045415,520.255119 694.387773,519.913464 C695.414847,518.888499 696.356332,517.863534 697.297817,516.838569 C697.554585,516.582328 697.811354,516.326087 697.982533,516.069846 C699.095197,514.78864 700.29345,513.592847 701.406114,512.311641 C701.662882,512.0554 701.919651,511.713745 702.176419,511.457504 C703.117904,510.432539 704.059389,509.32216 704.915284,508.297195 C705.172052,507.95554 705.428821,507.699299 705.68559,507.357644 C706.798253,506.076438 707.910917,504.709818 708.937991,503.428612 C709.10917,503.17237 709.365939,502.916129 709.537118,502.659888 C710.478603,501.549509 711.334498,500.43913 712.190393,499.243338 C712.447162,498.901683 712.70393,498.560028 712.960699,498.218373 C713.987773,496.851753 715.014847,495.485133 716.041921,494.118513 C716.127511,493.947686 716.29869,493.776858 716.384279,493.606031 C717.325764,492.410238 718.181659,491.129032 719.037555,489.847826 C719.294323,489.506171 719.551092,489.079102 719.80786,488.737447 C720.834934,487.285414 721.776419,485.918794 722.717904,484.46676 C723.830568,482.843899 724.857642,481.135624 725.884716,479.512763 C726.055895,479.171108 726.312664,478.914867 726.483843,478.573212 C727.510917,476.950351 728.452402,475.327489 729.393886,473.704628 C729.565066,473.362973 729.736245,473.106732 729.907424,472.765077 C730.249782,472.252595 730.59214,471.654698 730.848908,471.142216 L731.105677,470.715147 C732.731878,467.896494 734.358079,464.992426 735.89869,462.088359 L783.828821,369.329032 Z" id="Shape"></path>
                        </g>
                        <path d="M201.5,130.5 C201.6,130.357143 201.7,130.285714 201.7,130.142857 C201.7,130.071429 201.8,130.071429 201.8,130 L201.1,130.928571 C201.1,130.928571 201.1,131 201,131" id="Shape" fill="#FFFFFF" fill-rule="nonzero"></path>
                        <path d="M202.761919,131.577039 C202.847712,131.491692 202.847712,131.320997 202.933505,131.23565 C202.933505,131.23565 202.933505,131.150302 202.933505,131.150302 C202.933505,131.064955 203.019299,131.064955 203.019299,130.979607 C203.019299,130.979607 203.019299,130.979607 203.019299,130.979607 C203.019299,130.979607 203.019299,130.979607 203.019299,130.979607 L203.105092,130.808912 C203.105092,130.808912 203.190885,130.723565 203.190885,130.723565 C203.362471,130.382175 203.61985,129.955438 203.877229,129.614048 C207.909503,123.554381 215.030326,119.457704 223.781218,118.60423 L473.782181,93.1706949 C474.125353,93.1706949 474.382732,93.0853474 474.725905,93.0853474 C474.897491,93.0853474 474.983284,93.0853474 475.15487,93.0853474 C475.412249,93.0853474 475.669628,93.0853474 475.927007,93 C476.0128,93 476.098593,93 476.27018,93 C476.699145,93 477.042317,93 477.471282,93 L478.24342,93 C478.24342,93 478.24342,93 478.24342,93 C478.329213,93 478.500799,93 478.586592,93 C478.843971,93 479.187143,93 479.444523,93 C480.130867,93 480.817212,93.0853474 481.503556,93.1706949 C481.760935,93.1706949 482.104107,93.2560423 482.361487,93.2560423 C482.44728,93.2560423 482.533073,93.2560423 482.704659,93.2560423 C482.704659,93.2560423 482.704659,93.2560423 482.704659,93.2560423 C482.876245,93.2560423 483.047831,93.3413897 483.30521,93.3413897 C483.476796,93.3413897 483.648382,93.4267372 483.819968,93.4267372 C484.077348,93.5120846 484.42052,93.5120846 484.763692,93.597432 C485.021071,93.6827795 485.27845,93.6827795 485.53583,93.7681269 C485.621623,93.7681269 485.621623,93.7681269 485.707416,93.7681269 C485.793209,93.7681269 485.964795,93.8534743 486.050588,93.8534743 C486.222174,93.8534743 486.39376,93.9388218 486.565346,93.9388218 C486.822725,93.9388218 486.994312,94.0241692 487.251691,94.1095166 C487.251691,94.1095166 487.251691,94.1095166 487.337484,94.1095166 C487.337484,94.1095166 487.337484,94.1095166 487.337484,94.1095166 C487.594863,94.194864 487.852242,94.2802115 488.195414,94.2802115 C488.538586,94.3655589 488.881759,94.4509063 489.224931,94.5362538 C489.396517,94.6216012 489.568103,94.6216012 489.739689,94.7069486 L490.683413,95.0483384 C491.369757,95.3043807 492.141895,95.560423 492.828239,95.8164653 C493.085618,95.9018127 493.342998,95.9871601 493.600377,96.0725076 C493.771963,96.157855 493.943549,96.157855 494.115135,96.2432024 C494.372514,96.3285498 494.715686,96.4992447 494.973066,96.5845921 C495.144652,96.6699396 495.230445,96.755287 495.402031,96.755287 C495.573617,96.8406344 495.745203,96.9259819 496.002582,97.0113293 C496.002582,97.0113293 496.002582,97.0113293 496.002582,97.0113293 C496.002582,97.0113293 496.002582,97.0113293 496.088375,97.0113293 C496.431548,97.1820242 496.688927,97.2673716 496.946306,97.4380665 C497.289478,97.6087613 497.546857,97.7794562 497.804236,97.8648036 C497.89003,97.9501511 498.061616,98.0354985 498.147409,98.0354985 C499.176925,98.5475831 500.206442,99.1450151 501.150166,99.8277946 C501.321752,99.9984894 501.579131,100.083837 501.83651,100.254532 C502.008096,100.339879 502.093889,100.425227 502.265475,100.510574 C502.522855,100.681269 502.866027,100.937311 503.123406,101.108006 C503.466578,101.364048 503.80975,101.534743 504.06713,101.790785 C504.324509,101.96148 504.496095,102.132175 504.753474,102.30287 C505.010853,102.473565 505.268232,102.729607 505.525611,102.98565 C505.611404,103.070997 505.782991,103.156344 505.954577,103.327039 C506.211956,103.583082 506.469335,103.753776 506.726714,104.009819 C506.984093,104.265861 507.241473,104.436556 507.498852,104.692598 L703.793362,288.10423 C712.887426,296.638973 716.748114,307.819486 714.260115,317.549094 L660.21049,526.73565 L655.491872,535.782477 C651.373805,540.561934 645.025119,543.719789 637.389537,544.402568 L631.212437,545 L666.044418,410.06571 C668.532416,400.336103 664.671729,389.155589 655.577665,380.620846 L459.283155,197.209215 C458.768396,196.782477 458.253638,196.270393 457.73888,195.843656 C457.653087,195.758308 457.4815,195.587613 457.309914,195.502266 C456.795156,195.075529 456.280398,194.648792 455.679846,194.222054 C455.079295,193.795317 454.564537,193.36858 453.963985,193.02719 C453.792399,192.941843 453.706606,192.856495 453.53502,192.771148 C452.934469,192.429758 452.41971,192.003021 451.819159,191.661631 C451.819159,191.661631 451.819159,191.661631 451.819159,191.661631 C451.218607,191.320242 450.618056,190.978852 450.017505,190.637462 C449.845919,190.552115 449.674332,190.466767 449.588539,190.38142 C448.987988,190.04003 448.387437,189.783988 447.786885,189.442598 C447.786885,189.442598 447.786885,189.442598 447.786885,189.442598 C447.186334,189.101208 446.499989,188.845166 445.899438,188.589124 C445.727852,188.503776 445.556266,188.418429 445.38468,188.418429 C444.784128,188.162387 444.097784,187.906344 443.497232,187.650302 C443.497232,187.650302 443.497232,187.650302 443.497232,187.650302 C442.810888,187.39426 442.210337,187.223565 441.523992,186.967523 C441.352406,186.882175 441.18082,186.882175 441.009234,186.796828 C440.408682,186.626133 439.722338,186.455438 439.121787,186.284743 C439.121787,186.284743 439.121787,186.284743 439.121787,186.284743 C438.435442,186.114048 437.834891,186.028701 437.148546,185.858006 C436.97696,185.858006 436.805374,185.772659 436.633788,185.772659 C435.947444,185.687311 435.346892,185.516616 434.660548,185.431269 C434.660548,185.431269 434.660548,185.431269 434.660548,185.431269 C433.974203,185.345921 433.373652,185.260574 432.687308,185.260574 C432.515721,185.260574 432.344135,185.260574 432.172549,185.175227 C431.486205,185.175227 430.885653,185.089879 430.199309,185.089879 C430.199309,185.089879 430.199309,185.089879 430.199309,185.089879 C429.512964,185.089879 428.912413,185.089879 428.226069,185.089879 C428.054483,185.089879 427.882896,185.089879 427.71131,185.089879 C427.024966,185.089879 426.424414,185.175227 425.73807,185.260574 L182,210.011329 L201.046058,136.185801 C201.38923,134.820242 201.903989,133.454683 202.50454,132.174471" id="Shape" stroke="#FFFFFF"></path>
                        <g id="Group" transform="translate(0.000000, 147.000000)">
                            <path d="M783.828821,369.329032 L735.8131,461.490463 C734.1869,464.565358 732.560699,467.554839 730.848908,470.629734 L778.864629,378.382889 C780.576419,375.393408 782.20262,372.403927 783.828821,369.329032 Z" id="Shape" fill="#FFFFFF" fill-rule="nonzero"></path>
                            <path d="M783.828821,369.329032 C781.945852,372.91641 779.977293,376.503787 777.837555,380.091164 C777.666376,380.432819 777.495197,380.68906 777.324017,381.030715 C776.382533,382.653576 775.355459,384.276438 774.413974,385.899299 C774.242795,386.240954 773.986026,386.497195 773.814847,386.83885 C772.787773,388.461711 771.675109,390.169986 770.648035,391.792847 C769.70655,393.244881 768.679476,394.696914 767.737991,396.063534 C767.481223,396.405189 767.224454,396.832258 766.967686,397.173913 C766.11179,398.455119 765.170306,399.650912 764.31441,400.932118 C764.228821,401.102945 764.057642,401.273773 763.972052,401.4446 C762.944978,402.81122 761.917904,404.17784 760.89083,405.54446 C760.634061,405.886115 760.377293,406.22777 760.120524,406.569425 C759.264629,407.679804 758.323144,408.875596 757.467249,409.985975 C757.29607,410.242216 757.039301,410.498457 756.868122,410.754698 C755.755459,412.035905 754.728384,413.402525 753.615721,414.683731 C753.358952,415.025386 753.102183,415.281627 752.845415,415.623282 C751.90393,416.733661 751.048035,417.758626 750.10655,418.78359 C749.849782,419.039832 749.593013,419.381487 749.336245,419.637728 C748.223581,420.918934 747.025328,422.114727 745.912664,423.395933 C745.655895,423.652174 745.399127,423.908415 745.227948,424.164656 C744.286463,425.189621 743.259389,426.214586 742.317904,427.239551 C742.061135,427.581206 741.718777,427.837447 741.462009,428.179102 C740.263755,429.374895 739.065502,430.570687 737.867249,431.76648 C737.69607,431.937307 737.524891,432.108135 737.353712,432.278962 C736.326638,433.303927 735.213974,434.328892 734.10131,435.353857 C733.758952,435.695512 733.416594,435.951753 733.159825,436.293408 C731.875983,437.489201 730.677729,438.599579 729.393886,439.795372 C729.308297,439.880785 729.308297,439.880785 729.222707,439.880785 C728.024454,440.991164 726.740611,442.101543 725.456769,443.126508 C725.11441,443.382749 724.772052,443.724404 724.429694,443.980645 C723.231441,445.00561 722.033188,445.945161 720.834934,446.970126 C720.663755,447.05554 720.578166,447.226367 720.406987,447.311781 C719.123144,448.42216 717.753712,449.447125 716.384279,450.47209 C716.041921,450.728331 715.699563,450.984572 715.357205,451.326227 C714.244541,452.180365 713.046288,453.119916 711.933624,453.974053 C711.676856,454.144881 711.420087,454.315708 711.248908,454.486536 C709.879476,455.511501 708.510044,456.536466 707.140611,457.476017 C706.798253,457.732258 706.455895,457.988499 706.113537,458.244741 C705.000873,459.098878 703.80262,459.867602 702.689956,460.636325 C702.347598,460.892567 702.09083,461.063394 701.748472,461.319635 C700.379039,462.259187 698.924017,463.198738 697.468996,464.138289 C697.126638,464.309116 696.869869,464.565358 696.527511,464.736185 C695.329258,465.504909 694.131004,466.273633 692.932751,467.042356 C692.590393,467.298597 692.248035,467.469425 691.820087,467.725666 C690.365066,468.665217 688.910044,469.519355 687.455022,470.373492 C687.198253,470.54432 686.941485,470.629734 686.770306,470.800561 C685.486463,471.569285 684.20262,472.338008 682.918777,473.021318 C682.49083,473.27756 682.148472,473.448387 681.720524,473.704628 C680.179913,474.558766 678.724891,475.412903 677.184279,476.267041 C677.09869,476.352454 677.0131,476.352454 676.841921,476.437868 C675.3869,477.206592 673.931878,477.975316 672.476856,478.744039 C672.048908,478.914867 671.620961,479.171108 671.278603,479.341935 C669.823581,480.110659 668.368559,480.793969 666.913537,481.562693 C666.827948,481.648107 666.656769,481.648107 666.571179,481.73352 C665.030568,482.502244 663.404367,483.270968 661.863755,484.039691 C661.435808,484.210519 661.00786,484.46676 660.579913,484.637588 C659.21048,485.235484 657.841048,485.918794 656.471616,486.51669 C656.214847,486.602104 655.958079,486.772931 655.70131,486.858345 C654.075109,487.541655 652.534498,488.224965 650.908297,488.908275 C650.480349,489.079102 650.137991,489.24993 649.710044,489.420757 C648.340611,490.018654 646.971179,490.531136 645.687336,491.043619 C645.344978,491.214446 645.00262,491.29986 644.660262,491.470687 C643.034061,492.153997 641.40786,492.751893 639.781659,493.34979 C639.439301,493.520617 639.011354,493.606031 638.668996,493.776858 C637.299563,494.289341 635.930131,494.801823 634.560699,495.314306 C634.132751,495.485133 633.790393,495.570547 633.362445,495.741374 C631.650655,496.339271 630.024454,496.937167 628.312664,497.449649 C628.055895,497.535063 627.713537,497.620477 627.456769,497.705891 C626.001747,498.218373 624.546725,498.645442 623.091703,499.157924 C622.663755,499.328752 622.235808,499.414165 621.722271,499.584993 C620.01048,500.097475 618.29869,500.609958 616.5869,501.12244 C616.415721,501.207854 616.244541,501.207854 616.073362,501.293268 C614.532751,501.720337 612.90655,502.232819 611.280349,502.659888 C610.852402,502.830715 610.338865,502.916129 609.910917,503.001543 C608.199127,503.428612 606.572926,503.941094 604.861135,504.368163 C604.775546,504.368163 604.689956,504.368163 604.604367,504.453576 C602.806987,504.880645 601.095197,505.307714 599.297817,505.734783 C598.869869,505.820196 598.356332,505.991024 597.928384,506.076438 C596.387773,506.418093 594.847162,506.759748 593.30655,507.101403 C593.049782,507.186816 592.793013,507.186816 592.536245,507.27223 C590.738865,507.699299 588.941485,508.040954 587.229694,508.382609 C586.801747,508.468022 586.28821,508.553436 585.860262,508.63885 C584.319651,508.980505 582.864629,509.236746 581.324017,509.492987 C580.981659,509.578401 580.553712,509.663815 580.211354,509.663815 C578.413974,510.00547 576.616594,510.347125 574.819214,510.603366 C574.391266,510.68878 573.963319,510.774194 573.535371,510.774194 C571.99476,511.030435 570.539738,511.286676 568.999127,511.457504 C568.571179,511.542917 568.143231,511.628331 567.715284,511.628331 C565.917904,511.884572 564.034934,512.140813 562.237555,512.397055 C561.895197,512.482468 561.552838,512.482468 561.21048,512.567882 C559.669869,512.73871 558.129258,512.994951 556.503057,513.165778 C555.98952,513.251192 555.561572,513.251192 555.048035,513.336606 C553.165066,513.592847 551.367686,513.763675 549.484716,513.934502 C549.227948,513.934502 549.056769,514.019916 548.8,514.019916 C547.08821,514.190743 545.462009,514.361571 543.750218,514.446985 C543.236681,514.532398 542.723144,514.532398 542.209607,514.617812 C540.326638,514.78864 538.443668,514.959467 536.560699,515.044881 C536.560699,515.044881 536.560699,515.044881 536.475109,515.044881 C534.59214,515.215708 532.70917,515.301122 530.740611,515.386536 C530.227074,515.386536 529.713537,515.47195 529.2,515.47195 C527.48821,515.557363 525.862009,515.642777 524.150218,515.728191 C523.89345,515.728191 523.636681,515.728191 523.379913,515.728191 C521.496943,515.813604 519.528384,515.813604 517.645415,515.899018 C517.131878,515.899018 516.618341,515.899018 516.190393,515.899018 C514.564192,515.899018 512.937991,515.984432 511.39738,515.984432 C511.055022,515.984432 510.627074,515.984432 510.284716,515.984432 C508.401747,515.984432 506.433188,515.984432 504.550218,515.984432 C504.122271,515.984432 503.608734,515.984432 503.180786,515.984432 C501.554585,515.984432 500.013974,515.899018 498.387773,515.899018 C497.959825,515.899018 497.446288,515.899018 497.018341,515.899018 C495.049782,515.813604 493.166812,515.813604 491.198253,515.728191 C490.770306,515.728191 490.427948,515.728191 490,515.642777 C488.373799,515.557363 486.747598,515.47195 485.121397,515.386536 C484.60786,515.386536 484.094323,515.301122 483.666376,515.301122 C481.697817,515.215708 479.729258,515.044881 477.846288,514.959467 C477.58952,514.959467 477.332751,514.959467 476.990393,514.874053 C475.278603,514.78864 473.566812,514.617812 471.855022,514.446985 C471.341485,514.361571 470.827948,514.361571 470.31441,514.276157 C468.345852,514.10533 466.377293,513.934502 464.408734,513.763675 C464.323144,513.763675 464.323144,513.763675 464.237555,513.763675 C462.354585,513.592847 460.386026,513.336606 458.503057,513.165778 C457.98952,513.080365 457.475983,513.080365 456.962445,512.994951 C455.165066,512.824123 453.367686,512.567882 451.570306,512.311641 C451.399127,512.311641 451.142358,512.226227 450.971179,512.226227 C449.00262,511.969986 447.034061,511.713745 445.065502,511.37209 C444.551965,511.286676 444.038428,511.201262 443.524891,511.115849 C441.8131,510.859607 440.1869,510.603366 438.475109,510.347125 C438.132751,510.261711 437.790393,510.261711 437.362445,510.176297 C435.393886,509.834642 433.425328,509.492987 431.456769,509.151332 C430.943231,509.065919 430.515284,508.980505 430.001747,508.895091 C428.375546,508.63885 426.749345,508.297195 425.123144,507.95554 C424.695197,507.870126 424.181659,507.784712 423.753712,507.699299 C421.785153,507.357644 419.816594,506.930575 417.848035,506.503506 C417.248908,506.332679 416.564192,506.247265 415.965066,506.076438 C415.023581,505.90561 414.082096,505.649369 413.140611,505.478541 C412.455895,505.307714 411.771179,505.136886 411.086463,505.051473 C410.144978,504.880645 409.203493,504.624404 408.347598,504.453576 C407.662882,504.282749 406.892576,504.111921 406.20786,503.941094 C405.266376,503.770266 404.41048,503.514025 403.468996,503.257784 C402.784279,503.086957 402.013974,502.916129 401.329258,502.745302 C400.387773,502.48906 399.531878,502.318233 398.590393,502.061992 C397.905677,501.891164 397.135371,501.720337 396.450655,501.549509 C395.50917,501.293268 394.653275,501.037027 393.71179,500.866199 C393.027074,500.695372 392.342358,500.524544 391.572052,500.353717 C390.630568,500.097475 389.689083,499.841234 388.747598,499.584993 C388.062882,499.414165 387.378166,499.243338 386.69345,498.987097 C385.751965,498.730856 384.724891,498.474614 383.783406,498.132959 C383.184279,497.962132 382.499563,497.791304 381.900437,497.620477 C380.787773,497.278822 379.760699,497.022581 378.648035,496.680926 C378.134498,496.510098 377.535371,496.339271 377.021834,496.168443 C375.481223,495.741374 373.940611,495.228892 372.4,494.801823 C372.31441,494.801823 372.228821,494.71641 372.143231,494.71641 C370.517031,494.203927 368.89083,493.691445 367.264629,493.178962 C366.751092,493.008135 366.237555,492.837307 365.638428,492.66648 C364.525764,492.324825 363.49869,491.98317 362.386026,491.641515 C361.7869,491.470687 361.102183,491.214446 360.503057,490.958205 C359.561572,490.61655 358.534498,490.274895 357.593013,489.93324 C356.908297,489.676999 356.223581,489.506171 355.538865,489.24993 C354.59738,488.908275 353.655895,488.56662 352.71441,488.224965 C352.029694,487.968724 351.344978,487.712482 350.660262,487.456241 C349.718777,487.114586 348.862882,486.772931 347.921397,486.431276 C347.236681,486.175035 346.551965,485.918794 345.781659,485.662553 C344.840175,485.320898 343.984279,484.979243 343.042795,484.637588 C342.358079,484.381346 341.673362,484.125105 340.903057,483.868864 C339.961572,483.527209 339.105677,483.185554 338.164192,482.843899 C337.479476,482.587658 336.79476,482.331417 336.110044,481.989762 C335.168559,481.648107 334.227074,481.221038 333.371179,480.879383 C332.686463,480.623142 332.001747,480.3669 331.317031,480.025245 C330.375546,479.598177 329.434061,479.256522 328.492576,478.829453 C327.80786,478.573212 327.208734,478.316971 326.524017,477.975316 C325.496943,477.548247 324.555459,477.121178 323.528384,476.694109 C322.929258,476.437868 322.330131,476.181627 321.731004,475.925386 C320.532751,475.412903 319.334498,474.900421 318.136245,474.387938 C317.708297,474.217111 317.280349,474.046283 316.937991,473.875456 C315.31179,473.192146 313.771179,472.423422 312.144978,471.740112 C311.717031,471.569285 311.374672,471.398457 310.946725,471.22763 C309.748472,470.715147 308.550218,470.117251 307.351965,469.604769 C306.752838,469.348527 306.153712,469.092286 305.554585,468.750631 C304.527511,468.238149 303.586026,467.81108 302.558952,467.298597 C301.874236,466.956942 301.275109,466.700701 300.590393,466.359046 C299.648908,465.931978 298.707424,465.419495 297.765939,464.992426 C297.081223,464.650771 296.396507,464.309116 295.71179,463.967461 C294.770306,463.540393 293.91441,463.02791 292.972926,462.600842 C292.28821,462.259187 291.603493,461.917532 290.918777,461.575877 C290.062882,461.148808 289.121397,460.636325 288.265502,460.209257 C287.580786,459.867602 286.89607,459.525947 286.211354,459.098878 C285.355459,458.671809 284.413974,458.159327 283.558079,457.732258 C282.873362,457.390603 282.188646,456.963534 281.50393,456.621879 C280.648035,456.109397 279.70655,455.682328 278.850655,455.169846 C278.165939,454.828191 277.481223,454.401122 276.796507,454.059467 C275.855022,453.546985 274.999127,453.034502 274.057642,452.52202 C273.372926,452.180365 272.773799,451.753296 272.089083,451.411641 C271.147598,450.899158 270.206114,450.301262 269.264629,449.78878 C268.665502,449.447125 268.066376,449.10547 267.467249,448.763815 C266.440175,448.165919 265.4131,447.568022 264.386026,446.970126 C263.872489,446.713885 263.358952,446.37223 262.845415,446.115989 C261.304803,445.176438 259.764192,444.236886 258.223581,443.382749 C79.3414847,335.676017 2.48209607,142.384712 76.3458515,0.683309958 L28.330131,92.8447405 C-45.5336245,234.546143 31.3257642,427.752034 209.779913,536.142076 C211.320524,537.081627 212.861135,538.021178 214.401747,538.875316 C214.915284,539.131557 215.428821,539.473212 215.942358,539.729453 C216.969432,540.327349 217.996507,540.925245 219.023581,541.523142 C219.622707,541.864797 220.221834,542.206452 220.820961,542.548107 C221.762445,543.060589 222.70393,543.658485 223.645415,544.170968 C224.330131,544.512623 224.929258,544.939691 225.613974,545.281346 C226.555459,545.793829 227.411354,546.306311 228.352838,546.818794 C229.037555,547.160449 229.722271,547.587518 230.406987,547.929173 C231.262882,548.441655 232.204367,548.868724 233.060262,549.381206 C233.744978,549.722861 234.429694,550.14993 235.11441,550.491585 C235.970306,551.004067 236.91179,551.431136 237.767686,551.858205 C238.452402,552.19986 239.137118,552.541515 239.821834,552.968583 C240.677729,553.395652 241.619214,553.908135 242.475109,554.335203 C243.159825,554.676858 243.844541,555.018513 244.529258,555.360168 C245.470742,555.787237 246.326638,556.299719 247.268122,556.726788 C247.952838,557.068443 248.637555,557.410098 249.322271,557.751753 C250.263755,558.178822 251.20524,558.691304 252.146725,559.118373 C252.831441,559.460028 253.430568,559.716269 254.115284,560.057924 C255.142358,560.570407 256.083843,560.997475 257.110917,561.509958 C257.710044,561.766199 258.223581,562.02244 258.822707,562.364095 C260.020961,562.961992 261.219214,563.474474 262.417467,564.07237 C262.759825,564.243198 263.187773,564.414025 263.530131,564.584853 C265.156332,565.268163 266.696943,566.036886 268.323144,566.720196 C268.751092,566.891024 269.09345,567.061851 269.521397,567.232679 C270.719651,567.745161 271.917904,568.257644 273.116157,568.770126 C273.715284,569.026367 274.31441,569.282609 274.913537,569.53885 C275.940611,569.965919 276.882096,570.392987 277.90917,570.820056 C278.593886,571.076297 279.193013,571.332539 279.877729,571.674194 C280.819214,572.101262 281.760699,572.442917 282.702183,572.869986 C283.3869,573.126227 284.071616,573.382468 284.756332,573.724123 C285.697817,574.065778 286.639301,574.492847 287.495197,574.834502 C288.179913,575.090743 288.864629,575.346985 289.549345,575.68864 C290.49083,576.030295 291.346725,576.37195 292.28821,576.713604 C292.972926,576.969846 293.657642,577.226087 294.427948,577.482328 C295.369432,577.823983 296.225328,578.165638 297.166812,578.507293 C297.851528,578.763534 298.536245,579.019776 299.30655,579.276017 C300.248035,579.617672 301.10393,579.959327 302.045415,580.300982 C302.730131,580.557223 303.414847,580.813464 304.099563,581.069705 C305.041048,581.41136 305.982533,581.753015 306.924017,582.09467 C307.608734,582.350912 308.29345,582.521739 308.892576,582.77798 C309.834061,583.119635 310.861135,583.46129 311.80262,583.802945 C312.401747,583.973773 313.086463,584.230014 313.68559,584.400842 C314.798253,584.742496 315.910917,585.084151 316.937991,585.51122 C317.451528,585.682048 317.965066,585.852875 318.478603,586.023703 C320.104803,586.536185 321.731004,587.048668 323.357205,587.56115 C323.442795,587.56115 323.528384,587.646564 323.613974,587.646564 C325.154585,588.159046 326.695197,588.586115 328.235808,589.013184 C328.749345,589.184011 329.262882,589.354839 329.862009,589.440252 C330.974672,589.781907 332.001747,590.038149 333.11441,590.379804 C333.713537,590.550631 334.398253,590.721459 334.99738,590.892286 C336.024454,591.148527 336.965939,591.490182 337.993013,591.746424 C338.677729,591.917251 339.362445,592.088079 340.047162,592.258906 C340.988646,592.515147 341.930131,592.771388 342.871616,593.02763 C343.556332,593.198457 344.241048,593.369285 344.925764,593.540112 C345.867249,593.796353 346.808734,594.052595 347.664629,594.223422 C348.349345,594.39425 349.119651,594.565077 349.804367,594.735905 C350.745852,594.992146 351.601747,595.162973 352.543231,595.419215 C353.227948,595.590042 353.998253,595.76087 354.682969,595.931697 C355.624454,596.187938 356.480349,596.358766 357.421834,596.615007 C358.10655,596.785835 358.791266,596.956662 359.561572,597.127489 C360.503057,597.298317 361.444541,597.554558 362.386026,597.725386 C363.070742,597.896213 363.755459,598.067041 364.440175,598.152454 C365.381659,598.323282 366.408734,598.579523 367.350218,598.750351 C367.863755,598.835764 368.377293,599.006592 368.89083,599.092006 C368.976419,599.092006 369.147598,599.177419 369.233188,599.177419 C371.201747,599.604488 373.170306,599.946143 375.138865,600.373212 C375.566812,600.458626 375.99476,600.544039 376.508297,600.629453 C378.134498,600.971108 379.760699,601.227349 381.472489,601.569004 C381.986026,601.654418 382.413974,601.739832 382.927511,601.825245 C384.89607,602.1669 386.864629,602.508555 388.833188,602.85021 C389.175546,602.935624 389.517904,602.935624 389.945852,603.021038 C391.657642,603.277279 393.283843,603.53352 394.995633,603.789762 C395.50917,603.875175 396.022707,603.960589 396.536245,604.046003 C398.504803,604.302244 400.473362,604.643899 402.441921,604.90014 C402.6131,604.90014 402.869869,604.985554 403.041048,604.985554 C404.838428,605.241795 406.635808,605.412623 408.433188,605.668864 C408.946725,605.754278 409.460262,605.754278 409.973799,605.839691 C411.942358,606.095933 413.825328,606.26676 415.793886,606.437588 C415.879476,606.437588 415.879476,606.437588 415.965066,606.437588 C417.933624,606.608415 419.902183,606.779243 421.870742,606.95007 C422.384279,607.035484 422.897817,607.035484 423.411354,607.120898 C425.123144,607.291725 426.834934,607.377139 428.632314,607.547966 C428.889083,607.547966 429.145852,607.547966 429.40262,607.63338 C431.371179,607.804208 433.339738,607.889621 435.222707,607.975035 C435.736245,607.975035 436.249782,608.060449 436.677729,608.060449 C438.30393,608.145863 439.930131,608.231276 441.556332,608.31669 C441.984279,608.31669 442.326638,608.31669 442.754585,608.402104 C444.723144,608.487518 446.606114,608.572931 448.574672,608.572931 C449.00262,608.572931 449.516157,608.572931 449.944105,608.572931 C451.570306,608.572931 453.110917,608.658345 454.737118,608.658345 C455.165066,608.658345 455.678603,608.658345 456.10655,608.658345 C457.98952,608.658345 459.958079,608.658345 461.841048,608.658345 C462.183406,608.658345 462.611354,608.658345 462.953712,608.658345 C464.579913,608.658345 466.206114,608.658345 467.832314,608.572931 C468.345852,608.572931 468.773799,608.572931 469.287336,608.572931 C471.170306,608.487518 473.138865,608.487518 475.021834,608.402104 C475.278603,608.402104 475.535371,608.402104 475.79214,608.402104 C477.50393,608.31669 479.215721,608.231276 480.841921,608.145863 C481.355459,608.145863 481.868996,608.060449 482.382533,608.060449 C484.265502,607.975035 486.234061,607.804208 488.117031,607.718794 C488.117031,607.718794 488.117031,607.718794 488.20262,607.718794 C490.08559,607.547966 491.968559,607.462553 493.851528,607.291725 C494.365066,607.291725 494.878603,607.206311 495.30655,607.206311 C497.018341,607.035484 498.644541,606.864656 500.356332,606.779243 C500.6131,606.779243 500.784279,606.693829 501.041048,606.693829 C502.924017,606.523001 504.806987,606.26676 506.604367,606.095933 C507.117904,606.010519 507.545852,606.010519 508.059389,605.925105 C509.6,605.754278 511.226201,605.58345 512.766812,605.327209 C513.10917,605.241795 513.451528,605.241795 513.793886,605.156381 C515.591266,604.90014 517.474236,604.643899 519.271616,604.387658 C519.699563,604.302244 520.127511,604.21683 520.555459,604.21683 C522.09607,603.960589 523.551092,603.704348 525.091703,603.53352 C525.519651,603.448107 525.947598,603.362693 526.375546,603.362693 C528.172926,603.021038 529.970306,602.764797 531.767686,602.423142 C532.110044,602.337728 532.537991,602.252314 532.880349,602.252314 C534.420961,601.996073 535.875983,601.654418 537.416594,601.398177 C537.844541,601.312763 538.358079,601.227349 538.786026,601.141935 C540.583406,600.800281 542.380786,600.373212 544.178166,600.031557 C544.434934,599.946143 544.691703,599.946143 544.948472,599.860729 C546.489083,599.519074 548.029694,599.177419 549.570306,598.750351 C549.998253,598.664937 550.51179,598.494109 550.939738,598.408696 C552.737118,597.981627 554.448908,597.554558 556.246288,597.127489 C556.331878,597.127489 556.417467,597.127489 556.503057,597.042076 C558.214847,596.615007 559.841048,596.187938 561.552838,595.675456 C561.980786,595.590042 562.494323,595.419215 562.922271,595.248387 C564.548472,594.821318 566.089083,594.308836 567.715284,593.881767 C567.886463,593.796353 568.057642,593.796353 568.228821,593.71094 C569.940611,593.198457 571.652402,592.685975 573.364192,592.173492 C573.79214,592.002665 574.220087,591.917251 574.733624,591.746424 C576.188646,591.319355 577.643668,590.806872 579.09869,590.29439 C579.355459,590.208976 579.697817,590.123562 580.040175,590.038149 C581.751965,589.440252 583.378166,588.92777 585.089956,588.329874 C585.517904,588.159046 585.860262,588.073633 586.28821,587.902805 C587.657642,587.390323 589.027074,586.87784 590.396507,586.365358 C590.738865,586.19453 591.166812,586.109116 591.50917,585.938289 C593.135371,585.340393 594.761572,584.657083 596.387773,584.059187 C596.730131,583.888359 597.072489,583.802945 597.414847,583.632118 C598.784279,583.119635 600.153712,582.521739 601.437555,582.009257 C601.865502,581.838429 602.20786,581.667602 602.635808,581.496774 C604.262009,580.813464 605.88821,580.130154 607.428821,579.446844 C607.68559,579.361431 607.942358,579.190603 608.199127,579.105189 C609.568559,578.507293 610.937991,577.823983 612.307424,577.226087 C612.735371,577.055259 613.163319,576.799018 613.591266,576.628191 C615.217467,575.859467 616.758079,575.090743 618.29869,574.32202 C618.384279,574.236606 618.555459,574.236606 618.641048,574.151192 C620.09607,573.467882 621.551092,572.699158 623.006114,571.930435 C623.434061,571.759607 623.862009,571.503366 624.204367,571.332539 C625.659389,570.563815 627.11441,569.795091 628.569432,569.026367 C628.655022,568.940954 628.740611,568.940954 628.91179,568.85554 C630.452402,568.001403 631.993013,567.147265 633.448035,566.293128 C633.875983,566.036886 634.218341,565.866059 634.646288,565.609818 C635.930131,564.841094 637.213974,564.157784 638.497817,563.38906 C638.754585,563.218233 639.011354,563.132819 639.268122,562.961992 C640.723144,562.107854 642.178166,561.168303 643.633188,560.314165 C643.975546,560.057924 644.317904,559.887097 644.745852,559.630856 C645.944105,558.862132 647.142358,558.093408 648.340611,557.324684 C648.682969,557.153857 648.939738,556.897616 649.282096,556.726788 C650.737118,555.787237 652.10655,554.847686 653.561572,553.908135 C653.90393,553.651893 654.160699,553.481066 654.503057,553.224825 C655.70131,552.456101 656.813974,551.601964 658.012227,550.83324 C658.354585,550.576999 658.696943,550.320757 659.039301,550.14993 C660.408734,549.124965 661.778166,548.185414 663.147598,547.160449 C663.404367,546.989621 663.661135,546.818794 663.917904,546.647966 C665.116157,545.793829 666.228821,544.854278 667.341485,544.00014 C667.683843,543.743899 668.026201,543.487658 668.368559,543.146003 C669.737991,542.121038 671.021834,541.010659 672.391266,539.985694 C672.562445,539.900281 672.648035,539.729453 672.819214,539.644039 C674.017467,538.619074 675.215721,537.679523 676.413974,536.654558 C676.756332,536.398317 677.09869,536.056662 677.441048,535.800421 C678.724891,534.690042 679.923144,533.665077 681.206987,532.554698 C681.292576,532.554698 681.292576,532.469285 681.378166,532.469285 C682.662009,531.358906 683.945852,530.163114 685.144105,528.967321 C685.486463,528.625666 685.828821,528.369425 686.08559,528.02777 C687.198253,527.002805 688.225328,525.97784 689.337991,524.952875 C689.50917,524.782048 689.680349,524.61122 689.851528,524.440393 C691.049782,523.2446 692.248035,522.048808 693.446288,520.853015 C693.788646,520.51136 694.045415,520.255119 694.387773,519.913464 C695.414847,518.888499 696.356332,517.863534 697.297817,516.838569 C697.554585,516.582328 697.811354,516.326087 697.982533,516.069846 C699.095197,514.78864 700.29345,513.592847 701.406114,512.311641 C701.662882,512.0554 701.919651,511.713745 702.176419,511.457504 C703.117904,510.432539 704.059389,509.32216 704.915284,508.297195 C705.172052,507.95554 705.428821,507.699299 705.68559,507.357644 C706.798253,506.076438 707.910917,504.709818 708.937991,503.428612 C709.10917,503.17237 709.365939,502.916129 709.537118,502.659888 C710.478603,501.549509 711.334498,500.43913 712.190393,499.243338 C712.447162,498.901683 712.70393,498.560028 712.960699,498.218373 C713.987773,496.851753 715.014847,495.485133 716.041921,494.118513 C716.127511,493.947686 716.29869,493.776858 716.384279,493.606031 C717.325764,492.410238 718.181659,491.129032 719.037555,489.847826 C719.294323,489.506171 719.551092,489.079102 719.80786,488.737447 C720.834934,487.285414 721.776419,485.918794 722.717904,484.46676 C723.830568,482.843899 724.857642,481.135624 725.884716,479.512763 C726.055895,479.171108 726.312664,478.914867 726.483843,478.573212 C727.510917,476.950351 728.452402,475.327489 729.393886,473.704628 C729.565066,473.362973 729.736245,473.106732 729.907424,472.765077 C730.249782,472.252595 730.59214,471.654698 730.848908,471.142216 L731.105677,470.715147 C732.731878,467.896494 734.358079,464.992426 735.89869,462.088359 L783.828821,369.329032 Z" id="Shape" stroke="#FFFFFF"></path>
                        </g>
                        <path d="M702.337729,288.565125 L506.63591,104.93652 C506.379196,104.680175 506.122482,104.42383 505.865767,104.252933 C505.609053,103.996588 505.352339,103.825691 505.095625,103.569346 C505.010053,103.483897 504.83891,103.313 504.667768,103.227552 C504.411053,102.971207 504.154339,102.80031 503.897625,102.543965 C503.640911,102.373068 503.469768,102.202171 503.213054,102.031274 C502.870768,101.774929 502.528482,101.518584 502.271768,101.347687 C502.015054,101.17679 501.672768,100.920445 501.416054,100.749548 C501.244911,100.6641 501.15934,100.578652 500.988197,100.493203 C500.817054,100.322306 500.56034,100.236858 500.303626,100.065961 C499.36234,99.4678225 498.335483,98.8696837 497.308626,98.2715449 C497.223055,98.1860966 497.051912,98.1006482 496.966341,98.1006482 C496.709626,97.9297514 496.367341,97.7588546 496.110626,97.6734062 C495.853912,97.5025094 495.511627,97.417061 495.254912,97.2461642 C495.254912,97.2461642 495.254912,97.2461642 495.169341,97.2461642 C494.998198,97.1607158 494.741484,97.0752674 494.570341,96.989819 C494.399198,96.9043706 494.228055,96.8189222 494.142484,96.8189222 C493.88577,96.6480254 493.543484,96.562577 493.28677,96.4771286 C493.115627,96.3916802 492.944484,96.3062318 492.773341,96.3062318 C492.516627,96.2207834 492.259913,96.135335 492.003199,96.0498866 C491.318627,95.7935414 490.548485,95.5371962 489.863913,95.2808511 L488.922628,94.9390575 C488.751485,94.8536091 488.580342,94.8536091 488.409199,94.7681607 C488.066914,94.6827123 487.724628,94.5972639 487.382342,94.5118155 C487.125628,94.4263671 486.783343,94.3409187 486.526628,94.3409187 C486.526628,94.3409187 486.526628,94.3409187 486.526628,94.3409187 C486.269914,94.2554703 486.0132,94.2554703 485.842057,94.1700219 C485.670914,94.1700219 485.499771,94.0845735 485.328629,94.0845735 C485.157486,94.0845735 484.986343,93.9991251 484.8152,93.9991251 C484.558486,93.9136767 484.301772,93.9136767 484.045057,93.8282283 C483.788343,93.7427799 483.446057,93.7427799 483.103772,93.6573315 C482.932629,93.6573315 482.761486,93.5718831 482.590343,93.5718831 C482.419201,93.5718831 482.248058,93.4864347 481.991343,93.4864347 C481.905772,93.4864347 481.734629,93.4864347 481.649058,93.4009863 C481.392344,93.4009863 481.050058,93.3155379 480.793344,93.3155379 C480.108772,93.2300895 479.424201,93.2300895 478.73963,93.1446411 C478.482916,93.1446411 478.14063,93.1446411 477.883916,93.1446411 C477.627201,93.1446411 477.284916,93.1446411 477.028202,93.1446411 L476.771487,93.1446411 C476.34363,93.1446411 476.001345,93.1446411 475.573488,93.1446411 C475.487916,93.1446411 475.402345,93.1446411 475.231202,93.1446411 C474.974488,93.1446411 474.717773,93.1446411 474.461059,93.2300895 C474.289916,93.2300895 474.204345,93.2300895 474.033202,93.2300895 C473.690917,93.2300895 473.434202,93.3155379 473.091917,93.3155379 L223.736823,118.77916 C215.008539,119.633644 207.906112,123.735167 203.884255,129.802003 C203.627541,130.143797 203.456398,130.485591 203.199684,130.912833 C203.114113,130.998281 203.114113,131.083729 203.028541,131.169178 C203.028541,131.169178 203.028541,131.169178 203.028541,131.169178 C203.028541,131.169178 203.028541,131.169178 203.028541,131.169178 C203.028541,131.254626 202.94297,131.254626 202.94297,131.340075 C202.94297,131.340075 202.94297,131.340075 202.94297,131.425523 C202.771827,131.681868 202.600684,132.023662 202.515113,132.365455 C202.515113,132.365455 202.515113,132.450904 202.429541,132.450904 C201.830541,133.73263 201.317113,135.014356 200.974827,136.466978 L181.977974,210.379842 L147.235981,345.473757 C144.75441,355.214874 148.861838,366.494063 157.932407,375.038902 L353.463083,558.582059 C362.704796,567.212347 375.369364,571.655664 386.921505,570.459386 L630.029886,545.679351 L636.191027,545.081212 C643.806883,544.397625 650.139168,541.236034 654.246595,536.450924 C654.845595,535.767337 655.444595,534.998301 655.958024,534.229266 C657.327166,532.178504 658.354023,529.871398 658.953023,527.478843 L712.777441,318.472064 C715.344583,308.389153 711.408298,297.109965 702.337729,288.565125 Z M602.219177,72.3806807 C414.133214,-41.863826 184.80183,-18.2800684 89.731992,124.845996 C84.8544215,132.194559 80.4902795,139.628569 76.4684232,147.318925 C76.4684232,147.318925 76.4684232,147.318925 76.4684232,147.318925 C75.8694233,148.429754 75.2704234,149.540583 74.7569949,150.651412 C74.3291379,151.505896 73.9012808,152.274932 73.5589952,153.129416 C73.4734238,153.214864 73.4734238,153.385761 73.3878524,153.471209 C73.2167095,153.813003 73.0455667,154.154797 72.8744239,154.49659 C72.7888525,154.667487 72.7032811,154.838384 72.6177096,155.00928 C72.1898526,155.863764 71.8475669,156.6328 71.4197099,157.487284 C70.9062814,158.598113 70.3928529,159.794391 69.8794245,160.90522 C69.8794245,160.90522 69.8794245,160.90522 69.8794245,160.90522 C69.365996,162.016049 68.9381389,163.04143 68.5102819,164.152259 C68.4247105,164.408604 68.3391391,164.579501 68.2535676,164.835846 C67.9968534,165.519433 67.6545678,166.20302 67.3978535,166.886608 C67.3122821,167.142953 67.1411393,167.484746 67.0555679,167.741092 C66.9699965,167.997437 66.8844251,168.253782 66.7132822,168.510127 C66.6277108,168.681024 66.6277108,168.851921 66.5421394,169.022818 C66.456568,169.364611 66.2854252,169.706405 66.1998538,170.048198 C66.0287109,170.560889 65.7719967,171.073579 65.6008539,171.671718 C65.2585682,172.526202 64.9162826,173.380686 64.5739969,174.23517 C64.4028541,174.74786 64.1461399,175.345999 63.9749971,175.858689 C63.6327114,176.713173 63.2904258,177.653106 63.0337115,178.50759 C62.6058545,179.703867 62.1779974,180.900145 61.8357118,182.096422 C61.4078547,183.2927 61.0655691,184.403529 60.7232834,185.599807 C60.7232834,185.685255 60.637712,185.770703 60.637712,185.856152 C60.2954264,186.966981 59.9531407,188.163258 59.6108551,189.274088 C59.6108551,189.274088 59.6108551,189.359536 59.6108551,189.359536 C59.2685694,190.555814 58.9262838,191.752091 58.5839981,192.86292 C58.3272839,193.888301 57.9849982,194.913682 57.728284,195.853614 C57.6427126,196.280856 57.4715698,196.708098 57.3859984,197.13534 C57.2148555,197.904376 56.9581413,198.673411 56.7869985,199.442447 C56.7014271,199.78424 56.6158556,200.126034 56.5302842,200.467828 C56.27357,201.493208 56.0168558,202.518589 55.7601415,203.54397 C55.7601415,203.629418 55.6745701,203.800315 55.6745701,203.885764 C55.4178559,204.911144 55.2467131,205.851077 54.9899988,206.876457 C54.9044274,207.132803 54.9044274,207.389148 54.818856,207.645493 C54.5621418,208.756322 54.3054275,209.867151 54.1342847,210.97798 C54.1342847,211.063429 54.0487133,211.148877 54.0487133,211.234326 C53.7919991,212.345155 53.6208562,213.541432 53.364142,214.652262 C53.1929992,215.763091 52.9362849,216.87392 52.7651421,217.984749 C52.7651421,218.155646 52.6795707,218.241094 52.6795707,218.411991 C52.5084279,219.52282 52.2517136,220.719098 52.0805708,221.829927 C51.9949994,222.000824 51.9949994,222.257169 51.9949994,222.513514 C51.8238566,223.538895 51.6527138,224.649724 51.4815709,225.675105 C51.3104281,226.700485 51.2248567,227.725866 51.0537139,228.836695 C50.9681425,229.862076 50.7969996,230.802009 50.7114282,231.827389 C50.7114282,231.912838 50.7114282,231.912838 50.7114282,231.998286 C50.7114282,232.083734 50.7114282,232.083734 50.7114282,232.169183 C50.6258568,232.767322 50.5402854,233.36546 50.5402854,233.878151 C50.454714,234.732635 50.3691426,235.672567 50.2835712,236.527051 C50.2835712,236.868845 50.1979998,237.296087 50.1979998,237.63788 C50.1979998,237.808777 50.1979998,237.894225 50.1124284,238.065122 C50.0268569,238.748709 50.0268569,239.432297 49.9412855,240.115884 C49.9412855,240.457677 49.8557141,240.799471 49.8557141,241.055816 C49.8557141,241.226713 49.8557141,241.39761 49.8557141,241.568507 C49.7701427,242.593887 49.6845713,243.619268 49.5989999,244.730097 C49.5134285,245.67003 49.4278571,246.609962 49.4278571,247.635343 C49.4278571,247.891688 49.4278571,248.062585 49.4278571,248.31893 C49.4278571,248.489827 49.4278571,248.660723 49.4278571,248.746172 C49.4278571,248.917069 49.4278571,249.002517 49.4278571,249.173414 C49.3422856,250.198795 49.3422856,251.309624 49.2567142,252.335005 C49.2567142,253.360385 49.1711428,254.471214 49.1711428,255.496595 C49.1711428,256.009286 49.1711428,256.607424 49.0855714,257.120115 C49.0855714,257.803702 49.0855714,258.487289 49,259.085428 C49,259.598118 49,260.02536 49,260.538051 C49,261.563431 49,262.588812 49,263.699641 C49,265.579506 49,267.459371 49.0855714,269.424684 C49.0855714,270.279168 49.1711428,271.133652 49.1711428,272.073584 C49.2567142,274.893381 49.3422856,277.713178 49.5134285,280.532976 C49.5989999,281.216563 49.5989999,281.814701 49.6845713,282.41284 C49.7701427,283.352773 49.7701427,284.207257 49.8557141,285.147189 C49.9412855,285.916225 49.9412855,286.68526 50.0268569,287.368847 C50.1979998,289.675954 50.454714,292.068509 50.7114282,294.375616 C50.7969996,295.144651 50.8825711,295.999135 50.9681425,296.768171 C50.9681425,297.024516 51.0537139,297.280861 51.0537139,297.537206 C51.1392853,298.135345 51.2248567,298.733484 51.3104281,299.331623 C51.3959995,299.929762 51.4815709,300.442452 51.5671424,301.040591 C51.6527138,301.63873 51.7382852,302.236868 51.8238566,302.749559 C51.909428,303.689491 52.0805708,304.629423 52.2517136,305.569356 C52.3372851,305.996598 52.3372851,306.338391 52.4228565,306.765633 C52.5084279,307.534669 52.6795707,308.303705 52.7651421,308.987292 C52.9362849,309.841776 53.0218564,310.69626 53.1929992,311.550744 C53.2785706,312.234331 53.4497134,312.917918 53.5352848,313.686954 C53.6208562,313.943299 53.6208562,314.199644 53.7064276,314.455989 C53.8775705,315.225025 53.9631419,316.079509 54.1342847,316.848544 C54.3909989,318.301167 54.7332846,319.75379 54.9899988,321.206412 C55.1611416,321.89 55.2467131,322.488138 55.4178559,323.086277 C55.5889987,323.940761 55.7601415,324.880694 56.0168558,325.735177 C56.1879986,326.333316 56.27357,327.016903 56.4447128,327.615042 C56.6158556,328.469526 56.7869985,329.32401 57.0437127,330.263943 C57.2148555,330.94753 57.3859984,331.545668 57.5571412,332.229256 C57.8994268,333.681878 58.2417125,335.049053 58.5839981,336.501675 C58.7551409,337.270711 58.9262838,338.039747 59.182998,338.808782 C59.2685694,339.065127 59.3541408,339.406921 59.4397122,339.663266 C59.6108551,340.51775 59.8675693,341.372234 60.1242835,342.14127 C60.4665692,343.422996 60.8088548,344.79017 61.2367119,346.071896 C61.6645689,347.524519 62.092426,349.06259 62.5202831,350.515213 C62.6914259,350.942455 62.7769973,351.369697 62.9481401,351.796939 C63.2048544,352.736871 63.54714,353.676803 63.8038542,354.616736 C63.8038542,354.702184 63.8894256,354.873081 63.8894256,354.958529 C64.2317113,355.98391 64.5739969,357.094739 64.9162826,358.12012 C65.3441396,359.316397 65.6864253,360.512675 66.1142824,361.708953 C66.2854252,362.39254 66.5421394,362.990679 66.7988536,363.588817 C67.5689964,365.810476 68.3391391,368.032134 69.1948532,370.253792 C69.5371388,371.108276 69.7938531,371.96276 70.1361387,372.817244 C70.4784244,373.757177 70.82071,374.697109 71.1629956,375.637041 C71.8475669,377.516906 72.6177096,379.311322 73.3878524,381.191187 C73.3878524,381.191187 73.3878524,381.191187 73.3878524,381.191187 C74.1579951,383.071052 74.9281378,384.865468 75.6982805,386.745333 C76.4684232,388.625198 77.2385659,390.419614 78.09428,392.299479 C78.9499941,394.179343 79.7201368,395.97376 80.5758509,397.853624 C81.6027079,400.160731 82.7151362,402.467838 83.8275646,404.689496 C84.4265645,405.800325 84.9399929,406.996603 85.5389928,408.107432 C85.7957071,408.620122 86.0524213,409.047364 86.3091355,409.560055 C86.9937068,410.927229 87.6782781,412.294404 88.3628494,413.661578 C91.3578488,419.472069 94.5239911,425.197111 97.9468475,430.922154 C98.3747046,431.69119 98.8881331,432.460225 99.3159901,433.229261 C100.000561,434.425538 100.770704,435.621816 101.455275,436.818093 C102.31099,438.185268 103.081132,439.466994 103.936846,440.834168 C104.621418,441.859549 105.220418,442.88493 105.904989,443.91031 C106.418417,444.679346 106.931846,445.53383 107.445274,446.302865 C109.242274,449.037214 111.039274,451.771563 112.921845,454.505912 C113.349702,455.10405 113.691987,455.702189 114.119844,456.300328 C115.66013,458.607435 117.285987,460.829093 118.911843,463.1362 C119.767558,464.332477 120.5377,465.443306 121.393414,466.639584 C121.821271,467.237723 122.163557,467.750413 122.591414,468.263103 C123.275985,469.203036 124.046128,470.142968 124.730699,471.082901 C125.671985,472.279178 126.527699,473.475456 127.468985,474.671733 C128.324699,475.697114 129.094841,476.807943 129.950556,477.833324 C129.950556,477.833324 129.950556,477.833324 129.950556,477.833324 C130.80627,478.858705 131.661984,479.969534 132.517698,480.994915 C133.373412,482.020295 134.229126,483.131125 135.08484,484.156505 C135.940554,485.181886 136.796268,486.292715 137.651983,487.318096 C138.507697,488.343477 139.363411,489.368858 140.304696,490.479687 C142.187267,492.701345 144.069838,494.923003 145.95241,497.059213 C147.663838,499.024526 149.460837,500.904391 151.172266,502.869704 C152.199123,503.980533 153.22598,505.091363 154.252836,506.202192 C155.108551,507.142124 155.964265,507.996608 156.819979,508.93654 C157.761264,509.961921 158.70255,510.987302 159.729407,511.927234 C160.670692,512.952615 161.697549,513.892547 162.638835,514.917928 C163.665692,515.943309 164.606977,516.883241 165.633834,517.908622 C166.660691,518.934003 167.601977,519.873935 168.628834,520.899316 C169.655691,521.924697 170.682548,522.864629 171.709404,523.804561 C174.875547,526.880704 178.12726,529.871398 181.378974,532.862092 C182.063545,533.545679 182.833688,534.143817 183.518259,534.827405 C187.026687,537.988995 190.535115,541.065138 194.214686,544.14128 C195.0704,544.910315 196.011685,545.679351 196.952971,546.362938 C203.713112,552.002532 210.729968,557.556678 217.917967,562.939927 C219.030395,563.794411 220.228395,564.648895 221.340823,565.503379 C222.538823,566.357863 223.736823,567.212347 224.934823,568.152279 C226.132822,569.006763 227.330822,569.861247 228.528822,570.715731 C229.726822,571.570215 230.924821,572.424699 232.208393,573.279183 C233.406392,574.133667 234.689964,574.988151 235.887963,575.842635 C237.085963,576.697119 238.369534,577.551603 239.567534,578.320639 C240.765534,579.175123 242.049105,579.944158 243.332676,580.798642 C248.381389,584.13113 253.430103,587.29272 258.649959,590.454311 C259.93353,591.223347 261.217101,591.992382 262.586244,592.846866 C263.356386,593.274108 264.040958,593.70135 264.8111,594.128592 C265.4101,594.470386 266.0091,594.812179 266.6081,595.153973 C267.292671,595.581215 268.062814,596.008457 268.747385,596.435699 C268.832957,596.521147 269.0041,596.521147 269.089671,596.606596 C269.346385,596.777492 269.517528,596.862941 269.774242,597.033838 C270.629956,597.546528 271.571242,598.059218 272.426956,598.571909 C272.512528,598.657357 272.598099,598.657357 272.68367,598.742806 C273.28267,599.084599 273.967242,599.426393 274.566241,599.768186 C276.106527,600.62267 277.732384,601.562603 279.272669,602.417087 C280.128383,602.929777 281.069669,603.357019 281.925383,603.869709 C282.695526,604.296951 283.55124,604.724193 284.321382,605.151435 C285.091525,605.578677 285.861668,605.920471 286.63181,606.347713 C289.797953,607.971232 292.964095,609.594752 296.130237,611.218271 C296.729237,611.474617 297.328237,611.81641 297.927237,612.072755 C299.553094,612.927239 301.264522,613.696275 302.890379,614.550759 C303.917236,615.063449 304.858521,615.490691 305.885378,616.003382 C306.484378,616.259727 307.083378,616.60152 307.682378,616.857866 C308.880378,617.456004 310.078377,617.968695 311.276377,618.481385 C311.704234,618.652282 312.04652,618.823179 312.474377,618.994076 C313.24452,619.335869 314.100234,619.763111 314.870376,620.104905 C315.383805,620.36125 315.897233,620.532147 316.410662,620.788492 C317.095233,621.130286 317.779804,621.386631 318.464376,621.728424 C319.747947,622.326563 321.117089,622.924702 322.400661,623.437392 C322.486232,623.437392 322.571803,623.522841 322.657375,623.522841 C323.769803,624.035531 324.79666,624.462773 325.909088,624.890015 C326.080231,624.975463 326.336946,625.060912 326.508088,625.14636 C328.219517,625.915396 329.930945,626.598983 331.642373,627.28257 C332.326944,627.538915 333.011516,627.79526 333.696087,628.137054 C334.637372,628.478848 335.578658,628.90609 336.434372,629.247883 C337.118943,629.504228 337.803515,629.760574 338.573657,630.102367 C339.514943,630.444161 340.370657,630.785954 341.311943,631.127748 C341.996514,631.384093 342.681085,631.640438 343.451228,631.896784 C344.306942,632.238577 345.248228,632.580371 346.103942,632.922164 C347.301941,633.349406 348.499941,633.776648 349.697941,634.20389 C350.468084,634.460235 351.323798,634.802029 352.09394,635.058374 C352.436226,635.229271 352.778512,635.314719 353.120797,635.400168 C354.062083,635.741961 355.003368,636.083755 355.944654,636.425549 C358.426225,637.280033 360.993367,638.134517 363.474938,638.989 C364.758509,639.416242 366.127652,639.843484 367.411223,640.270726 C369.208223,640.868865 370.919651,641.381556 372.716651,641.894246 C374.000222,642.321488 375.369364,642.663282 376.652936,643.090524 C378.022078,643.517766 379.305649,643.859559 380.589221,644.286801 C381.102649,644.457698 381.616077,644.628595 382.129506,644.714043 C382.814077,644.88494 383.413077,645.055837 384.012077,645.226733 C386.579219,645.995769 389.231933,646.679356 391.799075,647.362943 C392.483647,647.53384 393.168218,647.704737 393.938361,647.875634 C394.879646,648.131979 395.73536,648.388324 396.676646,648.559221 C397.361217,648.730118 398.13136,648.901015 398.815931,649.071911 C399.757217,649.328256 400.612931,649.499153 401.554216,649.755498 C402.238788,649.926395 403.00893,650.097292 403.693502,650.268189 C404.634787,650.439086 405.490501,650.695431 406.431787,650.951776 C407.116358,651.122673 407.886501,651.29357 408.571072,651.464466 C410.2825,651.891708 411.993929,652.233502 413.705357,652.575296 C414.561071,652.746192 415.416785,652.917089 416.272499,653.087986 C416.871499,653.258883 417.55607,653.344331 418.15507,653.515228 C418.582927,653.600676 419.096356,653.686125 419.524213,653.771573 C419.609784,653.771573 419.609784,653.771573 419.695356,653.771573 C420.379927,653.94247 421.15007,654.027918 421.834641,654.198815 C422.604784,654.369712 423.374926,654.45516 424.059498,654.626057 C424.487355,654.711506 424.915212,654.796954 425.42864,654.882402 C427.054497,655.224196 428.680354,655.480541 430.306211,655.736886 C430.819639,655.822335 431.247496,655.907783 431.760925,655.993231 C433.729067,656.335025 435.69721,656.676819 437.665352,657.018612 C438.007638,657.104061 438.435495,657.104061 438.777781,657.189509 C440.489209,657.445854 442.115066,657.702199 443.826494,657.958545 C444.339922,658.043993 444.853351,658.129441 445.366779,658.21489 C446.992636,658.471235 448.704064,658.72758 450.329921,658.898477 C450.501064,658.898477 450.672207,658.983925 450.84335,658.983925 C451.185635,659.069374 451.527921,659.069374 451.870207,659.154822 C453.667206,659.411167 455.464206,659.582064 457.261205,659.838409 C457.346777,659.838409 457.432348,659.838409 457.51792,659.838409 C458.887062,660.009306 460.256205,660.180203 461.710919,660.3511 C462.737776,660.436548 463.764633,660.607445 464.79149,660.692893 C464.877061,660.692893 464.877061,660.692893 464.877061,660.692893 C465.818347,660.778342 466.759632,660.86379 467.700918,660.949238 C468.727775,661.034687 469.66906,661.120135 470.695917,661.205584 C471.209346,661.205584 471.722774,661.291032 472.236203,661.37648 C473.091917,661.461929 473.947631,661.547377 474.803345,661.547377 C474.974488,661.547377 475.231202,661.547377 475.487916,661.632826 C476.172487,661.718274 476.771487,661.718274 477.456059,661.803722 C477.712773,661.803722 477.969487,661.889171 478.311773,661.889171 C479.253058,661.974619 480.279915,662.060068 481.221201,662.060068 C481.306772,662.060068 481.477915,662.060068 481.563486,662.060068 C482.932629,662.145516 484.301772,662.230964 485.585343,662.316413 C487.2112,662.401861 488.837056,662.48731 490.462913,662.572758 C490.976342,662.572758 491.404199,662.658206 491.917627,662.658206 C492.773341,662.658206 493.629055,662.743655 494.570341,662.743655 C495.511627,662.743655 496.538483,662.829103 497.479769,662.829103 C497.907626,662.829103 498.335483,662.829103 498.848912,662.829103 C499.619054,662.829103 500.474768,662.829103 501.244911,662.914552 C503.812053,663 506.379196,663 508.946338,663 C510.315481,663 511.684623,663 513.053766,663 C513.481623,663 513.90948,663 514.337337,663 C515.535337,663 516.733337,663 517.931336,662.914552 C518.444765,662.914552 519.043765,662.914552 519.557193,662.829103 C520.669622,662.829103 521.78205,662.743655 522.894478,662.743655 C523.664621,662.743655 524.434764,662.658206 525.204906,662.658206 C525.547192,662.658206 525.889478,662.658206 526.231763,662.572758 C527.344192,662.48731 528.45662,662.48731 529.65462,662.401861 C530.168048,662.401861 530.767048,662.316413 531.280477,662.316413 C533.505333,662.230964 535.73019,662.060068 537.869475,661.889171 C538.554047,661.889171 539.153047,661.803722 539.837618,661.718274 C540.778903,661.632826 541.720189,661.547377 542.661474,661.461929 C543.174903,661.37648 543.688331,661.37648 544.20176,661.37648 C544.20176,661.37648 544.20176,661.37648 544.287331,661.37648 C544.629617,661.37648 544.886331,661.291032 545.228617,661.291032 C546.512188,661.205584 547.710188,661.034687 548.993759,660.949238 C549.07933,660.949238 549.164902,660.949238 549.250473,660.949238 C549.507187,660.949238 549.67833,660.86379 549.935044,660.86379 C551.047473,660.778342 552.159901,660.607445 553.357901,660.521996 C554.128044,660.436548 554.812615,660.3511 555.582758,660.265651 C556.096186,660.180203 556.524043,660.180203 557.037472,660.094755 C558.577757,659.923858 560.118042,659.752961 561.658328,659.496616 C562.257328,659.411167 562.770756,659.325719 563.369756,659.240271 C564.054327,659.154822 564.738899,659.069374 565.509041,658.898477 C565.509041,658.898477 565.509041,658.898477 565.509041,658.898477 C565.509041,658.898477 565.509041,658.898477 565.509041,658.898477 C566.450327,658.813029 567.306041,658.642132 568.247327,658.471235 C568.675184,658.385787 569.103041,658.300338 569.530898,658.300338 C570.044326,658.21489 570.472183,658.129441 570.90004,658.043993 C571.327897,657.958545 571.755754,657.958545 572.183611,657.873096 C573.210468,657.702199 574.237325,657.531303 575.264182,657.360406 C576.205468,657.189509 577.061182,657.018612 578.002467,656.933164 C578.858182,656.762267 579.799467,656.59137 580.655181,656.420473 C581.083038,656.335025 581.510895,656.249577 581.938752,656.164128 C582.623324,655.993231 583.393466,655.907783 584.078038,655.736886 C585.276037,655.480541 586.474037,655.224196 587.672037,654.967851 C589.383465,654.626057 591.180465,654.198815 592.891893,653.857022 C592.977465,653.857022 593.148607,653.771573 593.234179,653.771573 C594.004321,653.600676 594.774464,653.42978 595.630178,653.258883 C596.571464,653.087986 597.512749,652.831641 598.454035,652.575296 C599.39532,652.31895 600.422177,652.148054 601.363463,651.891708 C601.705749,651.80626 602.133606,651.720812 602.561463,651.635363 C603.074891,651.549915 603.58832,651.379018 604.016177,651.29357 C604.444034,651.208121 604.786319,651.122673 605.214176,651.037224 C605.556462,650.951776 605.813176,650.866328 606.155462,650.780879 C606.326605,650.695431 606.497748,650.695431 606.66889,650.609982 C607.952462,650.268189 609.236033,649.926395 610.519604,649.584602 C610.605175,649.584602 610.605175,649.584602 610.690747,649.499153 C611.118604,649.413705 611.460889,649.242808 611.888747,649.15736 C613.172318,648.815566 614.370317,648.473773 615.653889,648.131979 C616.167317,647.961082 616.595174,647.875634 617.108603,647.704737 C617.108603,647.704737 617.194174,647.704737 617.194174,647.704737 C618.221031,647.362943 619.333459,647.02115 620.360316,646.764805 C620.445888,646.764805 620.617031,646.679356 620.702602,646.679356 C621.472745,646.423011 622.328459,646.166666 623.098601,645.910321 C623.355316,645.824872 623.526459,645.739424 623.783173,645.653975 C624.039887,645.568527 624.296601,645.483079 624.553315,645.39763 C625.751315,645.055837 626.863744,644.628595 627.976172,644.286801 C628.831886,644.030456 629.6876,643.688662 630.543314,643.432317 C630.971171,643.26142 631.4846,643.090524 631.912457,642.919627 C632.597028,642.74873 633.196028,642.492385 633.795028,642.23604 C634.222885,642.065143 634.650742,641.894246 635.078599,641.808798 C636.447742,641.296107 637.816884,640.783417 639.186027,640.270726 C639.528313,640.09983 639.870598,640.014381 640.212884,639.928933 C641.068598,639.587139 641.924312,639.245346 642.780026,638.903552 C643.550169,638.647207 644.23474,638.305413 645.004883,638.049068 C645.518311,637.878171 645.946168,637.707275 646.374025,637.450929 C647.657597,636.938239 649.026739,636.425549 650.31031,635.82741 C650.738167,635.656513 651.080453,635.485616 651.50831,635.314719 C652.278453,634.972926 653.134167,634.631132 653.90431,634.289339 C654.674452,633.947545 655.530167,633.605751 656.300309,633.263958 C656.557023,633.178509 656.813738,633.007613 657.070452,632.922164 C657.755023,632.580371 658.439595,632.324026 659.124166,631.982232 C659.808737,631.640438 660.493308,631.384093 661.17788,631.0423 C662.547022,630.444161 663.830593,629.760574 665.199736,629.162435 C666.483307,628.564296 667.85245,627.880709 669.136021,627.28257 C669.307164,627.197122 669.563878,627.111673 669.735021,626.940777 C670.761878,626.428086 671.788735,625.915396 672.73002,625.402705 C672.815592,625.317257 672.986735,625.231809 673.072306,625.231809 C673.500163,625.060912 673.92802,624.804567 674.355877,624.548221 C675.382734,624.035531 676.409591,623.437392 677.436448,622.924702 C678.463305,622.412011 679.490162,621.813873 680.431447,621.301182 C680.944876,621.044837 681.458304,620.703044 682.057304,620.446698 C682.570733,620.190353 682.99859,619.934008 683.512018,619.677663 C684.196589,619.335869 684.795589,618.908627 685.480161,618.566834 C685.822446,618.395937 686.079161,618.22504 686.421446,618.054143 C686.849303,617.797798 687.362732,617.541453 687.790589,617.285108 C688.47516,616.857866 689.159731,616.430624 689.844303,616.003382 C690.956731,615.319795 692.069159,614.636207 693.096016,613.95262 C693.267159,613.867172 693.438302,613.781723 693.609445,613.610827 C694.807445,612.841791 696.005444,612.072755 697.203444,611.30372 C697.374587,611.218271 697.54573,611.132823 697.631301,611.047375 C697.802444,610.961926 697.973587,610.876478 698.059158,610.705581 C698.914872,610.107442 699.856158,609.509304 700.711872,608.911165 C700.797443,608.911165 700.797443,608.825716 700.797443,608.825716 C701.8243,608.142129 702.851157,607.458542 703.792443,606.774955 C703.792443,606.774955 703.792443,606.774955 703.792443,606.774955 C704.733728,606.091368 705.675014,605.493229 706.616299,604.809642 C707.044156,604.553297 707.472013,604.211503 707.899871,603.869709 C708.242156,603.613364 708.670013,603.357019 709.09787,603.015225 C709.953584,602.331638 710.89487,601.733499 711.750584,601.049912 C713.119727,600.024531 714.574441,598.913702 715.943583,597.888322 C716.97044,597.119286 717.997297,596.264802 719.024154,595.495766 C719.195297,595.410318 719.280868,595.239421 719.452011,595.153973 C719.794297,594.897628 720.136582,594.641282 720.478868,594.384937 C720.821154,594.128592 721.163439,593.872247 721.420154,593.615902 C721.591296,593.530453 721.676868,593.359557 721.848011,593.274108 C721.848011,593.274108 721.848011,593.274108 721.848011,593.274108 C722.275868,592.932315 722.789296,592.505073 723.217153,592.163279 C723.816153,591.650589 724.415153,591.137898 725.014153,590.625208 C725.356439,590.368863 725.613153,590.112517 725.955438,589.856172 C726.212153,589.599827 726.468867,589.42893 726.725581,589.172585 C726.811153,589.087137 726.896724,589.087137 726.896724,589.001688 C727.581295,588.40355 728.180295,587.890859 728.864866,587.29272 C729.036009,587.121824 729.207152,586.950927 729.378295,586.865478 C729.549438,586.694582 729.720581,586.523685 729.891723,586.352788 C730.91858,585.498304 731.859866,584.558372 732.801151,583.703888 C733.057866,583.447542 733.400151,583.191197 733.656865,582.934852 C734.341437,582.251265 735.111579,581.567678 735.796151,580.884091 C736.309579,580.456849 736.737436,580.029607 737.165293,579.516916 C737.764293,578.918777 738.448865,578.320639 739.047864,577.637052 C739.39015,577.295258 739.818007,576.953464 740.160293,576.526222 C741.101578,575.58629 741.957292,574.731806 742.813007,573.791874 C743.925435,572.681044 744.952292,571.570215 745.979149,570.459386 C746.920434,569.434005 747.86172,568.494073 748.717434,567.468692 C748.888577,567.297795 749.05972,567.126899 749.230862,566.956002 C749.316434,566.870553 749.402005,566.785105 749.487577,566.699657 C749.915434,566.272415 750.257719,565.845173 750.685576,565.332482 C750.771148,565.247034 750.942291,565.076137 751.027862,564.990689 C751.027862,564.990689 751.027862,564.990689 751.027862,564.90524 C751.113433,564.819792 751.199005,564.734344 751.284576,564.648895 C751.798005,564.050756 752.311433,563.452618 752.824862,562.854479 C753.167147,562.512685 753.509433,562.085443 753.766147,561.74365 C754.108433,561.401856 754.450719,560.974614 754.707433,560.632821 C754.878576,560.461924 755.049718,560.205579 755.220861,559.949233 C755.991004,559.094749 756.675575,558.154817 757.360147,557.300333 C757.702432,556.958539 757.959146,556.531297 758.301432,556.189504 C758.301432,556.189504 758.387003,556.104055 758.387003,556.104055 C758.986003,555.33502 759.585003,554.565984 760.184003,553.796949 C760.269575,553.626052 760.355146,553.540604 760.526289,553.369707 C760.61186,553.284258 760.697432,553.19881 760.783003,553.027913 C761.553146,552.002532 762.323288,550.977152 763.093431,550.037219 C763.264574,549.866323 763.435717,549.609977 763.60686,549.353632 C763.60686,549.353632 763.60686,549.268184 763.692431,549.268184 C764.120288,548.755493 764.462574,548.157355 764.890431,547.644664 C765.318288,547.046525 765.746145,546.448387 766.259573,545.850248 C766.430716,545.593903 766.601859,545.337557 766.773002,545.081212 C767.115287,544.65397 767.457573,544.14128 767.714287,543.714038 C768.056573,543.286796 768.313287,542.859554 768.570001,542.51776 C768.826716,542.090518 769.169001,541.748725 769.425716,541.321483 C770.110287,540.296102 770.794858,539.35617 771.479429,538.330789 C772.078429,537.476305 772.591858,536.621821 773.190858,535.681889 C773.704286,534.912853 774.217715,534.143817 774.645572,533.374782 C775.330143,532.263953 776.014714,531.153124 776.699286,530.042294 C777.212714,529.273259 777.640571,528.418775 778.154,527.649739 C778.325142,527.307946 778.496285,527.051601 778.667428,526.709807 C779.009714,526.197117 779.351999,525.598978 779.608714,525.086287 C779.779856,524.829942 779.865428,524.659045 780.036571,524.4027 C780.122142,524.317252 780.122142,524.146355 780.207713,524.060907 C780.293285,523.975458 780.293285,523.89001 780.378856,523.719113 C780.464428,523.633665 780.464428,523.548216 780.464428,523.548216 C780.635571,523.291871 780.806713,522.950077 780.977856,522.693732 C781.148999,522.351939 781.320142,522.010145 781.576856,521.668352 C781.662427,521.497455 781.747999,521.412006 781.83357,521.24111 C781.919142,521.070213 782.004713,520.899316 782.090285,520.813868 C782.175856,520.642971 782.261427,520.557522 782.346999,520.386626 C782.43257,520.13028 782.603713,519.959384 782.689284,519.703038 C782.689284,519.61759 782.774856,519.61759 782.774856,519.532142 C782.945999,519.1049 783.202713,518.677658 783.459427,518.335864 C783.459427,518.335864 783.459427,518.335864 783.459427,518.250416 C783.459427,518.164967 783.544999,518.079519 783.544999,518.079519 C783.716141,517.737725 783.887284,517.48138 784.058427,517.139587 C857.992127,375.295248 781.063428,181.071042 602.219177,72.3806807 Z" id="Shape" stroke="#FFFFFF"></path>
                    </g>
                </g>
            </g>
        </g>
    </g>
</svg>
