<svg width="814" height="758" viewBox="0 0 814 758" xmlns="http://www.w3.org/2000/svg"><title>94A3D2C1-4C68-4D59-B124-649F6859CFF0</title><g fill="none" fill-rule="evenodd" opacity=".302"><path d="M203.762 132.577c.086-.085.086-.256.172-.341v-.086c0-.085.085-.085.085-.17l.086-.171.086-.085c.171-.342.429-.769.686-1.11 4.033-6.06 11.153-10.156 19.904-11.01l250.001-25.433c.343 0 .6-.086.944-.086h.429c.257 0 .515 0 .772-.085h3.518c.686 0 1.372.085 2.059.17.257 0 .6.086.857.086h.344c.171 0 .343.085.6.085.172 0 .343.086.515.086.257.085.6.085.944.17.257.086.514.086.772.171h.171c.086 0 .258.085.344.085.171 0 .343.086.514.086.258 0 .43.085.687.17h.085c.258.086.515.171.858.171l1.03.256c.172.086.343.086.515.17l.943.342c.687.256 1.459.512 2.145.768l.772.257c.172.085.344.085.515.17.258.086.6.256.858.342.172.085.257.17.429.17.172.086.343.171.6.256h.086c.344.171.6.256.858.427.343.17.6.341.858.427.086.085.258.17.343.17 1.03.513 2.06 1.11 3.003 1.793.172.17.43.256.687.427.171.085.257.17.428.256.258.17.601.426.858.597.344.256.687.427.944.683.258.17.43.341.686.512.258.17.515.427.773.683.085.085.257.17.429.341.257.256.514.427.772.683.257.256.514.427.772.683l196.294 183.411c9.094 8.535 12.955 19.715 10.467 29.445l-54.05 209.187-4.718 9.046c-4.118 4.78-10.467 7.938-18.102 8.62l-6.178.598 34.832-134.934c2.488-9.73-1.372-20.91-10.466-29.445L460.283 198.209c-.515-.427-1.03-.939-1.544-1.365-.086-.086-.257-.256-.43-.342a27.018 27.018 0 0 0-1.63-1.28c-.6-.427-1.114-.853-1.715-1.195-.172-.085-.257-.17-.429-.256-.6-.341-1.115-.768-1.716-1.11l-1.801-1.024c-.172-.085-.344-.17-.43-.256-.6-.341-1.2-.597-1.801-.938-.6-.342-1.287-.598-1.888-.854-.171-.085-.343-.17-.514-.17-.6-.257-1.287-.513-1.888-.769-.686-.256-1.287-.426-1.973-.682-.172-.086-.343-.086-.515-.171-.6-.17-1.287-.342-1.887-.512-.687-.171-1.287-.256-1.973-.427-.172 0-.344-.085-.515-.085-.687-.086-1.287-.256-1.973-.342-.687-.085-1.287-.17-1.974-.17-.171 0-.343 0-.514-.086-.687 0-1.287-.085-1.974-.085h-2.488c-.686 0-1.287.085-1.973.17L183 211.012l19.046-73.825c.343-1.366.858-2.731 1.459-4.012" fill="#FFF" fill-rule="nonzero" opacity=".07"/><path d="M91.152 125.758c95.06-143.085 324.366-166.576 512.431-52.365 187.98 114.212 263.36 322.816 168.3 465.901-95.059 143.085-324.622 166.491-512.602 52.28C71.301 477.276-3.908 268.756 91.151 125.757zM703.69 289.43L508.01 105.854c-9.07-8.542-21.905-13.07-33.455-11.874l-249.328 25.457c-8.728.854-15.83 4.954-19.85 11.02-1.37 1.964-2.311 4.185-2.91 6.662l-53.819 208.947c-2.48 9.738 1.626 21.014 10.696 29.556l195.51 183.49c9.24 8.628 21.903 13.07 33.454 11.96l249.328-25.457c8.813-.768 15.743-4.869 19.765-10.848a21.726 21.726 0 0 0 2.994-6.749l53.82-208.946c2.48-9.824-1.456-21.1-10.525-29.642z" fill="#FFF" fill-rule="nonzero" opacity=".15"/><g opacity=".07" fill="#FFF" fill-rule="nonzero"><path d="M784.829 517.329l-48.016 92.161a479.408 479.408 0 0 1-4.964 9.14l48.016-92.247a306.088 306.088 0 0 0 4.964-9.054z"/><path d="M784.829 517.329c-1.883 3.587-3.852 7.175-5.991 10.762-.172.342-.343.598-.514.94-.941 1.623-1.969 3.245-2.91 4.868-.171.342-.428.598-.6.94-1.026 1.623-2.139 3.331-3.166 4.954-.941 1.452-1.969 2.904-2.91 4.27-.257.342-.514.77-.77 1.11-.856 1.282-1.798 2.478-2.654 3.76-.085.17-.256.34-.342.512l-3.081 4.1-.77 1.024c-.856 1.11-1.798 2.307-2.654 3.417-.17.256-.428.512-.599.769-1.113 1.28-2.14 2.648-3.252 3.929-.257.341-.514.598-.77.94-.942 1.11-1.798 2.135-2.74 3.16-.256.256-.513.597-.77.854-1.112 1.28-2.31 2.477-3.423 3.758-.257.256-.514.512-.685.769-.942 1.025-1.969 2.05-2.91 3.075-.257.341-.6.597-.856.94l-3.595 3.586-.513.513c-1.027 1.025-2.14 2.05-3.253 3.075-.342.342-.684.598-.941.94l-3.766 3.501c-.086.086-.086.086-.171.086a68.352 68.352 0 0 1-3.766 3.246c-.343.256-.685.597-1.027.854-1.199 1.025-2.397 1.964-3.595 2.99-.171.085-.257.255-.428.34-1.284 1.111-2.653 2.136-4.023 3.161-.342.256-.684.513-1.027.854-1.112.854-2.31 1.794-3.423 2.648-.257.17-.514.342-.685.513-1.37 1.025-2.739 2.05-4.108 2.989l-1.027.769c-1.113.854-2.311 1.623-3.424 2.391-.342.257-.6.427-.942.684-1.369.94-2.824 1.879-4.279 2.818-.342.171-.6.427-.941.598l-3.595 2.306c-.343.257-.685.427-1.113.684-1.455.94-2.91 1.793-4.365 2.647-.257.171-.514.257-.685.428-1.284.768-2.567 1.537-3.851 2.22-.428.257-.77.427-1.198.684-1.541.854-2.996 1.708-4.537 2.562-.085.085-.17.085-.342.17l-4.365 2.307c-.428.17-.856.427-1.198.598-1.455.769-2.91 1.452-4.365 2.22-.086.086-.257.086-.343.172-1.54.768-3.167 1.537-4.707 2.306-.428.17-.856.427-1.284.598-1.37.597-2.739 1.28-4.108 1.879-.257.085-.514.256-.77.341-1.627.684-3.168 1.367-4.794 2.05-.428.171-.77.342-1.198.513-1.37.598-2.739 1.11-4.023 1.623-.342.17-.684.256-1.027.427-1.626.683-3.252 1.28-4.878 1.879-.343.17-.77.256-1.113.427l-4.108 1.537c-.428.171-.77.257-1.199.427-1.711.598-3.338 1.196-5.05 1.709-.256.085-.598.17-.855.256-1.455.512-2.91.94-4.365 1.452-.428.17-.856.256-1.37.427l-5.135 1.537c-.171.086-.342.086-.514.171-1.54.427-3.166.94-4.793 1.367-.428.17-.941.256-1.37.342-1.71.427-3.337.94-5.049 1.366-.085 0-.171 0-.257.086-1.797.427-3.509.854-5.306 1.28-.428.086-.942.257-1.37.342l-4.621 1.025c-.257.086-.514.086-.77.171-1.798.427-3.596.769-5.307 1.11-.428.086-.942.171-1.37.257-1.54.342-2.995.598-4.536.854-.342.085-.77.17-1.113.17-1.797.342-3.594.684-5.392.94-.428.086-.856.171-1.284.171-1.54.256-2.995.513-4.536.684-.428.085-.856.17-1.284.17-1.797.257-3.68.513-5.477.77-.343.084-.685.084-1.028.17-1.54.17-3.08.427-4.707.598-.513.085-.941.085-1.455.17-1.883.257-3.68.428-5.563.599-.257 0-.428.085-.685.085-1.712.17-3.338.342-5.05.427-.513.085-1.027.085-1.54.17-1.883.172-3.766.342-5.65.428h-.085c-1.883.17-3.766.256-5.734.342-.514 0-1.027.085-1.541.085-1.712.085-3.338.17-5.05.256h-.77c-1.883.086-3.852.086-5.735.171h-1.455c-1.626 0-3.252.085-4.793.085h-8.217c-1.625 0-3.166-.085-4.792-.085h-1.37c-1.968-.085-3.851-.085-5.82-.17-.428 0-.77 0-1.198-.086l-4.879-.256c-.513 0-1.027-.086-1.455-.086-1.968-.085-3.937-.256-5.82-.342-.256 0-.513 0-.856-.085-1.711-.085-3.423-.256-5.135-.427-.514-.085-1.027-.085-1.54-.17l-5.906-.513h-.171c-1.883-.171-3.852-.427-5.735-.598-.513-.086-1.027-.086-1.54-.171-1.798-.17-3.595-.427-5.393-.683-.17 0-.428-.086-.599-.086-1.968-.256-3.937-.512-5.905-.854l-1.541-.256c-1.712-.256-3.338-.513-5.05-.769-.342-.085-.685-.085-1.113-.17l-5.905-1.026c-.514-.085-.942-.17-1.455-.256-1.626-.256-3.253-.598-4.879-.94-.428-.085-.941-.17-1.37-.256-1.968-.341-3.936-.768-5.905-1.195-.6-.171-1.284-.257-1.883-.428-.941-.17-1.883-.427-2.824-.597-.685-.171-1.37-.342-2.055-.428-.941-.17-1.883-.427-2.738-.597-.685-.171-1.455-.342-2.14-.513-.942-.17-1.798-.427-2.739-.683-.685-.171-1.455-.342-2.14-.513-.941-.256-1.797-.427-2.739-.683-.684-.17-1.455-.342-2.14-.512-.94-.257-1.797-.513-2.738-.684-.685-.17-1.37-.341-2.14-.512l-2.824-.769c-.685-.17-1.37-.342-2.055-.598-.941-.256-1.968-.512-2.91-.854-.599-.17-1.283-.342-1.883-.513-1.112-.341-2.14-.597-3.252-.94-.514-.17-1.113-.34-1.626-.512-1.54-.427-3.081-.94-4.622-1.366-.086 0-.171-.086-.257-.086l-4.878-1.537c-.514-.17-1.027-.342-1.627-.513-1.112-.341-2.14-.683-3.252-1.024-.6-.171-1.284-.428-1.883-.684-.941-.341-1.969-.683-2.91-1.025-.685-.256-1.37-.427-2.054-.683l-2.825-1.025-2.054-.769c-.941-.341-1.797-.683-2.739-1.025a59.509 59.509 0 0 0-2.14-.768c-.94-.342-1.797-.684-2.738-1.025a59.507 59.507 0 0 0-2.14-.77c-.941-.34-1.797-.682-2.739-1.024-.685-.256-1.37-.513-2.054-.854-.941-.342-1.883-.769-2.739-1.11-.685-.257-1.37-.513-2.054-.855-.941-.427-1.883-.768-2.824-1.196a19.601 19.601 0 0 1-1.969-.854c-1.027-.427-1.969-.854-2.996-1.28l-1.797-.77-3.595-1.537c-.428-.17-.856-.342-1.198-.513-1.626-.683-3.167-1.452-4.793-2.135-.428-.17-.77-.342-1.198-.512-1.199-.513-2.397-1.11-3.595-1.623-.6-.256-1.198-.513-1.797-.854-1.027-.513-1.969-.94-2.996-1.452-.685-.342-1.284-.598-1.969-.94-.941-.427-1.883-.94-2.824-1.367l-2.054-1.025c-.942-.427-1.798-.94-2.74-1.366l-2.053-1.025c-.856-.427-1.798-.94-2.653-1.367-.685-.341-1.37-.683-2.055-1.11-.856-.427-1.797-.94-2.653-1.367-.685-.341-1.37-.768-2.054-1.11-.856-.513-1.797-.94-2.653-1.452-.685-.342-1.37-.769-2.054-1.11-.942-.513-1.798-1.025-2.74-1.538-.684-.342-1.283-.769-1.968-1.11-.941-.513-1.883-1.11-2.824-1.623l-1.798-1.025-3.081-1.794c-.514-.256-1.027-.598-1.54-.854-1.541-.94-3.082-1.88-4.622-2.733C80.34 483.676 3.482 290.385 77.346 148.683L29.33 240.845c-73.864 141.701 2.996 334.907 181.45 443.297 1.54.94 3.081 1.88 4.622 2.733.513.257 1.027.598 1.54.854l3.082 1.794 1.797 1.025c.941.513 1.883 1.11 2.824 1.623.685.342 1.284.769 1.969 1.11.941.513 1.797 1.025 2.739 1.538.685.341 1.37.769 2.054 1.11.856.513 1.797.94 2.653 1.452.685.342 1.37.769 2.054 1.11.856.513 1.798.94 2.654 1.367.684.342 1.37.684 2.054 1.11.856.428 1.797.94 2.653 1.367l2.054 1.025c.942.427 1.798.94 2.74 1.367l2.053 1.025c.942.427 1.883.94 2.825 1.366.684.342 1.284.598 1.968.94 1.027.512 1.969.94 2.996 1.452.599.256 1.113.512 1.712.854 1.198.598 2.396 1.11 3.594 1.708.343.171.77.342 1.113.513 1.626.683 3.167 1.452 4.793 2.135.428.171.77.342 1.198.513l3.595 1.537 1.798.769c1.027.427 1.968.854 2.995 1.281.685.256 1.284.513 1.969.854.941.427 1.883.769 2.824 1.196.685.256 1.37.512 2.054.854.942.342 1.883.769 2.74 1.11.684.257 1.369.513 2.053.855.942.341 1.798.683 2.74 1.025.684.256 1.369.512 2.139.768.941.342 1.797.684 2.739 1.025.685.257 1.37.513 2.14.769.941.342 1.797.683 2.738 1.025l2.055.769 2.824 1.025c.685.256 1.37.427 1.969.683.941.342 1.968.683 2.91 1.025.599.17 1.283.427 1.883.598 1.112.341 2.225.683 3.252 1.11l1.54.513 4.88 1.537c.085 0 .17.086.256.086 1.54.512 3.081.94 4.622 1.366.513.171 1.027.342 1.626.427 1.113.342 2.14.598 3.252.94.6.17 1.284.341 1.883.512 1.027.257 1.969.598 2.996.854l2.054.513 2.825.769 2.054.512c.941.256 1.883.513 2.739.683.684.171 1.455.342 2.14.513.94.256 1.797.427 2.738.683.685.171 1.455.342 2.14.513.941.256 1.797.427 2.739.683.685.17 1.37.342 2.14.512.941.171 1.883.428 2.824.598.685.171 1.37.342 2.054.427.942.171 1.969.428 2.91.598.514.086 1.027.257 1.54.342.086 0 .258.085.343.085 1.969.427 3.937.77 5.906 1.196.428.086.856.171 1.37.256 1.625.342 3.252.598 4.963.94.514.085.942.17 1.456.256l5.905 1.025c.343.086.685.086 1.113.171 1.712.256 3.338.513 5.05.769l1.54.256c1.969.256 3.937.598 5.906.854.171 0 .428.086.599.086 1.797.256 3.595.427 5.392.683.514.085 1.027.085 1.54.17 1.97.257 3.852.428 5.82.599h.172l5.906.512c.513.085 1.027.085 1.54.17 1.712.172 3.424.257 5.221.428.257 0 .514 0 .77.085 1.97.171 3.938.257 5.82.342.514 0 1.028.085 1.456.085l4.878.257c.428 0 .77 0 1.199.085 1.968.086 3.851.17 5.82.17h1.37c1.625 0 3.166.086 4.792.086h8.217c1.626 0 3.252 0 4.878-.085h1.455c1.883-.085 3.852-.085 5.735-.17h.77c1.712-.086 3.424-.172 5.05-.257.513 0 1.027-.086 1.54-.086 1.884-.085 3.852-.256 5.735-.341h.086c1.883-.171 3.766-.256 5.649-.427.513 0 1.027-.086 1.455-.086 1.711-.17 3.338-.341 5.05-.427.256 0 .427-.085.684-.085 1.883-.171 3.766-.427 5.563-.598.514-.085.942-.085 1.455-.17 1.541-.172 3.167-.343 4.708-.599.342-.085.685-.085 1.027-.17 1.797-.257 3.68-.513 5.478-.77.428-.085.856-.17 1.283-.17 1.541-.256 2.996-.513 4.537-.683.428-.086.856-.171 1.284-.171 1.797-.342 3.594-.598 5.392-.94.342-.085.77-.17 1.112-.17 1.541-.257 2.996-.599 4.537-.855.428-.085.941-.17 1.369-.256 1.797-.342 3.595-.769 5.392-1.11.257-.086.514-.086.77-.171 1.541-.342 3.082-.684 4.622-1.11.428-.086.942-.257 1.37-.342 1.797-.427 3.509-.854 5.306-1.282.086 0 .171 0 .257-.085 1.712-.427 3.338-.854 5.05-1.367a8.426 8.426 0 0 0 1.37-.427c1.625-.427 3.166-.94 4.792-1.366.171-.086.343-.086.514-.171l5.135-1.538c.428-.17.856-.256 1.37-.427 1.455-.427 2.91-.94 4.365-1.452.256-.085.599-.17.941-.256 1.712-.598 3.338-1.11 5.05-1.708.428-.171.77-.256 1.198-.427l4.109-1.538c.342-.17.77-.256 1.112-.427 1.626-.598 3.253-1.28 4.879-1.879.342-.17.684-.256 1.027-.427 1.37-.512 2.739-1.11 4.023-1.623.428-.17.77-.341 1.198-.512a269.11 269.11 0 0 0 4.793-2.05c.257-.086.513-.256.77-.342 1.37-.598 2.739-1.281 4.108-1.879.428-.17.856-.427 1.284-.598 1.626-.769 3.167-1.537 4.708-2.306.085-.085.256-.085.342-.17 1.455-.684 2.91-1.453 4.365-2.222.428-.17.856-.427 1.198-.597l4.365-2.307c.086-.085.172-.085.343-.17 1.54-.855 3.081-1.709 4.536-2.563.428-.256.77-.427 1.198-.683 1.284-.769 2.568-1.452 3.852-2.22.257-.172.513-.257.77-.428 1.455-.854 2.91-1.794 4.365-2.648.343-.256.685-.427 1.113-.683l3.595-2.306c.342-.171.599-.427.941-.598 1.455-.94 2.825-1.88 4.28-2.819.342-.256.599-.427.941-.683 1.198-.769 2.311-1.623 3.51-2.392.342-.256.684-.512 1.026-.683 1.37-1.025 2.74-1.965 4.109-2.99l.77-.512c1.198-.854 2.31-1.794 3.423-2.648.343-.256.685-.512 1.028-.854 1.369-1.025 2.653-2.135 4.022-3.16.171-.086.257-.257.428-.342 1.198-1.025 2.397-1.964 3.595-2.99.342-.256.685-.597 1.027-.854 1.284-1.11 2.482-2.135 3.766-3.245.086 0 .086-.086.171-.086a72.977 72.977 0 0 0 3.766-3.502c.342-.341.685-.598.942-.94 1.112-1.024 2.14-2.05 3.252-3.074l.514-.513 3.594-3.587.942-.94c1.027-1.025 1.968-2.05 2.91-3.074.257-.257.513-.513.685-.77 1.112-1.28 2.31-2.476 3.423-3.757.257-.257.514-.598.77-.854a90.133 90.133 0 0 0 2.74-3.16c.256-.342.513-.599.77-.94a131.533 131.533 0 0 0 3.252-3.93c.171-.256.428-.512.6-.768a52.007 52.007 0 0 0 2.652-3.417l.77-1.025 3.082-4.1c.086-.17.257-.341.342-.512.942-1.196 1.798-2.477 2.654-3.758.256-.342.513-.769.77-1.11a125.87 125.87 0 0 0 2.91-4.271c1.113-1.623 2.14-3.331 3.167-4.954.17-.342.428-.598.599-.94 1.027-1.623 1.968-3.246 2.91-4.868.171-.342.342-.598.513-.94.343-.512.685-1.11.942-1.623l.257-.427a279.165 279.165 0 0 0 4.793-8.627l47.93-92.759z"/></g><path d="M202.5 131.5c.1-.143.2-.214.2-.357 0-.072.1-.072.1-.143l-.7.929s0 .071-.1.071" fill="#FFF" fill-rule="nonzero"/><path d="M203.762 132.577c.086-.085.086-.256.172-.341v-.086c0-.085.085-.085.085-.17l.086-.171.086-.085c.171-.342.429-.769.686-1.11 4.033-6.06 11.153-10.156 19.904-11.01l250.001-25.433c.343 0 .6-.086.944-.086h.429c.257 0 .515 0 .772-.085h3.518c.686 0 1.372.085 2.059.17.257 0 .6.086.857.086h.344c.171 0 .343.085.6.085.172 0 .343.086.515.086.257.085.6.085.944.17.257.086.514.086.772.171h.171c.086 0 .258.085.344.085.171 0 .343.086.514.086.258 0 .43.085.687.17h.085c.258.086.515.171.858.171l1.03.256c.172.086.343.086.515.17l.943.342c.687.256 1.459.512 2.145.768l.772.257c.172.085.344.085.515.17.258.086.6.256.858.342.172.085.257.17.429.17.172.086.343.171.6.256h.086c.344.171.6.256.858.427.343.17.6.341.858.427.086.085.258.17.343.17 1.03.513 2.06 1.11 3.003 1.793.172.17.43.256.687.427.171.085.257.17.428.256.258.17.601.426.858.597.344.256.687.427.944.683.258.17.43.341.686.512.258.17.515.427.773.683.085.085.257.17.429.341.257.256.514.427.772.683.257.256.514.427.772.683l196.294 183.411c9.094 8.535 12.955 19.715 10.467 29.445l-54.05 209.187-4.718 9.046c-4.118 4.78-10.467 7.938-18.102 8.62l-6.178.598 34.832-134.934c2.488-9.73-1.372-20.91-10.466-29.445L460.283 198.209c-.515-.427-1.03-.939-1.544-1.365-.086-.086-.257-.256-.43-.342a27.018 27.018 0 0 0-1.63-1.28c-.6-.427-1.114-.853-1.715-1.195-.172-.085-.257-.17-.429-.256-.6-.341-1.115-.768-1.716-1.11l-1.801-1.024c-.172-.085-.344-.17-.43-.256-.6-.341-1.2-.597-1.801-.938-.6-.342-1.287-.598-1.888-.854-.171-.085-.343-.17-.514-.17-.6-.257-1.287-.513-1.888-.769-.686-.256-1.287-.426-1.973-.682-.172-.086-.343-.086-.515-.171-.6-.17-1.287-.342-1.887-.512-.687-.171-1.287-.256-1.973-.427-.172 0-.344-.085-.515-.085-.687-.086-1.287-.256-1.973-.342-.687-.085-1.287-.17-1.974-.17-.171 0-.343 0-.514-.086-.687 0-1.287-.085-1.974-.085h-2.488c-.686 0-1.287.085-1.973.17L183 211.012l19.046-73.825c.343-1.366.858-2.731 1.459-4.012" stroke="#FFF"/><path d="M784.829 517.329l-48.016 92.161a479.408 479.408 0 0 1-4.964 9.14l48.016-92.247a306.088 306.088 0 0 0 4.964-9.054z" fill="#FFF" fill-rule="nonzero"/><path d="M784.829 517.329c-1.883 3.587-3.852 7.175-5.991 10.762-.172.342-.343.598-.514.94-.941 1.623-1.969 3.245-2.91 4.868-.171.342-.428.598-.6.94-1.026 1.623-2.139 3.331-3.166 4.954-.941 1.452-1.969 2.904-2.91 4.27-.257.342-.514.77-.77 1.11-.856 1.282-1.798 2.478-2.654 3.76-.085.17-.256.34-.342.512l-3.081 4.1-.77 1.024c-.856 1.11-1.798 2.307-2.654 3.417-.17.256-.428.512-.599.769-1.113 1.28-2.14 2.648-3.252 3.929-.257.341-.514.598-.77.94-.942 1.11-1.798 2.135-2.74 3.16-.256.256-.513.597-.77.854-1.112 1.28-2.31 2.477-3.423 3.758-.257.256-.514.512-.685.769-.942 1.025-1.969 2.05-2.91 3.075-.257.341-.6.597-.856.94l-3.595 3.586-.513.513c-1.027 1.025-2.14 2.05-3.253 3.075-.342.342-.684.598-.941.94l-3.766 3.501c-.086.086-.086.086-.171.086a68.352 68.352 0 0 1-3.766 3.246c-.343.256-.685.597-1.027.854-1.199 1.025-2.397 1.964-3.595 2.99-.171.085-.257.255-.428.34-1.284 1.111-2.653 2.136-4.023 3.161-.342.256-.684.513-1.027.854-1.112.854-2.31 1.794-3.423 2.648-.257.17-.514.342-.685.513-1.37 1.025-2.739 2.05-4.108 2.989l-1.027.769c-1.113.854-2.311 1.623-3.424 2.391-.342.257-.6.427-.942.684-1.369.94-2.824 1.879-4.279 2.818-.342.171-.6.427-.941.598l-3.595 2.306c-.343.257-.685.427-1.113.684-1.455.94-2.91 1.793-4.365 2.647-.257.171-.514.257-.685.428-1.284.768-2.567 1.537-3.851 2.22-.428.257-.77.427-1.198.684-1.541.854-2.996 1.708-4.537 2.562-.085.085-.17.085-.342.17l-4.365 2.307c-.428.17-.856.427-1.198.598-1.455.769-2.91 1.452-4.365 2.22-.086.086-.257.086-.343.172-1.54.768-3.167 1.537-4.707 2.306-.428.17-.856.427-1.284.598-1.37.597-2.739 1.28-4.108 1.879-.257.085-.514.256-.77.341-1.627.684-3.168 1.367-4.794 2.05-.428.171-.77.342-1.198.513-1.37.598-2.739 1.11-4.023 1.623-.342.17-.684.256-1.027.427-1.626.683-3.252 1.28-4.878 1.879-.343.17-.77.256-1.113.427l-4.108 1.537c-.428.171-.77.257-1.199.427-1.711.598-3.338 1.196-5.05 1.709-.256.085-.598.17-.855.256-1.455.512-2.91.94-4.365 1.452-.428.17-.856.256-1.37.427l-5.135 1.537c-.171.086-.342.086-.514.171-1.54.427-3.166.94-4.793 1.367-.428.17-.941.256-1.37.342-1.71.427-3.337.94-5.049 1.366-.085 0-.171 0-.257.086-1.797.427-3.509.854-5.306 1.28-.428.086-.942.257-1.37.342l-4.621 1.025c-.257.086-.514.086-.77.171-1.798.427-3.596.769-5.307 1.11-.428.086-.942.171-1.37.257-1.54.342-2.995.598-4.536.854-.342.085-.77.17-1.113.17-1.797.342-3.594.684-5.392.94-.428.086-.856.171-1.284.171-1.54.256-2.995.513-4.536.684-.428.085-.856.17-1.284.17-1.797.257-3.68.513-5.477.77-.343.084-.685.084-1.028.17-1.54.17-3.08.427-4.707.598-.513.085-.941.085-1.455.17-1.883.257-3.68.428-5.563.599-.257 0-.428.085-.685.085-1.712.17-3.338.342-5.05.427-.513.085-1.027.085-1.54.17-1.883.172-3.766.342-5.65.428h-.085c-1.883.17-3.766.256-5.734.342-.514 0-1.027.085-1.541.085-1.712.085-3.338.17-5.05.256h-.77c-1.883.086-3.852.086-5.735.171h-1.455c-1.626 0-3.252.085-4.793.085h-8.217c-1.625 0-3.166-.085-4.792-.085h-1.37c-1.968-.085-3.851-.085-5.82-.17-.428 0-.77 0-1.198-.086l-4.879-.256c-.513 0-1.027-.086-1.455-.086-1.968-.085-3.937-.256-5.82-.342-.256 0-.513 0-.856-.085-1.711-.085-3.423-.256-5.135-.427-.514-.085-1.027-.085-1.54-.17l-5.906-.513h-.171c-1.883-.171-3.852-.427-5.735-.598-.513-.086-1.027-.086-1.54-.171-1.798-.17-3.595-.427-5.393-.683-.17 0-.428-.086-.599-.086-1.968-.256-3.937-.512-5.905-.854l-1.541-.256c-1.712-.256-3.338-.513-5.05-.769-.342-.085-.685-.085-1.113-.17l-5.905-1.026c-.514-.085-.942-.17-1.455-.256-1.626-.256-3.253-.598-4.879-.94-.428-.085-.941-.17-1.37-.256-1.968-.341-3.936-.768-5.905-1.195-.6-.171-1.284-.257-1.883-.428-.941-.17-1.883-.427-2.824-.597-.685-.171-1.37-.342-2.055-.428-.941-.17-1.883-.427-2.738-.597-.685-.171-1.455-.342-2.14-.513-.942-.17-1.798-.427-2.739-.683-.685-.171-1.455-.342-2.14-.513-.941-.256-1.797-.427-2.739-.683-.684-.17-1.455-.342-2.14-.512-.94-.257-1.797-.513-2.738-.684-.685-.17-1.37-.341-2.14-.512l-2.824-.769c-.685-.17-1.37-.342-2.055-.598-.941-.256-1.968-.512-2.91-.854-.599-.17-1.283-.342-1.883-.513-1.112-.341-2.14-.597-3.252-.94-.514-.17-1.113-.34-1.626-.512-1.54-.427-3.081-.94-4.622-1.366-.086 0-.171-.086-.257-.086l-4.878-1.537c-.514-.17-1.027-.342-1.627-.513-1.112-.341-2.14-.683-3.252-1.024-.6-.171-1.284-.428-1.883-.684-.941-.341-1.969-.683-2.91-1.025-.685-.256-1.37-.427-2.054-.683l-2.825-1.025-2.054-.769c-.941-.341-1.797-.683-2.739-1.025a59.509 59.509 0 0 0-2.14-.768c-.94-.342-1.797-.684-2.738-1.025a59.507 59.507 0 0 0-2.14-.77c-.941-.34-1.797-.682-2.739-1.024-.685-.256-1.37-.513-2.054-.854-.941-.342-1.883-.769-2.739-1.11-.685-.257-1.37-.513-2.054-.855-.941-.427-1.883-.768-2.824-1.196a19.601 19.601 0 0 1-1.969-.854c-1.027-.427-1.969-.854-2.996-1.28l-1.797-.77-3.595-1.537c-.428-.17-.856-.342-1.198-.513-1.626-.683-3.167-1.452-4.793-2.135-.428-.17-.77-.342-1.198-.512-1.199-.513-2.397-1.11-3.595-1.623-.6-.256-1.198-.513-1.797-.854-1.027-.513-1.969-.94-2.996-1.452-.685-.342-1.284-.598-1.969-.94-.941-.427-1.883-.94-2.824-1.367l-2.054-1.025c-.942-.427-1.798-.94-2.74-1.366l-2.053-1.025c-.856-.427-1.798-.94-2.653-1.367-.685-.341-1.37-.683-2.055-1.11-.856-.427-1.797-.94-2.653-1.367-.685-.341-1.37-.768-2.054-1.11-.856-.513-1.797-.94-2.653-1.452-.685-.342-1.37-.769-2.054-1.11-.942-.513-1.798-1.025-2.74-1.538-.684-.342-1.283-.769-1.968-1.11-.941-.513-1.883-1.11-2.824-1.623l-1.798-1.025-3.081-1.794c-.514-.256-1.027-.598-1.54-.854-1.541-.94-3.082-1.88-4.622-2.733C80.34 483.676 3.482 290.385 77.346 148.683L29.33 240.845c-73.864 141.701 2.996 334.907 181.45 443.297 1.54.94 3.081 1.88 4.622 2.733.513.257 1.027.598 1.54.854l3.082 1.794 1.797 1.025c.941.513 1.883 1.11 2.824 1.623.685.342 1.284.769 1.969 1.11.941.513 1.797 1.025 2.739 1.538.685.341 1.37.769 2.054 1.11.856.513 1.797.94 2.653 1.452.685.342 1.37.769 2.054 1.11.856.513 1.798.94 2.654 1.367.684.342 1.37.684 2.054 1.11.856.428 1.797.94 2.653 1.367l2.054 1.025c.942.427 1.798.94 2.74 1.367l2.053 1.025c.942.427 1.883.94 2.825 1.366.684.342 1.284.598 1.968.94 1.027.512 1.969.94 2.996 1.452.599.256 1.113.512 1.712.854 1.198.598 2.396 1.11 3.594 1.708.343.171.77.342 1.113.513 1.626.683 3.167 1.452 4.793 2.135.428.171.77.342 1.198.513l3.595 1.537 1.798.769c1.027.427 1.968.854 2.995 1.281.685.256 1.284.513 1.969.854.941.427 1.883.769 2.824 1.196.685.256 1.37.512 2.054.854.942.342 1.883.769 2.74 1.11.684.257 1.369.513 2.053.855.942.341 1.798.683 2.74 1.025.684.256 1.369.512 2.139.768.941.342 1.797.684 2.739 1.025.685.257 1.37.513 2.14.769.941.342 1.797.683 2.738 1.025l2.055.769 2.824 1.025c.685.256 1.37.427 1.969.683.941.342 1.968.683 2.91 1.025.599.17 1.283.427 1.883.598 1.112.341 2.225.683 3.252 1.11l1.54.513 4.88 1.537c.085 0 .17.086.256.086 1.54.512 3.081.94 4.622 1.366.513.171 1.027.342 1.626.427 1.113.342 2.14.598 3.252.94.6.17 1.284.341 1.883.512 1.027.257 1.969.598 2.996.854l2.054.513 2.825.769 2.054.512c.941.256 1.883.513 2.739.683.684.171 1.455.342 2.14.513.94.256 1.797.427 2.738.683.685.171 1.455.342 2.14.513.941.256 1.797.427 2.739.683.685.17 1.37.342 2.14.512.941.171 1.883.428 2.824.598.685.171 1.37.342 2.054.427.942.171 1.969.428 2.91.598.514.086 1.027.257 1.54.342.086 0 .258.085.343.085 1.969.427 3.937.77 5.906 1.196.428.086.856.171 1.37.256 1.625.342 3.252.598 4.963.94.514.085.942.17 1.456.256l5.905 1.025c.343.086.685.086 1.113.171 1.712.256 3.338.513 5.05.769l1.54.256c1.969.256 3.937.598 5.906.854.171 0 .428.086.599.086 1.797.256 3.595.427 5.392.683.514.085 1.027.085 1.54.17 1.97.257 3.852.428 5.82.599h.172l5.906.512c.513.085 1.027.085 1.54.17 1.712.172 3.424.257 5.221.428.257 0 .514 0 .77.085 1.97.171 3.938.257 5.82.342.514 0 1.028.085 1.456.085l4.878.257c.428 0 .77 0 1.199.085 1.968.086 3.851.17 5.82.17h1.37c1.625 0 3.166.086 4.792.086h8.217c1.626 0 3.252 0 4.878-.085h1.455c1.883-.085 3.852-.085 5.735-.17h.77c1.712-.086 3.424-.172 5.05-.257.513 0 1.027-.086 1.54-.086 1.884-.085 3.852-.256 5.735-.341h.086c1.883-.171 3.766-.256 5.649-.427.513 0 1.027-.086 1.455-.086 1.711-.17 3.338-.341 5.05-.427.256 0 .427-.085.684-.085 1.883-.171 3.766-.427 5.563-.598.514-.085.942-.085 1.455-.17 1.541-.172 3.167-.343 4.708-.599.342-.085.685-.085 1.027-.17 1.797-.257 3.68-.513 5.478-.77.428-.085.856-.17 1.283-.17 1.541-.256 2.996-.513 4.537-.683.428-.086.856-.171 1.284-.171 1.797-.342 3.594-.598 5.392-.94.342-.085.77-.17 1.112-.17 1.541-.257 2.996-.599 4.537-.855.428-.085.941-.17 1.369-.256 1.797-.342 3.595-.769 5.392-1.11.257-.086.514-.086.77-.171 1.541-.342 3.082-.684 4.622-1.11.428-.086.942-.257 1.37-.342 1.797-.427 3.509-.854 5.306-1.282.086 0 .171 0 .257-.085 1.712-.427 3.338-.854 5.05-1.367a8.426 8.426 0 0 0 1.37-.427c1.625-.427 3.166-.94 4.792-1.366.171-.086.343-.086.514-.171l5.135-1.538c.428-.17.856-.256 1.37-.427 1.455-.427 2.91-.94 4.365-1.452.256-.085.599-.17.941-.256 1.712-.598 3.338-1.11 5.05-1.708.428-.171.77-.256 1.198-.427l4.109-1.538c.342-.17.77-.256 1.112-.427 1.626-.598 3.253-1.28 4.879-1.879.342-.17.684-.256 1.027-.427 1.37-.512 2.739-1.11 4.023-1.623.428-.17.77-.341 1.198-.512a269.11 269.11 0 0 0 4.793-2.05c.257-.086.513-.256.77-.342 1.37-.598 2.739-1.281 4.108-1.879.428-.17.856-.427 1.284-.598 1.626-.769 3.167-1.537 4.708-2.306.085-.085.256-.085.342-.17 1.455-.684 2.91-1.453 4.365-2.222.428-.17.856-.427 1.198-.597l4.365-2.307c.086-.085.172-.085.343-.17 1.54-.855 3.081-1.709 4.536-2.563.428-.256.77-.427 1.198-.683 1.284-.769 2.568-1.452 3.852-2.22.257-.172.513-.257.77-.428 1.455-.854 2.91-1.794 4.365-2.648.343-.256.685-.427 1.113-.683l3.595-2.306c.342-.171.599-.427.941-.598 1.455-.94 2.825-1.88 4.28-2.819.342-.256.599-.427.941-.683 1.198-.769 2.311-1.623 3.51-2.392.342-.256.684-.512 1.026-.683 1.37-1.025 2.74-1.965 4.109-2.99l.77-.512c1.198-.854 2.31-1.794 3.423-2.648.343-.256.685-.512 1.028-.854 1.369-1.025 2.653-2.135 4.022-3.16.171-.086.257-.257.428-.342 1.198-1.025 2.397-1.964 3.595-2.99.342-.256.685-.597 1.027-.854 1.284-1.11 2.482-2.135 3.766-3.245.086 0 .086-.086.171-.086a72.977 72.977 0 0 0 3.766-3.502c.342-.341.685-.598.942-.94 1.112-1.024 2.14-2.05 3.252-3.074l.514-.513 3.594-3.587.942-.94c1.027-1.025 1.968-2.05 2.91-3.074.257-.257.513-.513.685-.77 1.112-1.28 2.31-2.476 3.423-3.757.257-.257.514-.598.77-.854a90.133 90.133 0 0 0 2.74-3.16c.256-.342.513-.599.77-.94a131.533 131.533 0 0 0 3.252-3.93c.171-.256.428-.512.6-.768a52.007 52.007 0 0 0 2.652-3.417l.77-1.025 3.082-4.1c.086-.17.257-.341.342-.512.942-1.196 1.798-2.477 2.654-3.758.256-.342.513-.769.77-1.11a125.87 125.87 0 0 0 2.91-4.271c1.113-1.623 2.14-3.331 3.167-4.954.17-.342.428-.598.599-.94 1.027-1.623 1.968-3.246 2.91-4.868.171-.342.342-.598.513-.94.343-.512.685-1.11.942-1.623l.257-.427a279.165 279.165 0 0 0 4.793-8.627l47.93-92.759z" stroke="#FFF"/><path d="M703.338 289.565L507.636 105.937c-.257-.257-.514-.513-.77-.684-.257-.256-.514-.427-.77-.684-.086-.085-.257-.256-.428-.341-.257-.257-.514-.428-.77-.684-.257-.17-.428-.342-.685-.513-.342-.256-.685-.512-.941-.683-.257-.171-.6-.428-.856-.598-.171-.086-.257-.171-.428-.257-.17-.17-.428-.256-.684-.427-.942-.598-1.969-1.196-2.995-1.794-.086-.086-.257-.171-.343-.171a4 4 0 0 0-.855-.428c-.257-.17-.6-.256-.856-.427h-.086c-.17-.085-.428-.17-.599-.256-.17-.086-.342-.171-.428-.171-.256-.171-.599-.256-.855-.342-.171-.085-.343-.17-.514-.17l-.77-.257c-.684-.256-1.455-.513-2.14-.77l-.94-.34c-.172-.086-.343-.086-.514-.172l-1.027-.256c-.256-.086-.599-.171-.855-.171-.257-.086-.514-.086-.685-.171-.171 0-.342-.085-.513-.085-.172 0-.343-.086-.514-.086-.257-.085-.513-.085-.77-.17-.257-.086-.599-.086-.941-.172-.171 0-.343-.085-.514-.085-.17 0-.342-.086-.599-.086-.085 0-.256 0-.342-.085-.257 0-.599-.085-.856-.085-.684-.086-1.369-.086-2.053-.171h-3.509c-.257 0-.513 0-.77.085h-.428c-.342 0-.599.086-.941.086l-249.355 25.463c-8.728.855-15.83 4.956-19.853 11.023-.256.342-.428.684-.684 1.11-.086.086-.086.172-.171.257 0 .086-.086.086-.086.171v.086a3.157 3.157 0 0 0-.428.94s0 .085-.085.085c-.6 1.282-1.113 2.563-1.455 4.016l-18.997 73.913-34.742 135.094c-2.482 9.74 1.626 21.02 10.696 29.565l195.531 183.543c9.242 8.63 21.906 13.074 33.459 11.877l243.108-24.78 6.161-.598c7.616-.683 13.948-3.845 18.056-8.63a21.88 21.88 0 0 0 1.711-2.222 21.734 21.734 0 0 0 2.995-6.75l53.824-209.007c2.568-10.083-1.369-21.362-10.44-29.907zM603.219 73.381C415.133-40.864 185.802-17.28 90.732 125.846a249.42 249.42 0 0 0-13.264 22.473c-.599 1.11-1.198 2.222-1.711 3.332-.428.855-.856 1.624-1.198 2.478-.086.086-.086.257-.171.342l-.514 1.026-.256.512c-.428.855-.77 1.624-1.198 2.478-.514 1.111-1.027 2.307-1.54 3.418a52.509 52.509 0 0 0-1.37 3.247c-.085.257-.17.428-.256.684-.257.683-.6 1.367-.856 2.05-.086.257-.257.599-.342.855-.086.256-.172.513-.343.77-.085.17-.085.34-.17.512-.086.342-.258.683-.343 1.025-.171.513-.428 1.026-.6 1.624l-1.026 2.563c-.171.513-.428 1.111-.599 1.624a32.683 32.683 0 0 0-.941 2.649c-.428 1.196-.856 2.392-1.198 3.588a55.235 55.235 0 0 0-1.113 3.504c0 .085-.085.17-.085.256-.343 1.111-.685 2.307-1.027 3.418v.086a184.8 184.8 0 0 1-1.027 3.503c-.257 1.025-.599 2.05-.856 2.99-.085.428-.256.855-.342 1.282-.171.77-.428 1.538-.599 2.307l-.257 1.026-.77 3.076c0 .085-.085.256-.085.342-.257 1.025-.428 1.965-.685 2.99-.086.257-.086.513-.171.77-.257 1.11-.514 2.221-.685 3.332 0 .085-.085.17-.085.256-.257 1.111-.428 2.307-.685 3.418-.171 1.111-.428 2.222-.599 3.333 0 .17-.085.256-.085.427-.172 1.11-.428 2.307-.6 3.418-.085.17-.085.427-.085.684-.171 1.025-.342 2.136-.513 3.161-.172 1.025-.257 2.05-.428 3.162-.086 1.025-.257 1.965-.343 2.99v.342c-.085.598-.17 1.196-.17 1.71-.086.854-.172 1.794-.257 2.648 0 .342-.086.77-.086 1.11 0 .172 0 .257-.086.428-.085.684-.085 1.367-.17 2.05 0 .343-.086.684-.086.94v.514a484.78 484.78 0 0 0-.257 3.161c-.086.94-.171 1.88-.171 2.905v1.538c-.086 1.026-.086 2.137-.171 3.162 0 1.025-.086 2.136-.086 3.162 0 .512 0 1.11-.085 1.623 0 .684 0 1.367-.086 1.965v4.615c0 1.88 0 3.76.086 5.725 0 .854.085 1.709.085 2.649.086 2.82.171 5.64.342 8.459.086.684.086 1.282.172 1.88.085.94.085 1.794.17 2.734.086.77.086 1.538.172 2.222.171 2.307.428 4.7.684 7.007.086.769.172 1.623.257 2.392 0 .257.086.513.086.77l.256 1.794c.086.598.172 1.11.257 1.709.086.598.171 1.196.257 1.709.085.94.257 1.88.428 2.82.085.427.085.768.17 1.196.086.769.258 1.538.343 2.221.171.855.257 1.71.428 2.564.086.683.257 1.367.342 2.136.086.256.086.513.171.769.172.769.257 1.624.428 2.393.257 1.452.6 2.905.856 4.357.171.684.257 1.282.428 1.88.171.855.342 1.795.599 2.65.171.597.257 1.28.428 1.879.17.855.342 1.709.599 2.649.17.684.342 1.282.513 1.965.342 1.453.685 2.82 1.027 4.273.171.769.342 1.538.599 2.307.086.256.171.598.257.854.17.855.428 1.71.684 2.478.343 1.282.685 2.65 1.113 3.93.428 1.454.855 2.992 1.283 4.444.171.427.257.855.428 1.282.257.94.6 1.88.856 2.82 0 .085.085.256.085.342.343 1.025.685 2.136 1.027 3.161.428 1.196.77 2.393 1.198 3.589.171.684.428 1.282.685 1.88.77 2.221 1.54 4.443 2.396 6.665.342.854.599 1.709.941 2.563l1.027 2.82c.685 1.88 1.455 3.674 2.225 5.554.77 1.88 1.54 3.674 2.31 5.554.77 1.88 1.54 3.675 2.396 5.554.856 1.88 1.626 3.675 2.482 5.555a167.6 167.6 0 0 0 3.252 6.835c.599 1.111 1.112 2.308 1.711 3.418.257.513.513.94.77 1.453l2.054 4.102a312.738 312.738 0 0 0 9.584 17.26c.428.77.941 1.538 1.369 2.307.685 1.197 1.455 2.393 2.14 3.59.855 1.366 1.625 2.648 2.48 4.015.685 1.026 1.284 2.05 1.969 3.076.513.77 1.027 1.624 1.54 2.393 1.797 2.734 3.594 5.469 5.477 8.203.428.598.77 1.196 1.198 1.794 1.54 2.307 3.166 4.53 4.792 6.836.856 1.196 1.626 2.307 2.481 3.504.428.598.77 1.11 1.198 1.623.685.94 1.455 1.88 2.14 2.82.941 1.196 1.797 2.392 2.738 3.589.856 1.025 1.626 2.136 2.482 3.161.855 1.026 1.711 2.137 2.567 3.162.855 1.025 1.711 2.136 2.567 3.162.856 1.025 1.711 2.136 2.567 3.161.856 1.025 1.711 2.05 2.653 3.162 1.882 2.221 3.765 4.443 5.647 6.58 1.712 1.965 3.509 3.844 5.22 5.81l3.08 3.332c.857.94 1.712 1.795 2.568 2.735.941 1.025 1.883 2.05 2.91 2.99.94 1.026 1.968 1.966 2.909 2.99l2.995 2.992 2.995 2.99c1.027 1.026 2.054 1.966 3.08 2.906 3.167 3.076 6.418 6.066 9.67 9.057.685.684 1.455 1.282 2.14 1.965a379.23 379.23 0 0 0 10.696 9.314 34.484 34.484 0 0 0 2.738 2.222 510.542 510.542 0 0 0 20.965 16.577c1.112.854 2.31 1.709 3.423 2.563 1.198.855 2.396 1.71 3.594 2.65l3.594 2.563c1.198.854 2.396 1.709 3.68 2.563 1.197.855 2.481 1.71 3.679 2.564a92.564 92.564 0 0 0 3.68 2.478c1.198.854 2.481 1.623 3.765 2.478 5.048 3.332 10.097 6.494 15.317 9.655 1.284.77 2.567 1.538 3.936 2.393.77.427 1.455.854 2.225 1.282.6.341 1.198.683 1.797 1.025.685.427 1.455.854 2.14 1.282.085.085.256.085.342.17.256.171.428.257.684.428.856.513 1.797 1.025 2.653 1.538.086.085.171.085.257.17.599.343 1.283.684 1.882 1.026 1.54.855 3.166 1.795 4.707 2.65.855.512 1.797.939 2.652 1.452.77.427 1.626.854 2.396 1.281.77.428 1.54.77 2.31 1.197l9.5 4.87c.598.257 1.197.598 1.796.855 1.626.854 3.338 1.623 4.963 2.478 1.027.512 1.969.94 2.995 1.452.6.257 1.198.599 1.797.855 1.198.598 2.396 1.11 3.594 1.623.428.171.77.342 1.198.513.77.342 1.626.77 2.396 1.11.514.257 1.027.428 1.54.684.685.342 1.37.599 2.054.94a78.326 78.326 0 0 0 3.937 1.71c.085 0 .17.085.256.085 1.113.513 2.14.94 3.252 1.367.171.085.428.17.6.256 1.71.77 3.422 1.453 5.133 2.137.685.256 1.37.512 2.054.854.941.342 1.883.77 2.738 1.11.685.257 1.37.514 2.14.855.94.342 1.797.684 2.738 1.026.685.256 1.37.512 2.14.769.855.342 1.796.683 2.652 1.025l3.594 1.282c.77.256 1.626.598 2.396.854.342.171.685.257 1.027.342l2.824 1.026c2.481.854 5.048 1.709 7.53 2.563 1.284.427 2.653.854 3.936 1.282 1.797.598 3.509 1.11 5.306 1.623 1.283.427 2.652.77 3.936 1.197 1.37.427 2.653.769 3.936 1.196.514.17 1.027.342 1.54.427.685.17 1.284.342 1.883.513 2.567.769 5.22 1.452 7.787 2.136.685.17 1.37.342 2.14.513.94.256 1.796.512 2.738.683.684.171 1.454.342 2.139.513.941.256 1.797.427 2.738.683.685.171 1.455.342 2.14.513.94.171 1.797.427 2.738.684.684.17 1.455.342 2.14.512 1.71.428 3.422.77 5.133 1.111l2.567.513c.6.17 1.284.256 1.883.427.428.086.941.171 1.37.257h.17c.685.17 1.455.256 2.14.427.77.17 1.54.256 2.224.427.428.086.856.171 1.37.256 1.625.342 3.251.599 4.877.855.514.085.941.17 1.455.256l5.904 1.026c.343.085.77.085 1.113.17 1.711.257 3.337.513 5.048.77l1.54.256c1.627.256 3.338.513 4.964.683.171 0 .342.086.513.086.343.085.685.085 1.027.17 1.797.257 3.594.428 5.391.684h.257c1.37.171 2.738.342 4.193.513 1.027.086 2.054.256 3.08.342h.086l2.824.256c1.027.086 1.968.171 2.995.257.513 0 1.027.085 1.54.17.856.086 1.712.171 2.567.171.171 0 .428 0 .685.086.684.085 1.283.085 1.968.17.257 0 .513.086.856.086.941.086 1.968.171 2.91.171h.341c1.37.086 2.739.171 4.022.256l4.878.257c.513 0 .941.085 1.455.085.855 0 1.711.086 2.652.086.942 0 1.968.085 2.91.085h1.369c.77 0 1.626 0 2.396.086 2.567.085 5.134.085 7.701.085h5.391c1.198 0 2.396 0 3.594-.085.514 0 1.113 0 1.626-.086 1.113 0 2.225-.085 3.337-.085.77 0 1.54-.086 2.31-.086.343 0 .685 0 1.028-.085 1.112-.086 2.225-.086 3.423-.171.513 0 1.112-.086 1.625-.086 2.225-.085 4.45-.256 6.59-.427.684 0 1.283-.085 1.968-.17l2.823-.257c.514-.086 1.027-.086 1.54-.086h.086c.343 0 .6-.085.942-.085 1.283-.085 2.481-.256 3.765-.342h.256c.257 0 .428-.085.685-.085 1.112-.086 2.225-.257 3.423-.342.77-.085 1.455-.17 2.225-.256.513-.086.941-.086 1.454-.171 1.54-.171 3.081-.342 4.621-.598.6-.086 1.113-.171 1.712-.257.684-.085 1.369-.17 2.139-.342.941-.085 1.797-.256 2.738-.427.428-.085.856-.17 1.284-.17.513-.086.941-.172 1.369-.257.428-.085.856-.085 1.284-.17l3.08-.514c.941-.17 1.797-.341 2.738-.427.856-.17 1.797-.342 2.653-.513l1.284-.256c.684-.17 1.454-.256 2.139-.427l3.594-.77c1.711-.34 3.508-.768 5.22-1.11.085 0 .257-.085.342-.085.77-.171 1.54-.342 2.396-.513.941-.171 1.883-.427 2.824-.684.941-.256 1.968-.427 2.91-.683.342-.086.77-.171 1.197-.257.514-.085 1.027-.256 1.455-.341.428-.086.77-.171 1.198-.257.342-.085.6-.17.941-.256.172-.086.343-.086.514-.171l3.85-1.025c.086 0 .086 0 .172-.086.428-.085.77-.256 1.198-.342 1.283-.341 2.481-.683 3.765-1.025.513-.17.941-.256 1.455-.427h.085a44.4 44.4 0 0 1 3.166-.94c.086 0 .257-.086.343-.086.77-.256 1.625-.512 2.396-.769.256-.085.427-.17.684-.256l.77-.256c1.198-.342 2.31-.77 3.423-1.111.856-.257 1.712-.598 2.567-.855.428-.17.942-.341 1.37-.512.684-.171 1.283-.428 1.882-.684.428-.17.856-.342 1.284-.427l4.107-1.538c.342-.171.685-.257 1.027-.342l2.567-1.025c.77-.257 1.455-.599 2.225-.855.513-.17.941-.342 1.369-.598 1.284-.513 2.653-1.025 3.936-1.624.428-.17.77-.341 1.198-.512.77-.342 1.626-.684 2.396-1.026.77-.341 1.626-.683 2.396-1.025.257-.085.514-.256.77-.342.685-.342 1.37-.598 2.054-.94.685-.342 1.37-.598 2.054-.94 1.369-.598 2.653-1.281 4.022-1.88 1.283-.598 2.652-1.281 3.936-1.88.171-.085.428-.17.599-.341 1.027-.513 2.054-1.026 2.995-1.538.086-.086.257-.171.342-.171.428-.171.856-.427 1.284-.684 1.027-.512 2.054-1.11 3.08-1.623 1.027-.513 2.054-1.111 2.995-1.624.514-.256 1.027-.598 1.626-.854.514-.257.942-.513 1.455-.77.685-.341 1.284-.768 1.968-1.11.342-.171.6-.342.941-.513.428-.256.942-.513 1.37-.769l2.053-1.282a107.91 107.91 0 0 0 3.252-2.05 1.79 1.79 0 0 0 .513-.342l3.594-2.307c.172-.086.343-.171.428-.257.171-.085.343-.17.428-.341.856-.599 1.797-1.197 2.653-1.795.085 0 .085-.085.085-.085 1.027-.684 2.054-1.367 2.995-2.051.942-.684 1.883-1.282 2.824-1.965.428-.257.856-.598 1.284-.94.342-.257.77-.513 1.198-.855.856-.683 1.797-1.282 2.653-1.965 1.369-1.025 2.823-2.136 4.193-3.162 1.026-.769 2.053-1.623 3.08-2.392.171-.086.257-.257.428-.342l1.027-.77c.342-.255.684-.512.941-.768.171-.086.257-.256.428-.342.428-.342.941-.769 1.37-1.11l1.796-1.539c.342-.256.6-.512.941-.769.257-.256.514-.427.77-.683.086-.086.172-.086.172-.171.684-.598 1.283-1.111 1.968-1.71.171-.17.342-.341.513-.427l.514-.512c1.027-.855 1.968-1.795 2.91-2.65.256-.255.598-.512.855-.768.684-.684 1.455-1.367 2.14-2.05.513-.428.94-.855 1.368-1.368.6-.598 1.284-1.196 1.883-1.88.342-.342.77-.684 1.112-1.11.942-.94 1.797-1.795 2.653-2.735 1.112-1.111 2.14-2.222 3.166-3.333.941-1.025 1.883-1.965 2.738-2.99l.514-.513.257-.256c.427-.428.77-.855 1.198-1.368l.342-.341v-.086l.257-.256 1.54-1.795c.342-.341.684-.769.941-1.11.342-.342.685-.77.941-1.111.172-.171.343-.427.514-.684.77-.854 1.455-1.794 2.14-2.649.341-.341.598-.769.94-1.11l.086-.086 1.797-2.307c.086-.17.171-.256.342-.427.086-.086.171-.171.257-.342.77-1.025 1.54-2.05 2.31-2.99.172-.172.343-.428.514-.684 0 0 0-.086.085-.086.428-.513.77-1.11 1.198-1.623.428-.598.856-1.197 1.37-1.795l.513-.769c.342-.427.685-.94.941-1.367.343-.427.6-.854.856-1.196.257-.427.599-.77.856-1.197.684-1.025 1.369-1.965 2.053-2.99.6-.855 1.113-1.71 1.712-2.65.513-.768 1.027-1.537 1.455-2.306l2.053-3.333c.514-.769.942-1.623 1.455-2.392.171-.342.342-.598.513-.94.343-.513.685-1.111.942-1.624.17-.256.256-.427.428-.683.085-.086.085-.257.17-.342.086-.086.086-.171.172-.342.085-.085.085-.17.085-.17.172-.257.343-.599.514-.855.171-.342.342-.684.599-1.026.085-.17.171-.256.257-.427.085-.17.17-.342.256-.427.086-.171.171-.256.257-.427.086-.257.257-.428.342-.684 0-.085.086-.085.086-.17.171-.428.428-.855.684-1.197v-.086c0-.085.086-.17.086-.17.171-.342.342-.599.513-.94 73.934-141.845-2.995-336.069-181.839-444.76z" stroke="#FFF"/></g></svg>