<?xml version="1.0" encoding="UTF-8"?>
<svg width="82px" height="82px" viewBox="0 0 82 82" version="1.1" xmlns="http://www.w3.org/2000/svg" xmlns:xlink="http://www.w3.org/1999/xlink">
    <!-- Generator: sketchtool 50.2 (55047) - http://www.bohemiancoding.com/sketch -->
    <title>30A34071-FB9F-4A85-97B4-E7E297474C0B</title>
    <desc>Created with sketchtool.</desc>
    <defs></defs>
    <g id="Page-1" stroke="none" stroke-width="1" fill="none" fill-rule="evenodd">
        <g id="A-better-view" transform="translate(-188.000000, -2803.000000)" stroke="#FFFFFF" stroke-width="0.5">
            <g id="FEATURES-SECTION" transform="translate(0.000000, 2571.000000)">
                <g id="Group-27" transform="translate(189.000000, 233.000000)">
                    <g id="Group-26">
                        <g id="click">
                            <g id="Group-17">
                                <path d="M66.3634409,40.0139785 C66.3634409,54.5830108 54.5526882,66.3937634 39.9836559,66.3937634 C25.4146237,66.3937634 13.603871,54.5830108 13.603871,40.0139785 C13.603871,25.4445161 25.4146237,13.6337634 39.9836559,13.6337634 C54.5526882,13.6337634 66.3634409,25.4445161 66.3634409,40.0139785 Z" id="Stroke-1"></path>
                                <path d="M19.7803441,74.4003441 C8.00787097,67.4687312 0.107655914,54.664 0.107655914,40.0141075" id="Stroke-3"></path>
                                <path d="M77.6621505,53.1015914 C72.0475269,68.7540645 56.7524731,80.0856774 39.9834409,79.8899785 C36.34,79.847828 32.8105376,79.4009462 29.4569892,78.4861075" id="Stroke-5"></path>
                                <path d="M55.3204731,3.19402151 C69.7307957,9.20348387 79.859828,23.4254194 79.859828,40.0138065 C79.859828,44.5983226 79.0860645,49.0017634 77.6624086,53.1015484" id="Stroke-7"></path>
                                <path d="M8.20395699,15.9237849 C15.4861075,6.33195699 27.0116989,0.137978495 39.9837419,0.137978495 C41.5901935,0.137978495 43.1751398,0.233032258 44.7316989,0.417548387" id="Stroke-9"></path>
                                <path d="M7.52563441,46.671828 C7.08649462,44.5208602 6.85595699,42.2941935 6.85595699,40.0141935 C6.85595699,21.7178495 21.6877849,6.88645161 39.9836989,6.88645161 C48.883914,6.88645161 56.9643441,10.396129 62.916172,16.1075269" id="Stroke-11"></path>
                                <path d="M57.300086,68.2607742 C52.2609462,71.355828 46.3310538,73.1412043 39.9835269,73.1412043 C27.6876129,73.1412043 16.9564301,66.4422796 11.2407312,56.4951828" id="Stroke-13"></path>
                                <path d="M69.4695054,24.8989247 C71.7972473,29.4305376 73.1112258,34.5686022 73.1112258,40.0141935 C73.1112258,46.1406452 71.448,51.8791398 68.5477849,56.8021505" id="Stroke-15"></path>
                            </g>
                            <path d="M34.4303797,21.2658228 L34.4303797,27.3417722" id="Stroke-18"></path>
                            <path d="M23.2911392,34.4303797 L29.3670886,34.4303797" id="Stroke-19"></path>
                            <path d="M27.3417722,27.3417722 L29.3670886,29.3670886" id="Stroke-20"></path>
                            <path d="M40.5063291,29.3670886 L42.5316456,27.3417722" id="Stroke-21"></path>
                            <path d="M28.3544304,41.5189873 L30.3797468,39.4936709" id="Stroke-22"></path>
                            <path d="M46.1435969,44.6995473 C45.9683826,44.7576376 45.8508555,44.873391 45.7927377,45.0472348 L41.4657616,56.7088608 L35.443038,34.4303797 L57.721519,40.5225991 L46.1435969,44.6995473 Z" id="Stroke-23"></path>
                        </g>
                    </g>
                </g>
            </g>
        </g>
    </g>
</svg>