<svg width="47" height="49" viewBox="0 0 47 49" xmlns="http://www.w3.org/2000/svg"><title>89CF9F14-F7FF-4A27-9062-81775DA527E0</title><path d="M23.373.488C10.466.488 0 11.2 0 24.428c0 13.228 10.466 23.956 23.373 23.956 12.907 0 23.374-10.728 23.374-23.955C46.747 11.2 36.28.488 23.373.488zm13.392 36.16a2.12 2.12 0 0 1-1.483 1.506l-15.527 4.262c-.72.198-1.498 0-2.025-.554L6.362 30.212a2.18 2.18 0 0 1-.54-2.075l4.16-15.913a2.135 2.135 0 0 1 1.483-1.52L26.99 6.44a2.067 2.067 0 0 1 2.024.555l11.369 11.65c.526.54.734 1.336.54 2.075l-4.159 15.926z" fill="#47B7E8" fill-rule="evenodd"/></svg>