<?xml version="1.0" encoding="UTF-8"?>
<svg width="643px" height="701px" viewBox="0 0 643 701" version="1.1" xmlns="http://www.w3.org/2000/svg" xmlns:xlink="http://www.w3.org/1999/xlink">
    <!-- Generator: sketchtool 50.2 (55047) - http://www.bohemiancoding.com/sketch -->
    <title>436620EF-C9E6-4CE1-8949-8EEEFD18E23E</title>
    <desc>Created with sketchtool.</desc>
    <defs>
        <path d="M0.662420833,29.8451298 L12.5940896,0.231179389 C5.72470625,17.2814733 11.6724562,34.0785649 23.6630667,44.7532519 C56.9798438,74.3953359 79.9657542,109.815523 92.7413604,150.909317 L80.8110312,180.524607 C68.035425,139.429473 45.048175,104.011966 11.7327375,74.3698817" id="path-1"></path>
        <path d="M98.1847604,12.0358168 L86.2517521,41.6511069 C81.7293188,52.8777481 71.8177417,61.2843321 59.1412646,64.4446718 C56.0508458,65.2163359 52.7969979,65.6731718 49.41455,65.7857061 C30.9309792,66.404645 16.2973708,59.9848282 6.83455417,44.3666679 C4.15672708,39.9577328 2.74212708,34.9003855 0.756864583,30.1391107 L12.6871938,0.523820611 C14.6751354,5.28375573 16.0870563,10.3437824 18.7648833,14.7527176 C28.2277,30.3695382 42.8626479,36.7906947 61.3475583,36.170416 C64.7273271,36.0592214 67.9825146,35.5997061 71.0729333,34.8293817" id="path-3"></path>
        <path d="M98.1847604,12.0358168 L86.2517521,41.6511069 C81.7293188,52.8777481 71.8177417,61.2843321 59.1412646,64.4446718 C56.0508458,65.2163359 52.7969979,65.6731718 49.41455,65.7857061 C30.9309792,66.404645 16.2973708,59.9848282 6.83455417,44.3666679 C4.15672708,39.9577328 2.74212708,34.9003855 0.756864583,30.1391107 L12.6871938,0.523820611 C14.6751354,5.28375573 16.0870563,10.3437824 18.7648833,14.7527176 C28.2277,30.3695382 42.8626479,36.7906947 61.3475583,36.170416 C64.7273271,36.0592214 67.9825146,35.5997061 71.0729333,34.8293817" id="path-5"></path>
        <path d="M12.2625458,37.7391985 L0.330877083,67.3544885 C4.39517292,57.2652481 7.69858542,46.7513244 10.2451333,35.8167366 C10.7461375,33.6692061 11.3904771,31.6355496 12.1607375,29.7238053 L24.0910667,0.108515267 C23.3208063,2.02159924 22.6778063,4.05257634 22.1768021,6.20144656" id="path-7"></path>
        <path d="M3.50960526,30.0733333 C2.43457895,32.7253333 1.64273684,35.5653333 1.13676316,38.5893333 C-0.775736842,50.0333333 2.90431579,60.2866667 9.50747368,70.1586667 C19.3920789,84.9466667 38.0513684,93.1586667 57.069,88.448 C57.2944737,88.392 57.5226316,88.3346667 57.7454211,88.2746667 C59.0875263,87.9213333 60.4309737,87.576 61.7771053,87.2413333 C75.2612368,83.9026667 88.9641316,81.6533333 102.966316,80.616 C132.739579,78.4133333 162.194763,81.6253333 191.330526,90.0546667 C198.906711,92.244 206.437263,92.412 215.138132,90.2906667 C225.995763,87.5306667 234.131605,80.2133333 239.862395,69.7466667 C240.639474,68.3293333 241.321263,66.8893333 241.911789,65.4333333 L253.865921,35.9586667 C253.275395,37.4146667 252.592263,38.8546667 251.816526,40.272 C246.085737,50.7386667 237.949895,58.056 227.090921,60.8173333 C218.391395,62.936 210.860842,62.7693333 203.284658,60.58 C174.147553,52.1533333 144.692368,48.9386667 114.920447,51.1426667 C100.916921,52.1773333 87.2153684,54.428 73.7312368,57.7693333 C72.3837632,58.1013333 71.043,58.4453333 69.7008947,58.8 C69.4754211,58.86 69.2472632,58.9186667 69.0244737,58.9733333 C50.0055,63.684 31.3462105,55.4733333 21.4616053,40.6826667 C14.8597895,30.8106667 11.1783947,20.56 13.0895526,9.11333333 C13.5968684,6.09066667 14.3887105,3.25066667 15.4637368,0.6" id="path-9"></path>
        <path d="M3.50960526,30.0733333 C2.43457895,32.7253333 1.64273684,35.5653333 1.13676316,38.5893333 C-0.775736842,50.0333333 2.90431579,60.2866667 9.50747368,70.1586667 C19.3920789,84.9466667 38.0513684,93.1586667 57.069,88.448 C57.2944737,88.392 57.5226316,88.3346667 57.7454211,88.2746667 C59.0875263,87.9213333 60.4309737,87.576 61.7771053,87.2413333 C75.2612368,83.9026667 88.9641316,81.6533333 102.966316,80.616 C132.739579,78.4133333 162.194763,81.6253333 191.330526,90.0546667 C198.906711,92.244 206.437263,92.412 215.138132,90.2906667 C225.995763,87.5306667 234.131605,80.2133333 239.862395,69.7466667 C240.639474,68.3293333 241.321263,66.8893333 241.911789,65.4333333 L253.865921,35.9586667 C253.275395,37.4146667 252.592263,38.8546667 251.816526,40.272 C246.085737,50.7386667 237.949895,58.056 227.090921,60.8173333 C218.391395,62.936 210.860842,62.7693333 203.284658,60.58 C174.147553,52.1533333 144.692368,48.9386667 114.920447,51.1426667 C100.916921,52.1773333 87.2153684,54.428 73.7312368,57.7693333 C72.3837632,58.1013333 71.043,58.4453333 69.7008947,58.8 C69.4754211,58.86 69.2472632,58.9186667 69.0244737,58.9733333 C50.0055,63.684 31.3462105,55.4733333 21.4616053,40.6826667 C14.8597895,30.8106667 11.1783947,20.56 13.0895526,9.11333333 C13.5968684,6.09066667 14.3887105,3.25066667 15.4637368,0.6" id="path-11"></path>
    </defs>
    <g id="Page-1" stroke="none" stroke-width="1" fill="none" fill-rule="evenodd" opacity="0.350613839">
        <g id="A-better-view" transform="translate(-399.000000, -53.000000)">
            <g id="OPENER" transform="translate(127.000000, 53.000000)">
                <g id="shape" transform="translate(272.000000, 0.000000)">
                    <g id="Group-48" opacity="0.0468191964">
                        <g id="Group-45" transform="translate(0.000000, 0.339695)">
                            <g id="Group-17" transform="translate(194.239583, 0.000000)">
                                <path d="M120.623451,2.09595229 C130.784191,-0.43875 141.206149,1.21309351 151.573184,6.97779962 C178.916759,22.1739561 206.155847,37.5523111 233.40967,52.9025324 C254.245549,64.6208416 261.570391,88.6067347 250.804159,108.408761 C245.082799,118.925365 236.963584,126.277609 226.125016,129.052116 C217.441836,131.180891 209.925434,131.01209 202.363486,128.813651 C173.282472,120.345441 143.881297,117.116777 114.16398,119.331292 C100.188107,120.372235 86.512301,122.6323 73.0521677,125.988235 C71.7085656,126.323158 70.3689823,126.6688 69.029399,127.025158 C68.8056885,127.085445 68.5779594,127.143052 68.354249,127.199319 C49.3723531,131.93246 30.748126,123.681281 20.8807552,108.822727 C14.2926844,98.9036279 10.6182073,88.601376 12.525774,77.101437 C14.4788865,65.3858073 20.6516865,56.392437 31.0361365,50.5192156 C57.3080448,35.6673607 83.6121031,20.8784714 110.046101,6.30795229 C113.530357,4.38683015 117.061499,2.98416985 120.623451,2.09595229" id="Fill-1" fill="#F0F0F0"></path>
                                <path d="M250.803758,108.409297 C250.229076,109.464977 249.623585,110.480465 249.000678,111.471839 C248.910926,111.615187 248.822514,111.759874 248.732762,111.900542 C248.132628,112.835648 247.507043,113.735923 246.862703,114.608065 C246.734103,114.779545 246.606843,114.952366 246.476903,115.122507 C245.890166,115.894171 245.288693,116.648419 244.664447,117.369175 C244.606845,117.43482 244.546564,117.496446 244.490301,117.560752 C243.903564,118.229259 243.298072,118.869633 242.680524,119.489912 C242.53317,119.637278 242.385816,119.785984 242.235783,119.932011 C241.572689,120.577744 240.89218,121.199362 240.190239,121.790168 C240.068337,121.891984 239.942416,121.989782 239.819174,122.090259 C239.185551,122.6114 238.535853,123.107087 237.87276,123.581339 C237.728085,123.683156 237.586089,123.791671 237.440074,123.893488 C236.692587,124.409271 235.927685,124.89558 235.142689,125.352416 C234.972562,125.452893 234.799755,125.546671 234.626949,125.64179 C233.900895,126.050397 233.158766,126.436229 232.400562,126.792587 C232.290716,126.844835 232.184889,126.901103 232.075043,126.952011 C231.237803,127.333824 230.375112,127.678126 229.499024,127.996973 C229.294068,128.071996 229.089112,128.14166 228.882816,128.212664 C227.981276,128.523473 227.06768,128.811507 226.125953,129.051313 C217.441435,131.181427 209.925033,131.012626 202.363085,128.812847 C173.28207,120.344637 143.880895,117.117313 114.164918,119.330488 C100.187705,120.371431 86.5118992,122.631496 73.0531054,125.987431 C71.7095033,126.322355 70.3685804,126.669335 69.0303367,127.025694 C68.8052867,127.084641 68.5788971,127.142248 68.3551867,127.198515 C49.3719513,131.932996 30.7477242,123.680477 20.8816929,108.821923 C14.2922825,98.9014844 10.6178054,88.6032515 12.5253721,77.1006332 C12.7785533,75.5827592 13.1027325,74.109095 13.4979096,72.6836599 C13.8930867,71.2582248 14.3592617,69.8769996 14.895095,68.5453431 L14.895095,68.5480225 C14.895095,68.5466828 14.895095,68.5466828 14.895095,68.5453431 L2.96342625,98.1619729 C1.89042,100.825286 1.10140542,103.680175 0.595042917,106.715923 C-1.31386333,118.217202 2.36061375,128.518114 8.95002417,138.437213 C18.8160554,153.297106 37.4416221,161.548286 56.4235179,156.815145 C56.6472283,156.758877 56.8736179,156.699931 57.0986679,156.640984 C58.4369117,156.283286 59.7778346,155.938984 61.1214367,155.604061 C74.58157,152.248126 88.2573763,149.986721 102.233249,148.945778 C131.949226,146.731263 161.350401,149.961267 190.432755,158.429477 C197.993364,160.629255 205.509766,160.796717 214.194285,158.667942 C215.136012,158.426797 216.049608,158.137423 216.951147,157.829294 C217.157443,157.75829 217.363739,157.685946 217.567355,157.613603 C218.444783,157.293416 219.306135,156.949114 220.143374,156.565961 C220.25322,156.516393 220.359047,156.458786 220.468893,156.407877 C221.227097,156.051519 221.969226,155.665687 222.69662,155.258419 C222.868087,155.160622 223.040893,155.066843 223.21102,154.969045 C223.996016,154.51087 224.762258,154.0259 225.508405,153.507439 C225.65442,153.406961 225.796416,153.299786 225.941091,153.196629 C226.605524,152.722377 227.253883,152.225351 227.887505,151.705549 C228.010747,151.605072 228.136668,151.508614 228.25857,151.405458 C228.960512,150.814652 229.64102,150.191694 230.306793,149.545961 C230.455487,149.401274 230.601501,149.251229 230.748855,149.103862 C231.366403,148.483584 231.971895,147.844549 232.558633,147.176042 C232.614895,147.111736 232.675176,147.05011 232.732778,146.984465 C233.357024,146.265049 233.958497,145.509461 234.546574,144.736458 C234.613553,144.649377 234.685891,144.570335 234.75287,144.481916 C234.813151,144.398855 234.868074,144.306416 234.929695,144.223355 C235.575374,143.351213 236.20096,142.450939 236.801093,141.515832 C236.892185,141.373824 236.979258,141.229137 237.06901,141.087129 C237.691916,140.095755 238.298747,139.081606 238.872089,138.024587 C239.260568,137.31187 239.623595,136.593794 239.965189,135.871698 C240.305443,135.148263 240.622924,134.420809 240.917633,133.689335 L252.849301,104.075385 C252.259885,105.536992 251.579376,106.985202 250.803758,108.409297" id="Fill-3" fill="#858585"></path>
                                <g id="Group-7" transform="translate(266.897917, 133.629771)">
                                    <mask id="mask-2" fill="white">
                                        <use xlink:href="#path-1"></use>
                                    </mask>
                                    <g id="Clip-6"></g>
                                    <path d="M92.7417623,150.908781 L80.8114331,180.524071 C68.0358269,139.430277 45.0472373,104.01143 11.7317998,74.3693458 C-0.257471042,63.6933191 -6.20656062,46.8975672 0.662822708,29.8459336 L12.5944915,0.230643511 C5.72510813,17.2822771 11.6728581,34.078029 23.6634685,44.7540557 C56.978906,74.3961397 79.966156,109.814987 92.7417623,150.908781" id="Fill-5" fill="#858585" mask="url(#mask-2)"></path>
                                </g>
                                <g id="Group-14" transform="translate(346.952083, 284.015267)">
                                    <g id="Group-10">
                                        <mask id="mask-4" fill="white">
                                            <use xlink:href="#path-3"></use>
                                        </mask>
                                        <g id="Clip-9"></g>
                                        <path d="M98.1840906,12.0362187 L86.2524219,41.6501691 C85.0615323,44.6068752 83.496899,47.3666462 81.6080865,49.8879515 L93.5384156,20.2713218 C95.4285677,17.7526958 96.993201,14.9915851 98.1840906,12.0362187" id="Fill-8" fill="#8A8A8A" mask="url(#mask-4)"></path>
                                    </g>
                                    <g id="Group-13">
                                        <mask id="mask-6" fill="white">
                                            <use xlink:href="#path-5"></use>
                                        </mask>
                                        <g id="Clip-12"></g>
                                        <path d="M93.5388175,20.2719916 L81.6084883,49.8872817 C76.3198133,56.9394344 68.4805717,62.1160145 59.1409967,64.4457435 C56.0519175,65.2160679 52.79673,65.6742435 49.4156217,65.7867779 C30.9320508,66.4057168 16.2971029,59.9859 6.83428625,44.3664 C4.15645917,39.9574649 2.74319875,34.9001176 0.756596667,30.1388427 L12.6882654,0.523552672 C14.6748675,5.28348779 16.0881279,10.3435145 18.765955,14.7524496 C28.2274321,30.3692702 42.86238,36.7904267 61.3472904,36.1701481 C64.7270592,36.0589534 67.9822467,35.5994382 71.0726654,34.8291137 C80.4109008,32.5007244 88.2501425,27.325484 93.5388175,20.2719916" id="Fill-11" fill="#858585" mask="url(#mask-6)"></path>
                                    </g>
                                </g>
                                <path d="M308.539933,108.494234 C315.906302,106.657513 323.871464,106.708421 331.571389,109.066284 C334.807823,110.063016 337.963881,111.473715 340.933737,113.07465 C367.973227,127.617035 394.948416,142.273295 421.990585,156.827738 C436.951052,164.876623 444.67241,176.949952 445.216281,192.809257 C446.218289,222.206177 447.078302,251.627211 447.800337,281.034848 C448.255796,299.525314 435.883404,314.390566 418.025419,318.845051 C414.93366,319.615375 411.679812,320.07489 408.298704,320.186085 C389.813794,320.806364 375.180185,314.385207 365.717369,298.767047 C363.039541,294.358112 361.626281,289.299425 359.639679,284.53815 C346.864073,243.444356 323.876823,208.025509 290.561385,178.383425 C276.663208,166.010005 270.882906,145.413539 283.771037,125.726726 C289.393269,117.129906 298.399287,111.023577 308.539933,108.494234" id="Fill-15" fill="#F0F0F0"></path>
                            </g>
                            <g id="Group-27" transform="translate(0.000000, 100.477099)">
                                <path d="M114.466458,1.55163435 C130.560212,-2.46343053 149.914512,3.6710313 160.604387,22.0811153 C169.733648,37.8185084 167.939946,55.7409435 154.980816,68.0393405 C132.666037,89.2158939 115.765854,113.89039 104.980869,142.405791 C101.500631,151.610833 98.8375394,161.173573 96.3673477,170.724256 C93.293004,182.60065 86.8067415,191.815069 75.0599352,196.570985 C73.0853894,197.372123 71.0532415,198.031253 68.9849248,198.547035 C48.5803915,203.635195 24.6085477,194.813306 16.9166602,171.711611 C16.4987102,167.586692 15.8610685,163.46847 15.7043373,159.350249 C14.6942915,132.165165 13.6628123,104.997497 12.9153248,77.829829 C12.532204,64.0564282 18.6996456,53.4286305 30.7358019,46.6055656 C55.4832644,32.599058 80.474531,18.9730237 105.327821,5.14335573 C108.181133,3.55447786 111.259496,2.35143206 114.466458,1.55163435" id="Fill-20" fill="#F0F0F0"></path>
                                <g id="Group-26" transform="translate(0.000000, 62.965649)">
                                    <path d="M94.3479258,113.943308 L82.4162571,143.558598 C81.1423133,146.722957 79.5495487,149.632774 77.5910779,152.245178 L89.5227467,122.628548 C91.4798779,120.017484 93.0726425,117.107667 94.3479258,113.943308" id="Fill-22" fill="#8A8A8A"></path>
                                    <path d="M94.3479258,113.943308 C93.0458508,117.175991 91.4048613,120.140735 89.3887883,122.79601 C89.0016488,123.306434 88.6024529,123.80748 88.1858425,124.295129 C88.1684279,124.316564 88.1510133,124.340678 88.1322592,124.360774 C87.6968946,124.867178 87.2414363,125.357506 86.7752613,125.837117 C86.634605,125.981804 86.4872508,126.123812 86.3425758,126.265819 C86.0009821,126.604762 85.6513508,126.937006 85.2923425,127.261213 C85.1262342,127.412598 84.9587863,127.562644 84.7886592,127.708671 C84.3975008,128.048953 83.9942863,128.379858 83.5830342,128.704064 C83.451755,128.80722 83.3258342,128.913056 83.1932154,129.013533 C82.6493446,129.428839 82.0893988,129.828068 81.5106988,130.215239 C81.3754008,130.303659 81.2347446,130.38672 81.0981071,130.47514 C80.6426488,130.771213 80.1778133,131.056568 79.6995821,131.332545 C79.497305,131.451777 79.2896696,131.565652 79.0820342,131.680865 C78.6346133,131.928709 78.1764758,132.168514 77.7089613,132.400281 C77.5080238,132.500758 77.3097654,132.603915 77.1048092,132.700373 C76.4403758,133.015201 75.7625467,133.320652 75.060605,133.606006 C73.0847196,134.405804 71.0539113,135.066274 68.9855946,135.580716 C48.5810613,140.668877 24.6078779,131.846987 16.9159904,108.745293 C16.4980404,104.620373 15.8617383,100.503491 15.7050071,96.3852698 C14.6936217,69.2001859 13.6634821,42.0298385 12.9159946,14.8635103 C12.7686404,9.58511336 13.5844467,4.76623168 15.3245654,0.448395802 L3.39289667,30.0650256 C1.65277792,34.3815218 0.83831125,39.1990637 0.984325833,44.4774607 C1.73181333,71.6464683 2.76195292,98.815476 3.77333833,126.00056 C3.93006958,130.117442 4.56771125,134.235663 4.98566125,138.360583 C12.6775488,161.462277 36.6493925,170.284167 57.0539258,165.196006 C59.1222425,164.680224 61.1543904,164.022434 63.1289363,163.219957 C63.8322175,162.935942 64.5100467,162.631831 65.1758196,162.314323 C65.3794363,162.217865 65.576355,162.116048 65.7759529,162.016911 C66.2448071,161.783804 66.7029446,161.543999 67.151705,161.296155 C67.3593404,161.182281 67.5642967,161.067068 67.7679133,160.949174 C68.2474842,160.671858 68.7136592,160.383823 69.1717967,160.087751 C69.305755,160.00201 69.4450717,159.91761 69.5776904,159.830529 C70.1563904,159.444697 70.7176758,159.044129 71.2628863,158.628823 C71.3941654,158.528346 71.5200863,158.421171 71.6500258,158.319354 C72.0626175,157.995148 72.4671717,157.665583 72.85833,157.323961 C73.0271175,157.176594 73.1945654,157.027888 73.3606738,156.877842 C73.7196821,156.553636 74.0706529,156.220052 74.4122467,155.88111 C74.5569217,155.737762 74.7015967,155.598434 74.8422529,155.452407 C75.3097675,154.972797 75.7652258,154.483808 76.2005904,153.977403 C76.2193446,153.954629 76.2367592,153.931854 76.2555133,153.910419 C76.6707842,153.42277 77.06998,152.921724 77.4571196,152.4113 C77.4999863,152.355033 77.5482113,152.301445 77.5910779,152.243839 L77.6044738,152.209006 C79.5535675,149.60598 81.1476717,146.712239 82.4162571,143.558598 L94.3479258,113.943308 Z" id="Fill-24" fill="#858585"></path>
                                </g>
                            </g>
                            <g id="Group-35" transform="translate(471.193750, 360.038168)">
                                <g id="Group-30" transform="translate(60.620833, 21.774809)">
                                    <mask id="mask-8" fill="white">
                                        <use xlink:href="#path-7"></use>
                                    </mask>
                                    <g id="Clip-29"></g>
                                    <path d="M12.2624119,37.7390645 L0.330743125,67.3543546 C4.39503896,57.2651141 7.69845146,46.7525302 10.2449994,35.8166027 C10.7460035,33.6690721 11.3903431,31.6354156 12.1606035,29.7250111 L24.0909327,0.108381298 C23.3206723,2.02146527 22.6776723,4.05244237 22.1766681,6.2013126 C19.6287806,17.1372401 16.3267077,27.6511637 12.2624119,37.7390645" id="Fill-28" fill="#858585" mask="url(#mask-8)"></path>
                                </g>
                                <path d="M150.418195,168.590339 C150.526701,168.384026 150.637886,168.177713 150.741034,167.968721 C151.096024,167.256003 151.432259,166.532568 151.730986,165.790377 L163.662655,136.175087 C163.363928,136.917278 163.026353,137.639373 162.672703,138.35477 C162.568215,138.562423 162.45703,138.767396 162.348524,138.975049 C162.06989,139.504228 161.776522,140.026709 161.465738,140.539812 C161.349195,140.730049 161.23667,140.925644 161.116107,141.114541 C160.68878,141.787068 160.24002,142.447537 159.75777,143.089251 C159.72428,143.133461 159.688111,143.174992 159.654622,143.220541 C159.199163,143.818045 158.712895,144.399473 158.207872,144.968843 C158.095347,145.097453 157.984161,145.226064 157.868957,145.350656 C157.337143,145.934763 156.779876,146.504133 156.194478,147.056087 C156.087311,147.157904 155.973447,147.255702 155.863601,147.357518 C155.32107,147.855885 154.755765,148.343534 154.170368,148.815106 C154.068559,148.898167 153.96943,148.982568 153.866282,149.064289 C153.215245,149.577392 152.533397,150.0704 151.831455,150.548671 C151.673384,150.655847 151.512634,150.760343 151.353224,150.867518 C150.621811,151.348469 149.872984,151.818702 149.087988,152.26616 C123.45908,166.851415 97.6439696,181.148637 71.6198842,195.102896 C68.9929613,196.512255 66.2387779,197.559896 63.4243133,198.260556 C48.1061779,202.081366 30.8644008,195.725854 21.15778,182.386515 C13.4082904,171.715847 9.90260083,160.501263 13.4029321,148.05416 C13.7606008,146.788148 14.18123,145.554289 14.6648196,144.353923 L2.73315083,173.970553 C2.25090083,175.16824 1.82893208,176.402098 1.47126333,177.66945 C-2.02772833,190.116553 1.47662167,201.331137 9.22611125,212.000465 C18.9327321,225.341144 36.1745092,231.695316 51.4926446,227.877186 C54.3084488,227.173847 57.0626321,226.127545 59.6882154,224.718186 C85.7109613,210.762587 111.528751,196.466705 137.15632,181.88145 C137.942655,181.435331 138.690143,180.963759 139.421555,180.482808 C139.580965,180.376973 139.741715,180.271137 139.899786,180.163961 C140.603068,179.68435 141.284915,179.191343 141.935953,178.67824 C142.039101,178.597858 142.13689,178.512118 142.240038,178.430396 C142.825436,177.958824 143.389401,177.472515 143.933272,176.972808 C144.043118,176.872331 144.155643,176.773194 144.264149,176.671377 C144.849547,176.119423 145.406813,175.550053 145.938628,174.967285 C146.053832,174.840015 146.165018,174.711404 146.277543,174.585473 C146.782565,174.014763 147.267495,173.431995 147.724293,172.833152 C147.757782,172.790282 147.793951,172.748751 147.824761,172.704541 C147.838157,172.689805 147.851553,172.673728 147.863609,172.657652 C148.332463,172.030675 148.769168,171.384942 149.185778,170.729831 C149.30634,170.539595 149.418865,170.346679 149.53407,170.153763 C149.843513,169.64066 150.139561,169.120858 150.418195,168.590339" id="Fill-31" fill="#858585"></path>
                                <path d="M106.578187,1.83506183 C131.463626,-3.86801832 150.662535,4.79578702 159.06708,21.7991916 C161.41403,26.5309931 162.864799,32.0210618 163.096547,37.1708481 C164.390585,65.3741 165.316237,93.5827107 166.070422,121.800699 C166.425412,135.006069 160.742899,145.645924 149.087185,152.266695 C123.459616,166.851951 97.6431658,181.149173 71.6190804,195.103432 C68.9921575,196.511451 66.2393138,197.560432 63.4235096,198.261092 C48.1053742,202.081902 30.8635971,195.72639 21.1569763,182.38705 C13.4074867,171.716382 9.90313667,160.501798 13.4021283,148.054695 C15.1743971,141.783585 18.4791492,136.348444 23.2614617,131.812237 C53.6726825,103.014161 73.3846513,68.3803748 82.7979033,27.9765237 C86.0383554,14.0771916 95.2104825,5.04095115 106.578187,1.83506183" id="Fill-33" fill="#F0F0F0"></path>
                            </g>
                            <g id="Group-44" transform="translate(17.414583, 352.339695)">
                                <path d="M42.2342494,2.35357557 C45.6957327,1.48813282 49.3648515,1.01254122 53.192041,0.969670992 C71.1304015,0.771396183 85.1745931,7.31580458 94.3038535,22.3833504 C97.035264,26.8860641 98.4833535,32.0572855 100.512822,36.9136786 C113.175904,77.5345603 135.847012,112.614465 168.607862,142.059614 C181.284339,153.448358 186.548901,167.209702 181.904566,182.809106 C177.416962,197.879331 167.896543,208.666553 152.013104,212.62669 C150.393547,213.029938 148.708351,213.363522 146.956176,213.622083 C137.596508,215.011347 128.577093,213.200079 120.168529,208.654495 C92.382891,193.617763 64.5597452,178.660072 36.8879723,163.437121 C23.228241,155.913396 15.8511556,144.386663 15.2737952,129.718347 C14.1096973,99.8833466 13.2871931,70.0362893 12.5437244,40.202629 C12.0815681,21.5299649 24.3869806,6.80404122 42.2342494,2.35357557" id="Fill-36" fill="#FFFFFF"></path>
                                <path d="M164.46078,224.859308 C164.774242,224.356923 165.081007,223.846499 165.377055,223.326697 C165.540484,223.041342 165.702574,222.754648 165.859305,222.463934 C166.158032,221.913319 166.443363,221.350648 166.721996,220.782617 C166.850596,220.521377 166.984555,220.262816 167.109136,219.997556 C167.500294,219.162926 167.875378,218.31356 168.226349,217.442758 L180.158017,187.826129 C179.807046,188.69827 179.430624,189.548976 179.039465,190.383606 C178.914884,190.647526 178.782265,190.904747 178.655005,191.165987 C178.375032,191.734018 178.089701,192.29669 177.790974,192.847304 C177.632903,193.138018 177.470813,193.426052 177.308724,193.711407 C177.012676,194.231209 176.705911,194.741632 176.392449,195.244018 C176.223661,195.513297 176.056213,195.783915 175.882067,196.047835 C175.52038,196.59711 175.145296,197.132987 174.759496,197.659487 C174.622859,197.849724 174.492919,198.04398 174.352263,198.230197 C173.765526,199.00722 173.150657,199.757449 172.511676,200.483564 C172.350926,200.665762 172.182138,200.842602 172.018709,201.022121 C171.504309,201.586132 170.973834,202.132728 170.427284,202.664587 C170.234384,202.850804 170.042824,203.039701 169.847244,203.223239 C169.134586,203.885048 168.401834,204.528102 167.634253,205.134984 C167.575311,205.181873 167.511011,205.226083 167.45073,205.272972 C166.736732,205.831625 165.993263,206.360804 165.23104,206.872568 C164.993934,207.030652 164.754149,207.184716 164.513024,207.338781 C163.836534,207.770163 163.14129,208.184129 162.427292,208.577999 C162.237071,208.682495 162.053549,208.79369 161.860649,208.895506 C160.969826,209.368419 160.048192,209.813197 159.098428,210.225823 C158.874717,210.323621 158.64163,210.412041 158.41524,210.505819 C157.648999,210.824667 156.864003,211.124758 156.060253,211.404755 C155.772242,211.503892 155.485571,211.605709 155.193542,211.700827 C154.160724,212.03843 153.106471,212.353258 152.013371,212.626556 C150.393815,213.029804 148.708619,213.363388 146.956444,213.621949 C137.595436,215.011213 128.576021,213.199945 120.168796,208.654361 C92.3818194,193.617629 64.5600131,178.659938 36.8882402,163.436987 C23.228509,155.913262 15.850084,144.386529 15.2727235,129.718213 C14.1099652,99.8832126 13.2861215,70.0361553 12.5439923,40.202495 C12.4086944,34.7512775 13.3624777,29.6349836 15.223159,25.0143767 L3.29149021,54.6310065 C1.43080896,59.2516134 0.477025625,64.3665676 0.612323542,69.8177851 C1.35579229,99.6501057 2.17829646,129.498503 3.34239438,159.333503 C3.91975479,174.001819 11.2968402,185.528552 24.9565715,193.052277 C52.6283444,208.273888 80.4514902,223.231579 108.237128,238.270991 C116.645692,242.815235 125.665107,244.627842 135.024776,243.237239 C136.776951,242.977339 138.463486,242.645094 140.083042,242.241846 C141.176142,241.968548 142.229055,241.652381 143.261874,241.316117 C143.555242,241.220999 143.840574,241.120522 144.128584,241.020045 C144.932334,240.740048 145.71733,240.439957 146.484911,240.122449 C146.711301,240.027331 146.944388,239.938911 147.168099,239.842453 C148.116524,239.427148 149.038157,238.985048 149.92898,238.510797 C150.12188,238.40898 150.306742,238.297785 150.496963,238.191949 C151.209621,237.798079 151.906205,237.385453 152.582694,236.952732 C152.82248,236.800006 153.063605,236.647281 153.299371,236.489197 C154.061594,235.977434 154.805063,235.445575 155.520401,234.886923 C155.580682,234.840033 155.643642,234.798503 155.702584,234.751613 C156.471505,234.143392 157.202917,233.498999 157.915576,232.83719 C158.112494,232.653652 158.302715,232.466094 158.495615,232.278537 C159.042165,231.749358 159.57264,231.200083 160.08704,230.637411 C160.250469,230.457892 160.419257,230.282392 160.581346,230.098854 C161.218988,229.3714 161.835196,228.62251 162.421934,227.845487 C162.447386,227.810655 162.476857,227.779842 162.502309,227.74501 C162.616174,227.593625 162.716642,227.430182 162.827828,227.277457 C163.212288,226.748277 163.590051,226.213739 163.950399,225.663125 C164.124544,225.397865 164.291992,225.128587 164.46078,224.859308" id="Fill-38" fill="#858585"></path>
                                <path d="M236.803504,190.141121 C244.160496,188.30306 251.363435,188.52411 258.556998,190.643506 C289.694273,199.805678 321.183858,203.122762 352.828835,199.663671 C365.075306,198.327995 377.256138,196.006304 389.134223,193.044239 C389.891088,192.855342 390.643933,192.665106 391.398119,192.47085 C410.263471,187.767182 430.278185,195.256075 440.863573,211.612407 C450.221902,226.073071 452.149563,240.560529 444.136175,255.25564 C440.789896,261.382064 435.751723,266.00669 429.578923,269.456403 C403.561535,284.018884 377.576298,298.644331 351.508006,313.12509 C347.865679,315.14535 344.191202,316.614995 340.491273,317.538045 C330.088069,320.131694 319.481248,318.396789 308.788694,312.392277 C282.031856,297.371621 255.296452,282.298716 228.551671,267.240548 C206.705746,254.936793 199.418413,231.263048 210.810229,210.50448 C216.389594,200.361652 224.306531,193.257251 236.803504,190.141121" id="Fill-40" fill="#FFFFFF"></path>
                                <path d="M444.136711,255.25497 C443.734836,255.991802 443.306169,256.70184 442.856069,257.395802 C442.708715,257.62355 442.546625,257.837902 442.392573,258.061631 C442.076432,258.522485 441.76029,258.98334 441.422715,259.426779 C441.292775,259.596921 441.154798,259.760363 441.02218,259.929165 C440.669869,260.373944 440.308182,260.809344 439.933098,261.235367 C439.76699,261.424264 439.599542,261.613161 439.428075,261.799379 C439.036917,262.224062 438.633702,262.639367 438.221111,263.045295 C438.080455,263.184623 437.943817,263.326631 437.801821,263.463279 C437.244555,263.992459 436.673892,264.505562 436.083136,264.999909 C435.962573,265.103066 435.836652,265.196844 435.71475,265.295982 C435.23384,265.689852 434.740873,266.074344 434.23853,266.446779 C434.034913,266.598165 433.828617,266.745531 433.620982,266.892898 C433.164184,267.219783 432.696669,267.535951 432.222457,267.845421 C432.022859,267.975371 431.82594,268.10934 431.623663,268.235272 C430.955211,268.657276 430.276042,269.067222 429.578119,269.457073 C403.560732,284.019554 377.575494,298.645001 351.508542,313.124421 C347.866215,315.14468 344.190398,316.615665 340.490469,317.537375 C330.088605,320.132363 319.481784,318.397459 308.78923,312.391608 C282.032392,297.372291 255.295648,282.299386 228.552207,267.239879 C208.404873,255.894005 200.639309,234.876875 208.489267,215.395035 L196.557598,245.011665 C188.70898,264.493505 196.474544,285.509295 216.620538,296.855169 C243.365319,311.914676 270.102063,326.987581 296.857561,342.008237 C307.550115,348.011409 318.156936,349.746314 328.56014,347.154005 C332.25873,346.230955 335.934546,344.75997 339.576873,342.739711 C365.645165,328.260291 391.630403,313.634844 417.64779,299.072363 C418.345713,298.681173 419.023542,298.271226 419.691994,297.851902 C419.894271,297.723291 420.09119,297.592001 420.290788,297.460711 C420.76634,297.151241 421.232515,296.833734 421.690653,296.508188 C421.896948,296.360821 422.104584,296.213455 422.306861,296.062069 C422.809205,295.690974 423.299492,295.306482 423.780402,294.915291 C423.903644,294.813474 424.030905,294.717016 424.152807,294.615199 C424.742223,294.120852 425.314225,293.607749 425.868813,293.078569 C426.013488,292.94326 426.150125,292.798573 426.292121,292.659245 C426.703373,292.253318 427.106588,291.839352 427.497746,291.413329 C427.667873,291.229791 427.835321,291.040894 428.002769,290.850657 C428.376513,290.425974 428.7382,289.989234 429.09185,289.544455 C429.224469,289.376993 429.361107,289.212211 429.491046,289.042069 C429.54329,288.973745 429.598213,288.910779 429.650457,288.842455 C429.931769,288.466001 430.192988,288.069451 430.459565,287.67826 C430.613617,287.454531 430.777046,287.23884 430.92574,287.009753 C431.3745,286.31847 431.803167,285.605753 432.206382,284.87026 C433.067734,283.29076 433.813882,281.71126 434.450184,280.13444 L446.380513,250.520489 C445.74555,252.09597 444.999402,253.674131 444.136711,255.25497" id="Fill-42" fill="#858585"></path>
                            </g>
                        </g>
                        <path d="M148.957514,191.316785 C149.206676,190.925594 149.446462,190.530384 149.67821,190.132495 C149.809489,189.906087 149.942108,189.678339 150.069368,189.449251 C150.303795,189.023228 150.526166,188.593186 150.743179,188.161804 C150.842308,187.95951 150.948135,187.761235 151.044585,187.558942 C151.345991,186.925266 151.632662,186.286232 151.892541,185.640499 L163.82421,156.023869 C163.562991,156.670942 163.27766,157.308636 162.976254,157.942312 C162.879804,158.145945 162.772637,158.34556 162.673508,158.546514 C162.457835,158.977896 162.235464,159.409277 161.999697,159.833961 C161.873776,160.064388 161.741158,160.290797 161.608539,160.518545 C161.376791,160.916434 161.137006,161.310304 160.889183,161.702835 C160.745847,161.927903 160.601172,162.151632 160.452479,162.375361 C160.181883,162.781289 159.897891,163.183197 159.607201,163.582426 C159.473243,163.765965 159.344643,163.950842 159.206666,164.133041 C158.652079,164.867194 158.059983,165.58527 157.439756,166.289949 C157.304458,166.444014 157.166481,166.59406 157.029843,166.744106 C156.377466,167.462182 155.702316,168.170881 154.98162,168.855465 C153.754562,170.019659 152.548937,171.195911 151.356708,172.380201 C150.978945,172.755316 150.60922,173.134449 150.236816,173.509564 C149.41967,174.332136 148.607883,175.158728 147.806812,175.993358 C147.384843,176.431438 146.966893,176.870858 146.550283,177.312957 C145.78806,178.118113 145.032535,178.929968 144.285047,179.745842 C143.88987,180.178564 143.493354,180.608606 143.100856,181.041327 C142.266295,181.968396 141.443791,182.903503 140.626645,183.841289 C140.350691,184.158797 140.068039,184.474965 139.793424,184.793812 C138.71506,186.049106 137.65277,187.315117 136.607895,188.591846 C136.370789,188.88122 136.14306,189.173274 135.908633,189.462648 C135.100864,190.459381 134.302472,191.462812 133.514797,192.472942 C133.165166,192.923079 132.820893,193.377235 132.475281,193.830052 C132.09216,194.331098 131.701001,194.826785 131.323239,195.33051 C131.120962,195.601129 130.929401,195.879785 130.728464,196.150403 C129.967581,197.17527 129.222772,198.209514 128.481983,199.247777 C128.076089,199.817148 127.664837,200.385178 127.265641,200.958568 C126.405629,202.193766 125.56437,203.442361 124.732489,204.696316 C124.480647,205.076789 124.220768,205.450564 123.971606,205.831037 C122.902618,207.469484 121.859083,209.122667 120.83832,210.791926 C120.577101,211.219289 120.327939,211.656029 120.070739,212.086071 C119.319233,213.337346 118.577104,214.59264 117.855068,215.859991 C117.504097,216.476251 117.162504,217.100548 116.818231,217.720827 C116.203362,218.827415 115.596531,219.939361 115.003095,221.059346 C114.649445,221.726514 114.301154,222.399041 113.954201,223.071568 C113.383539,224.180835 112.824933,225.2968 112.274364,226.419465 C111.947506,227.086632 111.619308,227.752461 111.299147,228.424987 C110.723126,229.637411 110.163181,230.859213 109.609933,232.086373 C109.347374,232.6678 109.078118,233.246548 108.820918,233.830655 C108.025206,235.644602 107.249587,237.470606 106.506118,239.315365 L94.5744494,268.931995 C95.3179181,267.085896 96.0935369,265.258552 96.8892494,263.447285 C97.1464494,262.860499 97.4157056,262.28443 97.6796035,261.701663 C98.2315119,260.474503 98.7914577,259.251361 99.3674785,258.040277 C99.687639,257.36909 100.015837,256.703262 100.342695,256.036094 C100.893264,254.91343 101.45187,253.796125 102.022533,252.688197 C102.369485,252.014331 102.717776,251.343144 103.071426,250.674636 C103.666201,249.553312 104.274372,248.440026 104.890581,247.332098 C105.232174,246.713159 105.572429,246.092881 105.92206,245.4793 C106.646774,244.20659 107.392922,242.944598 108.145768,241.690644 C108.401629,241.263281 108.648112,240.833239 108.906651,240.409896 C109.926074,238.737957 110.970949,237.083434 112.041276,235.443648 C112.28642,235.068533 112.54496,234.698777 112.792783,234.325003 C113.627343,233.06435 114.47262,231.811735 115.336651,230.571178 C115.734508,229.999129 116.143081,229.433777 116.548974,228.867087 C117.288424,227.827484 118.035912,226.7919 118.796795,225.765694 C119.374156,224.99001 119.954195,224.215667 120.542272,223.446682 C120.889224,222.993865 121.234837,222.538369 121.585808,222.088232 C122.369464,221.080781 123.166516,220.081369 123.970266,219.087316 C124.207372,218.793923 124.43912,218.49785 124.677566,218.204457 C125.721101,216.929068 126.783391,215.664396 127.860416,214.410442 C128.13771,214.087575 128.423041,213.770068 128.703014,213.448541 C129.516141,212.513434 130.335966,211.582346 131.167847,210.659297 C131.561685,210.222556 131.960881,209.789835 132.357397,209.357113 C133.103545,208.542579 133.856391,207.733403 134.615935,206.929587 C135.033885,206.487487 135.453174,206.046728 135.875143,205.607308 C136.677554,204.774018 137.488001,203.947426 138.305147,203.123514 C138.678891,202.7484 139.048616,202.369266 139.425039,201.996831 C140.617268,200.811201 141.822893,199.634949 143.049951,198.470755 C143.770647,197.786171 144.445797,197.078812 145.098174,196.360735 C145.236151,196.20801 145.374129,196.057965 145.508087,195.906579 C146.129654,195.19922 146.72041,194.481144 147.276337,193.746991 C147.305808,193.70814 147.341976,193.670629 147.371447,193.630438 C147.478614,193.48843 147.571045,193.341064 147.675533,193.196377 C147.966222,192.797148 148.250214,192.397919 148.52081,191.990652 C148.670843,191.766923 148.814179,191.541854 148.957514,191.316785" id="Fill-18" fill="#8A8A8A"></path>
                    </g>
                    <g id="Group-55" transform="translate(193.000000, 67.000000)">
                        <g id="Group-51">
                            <mask id="mask-10" fill="white">
                                <use xlink:href="#path-9"></use>
                            </mask>
                            <g id="Clip-50"></g>
                            <path d="M253.865116,35.9582667 L241.912326,65.4329333 C241.3218,66.8889333 240.638668,68.3289333 239.862932,69.7476 C238.602695,72.0462667 237.228379,74.1942667 235.734616,76.1742667 L247.687405,46.6996 C249.182511,44.7182667 250.556826,42.5716 251.815721,40.2716 C252.5928,38.8542667 253.275932,37.4142667 253.865116,35.9582667" id="Stroke-49" stroke="#FFFFFF" stroke-width="0.25" mask="url(#mask-10)"></path>
                        </g>
                        <g id="Group-54">
                            <mask id="mask-12" fill="white">
                                <use xlink:href="#path-11"></use>
                            </mask>
                            <g id="Clip-53"></g>
                            <path d="M247.687942,46.6992 L235.733811,76.1738667 C230.425784,83.2085333 223.611916,88.1378667 215.137863,90.2912 C206.438337,92.4112 198.906442,92.2432 191.330258,90.0552 C162.194495,81.6258667 132.739311,78.4138667 102.966047,80.6165333 C88.9638632,81.6538667 75.2609684,83.9018667 61.7768368,87.2418667 C60.4307053,87.5752 59.0886,87.9205333 57.7464947,88.2752 C57.5223632,88.3352 57.2942053,88.3925333 57.0700737,88.4485333 C38.0511,93.1592 19.3918105,84.9472 9.50720526,70.1592 C2.90538947,60.2858667 -0.776005263,50.0338667 1.13649474,38.5885333 C1.64246842,35.5645333 2.43431053,32.7258667 3.50933684,30.0725333 L15.4634684,0.5992 C14.3884421,3.24986667 13.5966,6.0912 13.0892842,9.11386667 C11.1781263,20.5605333 14.8595211,30.8112 21.4613368,40.6832 C31.3459421,55.4725333 50.0052316,63.6832 69.0228632,58.9738667 C69.2469947,58.9178667 69.4751526,58.8592 69.6992842,58.8005333 C71.0413895,58.4458667 72.3848368,58.1018667 73.7309684,57.7685333 C87.2151,54.4285333 100.917995,52.1778667 114.920179,51.1418667 C144.6921,48.9392 174.148626,52.1525333 203.284389,60.5805333 C210.860574,62.7698667 218.391126,62.9365333 227.091995,60.8178667 C235.564705,58.6632 242.378574,53.7338667 247.687942,46.6992" id="Stroke-52" stroke="#FFFFFF" stroke-width="0.25" mask="url(#mask-12)"></path>
                        </g>
                    </g>
                    <g id="Group-92" stroke="#FFFFFF" stroke-width="0.25">
                        <path d="M446.524269,103.091305 L434.587626,132.675021 C433.997897,134.136408 433.315689,135.581736 432.541,137.005651 C426.816611,147.509704 418.6931,154.855448 407.850135,157.62566 C399.16102,159.753503 391.640641,159.584882 384.074691,157.387448 C354.976945,148.928267 325.561551,145.704383 295.828507,147.915199 C281.845238,148.955032 268.162194,151.212687 254.694937,154.565045 C253.351964,154.899611 252.010332,155.246222 250.670039,155.600863 C250.44621,155.661085 250.219701,155.71863 249.994532,155.774837 C231.00259,160.502933 212.367167,152.26055 202.497254,137.417837 C195.903016,127.509313 192.227935,117.219383 194.136511,105.731704 C194.643142,102.696516 195.433914,99.8460087 196.507488,97.1841968 L208.445471,67.6004801 C207.370557,70.262292 206.581125,73.1141376 206.074494,76.1466493 C204.164578,87.6356662 207.841,97.9255964 214.433897,107.834121 C224.30515,122.678171 242.939233,130.919216 261.932515,126.192459 C262.156344,126.136252 262.384194,126.077368 262.608023,126.018484 C263.948315,125.661167 265.288607,125.315895 266.63292,124.981328 C280.100177,121.630309 293.783221,119.371315 307.76649,118.331482 C337.499534,116.119328 366.914929,119.345888 396.011334,127.80507 C403.578624,130.001165 411.097663,130.168448 419.786778,128.043281 C430.631083,125.270393 438.754595,117.927326 444.477643,107.420596 C445.253672,105.998019 445.935881,104.552692 446.524269,103.091305 Z" id="Stroke-56"></path>
                        <path d="M638.913173,294.863272 L626.97519,324.446988 C625.78367,327.399204 624.218208,330.157371 622.328396,332.67465 L634.265039,303.090933 C636.156192,300.573654 637.721653,297.815487 638.913173,294.863272" id="Stroke-58"></path>
                        <path d="M611.787936,317.632134 C608.694541,318.402976 605.438971,318.860663 602.056073,318.973077 C583.56138,319.591356 568.920028,313.178384 559.452203,297.576874 C556.772959,293.17264 555.35895,288.119346 553.371297,283.364485 C540.59027,242.313164 517.590854,206.932077 484.256445,177.321595 C472.259489,166.658289 466.308591,149.877767 473.18161,132.84565 L461.244967,162.429367 C454.370608,179.462822 460.322846,196.242005 472.318462,206.905312 C505.652871,236.515794 528.652286,271.895542 541.434654,312.946864 C543.420967,317.703063 544.836316,322.756356 547.51556,327.159253 C556.982044,342.760762 571.624737,349.175073 590.11809,348.555456 C593.500988,348.44438 596.757898,347.986693 599.849952,347.215851 C609.19313,344.889944 617.03652,339.720221 622.327994,332.674249 L634.265977,303.09187 C628.974504,310.135166 621.132453,315.307566 611.787936,317.632134 Z" id="Stroke-60"></path>
                        <path d="M641.574055,279.857558 C642.029754,298.340355 629.658857,313.180391 611.792761,317.636818 C608.696686,318.400968 605.439775,318.855979 602.062239,318.975085 C583.566205,319.590687 568.916811,313.180391 559.453007,297.576205 C556.772423,293.173309 555.353053,288.114662 553.36808,283.363816 C540.583032,242.319186 517.583617,206.935423 484.250548,177.319588 C470.351717,164.967389 464.561654,144.38619 477.468669,124.725719 C483.084494,116.134049 492.104661,110.032892 502.250673,107.502231 C509.608878,105.668806 517.583617,105.722336 525.290297,108.079023 C528.520402,109.068002 531.683491,110.486565 534.6576,112.079102 C561.706038,126.612675 588.699525,141.253309 615.760026,155.786882 C630.717688,163.831201 638.451174,175.888981 638.987291,191.732717 C639.99251,221.094281 640.8637,250.483949 641.574055,279.857558 Z" id="Stroke-62"></path>
                        <path d="M113.726614,101.04737 C129.828886,97.0379243 149.192088,103.165846 159.888961,121.556303 C169.023053,137.27558 167.228401,155.180246 154.262414,167.464193 C131.934485,188.619508 115.026698,213.267698 104.234664,241.752698 C100.753925,250.947926 98.0894242,260.499134 95.616585,270.040973 C92.5419545,281.904704 86.0522593,291.109301 74.2992363,295.858808 C72.3236455,296.66043 70.2904221,297.317518 68.2210109,297.832751 C47.8056789,302.915487 23.8211486,294.104341 16.1238501,271.025937 C15.7070192,266.905415 15.0690401,262.791584 14.9122259,258.679091 C13.9003052,231.52299 12.8696205,204.382948 12.1217374,177.244244 C11.7384138,163.485527 17.9091194,152.870398 29.9503052,146.053269 C54.712205,132.061694 79.7166977,118.450186 104.58314,104.635263 C107.436623,103.048079 110.517954,101.847654 113.726614,101.04737 Z" id="Stroke-64"></path>
                        <path d="M93.5974347,276.21908 C92.2933303,279.448316 90.6528125,282.408562 88.6356727,285.061006 C88.2469879,285.570885 87.8489211,286.071397 87.4320902,286.558526 C87.4133261,286.579938 87.3972426,286.604027 87.3771382,286.625439 C86.9428835,287.129966 86.4871841,287.621109 86.0207624,288.100209 C85.8786914,288.244741 85.7312593,288.385259 85.587848,288.527116 C85.2460735,288.865697 84.8949169,289.197587 84.5370589,289.522786 C84.3695223,289.67401 84.2033261,289.822558 84.033109,289.969767 C83.6417436,290.309686 83.2383157,290.6389 82.8255056,290.96276 C82.6954973,291.065807 82.5695098,291.17153 82.4368209,291.273238 C81.8926622,291.686763 81.3310797,292.085566 80.7534138,292.472325 C80.6180443,292.561989 80.4773136,292.644961 80.3406038,292.733287 C79.8849044,293.027705 79.4184827,293.312756 78.9413386,293.589777 C78.7376142,293.707545 78.5312092,293.822636 78.3234639,293.936388 C77.8758063,294.185306 77.416086,294.424856 76.9496643,294.655037 C76.7486205,294.756746 76.5502572,294.858454 76.3451925,294.954809 C75.6804075,295.27064 75.0008793,295.575765 74.2999065,295.859477 C72.3229754,296.65976 70.289752,297.318188 68.2203407,297.832082 C47.8063491,302.914818 23.8204785,294.102333 16.1245203,271.025268 C15.7063491,266.904746 15.0697102,262.792253 14.912896,258.67976 C13.9009754,231.522321 12.8689503,204.382278 12.1210672,177.243574 C11.9749754,171.970805 12.7912134,167.158399 14.5309127,162.843828 L2.59426973,192.428883 C0.853230063,196.740777 0.0369920668,201.553183 0.184424217,206.827291 C0.930967015,233.965995 1.96299207,261.106037 2.97491273,288.262139 C3.13172693,292.37597 3.76970605,296.488462 4.18653695,300.608985 C11.8838355,323.687388 35.8683658,332.499873 56.2836977,327.417137 C58.353109,326.901904 60.3863324,326.243477 62.3619232,325.443194 C63.0642363,325.158143 63.7437645,324.854357 64.4098898,324.537188 C64.6136142,324.440832 64.8106372,324.339124 65.0103407,324.240092 C65.4781027,324.008572 65.937823,323.767684 66.3868209,323.521443 C66.5932259,323.406352 66.7996309,323.2926 67.0033553,323.174832 C67.4818397,322.897811 67.9496017,322.610084 68.4079816,322.312989 C68.5420109,322.22734 68.6814013,322.144367 68.8140902,322.056042 C69.3930965,321.670621 69.9546789,321.270479 70.5001779,320.855617 C70.6315265,320.755247 70.757514,320.649524 70.8875223,320.547815 C71.3003324,320.223955 71.7037603,319.893403 72.096466,319.553484 C72.2653428,319.406274 72.431539,319.256388 72.5990756,319.106503 C72.9582739,318.782642 73.3080902,318.449414 73.651205,318.110832 C73.7946163,317.967638 73.9407081,317.828458 74.0814388,317.683925 C74.5492008,317.204826 75.0049002,316.715021 75.4404952,316.209156 C75.4592593,316.186405 75.4753428,316.164993 75.4954472,316.142242 C75.9109378,315.656452 76.3103449,315.15594 76.6976894,314.646061 C76.7405787,314.588515 76.7888292,314.536323 76.8317186,314.478777 L76.8451215,314.443982 C78.7952468,311.842393 80.3888543,308.951737 81.6594514,305.801458 L93.5974347,276.21908 Z" id="Stroke-66"></path>
                        <path d="M634.389686,494.810039 L622.447682,524.399109 C622.152818,525.135155 621.817745,525.857819 621.469269,526.5671 C621.362046,526.781223 621.254822,526.981963 621.134196,527.196085 C620.866137,527.718009 620.571273,528.239933 620.249603,528.761857 C620.14238,528.949214 620.021753,529.136572 619.901127,529.323929 C619.485636,529.979679 619.058083,530.636768 618.587641,531.251033 C618.574238,531.277798 618.560835,531.291181 618.548772,531.305901 C618.507223,531.344711 618.480417,531.384859 618.441549,531.425007 C617.985849,532.027227 617.502004,532.616064 616.994033,533.178136 C616.885469,533.313301 616.778246,533.432407 616.65896,533.566233 C616.121503,534.141688 615.571983,534.717142 614.983595,535.265832 C614.875031,535.372893 614.755745,535.466572 614.648522,535.56025 C614.111064,536.068792 613.548142,536.550567 612.959753,537.018961 C612.85253,537.100595 612.757369,537.192935 612.650146,537.273231 C612.006805,537.781773 611.323256,538.276931 610.614242,538.758707 C610.453407,538.865768 610.292572,538.97283 610.130396,539.066508 C609.406638,539.549622 608.656075,540.03006 607.865302,540.471688 C582.225511,555.045409 556.399419,569.326049 530.3562,583.256064 C527.729227,584.674627 524.981628,585.719813 522.168354,586.414373 C506.834071,590.228432 489.584509,583.885049 479.86739,570.557255 C472.120501,559.903316 468.610275,548.703364 472.120501,536.256149 C472.468977,534.998178 472.89787,533.766973 473.380375,532.562534 L485.148142,503.374944 C485.201753,503.267882 485.241962,503.160821 485.282171,503.05376 C485.054321,503.629214 484.839874,504.206007 484.640171,504.806889 C484.424384,505.42383 484.22334,506.038094 484.049102,506.680462 C480.550939,519.112956 484.062505,530.314246 491.809394,540.980229 C493.02906,542.653062 494.369352,544.218834 495.830271,545.664162 C498.135574,547.992745 500.708935,550.013527 503.457874,551.714464 C504.837035,552.556233 506.244342,553.332428 507.705261,554.014944 C508.067139,554.188918 508.442421,554.34951 508.8043,554.510102 C509.541461,554.832625 510.278622,555.125705 511.042588,555.406741 C511.793152,555.674394 512.543716,555.928665 513.307682,556.170891 C514.071649,556.398396 514.850359,556.612519 515.626388,556.798538 C521.684509,558.270631 528.037494,558.350927 534.095615,556.840024 C536.91157,556.129405 539.671231,555.085557 542.298204,553.680377 C568.341423,539.735641 594.167515,525.456339 619.807306,510.882618 C620.195991,510.655113 620.584676,510.442329 620.959958,510.200102 C621.510818,509.865536 622.032192,509.530969 622.554906,509.169637 C623.251858,508.687861 623.935407,508.192703 624.59215,507.684162 C624.726179,507.5771 624.861549,507.483422 624.980835,507.37636 C625.531695,506.92135 626.066471,506.452956 626.590526,505.985901 C626.711152,505.890885 626.818375,505.783823 626.925599,505.676762 C627.153448,505.462639 627.367895,505.248517 627.595745,505.034394 C628.063507,504.566001 628.505803,504.097608 628.936037,503.602449 C629.189352,503.309369 629.430605,503.026995 629.671858,502.732576 C630.611403,501.595049 631.455787,500.417375 632.191607,499.172787 C632.499874,498.664246 632.796079,498.142322 633.07754,497.607016 C633.143215,497.47988 633.21157,497.34873 633.279924,497.218918 C633.448801,496.887028 633.621699,496.555138 633.773152,496.215219 C633.85491,496.055965 633.933987,495.880652 634.001002,495.721398 C634.136371,495.425641 634.26906,495.11784 634.389686,494.810039 Z" id="Stroke-68"></path>
                        <path d="M634.389686,494.810039 C634.26906,495.11784 634.136371,495.425641 634.001002,495.721398 C633.933987,495.880652 633.85491,496.055965 633.773152,496.215219 C633.652526,496.469489 633.531899,496.737142 633.39921,496.991413 C633.291987,497.192153 633.184764,497.406276 633.07754,497.607016 C632.796079,498.142322 632.499874,498.664246 632.191607,499.172787 C631.455787,500.417375 630.611403,501.595049 629.671858,502.732576 C629.430605,503.026995 629.189352,503.309369 628.936037,503.602449 C628.505803,504.097608 628.063507,504.566001 627.595745,505.034394 C627.367895,505.248517 627.153448,505.462639 626.925599,505.676762 C626.818375,505.783823 626.711152,505.890885 626.590526,505.985901 C626.066471,506.452956 625.531695,506.92135 624.980835,507.37636 C624.861549,507.483422 624.726179,507.5771 624.59215,507.684162 C623.935407,508.192703 623.251858,508.687861 622.554906,509.169637 C622.394071,509.276699 622.234576,509.38376 622.073741,509.490821 C621.710522,509.731709 621.33658,509.972597 620.959958,510.200102 C620.584676,510.442329 620.195991,510.655113 619.807306,510.882618 C594.167515,525.456339 568.341423,539.735641 542.298204,553.680377 C539.671231,555.085557 536.91157,556.129405 534.095615,556.840024 C528.037494,558.350927 521.684509,558.270631 515.626388,556.798538 C514.850359,556.612519 514.071649,556.398396 513.307682,556.170891 C512.543716,555.928665 511.793152,555.674394 511.042588,555.406741 C510.278622,555.125705 509.541461,554.832625 508.8043,554.510102 C508.442421,554.34951 508.067139,554.188918 507.705261,554.014944 C506.244342,553.332428 504.837035,552.556233 503.457874,551.714464 C500.708935,550.013527 498.135574,547.992745 495.830271,545.664162 C494.369352,544.218834 493.02906,542.653062 491.809394,540.980229 C484.062505,530.314246 480.550939,519.112956 484.049102,506.680462 C484.22334,506.038094 484.424384,505.42383 484.640171,504.806889 C484.839874,504.206007 485.054321,503.629214 485.282171,503.05376 C487.185386,498.302914 490.080417,494.087375 493.913653,490.44729 C524.338288,461.687946 544.06739,427.09376 553.490985,386.731646 C556.719749,372.840441 565.900751,363.820525 577.281173,360.622068 C602.16906,354.921054 621.388851,363.567593 629.792484,380.562238 C632.137995,385.286318 633.598914,390.77321 633.826764,395.913491 C635.113444,424.08266 636.051649,452.266551 636.802213,480.451779 C636.936242,485.669679 636.132066,490.488777 634.389686,494.810039 Z" id="Stroke-70"></path>
                        <path d="M485.148678,503.375479 C485.202289,503.268418 485.242498,503.161356 485.282707,503.054295 C485.054857,503.628411 484.84041,504.205204 484.639367,504.806086 C484.800202,504.325648 484.97444,503.855917 485.148678,503.375479 Z" id="Stroke-72"></path>
                        <path d="M495.830405,545.664162 C498.135708,547.992745 500.709069,550.013527 503.456668,551.714464 C500.695666,550.013527 498.122305,547.992745 495.830405,545.664162 Z" id="Stroke-74"></path>
                        <path d="M503.457204,551.713795 C504.837705,552.556903 506.245012,553.333097 507.705931,554.015613 C506.245012,553.333097 504.837705,552.570285 503.457204,551.713795 Z" id="Stroke-76"></path>
                        <path d="M620.960494,510.200102 C621.510014,509.865536 622.032728,509.530969 622.554101,509.169637 C622.393266,509.276699 622.233772,509.38376 622.072937,509.490821 C621.711058,509.731709 621.335776,509.972597 620.960494,510.200102 Z" id="Stroke-78"></path>
                        <path d="M633.398808,496.991279 C633.3586,497.066222 633.318391,497.142503 633.279522,497.218785 C633.448399,496.886895 633.621297,496.555004 633.77275,496.215085 C633.652124,496.469355 633.532838,496.738347 633.398808,496.991279 Z" id="Stroke-80"></path>
                        <path d="M633.07687,497.606748 C633.143885,497.479613 633.21224,497.349801 633.279254,497.218651 C632.941501,497.883769 632.584983,498.53952 632.192277,499.17252 C632.499204,498.663978 632.795409,498.142055 633.07687,497.606748 Z" id="Stroke-82"></path>
                        <path d="M58.8794418,353.442537 C62.342757,352.579355 66.0138175,352.104271 69.8430326,352.060108 C87.7908864,351.863383 101.842511,358.400814 110.976603,373.452296 C113.709458,377.950209 115.158314,383.114579 117.188857,387.967133 C129.85864,428.54337 152.543087,463.585875 185.321275,492.999632 C198.00312,504.376235 203.271809,518.124245 198.625016,533.705681 C194.133696,548.759839 184.608239,559.53556 168.717734,563.491476 C167.097321,563.895632 165.411233,564.227522 163.65679,564.485808 C154.292168,565.874928 145.26798,564.065592 136.854966,559.524854 C109.054623,544.502814 81.2167528,529.56107 53.5316756,514.354349 C39.8633749,506.838645 32.4823854,495.325539 31.9047194,480.671522 C30.7400054,450.869668 29.917066,421.053093 29.1732038,391.252577 C28.7108029,372.598482 41.0227278,357.888258 58.8794418,353.442537 Z" id="Stroke-84"></path>
                        <path d="M196.8758,538.719228 L184.937817,568.302945 C179.925124,580.728748 170.845984,589.573351 156.779617,593.075594 C155.159203,593.478412 153.473116,593.81164 151.718673,594.069926 C142.354051,595.457708 133.329863,593.648372 124.918189,589.107634 C97.1165061,574.086932 69.2799758,559.145188 41.5935582,543.938467 C27.9265979,536.422763 20.5442681,524.908319 19.9666021,510.25564 C18.8018881,480.452448 17.9789486,450.637211 17.2350864,420.835357 C17.1010572,415.389951 18.0553453,410.28045 19.9170113,405.663431 L31.8549946,376.081053 C29.9919883,380.696733 29.0377002,385.806234 29.1730697,391.252979 C29.9169319,421.052156 30.7398714,450.868731 31.9045854,480.671924 C32.4822514,495.324602 39.8645812,506.839046 53.5315415,514.35475 C81.2166188,529.560133 109.054489,544.501877 136.854832,559.525256 C145.267846,564.064655 154.292034,565.87533 163.656656,564.486209 C165.411099,564.227924 167.097187,563.894695 168.7176,563.491877 C182.783967,559.990972 191.861767,551.145032 196.8758,538.719228 Z" id="Stroke-86"></path>
                        <path d="M253.552204,541.031217 C260.913089,539.195116 268.1185,539.41593 275.31721,541.533067 C306.470964,550.685471 337.975874,553.99768 369.638939,550.542276 C381.891891,549.208025 394.077828,546.890147 405.9622,543.93124 C406.719465,543.742545 407.472709,543.552511 408.227294,543.358462 C427.10397,538.658471 447.129277,546.13938 457.720266,562.478274 C467.083548,576.92486 469.012229,591.395534 460.9946,606.076316 C457.64655,612.19487 452.604371,616.814566 446.429644,620.26194 C420.397147,634.807558 394.398158,649.41875 368.31607,663.882733 C364.673156,665.900839 360.996734,667.370255 357.294847,668.292321 C346.886137,670.881866 336.273703,669.148811 325.57549,663.15204 C298.804492,648.147397 272.054939,633.090562 245.296003,618.047109 C223.438517,605.756471 216.147327,582.107966 227.545172,561.372866 C233.126149,551.240851 241.047277,544.144025 253.552204,541.031217 Z" id="Stroke-88"></path>
                        <path d="M460.995271,606.075647 C460.593183,606.810356 460.162949,607.520975 459.713951,608.212859 C459.566519,608.440364 459.403003,608.655825 459.25021,608.877977 C458.933901,609.338341 458.617592,609.800043 458.279838,610.241671 C458.14849,610.41163 458.01178,610.576237 457.879091,610.743521 C457.526594,611.187825 457.163375,611.6241 456.789433,612.049668 C456.623237,612.237026 456.45436,612.425721 456.284143,612.61174 C455.892778,613.037309 455.48935,613.452172 455.07654,613.856328 C454.935809,613.995508 454.799099,614.137364 454.655688,614.275205 C454.099467,614.802482 453.528502,615.315038 452.937433,615.810197 C452.816807,615.911905 452.69082,616.006922 452.568853,616.105954 C452.086348,616.499404 451.594461,616.883487 451.091851,617.255525 C450.888127,617.406749 450.681722,617.55262 450.473976,617.701167 C450.015596,618.026366 449.549175,618.343535 449.074711,618.651337 C448.875008,618.782487 448.677985,618.914975 448.47426,619.04211 C447.806795,619.462326 447.127266,619.871836 446.428974,620.262609 C420.397818,634.808227 394.398828,649.419419 368.31674,663.882064 C364.673826,665.90017 360.996064,667.370924 357.294177,668.291652 C346.885467,670.882535 336.273033,669.14948 325.57482,663.15137 C298.805162,648.146728 272.054268,633.091231 245.295333,618.04644 C225.138678,606.714 217.369003,585.719277 225.221776,566.258208 L213.285133,595.841924 C205.43236,615.302994 213.202035,636.296379 233.35869,647.630157 C260.117625,662.673609 286.867179,677.730444 313.638177,692.735087 C324.33639,698.733197 334.948824,700.466252 345.357534,697.875368 C349.058081,696.953303 352.735843,695.485225 356.378757,693.467119 C382.460845,679.001797 408.459834,664.391943 434.492331,649.844988 C435.190623,649.455552 435.868811,649.046043 436.537617,648.625827 C436.740001,648.498692 436.937024,648.366203 437.136728,648.236392 C437.611191,647.925914 438.078953,647.608745 438.537333,647.283546 C438.743738,647.137675 438.950143,646.989127 439.153868,646.839241 C439.656477,646.468542 440.147024,646.084459 440.628189,645.692347 C440.751496,645.590639 440.878824,645.495622 441.00079,645.393914 C441.590519,644.900093 442.162824,644.387537 442.717705,643.858922 C442.861116,643.722419 442.999166,643.577886 443.141237,643.438707 C443.552707,643.033212 443.956135,642.621026 444.34616,642.195457 C444.517717,642.010776 444.685254,641.822081 444.85145,641.632047 C445.225392,641.207816 445.588611,640.771542 445.942448,640.327237 C446.075137,640.159954 446.211847,639.996685 446.341855,639.825387 C446.392786,639.758474 446.449078,639.694237 446.50135,639.625986 C446.782811,639.251271 447.042828,638.853806 447.310886,638.46437 C447.46502,638.239542 447.627195,638.024081 447.775968,637.795237 C448.226306,637.104692 448.6552,636.392734 449.057287,635.658026 C449.920435,634.08021 450.666978,632.502394 451.302277,630.928592 L463.24026,601.344876 C462.604962,602.920015 461.858419,604.495155 460.995271,606.075647 Z" id="Stroke-90"></path>
                        <path d="M314.062365,1.47655954 C324.224445,-1.05948244 334.645063,0.592361069 345.012099,6.35840687 C372.355674,21.5532237 399.594761,36.9315786 426.848584,52.2818 C447.685803,64.0014489 455.009305,87.987342 444.243074,107.788029 C438.523053,118.305972 430.402499,125.656876 419.56527,128.432724 C410.880751,130.560159 403.364349,130.392697 395.802401,128.194258 C366.721386,119.726048 337.320211,116.496044 307.604234,118.71056 C293.628361,119.751502 279.951215,122.012907 266.492422,125.368842 C265.14882,125.703766 263.807897,126.048067 262.468313,126.405766 C262.244603,126.464712 262.016874,126.523659 261.793163,126.579926 C242.811268,131.311727 224.18704,123.061888 214.321009,108.201995 C207.731599,98.2828954 204.057122,87.9819832 205.964688,76.4807046 C207.917801,64.7664145 214.09194,55.7730443 224.475051,49.8998229 C250.746959,35.0466282 277.051018,20.2577389 303.485015,5.68721985 C306.969272,3.7674374 310.500413,2.3647771 314.062365,1.47655954 Z" id="Stroke-46"></path>
                    </g>
                </g>
            </g>
        </g>
    </g>
</svg>
