<svg width="643" height="701" viewBox="0 0 643 701" xmlns="http://www.w3.org/2000/svg" xmlns:xlink="http://www.w3.org/1999/xlink"><title>436620EF-C9E6-4CE1-8949-8EEEFD18E23E</title><defs><path d="M.662 29.845L12.594.231c-6.87 17.05-.922 33.848 11.07 44.522C56.98 74.395 79.965 109.816 92.74 150.91l-11.93 29.616C68.035 139.429 45.048 104.012 11.733 74.37" id="a"/><path d="M98.185 12.036L86.252 41.65c-4.523 11.227-14.434 19.633-27.11 22.794a46.502 46.502 0 0 1-9.727 1.34c-18.484.62-33.118-5.8-42.58-21.418C4.157 39.957 2.742 34.9.757 30.139L12.687.524c1.988 4.76 3.4 9.82 6.078 14.229C28.228 30.37 42.863 36.79 61.348 36.17c3.38-.11 6.635-.57 9.725-1.34" id="c"/><path d="M98.185 12.036L86.252 41.65c-4.523 11.227-14.434 19.633-27.11 22.794a46.502 46.502 0 0 1-9.727 1.34c-18.484.62-33.118-5.8-42.58-21.418C4.157 39.957 2.742 34.9.757 30.139L12.687.524c1.988 4.76 3.4 9.82 6.078 14.229C28.228 30.37 42.863 36.79 61.348 36.17c3.38-.11 6.635-.57 9.725-1.34" id="e"/><path d="M12.263 37.74L.33 67.353c4.064-10.089 7.368-20.603 9.914-31.537a41.56 41.56 0 0 1 1.916-6.093L24.09.109A41.558 41.558 0 0 0 22.177 6.2" id="g"/><path d="M3.51 30.073c-1.075 2.652-1.867 5.492-2.373 8.516-1.913 11.444 1.767 21.698 8.37 31.57 9.885 14.788 28.544 23 47.562 18.289.225-.056.454-.113.676-.173 1.343-.354 2.686-.699 4.032-1.034 13.484-3.338 27.187-5.588 41.19-6.625 29.773-2.203 59.228 1.01 88.364 9.439 7.576 2.189 15.106 2.357 23.807.236 10.858-2.76 18.994-10.078 24.724-20.544a41.102 41.102 0 0 0 2.05-4.314l11.954-29.474a41.372 41.372 0 0 1-2.05 4.313c-5.73 10.467-13.866 17.784-24.725 20.545-8.7 2.119-16.23 1.952-23.806-.237-29.137-8.427-58.593-11.641-88.365-9.437-14.003 1.034-27.705 3.285-41.189 6.626-1.347.332-2.688.676-4.03 1.031-.226.06-.454.119-.677.173-19.019 4.711-37.678-3.5-47.562-18.29C14.86 30.81 11.178 20.56 13.09 9.113c.507-3.022 1.299-5.862 2.374-8.513" id="i"/><path d="M3.51 30.073c-1.075 2.652-1.867 5.492-2.373 8.516-1.913 11.444 1.767 21.698 8.37 31.57 9.885 14.788 28.544 23 47.562 18.289.225-.056.454-.113.676-.173 1.343-.354 2.686-.699 4.032-1.034 13.484-3.338 27.187-5.588 41.19-6.625 29.773-2.203 59.228 1.01 88.364 9.439 7.576 2.189 15.106 2.357 23.807.236 10.858-2.76 18.994-10.078 24.724-20.544a41.102 41.102 0 0 0 2.05-4.314l11.954-29.474a41.372 41.372 0 0 1-2.05 4.313c-5.73 10.467-13.866 17.784-24.725 20.545-8.7 2.119-16.23 1.952-23.806-.237-29.137-8.427-58.593-11.641-88.365-9.437-14.003 1.034-27.705 3.285-41.189 6.626-1.347.332-2.688.676-4.03 1.031-.226.06-.454.119-.677.173-19.019 4.711-37.678-3.5-47.562-18.29C14.86 30.81 11.178 20.56 13.09 9.113c.507-3.022 1.299-5.862 2.374-8.513" id="k"/></defs><g fill="none" fill-rule="evenodd" opacity=".351"><g opacity=".047"><path d="M314.863 2.436c10.16-2.535 20.583-.883 30.95 4.881 27.343 15.197 54.582 30.575 81.836 45.925 20.836 11.719 28.161 35.704 17.395 55.506-5.722 10.517-13.84 17.87-24.68 20.644-8.683 2.129-16.199 1.96-23.76-.239-29.082-8.468-58.483-11.697-88.2-9.482-13.976 1.04-27.652 3.301-41.112 6.657-1.344.335-2.683.68-4.023 1.037-.224.06-.451.118-.675.174-18.982 4.733-37.606-3.518-47.474-18.377-6.588-9.919-10.262-20.22-8.355-31.72 1.953-11.716 8.126-20.71 18.51-26.583 26.273-14.852 52.577-29.64 79.01-44.211 3.485-1.921 7.016-3.324 10.578-4.212" fill="#F0F0F0"/><path d="M445.043 108.749a56.764 56.764 0 0 1-1.803 3.063c-.09.143-.178.288-.268.428-.6.935-1.225 1.836-1.87 2.708-.128.171-.256.344-.386.514a45.426 45.426 0 0 1-1.812 2.247c-.058.066-.118.127-.174.191a42.058 42.058 0 0 1-1.81 1.93c-.147.147-.295.296-.445.442a38.134 38.134 0 0 1-2.045 1.858c-.122.102-.248.2-.371.3a36.35 36.35 0 0 1-1.947 1.491c-.144.102-.286.21-.432.312a35.348 35.348 0 0 1-2.298 1.46c-.17.1-.343.193-.515.288-.727.41-1.469.795-2.227 1.151-.11.053-.216.109-.325.16-.838.382-1.7.726-2.576 1.045-.205.075-.41.144-.617.215-.901.311-1.815.6-2.756.839-8.685 2.13-16.201 1.961-23.763-.238-29.081-8.469-58.483-11.696-88.198-9.483-13.978 1.041-27.654 3.301-41.112 6.657-1.344.335-2.685.682-4.023 1.038-.225.06-.452.117-.675.173-18.983 4.735-37.608-3.518-47.474-18.376-6.59-9.92-10.264-20.22-8.356-31.722a43.03 43.03 0 0 1 .972-4.417 38.98 38.98 0 0 1 1.398-4.138v0l-11.932 29.617c-1.073 2.663-1.862 5.518-2.368 8.554-1.91 11.5 1.765 21.802 8.355 31.72 9.866 14.86 28.491 23.112 47.473 18.379.224-.056.45-.115.675-.174 1.338-.358 2.68-.702 4.023-1.037 13.46-3.356 27.136-5.618 41.112-6.659 29.716-2.214 59.117 1.016 88.2 9.484 7.56 2.2 15.076 2.367 23.76.239.943-.242 1.856-.53 2.758-.839a35.101 35.101 0 0 0 3.192-1.263c.11-.05.216-.108.325-.158.759-.357 1.5-.743 2.228-1.15.172-.098.344-.191.515-.29a34.474 34.474 0 0 0 2.297-1.46c.146-.101.288-.209.433-.312a36.514 36.514 0 0 0 1.946-1.49c.123-.101.25-.198.371-.3a39.27 39.27 0 0 0 2.048-1.86c.15-.145.295-.295.442-.442.618-.62 1.223-1.26 1.81-1.928.056-.065.117-.126.174-.192a45.014 45.014 0 0 0 1.814-2.248c.067-.087.14-.166.206-.254.06-.083.116-.176.177-.259a49.296 49.296 0 0 0 1.872-2.707c.09-.142.178-.287.268-.43a55.396 55.396 0 0 0 1.803-3.062c.388-.712.751-1.43 1.093-2.153.34-.723.658-1.45.952-2.182l11.932-29.614a41.55 41.55 0 0 1-2.046 4.334" fill="#858585"/><g transform="translate(461.138 133.97)"><mask id="b" fill="#fff"><use xlink:href="#a"/></mask><path d="M92.742 150.909l-11.93 29.615C68.035 139.43 45.046 104.011 11.731 74.37-.258 63.693-6.207 46.898.662 29.846L12.595.23c-6.869 17.051-.921 33.847 11.07 44.523 33.315 29.642 56.302 65.061 69.078 106.155" fill="#858585" mask="url(#b)"/></g><g transform="translate(541.192 284.355)"><mask id="d" fill="#fff"><use xlink:href="#c"/></mask><path d="M98.184 12.036L86.252 41.65a36.429 36.429 0 0 1-4.644 8.238l11.93-29.617a36.335 36.335 0 0 0 4.646-8.235" fill="#8A8A8A" mask="url(#d)"/></g><g transform="translate(541.192 284.355)"><mask id="f" fill="#fff"><use xlink:href="#e"/></mask><path d="M93.539 20.272l-11.93 29.615C76.318 56.94 68.48 62.116 59.14 64.446a46.578 46.578 0 0 1-9.725 1.34c-18.484.62-33.119-5.8-42.582-21.42C4.156 39.957 2.744 34.9.757 30.14L12.688.524c1.987 4.76 3.4 9.82 6.078 14.228C28.227 30.37 42.862 36.79 61.347 36.17c3.38-.111 6.635-.57 9.726-1.34 9.338-2.33 17.177-7.505 22.466-14.558" fill="#858585" mask="url(#f)"/></g><path d="M502.78 108.834c7.366-1.837 15.331-1.786 23.031.572 3.236.997 6.392 2.407 9.362 4.008 27.04 14.543 54.015 29.199 81.057 43.753 14.96 8.05 22.682 20.123 23.226 35.982a9268.857 9268.857 0 0 1 2.584 88.226c.455 18.49-11.917 33.355-29.775 37.81a46.527 46.527 0 0 1-9.727 1.34c-18.485.621-33.118-5.8-42.581-21.418-2.678-4.41-4.091-9.468-6.078-14.23-12.775-41.093-35.763-76.512-69.078-106.154-13.898-12.373-19.679-32.97-6.79-52.657 5.622-8.596 14.628-14.703 24.769-17.232" fill="#F0F0F0"/><g><path d="M114.466 102.368c16.094-4.015 35.449 2.12 46.138 20.53 9.13 15.737 7.336 33.66-5.623 45.958-22.315 21.177-39.215 45.851-50 74.367-3.48 9.205-6.143 18.767-8.614 28.318-3.074 11.876-9.56 21.09-21.307 25.847a45.346 45.346 0 0 1-6.075 1.976c-20.405 5.088-44.376-3.734-52.068-26.836-.418-4.125-1.056-8.243-1.213-12.361-1.01-27.185-2.041-54.353-2.789-81.52-.383-13.774 5.785-24.402 17.82-31.225 24.748-14.006 49.74-27.632 74.593-41.462a37.37 37.37 0 0 1 9.138-3.592" fill="#F0F0F0"/><path d="M94.348 277.726L82.416 307.34c-1.274 3.164-2.866 6.074-4.825 8.687l11.932-29.617c1.957-2.611 3.55-5.52 4.825-8.685" fill="#8A8A8A"/><path d="M94.348 277.726c-1.302 3.232-2.943 6.197-4.96 8.852-.386.51-.786 1.012-1.202 1.5-.018.021-.035.045-.054.065-.435.507-.89.997-1.357 1.477-.14.144-.288.286-.432.428a30.784 30.784 0 0 1-1.554 1.443c-.391.34-.795.671-1.206.996-.131.103-.257.208-.39.309a33.04 33.04 0 0 1-1.682 1.202c-.136.088-.276.171-.413.26-.455.296-.92.581-1.398.857-.203.12-.41.233-.618.348-.447.248-.906.488-1.373.72-.201.1-.4.203-.604.3-.665.315-1.342.62-2.044.905-1.976.8-4.007 1.46-6.075 1.975-20.405 5.088-44.378-3.734-52.07-26.835-.418-4.125-1.054-8.242-1.211-12.36-1.011-27.185-2.042-54.356-2.789-81.522-.147-5.278.668-10.097 2.409-14.415L3.393 193.847c-1.74 4.317-2.555 9.135-2.409 14.413.748 27.169 1.778 54.338 2.79 81.523.156 4.117.794 8.235 1.212 12.36 7.692 23.102 31.663 31.924 52.068 26.835a45.155 45.155 0 0 0 6.075-1.976 36.465 36.465 0 0 0 2.047-.905c.203-.097.4-.199.6-.298a35.933 35.933 0 0 0 1.992-1.067c.48-.278.946-.566 1.404-.862.134-.086.273-.17.406-.257a32.88 32.88 0 0 0 1.685-1.202c.131-.1.257-.207.387-.31a30.183 30.183 0 0 0 1.71-1.44c.36-.325.71-.659 1.052-.997.145-.144.29-.283.43-.43.468-.479.923-.968 1.359-1.474.018-.023.036-.046.055-.067.415-.488.814-.989 1.201-1.5.043-.056.091-.11.134-.167l.013-.035c1.95-2.603 3.544-5.496 4.812-8.65l11.932-29.615z" fill="#858585"/></g><g><g transform="translate(531.815 382.153)"><mask id="h" fill="#fff"><use xlink:href="#g"/></mask><path d="M12.262 37.74L.331 67.353c4.064-10.089 7.367-20.601 9.914-31.537a41.49 41.49 0 0 1 1.916-6.092L24.09.108a41.558 41.558 0 0 0-1.914 6.093c-2.548 10.936-5.85 21.45-9.915 31.538" fill="#858585" mask="url(#h)"/></g><path d="M621.612 528.968c.108-.206.22-.412.323-.621.355-.713.691-1.437.99-2.179l11.931-29.615a31.284 31.284 0 0 1-.99 2.18c-.104.207-.215.412-.324.62-.278.53-.572 1.052-.883 1.565-.116.19-.229.386-.35.574a30.545 30.545 0 0 1-1.357 1.975c-.034.044-.07.086-.104.131a30.596 30.596 0 0 1-1.446 1.749c-.113.128-.224.257-.34.382a31.348 31.348 0 0 1-1.674 1.705c-.107.102-.22.2-.33.301-.543.499-1.108.986-1.694 1.458-.102.083-.2.167-.304.25a36.38 36.38 0 0 1-2.035 1.484c-.158.107-.319.211-.478.318-.731.481-1.48.952-2.265 1.399-25.63 14.585-51.444 28.882-77.468 42.837a35.419 35.419 0 0 1-8.196 3.157c-15.318 3.821-32.56-2.534-42.266-15.874-7.75-10.67-11.256-21.885-7.755-34.332a36.32 36.32 0 0 1 1.262-3.7l-11.932 29.616a36.288 36.288 0 0 0-1.262 3.7c-3.499 12.446.005 23.661 7.755 34.33 9.706 13.341 26.948 19.695 42.266 15.877a35.498 35.498 0 0 0 8.196-3.159 3519.286 3519.286 0 0 0 77.468-42.837 40.398 40.398 0 0 0 2.265-1.398c.16-.106.32-.212.479-.32.703-.479 1.385-.972 2.036-1.485.103-.08.2-.166.304-.248.585-.471 1.15-.958 1.693-1.457.11-.1.222-.2.33-.302a31.818 31.818 0 0 0 1.675-1.704c.116-.127.227-.256.34-.382.504-.57.99-1.153 1.446-1.752.034-.043.07-.084.1-.129a.655.655 0 0 0 .04-.046c.468-.627.905-1.273 1.322-1.928.12-.19.233-.383.348-.576.31-.513.605-1.033.884-1.564" fill="#858585"/><path d="M577.772 362.213c24.885-5.703 44.084 2.96 52.489 19.964 2.347 4.732 3.798 10.222 4.03 15.372 1.293 28.203 2.219 56.412 2.973 84.63.355 13.205-5.327 23.845-16.983 30.466-25.628 14.585-51.444 28.882-77.468 42.836a35.456 35.456 0 0 1-8.196 3.158c-15.318 3.82-32.56-2.535-42.266-15.874-7.75-10.67-11.254-21.885-7.755-34.332 1.772-6.272 5.077-11.707 9.86-16.243 30.41-28.798 50.122-63.432 59.536-103.836 3.24-13.899 12.412-22.935 23.78-26.141" fill="#F0F0F0"/></g><g><path d="M59.649 355.033c3.461-.865 7.13-1.341 10.958-1.384 17.938-.198 31.982 6.346 41.111 21.414 2.732 4.502 4.18 9.674 6.21 14.53 12.662 40.621 35.334 75.7 68.094 105.146 12.677 11.389 17.941 25.15 13.297 40.75-4.487 15.07-14.008 25.857-29.891 29.817-1.62.403-3.305.737-5.057.995-9.36 1.39-18.38-.422-26.788-4.967-27.786-15.037-55.609-29.995-83.28-45.217-13.66-7.524-21.037-19.05-21.615-33.72-1.164-29.834-1.986-59.681-2.73-89.515-.462-18.673 11.844-33.399 29.69-37.849" fill="#FFF"/><path d="M181.875 577.539a44.504 44.504 0 0 0 2.262-4.077c.128-.261.262-.52.387-.785.39-.835.766-1.684 1.117-2.555l11.932-29.616a50.1 50.1 0 0 1-1.119 2.557c-.125.264-.257.521-.384.782-.28.568-.566 1.131-.864 1.682a44.505 44.505 0 0 1-1.399 2.397c-.169.269-.336.54-.51.803-.362.55-.737 1.085-1.123 1.612-.137.19-.266.384-.407.57a38.846 38.846 0 0 1-1.84 2.254c-.161.182-.33.359-.494.539a38.357 38.357 0 0 1-1.591 1.642c-.193.186-.385.375-.58.559a36.812 36.812 0 0 1-2.213 1.911c-.06.047-.123.091-.184.138a37.685 37.685 0 0 1-2.937 2.066c-.677.432-1.372.846-2.086 1.24-.19.104-.374.215-.567.317-.89.473-1.812.918-2.762 1.33-.224.098-.457.186-.683.28-.766.32-1.551.62-2.355.9-.288.098-.575.2-.867.295a46.54 46.54 0 0 1-3.18.926c-1.62.403-3.305.737-5.057.995-9.361 1.39-18.38-.422-26.788-4.967-27.787-15.037-55.608-29.995-83.28-45.218-13.66-7.523-21.038-19.05-21.616-33.718-1.162-29.835-1.986-59.682-2.728-89.516-.136-5.451.818-10.568 2.679-15.188L20.706 407.31c-1.86 4.621-2.814 9.736-2.68 15.187.744 29.832 1.567 59.68 2.731 89.516.577 14.668 7.954 26.195 21.614 33.719 27.672 15.221 55.495 30.179 83.28 45.218 8.41 4.545 17.429 6.357 26.788 4.967a53.304 53.304 0 0 0 5.059-.996 47.275 47.275 0 0 0 3.178-.925c.294-.096.58-.196.867-.297.804-.28 1.589-.58 2.356-.897.227-.095.46-.184.684-.28.948-.415 1.87-.858 2.76-1.332.193-.102.378-.213.569-.319a37.83 37.83 0 0 0 2.085-1.239c.24-.153.481-.305.717-.463a38.206 38.206 0 0 0 2.221-1.603c.06-.047.123-.088.182-.135a36.92 36.92 0 0 0 2.213-1.914c.197-.184.387-.372.58-.56a37.554 37.554 0 0 0 1.592-1.64c.163-.18.332-.355.494-.539a39.88 39.88 0 0 0 1.84-2.253c.026-.035.055-.066.08-.1.115-.152.215-.315.326-.468.385-.53.763-1.064 1.123-1.614.174-.266.342-.535.51-.804" fill="#858585"/><path d="M254.218 542.82c7.357-1.838 14.56-1.617 21.754.503 31.137 9.162 62.626 12.48 94.271 9.02 12.247-1.336 24.428-3.657 36.306-6.62.757-.188 1.51-.379 2.264-.573 18.865-4.703 38.88 2.785 49.465 19.142 9.358 14.46 11.286 28.948 3.273 43.643-3.347 6.126-8.385 10.751-14.557 14.2-26.018 14.563-52.003 29.189-78.071 43.67-3.643 2.02-7.317 3.49-11.017 4.412-10.403 2.594-21.01.86-31.703-5.145-26.757-15.021-53.492-30.094-80.237-45.152-21.846-12.304-29.133-35.978-17.741-56.736 5.58-10.143 13.496-17.247 25.993-20.363" fill="#FFF"/><path d="M461.551 607.934c-.402.737-.83 1.447-1.28 2.141-.148.228-.31.442-.464.666-.316.46-.632.922-.97 1.365-.13.17-.268.334-.4.503a32.684 32.684 0 0 1-1.594 1.87c-.392.424-.795.84-1.207 1.246-.141.139-.278.281-.42.418a36.698 36.698 0 0 1-1.718 1.536c-.12.103-.247.197-.369.296a38.827 38.827 0 0 1-3.492 2.55c-.2.13-.396.264-.599.39-.668.422-1.347.832-2.045 1.221-26.018 14.563-52.003 29.188-78.07 43.668-3.642 2.02-7.318 3.491-11.018 4.413-10.402 2.595-21.009.86-31.701-5.146-26.757-15.02-53.494-30.092-80.237-45.152-20.148-11.346-27.913-32.363-20.063-51.845l-11.932 29.617c-7.848 19.482-.083 40.498 20.063 51.844 26.745 15.06 53.482 30.132 80.237 45.153 10.693 6.003 21.3 7.738 31.703 5.145 3.698-.923 7.374-2.394 11.016-4.414 26.069-14.48 52.054-29.105 78.071-43.667a48.128 48.128 0 0 0 2.045-1.22c.202-.13.399-.26.598-.392.476-.31.942-.627 1.4-.952.207-.148.414-.295.616-.447.503-.37.993-.755 1.474-1.146.123-.102.25-.199.372-.3a35.97 35.97 0 0 0 1.716-1.537c.145-.135.282-.28.424-.42a35.267 35.267 0 0 0 1.71-1.808c.374-.425.736-.861 1.09-1.306.132-.168.269-.332.399-.503.052-.068.107-.13.159-.2.281-.376.543-.772.81-1.163.153-.224.317-.44.465-.669.45-.691.878-1.404 1.281-2.14a45.295 45.295 0 0 0 2.244-4.735l11.93-29.614a44.993 44.993 0 0 1-2.244 4.734" fill="#858585"/></g><path d="M148.958 191.317a34.9 34.9 0 0 0 .72-1.185c.131-.226.264-.454.391-.683.235-.426.457-.856.674-1.287.1-.202.205-.4.302-.603.301-.634.588-1.273.848-1.919l11.931-29.616a34.781 34.781 0 0 1-.848 1.918c-.096.204-.203.404-.302.605-.216.43-.439.862-.674 1.287-.126.23-.259.457-.391.685a38.743 38.743 0 0 1-1.157 1.856c-.27.406-.554.808-.845 1.207-.134.184-.262.369-.4.551a37.323 37.323 0 0 1-1.767 2.157c-.136.154-.274.304-.41.454a39.875 39.875 0 0 1-2.048 2.111 220.262 220.262 0 0 0-3.625 3.525c-.378.375-.748.754-1.12 1.13a202.018 202.018 0 0 0-3.687 3.803c-.762.805-1.517 1.617-2.265 2.433-.395.433-.792.863-1.184 1.295-.835.927-1.657 1.863-2.474 2.8-.276.318-.559.634-.834.953a207.722 207.722 0 0 0-3.185 3.798c-.237.29-.465.581-.7.87-.807.997-1.606 2-2.393 3.01-.35.451-.694.905-1.04 1.358-.383.501-.774.997-1.152 1.5-.202.271-.394.55-.595.82-.76 1.025-1.505 2.06-2.246 3.098-.406.57-.817 1.137-1.216 1.71a201.008 201.008 0 0 0-2.534 3.738c-.251.38-.511.755-.76 1.135a200.545 200.545 0 0 0-3.134 4.96c-.26.428-.51.865-.767 1.295a190.27 190.27 0 0 0-2.216 3.774c-.35.616-.692 1.24-1.037 1.86a190.796 190.796 0 0 0-1.815 3.34 195.132 195.132 0 0 0-2.729 5.36c-.326.667-.655 1.332-.975 2.005a201.845 201.845 0 0 0-1.69 3.661c-.262.582-.53 1.16-.788 1.745a196.533 196.533 0 0 0-2.315 5.484l-11.932 29.617a191.55 191.55 0 0 1 2.315-5.485c.257-.587.527-1.163.79-1.745a189.27 189.27 0 0 1 1.688-3.662c.32-.67.649-1.337.976-2.004a190.36 190.36 0 0 1 2.728-5.361 191.335 191.335 0 0 1 1.82-3.343c.341-.619.681-1.24 1.031-1.853a190.58 190.58 0 0 1 2.224-3.788c.256-.428.502-.858.76-1.281a190.957 190.957 0 0 1 3.135-4.966c.245-.375.504-.745.752-1.119a192.16 192.16 0 0 1 2.544-3.754c.398-.572.806-1.137 1.212-1.704a193.945 193.945 0 0 1 3.993-5.42c.347-.453.693-.909 1.044-1.359.783-1.007 1.58-2.007 2.384-3 .237-.294.47-.59.708-.884a207.319 207.319 0 0 1 3.182-3.794c.278-.322.563-.64.843-.961.813-.936 1.633-1.867 2.465-2.79.394-.436.793-.87 1.19-1.302a214.204 214.204 0 0 1 5.947-6.233c.374-.376.744-.755 1.12-1.127a214.994 214.994 0 0 1 3.625-3.526 39.853 39.853 0 0 0 2.048-2.11c.138-.153.276-.303.41-.454a38.335 38.335 0 0 0 1.768-2.16c.03-.039.066-.076.095-.117.108-.142.2-.289.305-.434.29-.399.574-.798.845-1.205.15-.224.293-.45.437-.674" fill="#8A8A8A"/></g><g transform="translate(193 67)"><mask id="j" fill="#fff"><use xlink:href="#i"/></mask><path d="M253.865 35.958l-11.953 29.475a41.52 41.52 0 0 1-2.05 4.315 52.806 52.806 0 0 1-4.127 6.426L247.687 46.7a52.503 52.503 0 0 0 4.129-6.428 40.834 40.834 0 0 0 2.05-4.314" stroke="#FFF" stroke-width=".25" mask="url(#j)"/></g><g transform="translate(193 67)"><mask id="l" fill="#fff"><use xlink:href="#k"/></mask><path d="M247.688 46.7l-11.954 29.474c-5.308 7.035-12.122 11.964-20.596 14.117-8.7 2.12-16.232 1.952-23.808-.236-29.136-8.43-58.59-11.641-88.364-9.438-14.002 1.037-27.705 3.285-41.19 6.625-1.345.333-2.687.679-4.03 1.033-.224.06-.452.118-.676.174-19.019 4.71-37.678-3.502-47.563-18.29-6.602-9.873-10.283-20.125-8.37-31.57.505-3.024 1.297-5.863 2.372-8.516L15.463.599c-1.075 2.65-1.866 5.492-2.374 8.515-1.91 11.447 1.77 21.697 8.372 31.57 9.885 14.789 28.544 23 47.562 18.29.224-.056.452-.115.676-.173 1.342-.355 2.686-.7 4.032-1.032 13.484-3.34 27.187-5.591 41.19-6.627 29.771-2.203 59.228 1.01 88.363 9.439 7.577 2.189 15.107 2.356 23.808.237 8.473-2.155 15.287-7.084 20.596-14.119" stroke="#FFF" stroke-width=".25" mask="url(#l)"/></g><g stroke="#FFF" stroke-width=".25"><path d="M446.524 103.091l-11.936 29.584a41.769 41.769 0 0 1-2.047 4.33c-5.724 10.505-13.848 17.85-24.69 20.62-8.69 2.129-16.21 1.96-23.776-.238-29.098-8.459-58.513-11.683-88.246-9.472-13.984 1.04-27.667 3.298-41.134 6.65-1.343.335-2.685.681-4.025 1.036-.224.06-.45.118-.675.174-18.992 4.728-37.628-3.514-47.498-18.357-6.594-9.909-10.27-20.199-8.36-31.686.506-3.035 1.297-5.886 2.37-8.548L208.445 67.6c-1.074 2.662-1.864 5.514-2.37 8.547-1.91 11.489 1.766 21.779 8.359 31.687 9.871 14.844 28.505 23.085 47.499 18.358.223-.056.451-.115.675-.174 1.34-.357 2.68-.702 4.025-1.037 13.467-3.35 27.15-5.61 41.133-6.65 29.734-2.212 59.149 1.015 88.245 9.474 7.568 2.196 15.087 2.363 23.776.238 10.844-2.773 18.968-10.116 24.69-20.622a41.079 41.079 0 0 0 2.047-4.33zM638.913 294.863l-11.938 29.584a36.365 36.365 0 0 1-4.647 8.228l11.937-29.584a36.319 36.319 0 0 0 4.648-8.228"/><path d="M611.788 317.632a46.621 46.621 0 0 1-9.732 1.341c-18.495.618-33.136-5.795-42.604-21.396-2.679-4.404-4.093-9.458-6.08-14.213-12.782-41.05-35.781-76.432-69.116-106.042-11.997-10.664-17.947-27.444-11.074-44.476l-11.937 29.583c-6.874 17.034-.922 33.813 11.073 44.476 33.335 29.61 56.334 64.99 69.117 106.042 1.986 4.756 3.401 9.81 6.08 14.212 9.467 15.602 24.11 22.016 42.603 21.396a46.52 46.52 0 0 0 9.732-1.34c9.343-2.325 17.187-7.495 22.478-14.54l11.938-29.583c-5.291 7.043-13.134 12.216-22.478 14.54z"/><path d="M641.574 279.858c.456 18.482-11.915 33.322-29.781 37.779a47.591 47.591 0 0 1-9.73 1.338c-18.497.616-33.146-5.795-42.61-21.399-2.68-4.403-4.1-9.461-6.085-14.212-12.785-41.045-35.784-76.429-69.117-106.044-13.9-12.353-19.69-32.934-6.782-52.594 5.615-8.592 14.636-14.693 24.782-17.224 7.358-1.833 15.333-1.78 23.04.577 3.23.989 6.392 2.408 9.367 4 27.048 14.534 54.042 29.174 81.102 43.708 14.958 8.044 22.691 20.102 23.227 35.946a8780.051 8780.051 0 0 1 2.587 88.125zM113.727 101.047c16.102-4.01 35.465 2.119 46.162 20.51 9.134 15.719 7.34 33.623-5.627 45.907-22.328 21.156-39.235 45.804-50.027 74.289-3.481 9.195-6.146 18.746-8.618 28.288-3.075 11.864-9.565 21.068-21.318 25.818a45.23 45.23 0 0 1-6.078 1.974c-20.415 5.082-44.4-3.729-52.097-26.807-.417-4.12-1.055-8.234-1.212-12.347-1.012-27.156-2.042-54.296-2.79-81.435-.384-13.758 5.787-24.374 17.828-31.19 24.762-13.992 49.767-27.604 74.633-41.419a37.457 37.457 0 0 1 9.144-3.588z"/><path d="M93.597 276.22c-1.304 3.228-2.944 6.189-4.961 8.841-.389.51-.787 1.01-1.204 1.498-.019.02-.035.045-.055.066-.434.505-.89.996-1.356 1.475-.142.145-.29.285-.433.427a33.624 33.624 0 0 1-1.555 1.443c-.391.34-.795.669-1.207.993-.13.103-.256.209-.39.31-.543.414-1.105.813-1.683 1.2-.135.089-.276.172-.412.26a30.588 30.588 0 0 1-2.017 1.203c-.448.25-.908.489-1.374.719-.201.102-.4.203-.605.3-.665.316-1.344.62-2.045.904-1.977.8-4.01 1.46-6.08 1.973-20.414 5.083-44.4-3.73-52.095-26.807-.419-4.12-1.055-8.233-1.212-12.345-1.012-27.158-2.044-54.298-2.792-81.436-.146-5.273.67-10.086 2.41-14.4L2.594 192.429c-1.74 4.312-2.557 9.124-2.41 14.398.747 27.139 1.779 54.279 2.79 81.435.158 4.114.796 8.226 1.213 12.347 7.697 23.078 31.681 31.89 52.097 26.808a45.422 45.422 0 0 0 6.078-1.974 37.988 37.988 0 0 0 2.048-.906c.204-.096.4-.198.6-.297.468-.231.928-.472 1.377-.719.206-.115.413-.228.616-.346.479-.277.947-.565 1.405-.862.134-.086.273-.169.406-.257.58-.385 1.14-.786 1.686-1.2.132-.1.258-.206.388-.308a32.45 32.45 0 0 0 1.208-.995c.17-.147.336-.297.503-.446.36-.324.71-.658 1.052-.996.144-.143.29-.283.43-.427.468-.48.924-.969 1.36-1.475.018-.023.034-.044.054-.067a33.17 33.17 0 0 0 1.203-1.496c.043-.057.09-.11.134-.167l.013-.035c1.95-2.602 3.544-5.492 4.814-8.643l11.938-29.582zM634.39 494.81l-11.942 29.59c-.295.735-.63 1.458-.979 2.167-.107.214-.214.415-.335.63a23.102 23.102 0 0 1-.884 1.565c-.108.187-.228.375-.349.562a26.375 26.375 0 0 1-1.313 1.927c-.014.027-.027.04-.04.055-.04.039-.068.079-.106.119a26.17 26.17 0 0 1-1.448 1.753c-.109.135-.216.254-.335.388a34.49 34.49 0 0 1-1.675 1.7c-.109.107-.228.2-.335.294-.538.509-1.1.99-1.69 1.459-.106.082-.202.174-.309.254a35.1 35.1 0 0 1-2.036 1.486c-.16.107-.321.214-.484.308-.723.483-1.474.963-2.265 1.405-25.64 14.573-51.466 28.854-77.509 42.784a34.71 34.71 0 0 1-8.188 3.158c-15.334 3.814-32.583-2.529-42.3-15.857-7.747-10.654-11.258-21.854-7.747-34.3.348-1.259.777-2.49 1.26-3.694l11.767-29.188c.054-.107.094-.214.134-.321a33.037 33.037 0 0 0-.642 1.753 27.223 27.223 0 0 0-.59 1.873c-3.5 12.433.013 23.634 7.76 34.3a38.41 38.41 0 0 0 4.02 4.684 41.314 41.314 0 0 0 7.628 6.05 43.49 43.49 0 0 0 4.247 2.3c.362.175.737.336 1.1.496.736.323 1.474.616 2.238.897.75.267 1.5.522 2.265.764.764.227 1.542.442 2.318.628 6.059 1.472 12.411 1.552 18.47.041a36.1 36.1 0 0 0 8.202-3.16 3504.702 3504.702 0 0 0 77.51-42.797c.388-.228.777-.44 1.152-.683a31.84 31.84 0 0 0 1.595-1.03c.697-.482 1.38-.977 2.037-1.486.134-.107.27-.2.389-.308.55-.455 1.085-.923 1.61-1.39.12-.095.227-.202.335-.31.227-.213.442-.427.67-.642.468-.468.91-.936 1.34-1.432.253-.293.495-.575.736-.87a27.834 27.834 0 0 0 2.52-3.56 29.555 29.555 0 0 0 1.088-1.953c.169-.332.342-.664.493-1.004.082-.159.161-.334.228-.494.135-.295.268-.603.389-.911z"/><path d="M634.39 494.81c-.12.308-.254.616-.389.911-.067.16-.146.335-.228.494-.12.254-.241.522-.374.776-.107.201-.214.415-.321.616a29.555 29.555 0 0 1-.886 1.566 27.834 27.834 0 0 1-2.52 3.56c-.241.294-.483.576-.736.87-.43.495-.872.963-1.34 1.431-.228.215-.443.429-.67.643-.108.107-.215.214-.335.309-.525.467-1.06.935-1.61 1.39-.12.107-.255.201-.389.308a46.768 46.768 0 0 1-2.037 1.486l-.481.32c-.363.242-.737.483-1.114.71-.375.242-.764.455-1.153.683a3504.702 3504.702 0 0 1-77.509 42.797 36.1 36.1 0 0 1-8.202 3.16c-6.059 1.51-12.411 1.43-18.47-.041-.776-.186-1.554-.4-2.318-.628a67.132 67.132 0 0 1-2.265-.764 39.984 39.984 0 0 1-2.239-.897c-.362-.16-.737-.321-1.099-.495a43.49 43.49 0 0 1-4.247-2.3 41.314 41.314 0 0 1-7.628-6.05 38.41 38.41 0 0 1-4.02-4.685c-7.747-10.666-11.26-21.867-7.76-34.3.173-.642.374-1.256.59-1.873.2-.601.414-1.178.642-1.753 1.903-4.751 4.798-8.967 8.632-12.607 30.424-28.76 50.153-63.353 59.577-103.715 3.229-13.892 12.41-22.911 23.79-26.11 24.888-5.7 44.108 2.946 52.511 19.94 2.346 4.724 3.807 10.211 4.035 15.351 1.286 28.17 2.225 56.354 2.975 84.539.134 5.218-.67 10.037-2.412 14.358z"/><path d="M485.149 503.375c.053-.107.093-.214.134-.32a33.76 33.76 0 0 0-.644 1.751c.161-.48.335-.95.51-1.43zM495.83 545.664a41.35 41.35 0 0 0 7.627 6.05 40.477 40.477 0 0 1-7.627-6.05zM503.457 551.714c1.38.843 2.788 1.62 4.249 2.302a40.728 40.728 0 0 1-4.249-2.302zM620.96 510.2c.55-.334 1.073-.669 1.594-1.03l-.481.32c-.362.242-.737.483-1.113.71zM633.399 496.991l-.12.228c.17-.332.342-.664.494-1.004-.12.254-.24.523-.374.776zM633.077 497.607c.067-.127.135-.257.202-.388-.337.665-.694 1.32-1.087 1.954.307-.509.603-1.03.885-1.566zM58.88 353.443c3.463-.864 7.134-1.339 10.963-1.383 17.948-.197 32 6.34 41.134 21.392 2.732 4.498 4.181 9.663 6.212 14.515 12.67 40.576 35.354 75.619 68.132 105.033 12.682 11.376 17.95 25.124 13.304 40.706-4.491 15.054-14.017 25.83-29.907 29.785-1.62.405-3.307.737-5.061.995-9.365 1.389-18.389-.42-26.802-4.961-27.8-15.022-55.638-29.964-83.323-45.17-13.669-7.516-21.05-19.03-21.627-33.683-1.165-29.802-1.988-59.619-2.732-89.42-.462-18.654 11.85-33.364 29.706-37.81z"/><path d="M196.876 538.72l-11.938 29.583c-5.013 12.426-14.092 21.27-28.158 24.773-1.62.402-3.307.736-5.061.994-9.365 1.388-18.39-.422-26.8-4.962-27.802-15.021-55.639-29.963-83.325-45.17-13.667-7.515-21.05-19.03-21.627-33.682-1.165-29.804-1.988-59.619-2.732-89.42-.134-5.446.82-10.556 2.682-15.173l11.938-29.582c-1.863 4.616-2.817 9.725-2.682 15.172.744 29.8 1.567 59.616 2.732 89.419.577 14.653 7.96 26.167 21.627 33.683 27.685 15.205 55.522 30.147 83.323 45.17 8.413 4.54 17.437 6.35 26.802 4.961a52.908 52.908 0 0 0 5.06-.994c14.067-3.501 23.145-12.347 28.159-24.773zM253.552 541.031c7.361-1.836 14.566-1.615 21.765.502 31.154 9.152 62.659 12.465 94.322 9.01 12.253-1.335 24.439-3.653 36.323-6.612.757-.188 1.51-.378 2.265-.573 18.877-4.7 38.902 2.781 49.493 19.12 9.364 14.447 11.292 28.918 3.275 43.598-3.348 6.119-8.39 10.739-14.565 14.186-26.033 14.546-52.032 29.157-78.114 43.62-3.643 2.019-7.32 3.488-11.021 4.41-10.409 2.59-21.021.857-31.72-5.14-26.77-15.005-53.52-30.061-80.279-45.105-21.857-12.29-29.149-35.939-17.75-56.674 5.58-10.132 13.501-17.229 26.006-20.342z"/><path d="M460.995 606.076a33.26 33.26 0 0 1-1.281 2.137c-.147.227-.311.443-.464.665-.316.46-.632.922-.97 1.364-.132.17-.268.334-.4.502a33.882 33.882 0 0 1-1.596 1.868c-.391.425-.795.84-1.207 1.244-.141.14-.278.281-.421.42a37.524 37.524 0 0 1-1.719 1.534c-.12.102-.246.197-.368.296-.483.393-.975.777-1.477 1.15a40.707 40.707 0 0 1-2.017 1.396c-.2.13-.397.263-.6.39-.668.42-1.348.83-2.046 1.22-26.031 14.546-52.03 29.157-78.112 43.62-3.643 2.018-7.32 3.489-11.023 4.41-10.409 2.59-21.021.857-31.72-5.14-26.769-15.005-53.52-30.06-80.279-45.106-20.156-11.332-27.926-32.327-20.073-51.788l-11.937 29.584c-7.853 19.461-.083 40.454 20.074 51.788 26.759 15.044 53.508 30.1 80.28 45.105 10.697 5.998 21.31 7.731 31.719 5.14 3.7-.922 7.378-2.39 11.02-4.408 26.083-14.465 52.082-29.075 78.114-43.622.699-.39 1.377-.799 2.046-1.22.202-.126.399-.259.599-.389a45.085 45.085 0 0 0 2.017-1.397c.502-.37.993-.755 1.474-1.147.123-.101.25-.196.373-.298a35.97 35.97 0 0 0 1.717-1.535c.143-.137.281-.281.423-.42a34.026 34.026 0 0 0 1.71-1.807c.374-.424.738-.86 1.091-1.305.133-.167.27-.33.4-.502.05-.067.107-.13.16-.199.28-.375.54-.772.809-1.162.154-.224.316-.44.465-.669.45-.69.88-1.402 1.281-2.137a44.787 44.787 0 0 0 2.245-4.73l11.938-29.583a44.931 44.931 0 0 1-2.245 4.73zM314.062 1.477c10.162-2.536 20.583-.885 30.95 4.881 27.344 15.195 54.583 30.574 81.837 45.924 20.837 11.72 28.16 35.705 17.394 55.506-5.72 10.518-13.84 17.869-24.678 20.645-8.684 2.127-16.2 1.96-23.763-.239-29.08-8.468-58.482-11.698-88.198-9.483-13.976 1.04-27.653 3.302-41.112 6.658-1.343.335-2.684.68-4.024 1.037-.223.059-.451.118-.675.174-18.982 4.732-37.606-3.518-47.472-18.378-6.59-9.92-10.264-20.22-8.356-31.721 1.953-11.715 8.127-20.708 18.51-26.581 26.272-14.853 52.576-29.642 79.01-44.213 3.484-1.92 7.015-3.322 10.577-4.21z"/></g></g></svg>