<?xml version="1.0" encoding="UTF-8"?>
<svg width="191px" height="68px" viewBox="0 0 191 68" version="1.1" xmlns="http://www.w3.org/2000/svg" xmlns:xlink="http://www.w3.org/1999/xlink">
    <!-- Generator: Sketch 50.2 (55047) - http://www.bohemiancoding.com/sketch -->
    <title>logo</title>
    <desc>Created with Sketch.</desc>
    <defs>
        <polygon id="path-1" points="0 0.338593103 32.8222053 0.338593103 32.8222053 33.5724207 0 33.5724207"></polygon>
        <polygon id="path-3" points="0.335286869 0.529584624 17.154701 0.529584624 17.154701 26.5178571 0.335286869 26.5178571"></polygon>
    </defs>
    <g id="Page-1" stroke="none" stroke-width="1" fill="none" fill-rule="evenodd">
        <g id="A-better-view" transform="translate(-127.000000, -61.000000)">
            <g id="OPENER" transform="translate(127.000000, 53.000000)">
                <g id="logo" transform="translate(0.000000, 8.000000)">
                    <g id="Group-3">
                        <mask id="mask-2" fill="white">
                            <use xlink:href="#path-1"></use>
                        </mask>
                        <g id="Clip-2"></g>
                        <path d="M16.4107842,0.338593103 C7.34852105,0.338593103 -5.78947368e-05,7.77169655 -5.78947368e-05,16.9505241 C-5.78947368e-05,26.1287655 7.34852105,33.5724207 16.4107842,33.5724207 C25.4730474,33.5724207 32.8222053,26.1287655 32.8222053,16.9505241 C32.8222053,7.77169655 25.4730474,0.338593103 16.4107842,0.338593103 Z M25.8140474,25.4288345 C25.6774158,25.9417655 25.2779421,26.3356966 24.7725211,26.4740414 L13.8703632,29.4314552 C13.3643632,29.5692138 12.8189947,29.4314552 12.4490474,29.0469034 L4.4671,20.9631103 C4.09773158,20.5879379 3.95125789,20.0462828 4.08788947,19.5239724 L7.0081,8.48217931 C7.14415263,7.96924828 7.54362632,7.56476552 8.04962632,7.4270069 L18.9512053,4.4695931 C19.4572053,4.33183448 20.0025737,4.47955862 20.3725211,4.85414483 L28.3544684,12.9379379 C28.7238368,13.3125241 28.8703105,13.864731 28.7342579,14.3776621 L25.8140474,25.4288345 Z" id="Fill-1" fill="#47B7E8" mask="url(#mask-2)"></path>
                    </g>
                    <polygon id="Fill-4" fill="#FFFFFF" points="43.7872591 27.0775978 43.7872591 8.96579466 42.2082586 8.61865462 42.2082586 7 49.044907 7 49.044907 8.61865462 47.287063 8.96579466 47.287063 16.771307 57.712937 16.771307 57.712937 8.96579466 55.9556813 8.61865462 55.9556813 7 62.7917414 7 62.7917414 8.61865462 61.2127409 8.96579466 61.2127409 27.0775978 63 27.4098931 63 29 55.9556813 29 55.9556813 27.4098931 57.712937 27.0775978 57.712937 18.6794353 47.287063 18.6794353 47.287063 27.0775978 49.044907 27.4098931 49.044907 29 42 29 42 27.4098931"></polygon>
                    <g id="Group-9" transform="translate(63.000000, 12.000000)" fill="#FFFFFF">
                        <path d="M8.16224151,0.352974194 C11.9828453,0.352974194 14.855317,2.7638129 14.855317,7.02690968 C14.855317,8.14929677 14.6716566,9.37852258 14.6716566,9.37852258 L4.01584528,9.37852258 C4.10475094,13.3472323 6.16303396,15.5966516 9.15424151,15.5966516 C10.546317,15.5966516 12.3080528,15.1408452 13.3597132,14.3616194 L14.1592792,15.3614903 C13.0783736,16.7875548 10.1614491,17.8605871 8.14761887,17.8605871 C3.58652453,17.8605871 0.550864151,14.6560065 0.550864151,9.27574839 C0.550864151,4.08652258 3.60173208,0.352974194 8.16224151,0.352974194 Z M11.7307509,7.67316774 C11.7752038,7.29110323 11.805034,6.79116774 11.805034,6.40910323 C11.805034,4.07200645 10.3392604,2.13149032 8.14761887,2.13149032 C5.73371321,2.13149032 4.13458113,4.07200645 4.13458113,7.67316774 L11.7307509,7.67316774 Z" id="Fill-5"></path>
                        <path d="M25.8907321,6.60030968 C25.8907321,3.92527742 25.1800717,2.89579355 22.5883547,2.89579355 C21.3594679,2.89579355 19.6123547,3.3812129 18.2202792,4.11630968 L17.2282792,2.80753548 C18.9016943,1.4256 21.1968642,0.455341935 23.4177509,0.455341935 C27.6822981,0.455341935 29.1486566,2.04340645 29.1486566,6.35063226 L29.1486566,15.5672129 L30.6349019,15.9051484 L30.6349019,17.345729 C30.6349019,17.345729 28.4526189,17.8607613 27.6975057,17.8607613 C26.3791283,17.8607613 25.9650151,17.5222452 25.9650151,16.375471 L25.9650151,15.6705677 C24.8987321,16.7139871 23.2399396,17.8607613 21.0933358,17.8607613 C18.0278453,17.8607613 15.9695623,16.1257935 15.9695623,13.0681161 C15.9695623,8.99605161 20.7523358,7.45269677 25.8907321,7.36443871 L25.8907321,6.60030968 Z M25.8907321,9.02566452 C22.4848264,9.02566452 19.6568075,10.0110194 19.6568075,12.7592129 C19.6568075,14.8176 20.6932604,15.6409548 22.4257509,15.6409548 C23.3586755,15.6409548 24.9279774,14.9058581 25.8907321,14.1562452 L25.8907321,9.02566452 Z" id="Fill-7"></path>
                    </g>
                    <polygon id="Fill-10" fill="#FFFFFF" points="103 28.3620345 103 30 96 30 96 28.3620345 97.7379981 28.0197379 97.7379981 7.3525537 96.2613074 7.09965417 96.2613074 5.61048768 100.461672 5 101.246202 5.61048768 101.246202 28.0197379"></polygon>
                    <g id="Group-23" transform="translate(104.000000, 5.000000)" fill="#FFFFFF">
                        <path d="M0.0676731544,10.5510227 L0.0676731544,8.91125 C0.599599329,8.63795455 1.54608926,8.17772727 1.54608926,8.17772727 C1.8117604,7.41522727 2.53637114,5.41579545 2.87619664,4.43738636 L4.70903557,4.22147727 L4.73881409,8.17772727 L9.04035101,8.17772727 L9.04035101,10.5510227 L4.75341141,10.5510227 L4.75341141,18.9368182 C4.75341141,20.1021591 4.78318993,20.9220455 4.8573443,21.3680682 C4.98988792,22.2885227 5.31511611,22.4470455 6.4385255,22.4470455 L6.45370671,22.4470455 C7.44398859,22.4470455 8.19779396,22.1589773 8.87744497,21.9004545 L9.42455235,23.3101136 C8.84825034,23.7703409 8.19779396,24.2879545 6.97103557,24.6044318 C6.29080067,24.7771591 5.67012282,24.8493182 5.09323691,24.8493182 L5.06404228,24.8493182 C2.62512282,24.8493182 1.36858591,23.8998864 1.36858591,21.4402273 L1.36858591,10.5510227 L0.0676731544,10.5510227 Z" id="Fill-11"></path>
                        <path d="M27.3592228,22.9503409 L27.3592228,24.5327273 L21.8455248,24.5327273 L21.8455248,22.9503409 L22.8801826,22.6196591 L22.8801826,14.57875 C22.8801826,12.3492045 22.643706,11.1548864 21.7713705,10.5077273 C21.3427933,10.19125 20.7069342,10.0332955 19.8649611,10.0332955 C18.4455181,10.0332955 16.760404,10.66625 15.5780215,11.52875 L15.5780215,22.6196591 L16.6716523,22.9503409 L16.6716523,24.5327273 L11.1579544,24.5327273 L11.1579544,22.9361364 L12.1926121,22.6196591 L12.1926121,2.65375 L10.7293772,2.40943182 L10.7293772,0.956590909 L14.8831893,0.41 L15.548243,0.970795455 L15.5628403,9.94693182 C16.9081289,8.79579545 19.1105718,7.80375 21.4017664,7.80375 C23.9294376,7.80375 25.2747262,8.72420455 25.8364309,10.66625 C26.1178671,11.6440909 26.2504107,12.9531818 26.2504107,14.5929545 L26.2504107,22.6196591 L27.3592228,22.9503409 Z" id="Fill-13"></path>
                        <path d="M42.0127087,8.96857955 L41.8060107,11.5577841 L40.4309436,11.5577841 L40.3275946,11.1549432 C40.238843,10.8100568 40.0169638,10.4361932 39.6181651,10.1049432 C39.1154336,9.70267045 38.3470309,9.429375 37.2528161,9.429375 C35.833957,9.429375 34.6807691,10.2202841 33.8825879,11.4140341 C33.1287826,12.5503977 32.7002054,14.0753977 32.7002054,15.6430114 C32.7002054,17.5271023 33.0400309,19.2248295 33.778655,20.4759659 C34.5628228,21.8140341 35.7895812,22.648125 37.5336685,22.648125 C39.2187826,22.648125 40.6826013,22.1163068 41.7020779,21.4253977 L42.3531181,22.7486932 C41.6431047,23.4396023 40.4309436,24.1441477 38.9969034,24.5469886 C38.2582792,24.7628977 37.5190711,24.8634659 36.7798631,24.8634659 C34.5476416,24.8634659 32.7591785,24.1583523 31.4728631,22.9361932 C29.9208765,21.4685795 29.0935007,19.2248295 29.0935007,16.5634659 C29.0935007,14.1469886 29.787749,12.0759659 31.0740644,10.5367614 C32.5372993,8.76744318 34.7695208,7.73164773 37.6078228,7.73164773 C39.0120846,7.73164773 40.3719705,8.07710227 42.0127087,8.96857955" id="Fill-15"></path>
                        <path d="M62.154143,22.6196023 L62.154143,10.5264205 L60.7352839,9.99460227 L60.7352839,8.45085227 L64.4897134,7.78892045 L65.3766463,8.45085227 L65.3766463,10.8389205 L65.465398,10.8389205 C65.8198208,10.2053977 66.4556799,9.27073864 68.0666396,8.39289773 C68.8654047,7.94744318 69.7371564,7.73153409 70.6836463,7.73153409 C71.1665255,7.73153409 71.658747,7.84460227 71.658747,7.84460227 L71.658747,11.3019886 C71.658747,11.3019886 70.9726732,11.0832386 70.0623846,11.0832386 C67.7268141,11.0832386 66.4854584,12.0178977 65.5243711,12.7230114 L65.5243711,22.6196023 L68.2295456,22.9502841 L68.2295456,24.5326705 L60.4690289,24.5326705 L60.4690289,22.9502841 L62.154143,22.6196023 Z" id="Fill-17"></path>
                        <path d="M80.2075188,7.73176136 C84.0215054,7.73176136 86.889002,10.0908523 86.889002,14.2624432 C86.889002,15.3607386 86.7056597,16.5635795 86.7056597,16.5635795 L76.0688879,16.5635795 C76.1570557,20.4471023 78.2123577,22.6482386 81.1978007,22.6482386 C82.5874651,22.6482386 84.3467336,22.2022159 85.3959886,21.4397159 L86.1941698,22.418125 C85.1151362,23.8135795 82.2032638,24.8635795 80.1929215,24.8635795 C75.6397268,24.8635795 72.6093242,21.7277841 72.6093242,16.4630114 C72.6093242,11.3851705 75.6549081,7.73176136 80.2075188,7.73176136 Z M83.7704315,14.8948295 C83.8142235,14.5209659 83.844002,14.0317614 83.844002,13.6578977 C83.844002,11.3709659 82.3807671,9.47210227 80.1929215,9.47210227 C77.7831966,9.47210227 76.1868342,11.3709659 76.1868342,14.8948295 L83.7704315,14.8948295 Z" id="Fill-19"></path>
                        <path d="M54.1378812,13.845 C54.1378812,11.2273864 53.4284517,10.22 50.8412235,10.22 C49.6144651,10.22 47.8703779,10.695 46.4807134,11.4143182 L45.4898477,10.1336364 C47.1603644,8.78136364 49.452143,7.83193182 51.6691832,7.83193182 C55.9263443,7.83193182 57.3895792,9.38590909 57.3895792,13.6006818 L57.3895792,22.6194318 L58.8738342,22.9501136 L58.8738342,24.3597727 C58.8738342,24.3597727 56.6953309,24.86375 55.9409416,24.86375 C54.6254315,24.86375 54.2114517,24.5325 54.2114517,23.4103409 L54.2114517,22.7205682 C53.1475993,23.7415909 51.4916799,24.86375 49.3482101,24.86375 C46.2886128,24.86375 44.2338946,23.1660227 44.2338946,20.1739773 C44.2338946,16.1893182 49.0083846,14.6790909 54.1378812,14.5927273 L54.1378812,13.845 Z M54.1378812,16.2182955 C50.7378745,16.2182955 47.9147537,17.1825 47.9147537,19.8717045 C47.9147537,21.8859091 48.9494114,22.6915909 50.6789013,22.6915909 C51.6102101,22.6915909 53.176794,21.9722727 54.1378812,21.23875 L54.1378812,16.2182955 Z" id="Fill-21"></path>
                    </g>
                    <polygon id="Fill-24" fill="#FFFFFF" points="43.8336682 58.0775978 43.8336682 39.9657947 42.0447523 39.6192256 42.0447523 38 49.0961898 38 49.0961898 39.6192256 47.3667475 39.9806395 47.3667475 57.6585176 56.3466574 57.6442437 57.4048147 55.6350566 59 55.8371743 58.5083131 60 42 60 42 58.410464"></polygon>
                    <g id="Group-34" transform="translate(59.000000, 35.000000)">
                        <path d="M16.2845838,16.2315214 C16.2845838,21.2887714 12.9768263,25.1079321 8.23078586,25.1079321 C3.11389697,25.1079321 0.562482828,21.4826464 0.562482828,16.2173786 C0.562482828,11.2343786 3.91476566,7.33978929 8.60163434,7.33978929 C13.7337556,7.33978929 16.2845838,10.9503429 16.2845838,16.2315214 M8.42353333,9.18955714 C5.69460404,9.18955714 4.30026061,11.4571286 4.30026061,15.9486643 C4.30026061,20.4237 5.59090707,23.2581643 8.42353333,23.2581643 C11.1676949,23.2581643 12.5321596,21.0059143 12.5321596,16.5002357 C12.5321596,12.0240214 11.2713919,9.18955714 8.42353333,9.18955714" id="Fill-25" fill="#FFFFFF"></path>
                        <g id="Group-29" transform="translate(17.575758, 6.482143)">
                            <mask id="mask-4" fill="white">
                                <use xlink:href="#path-3"></use>
                            </mask>
                            <g id="Clip-28"></g>
                            <path d="M7.58821616,12.6883232 C6.77211515,12.6883232 6.01577172,12.5993411 5.3186,12.4343411 C4.77023636,12.9269839 4.42868081,13.4638232 4.42868081,14.1356089 C4.42868081,15.5233768 5.66015556,15.6718768 7.76631717,15.6718768 L10.9996707,15.6718768 C14.8710242,15.6718768 16.7990848,17.1645375 16.7990848,20.1475018 C16.7990848,23.9819839 12.2159131,26.5182696 7.89989293,26.5182696 C2.60490303,26.5182696 0.335286869,24.8317339 0.335286869,21.8635018 C0.335286869,20.0137339 1.56676162,18.4173589 3.09409495,17.6412696 C2.13035758,17.0896982 1.65581212,16.5528589 1.65581212,15.4332161 C1.65581212,13.9411446 2.58967071,12.7625732 3.96936768,11.9876625 C1.99678182,11.0778054 0.898882828,9.63051964 0.898882828,6.9304125 C0.898882828,3.22969821 4.04318586,0.902608929 7.95906465,0.857823214 L7.97371111,0.857823214 C10.1097515,0.857823214 11.8304182,1.34987679 13.0021354,2.30451964 C13.8123778,1.17132321 15.3707616,0.527233929 17.154701,0.529584624 L17.154701,3.5726625 L15.3227212,2.89144821 L14.1439737,3.72234107 C14.4849434,4.45305536 14.6331657,5.52732321 14.6331657,6.40712679 C14.6331657,10.3606446 11.5925596,12.6883232 7.60286263,12.6883232 L7.58821616,12.6883232 Z M3.65769091,20.9831089 C3.65769091,23.3697161 4.96298384,24.6231268 8.16645859,24.6231268 C11.2070646,24.6231268 13.4766808,23.1322339 13.4766808,21.0125732 C13.4766808,18.8351625 12.3494889,18.3572518 9.88712525,18.3572518 L6.90569091,18.3572518 C6.09017576,18.3572518 5.33383232,18.2983232 4.60736768,18.1633768 C3.96936768,18.9541982 3.65769091,19.8946982 3.65769091,20.9831089 Z M7.76631717,2.6032875 C5.63027677,2.6032875 4.39938788,4.30396607 4.39938788,6.64637679 C4.39938788,9.60046607 5.63027677,10.9128054 7.78096364,10.9128054 L7.81084242,10.9128054 C10.0652263,10.9128054 11.1478929,9.85385893 11.1478929,6.79546607 C11.1478929,4.42359107 10.0798727,2.6032875 7.78096364,2.6032875 L7.76631717,2.6032875 Z" id="Fill-27" fill="#FFFFFF" mask="url(#mask-4)"></path>
                        </g>
                        <path d="M38.0488788,22.7810196 L38.0488788,10.2392518 L36.5654848,9.68709107 L36.5654848,8.08600179 L40.7332828,7.39948393 L41.445101,8.08600179 L41.445101,22.7810196 L43.1511212,23.1245732 L43.1511212,24.7651446 L36.3135657,24.7651446 L36.3135657,23.1245732 L38.0488788,22.7810196 Z M39.7666162,0.134180357 C41.0273838,0.134180357 41.8727778,1.01457321 41.8727778,2.32750179 C41.8727778,3.68521607 40.9980909,4.59507321 39.6775657,4.59507321 C38.4320303,4.59507321 37.6012828,3.73000179 37.6012828,2.43180536 C37.6012828,1.05935893 38.4619091,0.134180357 39.7666162,0.134180357 Z" id="Fill-30" fill="#FFFFFF"></path>
                        <path d="M57.2737697,8.62319464 L57.0663758,11.3085696 L55.6866788,11.3085696 L55.5829818,10.8907661 C55.4939313,10.5324804 55.2713051,10.1447304 54.8711636,9.80176607 C54.3667394,9.3839625 53.5957495,9.10051607 52.4978505,9.10051607 C51.0736283,9.10051607 49.9171434,9.92139107 49.1162747,11.1594804 C48.3599313,12.3380518 47.9293253,13.9191054 47.9293253,15.5455339 C47.9293253,17.4996054 48.2708808,19.2603911 49.0119919,20.5579982 C49.7982141,21.9451768 51.0296889,22.8108375 52.7796485,22.8108375 C54.4704364,22.8108375 55.9391838,22.2586768 56.9620929,21.5426946 L57.6153253,22.9151411 C56.9029212,23.6311232 55.6866788,24.3624268 54.2478101,24.7802304 C53.506699,25.0035696 52.765002,25.1084625 52.0233051,25.1084625 C49.7835677,25.1084625 47.9890828,24.3765696 46.6984364,23.1096054 C45.1412242,21.5874804 44.3104768,19.2603911 44.3104768,16.5001768 C44.3104768,13.9939446 45.0076485,11.8454089 46.2982949,10.2490339 C47.7664566,8.4145875 50.0061939,7.34031964 52.8540525,7.34031964 C54.2630424,7.34031964 55.6275071,7.69801607 57.2737697,8.62319464" id="Fill-32" fill="#FFFFFF"></path>
                    </g>
                </g>
            </g>
        </g>
    </g>
</svg>