<?xml version="1.0" encoding="UTF-8"?>
<svg width="80px" height="81px" viewBox="0 0 80 81" version="1.1" xmlns="http://www.w3.org/2000/svg" xmlns:xlink="http://www.w3.org/1999/xlink">
    <!-- Generator: sketchtool 50.2 (55047) - http://www.bohemiancoding.com/sketch -->
    <title>801FA10D-41BB-45BF-A3AE-08EEFEE5F0B5</title>
    <desc>Created with sketchtool.</desc>
    <defs>
        <polygon id="path-1" points="0.376516129 0.0301075269 37.0027527 0.0301075269 37.0027527 15.9887312 0.376516129 15.9887312"></polygon>
    </defs>
    <g id="Page-1" stroke="none" stroke-width="1" fill="none" fill-rule="evenodd">
        <g id="A-broken-system" transform="translate(-740.000000, -1329.000000)">
            <g id="QUESTIONS-FACED" transform="translate(240.000000, 1027.000000)">
                <g id="QUESTIONS">
                    <g id="Group-19" transform="translate(500.000000, 302.000000)">
                        <g id="patient">
                            <g id="Group-18" transform="translate(0.000000, 0.400000)">
                                <path d="M39.9836129,13.7411613 C25.4967312,13.7411613 13.7113548,25.5269677 13.7113548,40.0138495 C13.7113548,54.5007312 25.4967312,66.2861075 39.9836129,66.2861075 C54.4704946,66.2861075 66.2563011,54.5007312 66.2563011,40.0138495 C66.2563011,25.5269677 54.4704946,13.7411613 39.9836129,13.7411613 M39.9836129,66.5011613 C25.3784516,66.5011613 13.4963011,54.6190108 13.4963011,40.0138495 C13.4963011,25.4086882 25.3784516,13.5261075 39.9836129,13.5261075 C54.5887742,13.5261075 66.4713548,25.4086882 66.4713548,40.0138495 C66.4713548,54.6190108 54.5887742,66.5011613 39.9836129,66.5011613" id="Fill-1" fill="#FFFFFF"></path>
                                <path d="M19.7257204,74.4930323 C13.8293763,71.0212043 8.88830108,66.0633548 5.43625806,60.155828 C1.88012903,54.0689462 0.000129032258,47.1037849 0.000129032258,40.0138925 L0.215182796,40.0138925 C0.215182796,47.0655054 2.08443011,53.9932473 5.62206452,60.0470108 C9.0551828,65.9231398 13.9700215,70.8543226 19.8349677,74.3072258 L19.7257204,74.4930323 Z" id="Fill-3" fill="#FFFFFF"></path>
                                <path d="M40.4074409,80 C40.2655054,80 40.1244301,79.9991398 39.9824946,79.9974194 C36.2427097,79.9539785 32.6926022,79.4804301 29.4289462,78.5896774 L29.4848602,78.3819355 C32.7308817,79.267957 36.2637849,79.7393548 39.9850753,79.7823656 C40.1252903,79.784086 40.2676559,79.7849462 40.4074409,79.7849462 C56.6633548,79.7849462 71.8986237,68.8511828 77.5614194,53.0653763 L77.764,53.1376344 C72.0710968,69.0068817 56.7510968,80 40.4074409,80" id="Fill-5" fill="#FFFFFF"></path>
                                <path d="M77.7642151,53.1367742 L77.5607742,53.0662366 C79.0149677,48.8787097 79.752172,44.4873118 79.752172,40.0137634 C79.752172,23.9066667 70.1457204,9.49290323 55.2790538,3.29290323 L55.3620645,3.09462366 C70.3091613,9.32817204 79.9672258,23.8197849 79.9672258,40.0137634 C79.9672258,44.5109677 79.2257204,48.9264516 77.7642151,53.1367742" id="Fill-7" fill="#FFFFFF"></path>
                                <g id="Group-11" transform="translate(7.741935, 0.000000)">
                                    <mask id="mask-2" fill="white">
                                        <use xlink:href="#path-1"></use>
                                    </mask>
                                    <g id="Clip-10"></g>
                                    <path d="M0.547698925,15.9887312 L0.376516129,15.8584086 C8.01350538,5.79948387 19.628129,0.0300215054 32.2414624,0.0300215054 C33.8328602,0.0300215054 35.4345806,0.124645161 37.0027527,0.31088172 L36.9773763,0.524215054 C35.4178065,0.33883871 33.8242581,0.245075269 32.2414624,0.245075269 C19.696086,0.245075269 8.14382796,5.98356989 0.547698925,15.9887312" id="Fill-9" fill="#FFFFFF" mask="url(#mask-2)"></path>
                                </g>
                                <path d="M7.42021505,46.6931183 C6.97505376,44.5103226 6.7488172,42.2630108 6.7488172,40.0139785 C6.7488172,21.687957 21.6580645,6.77870968 39.9836559,6.77870968 C48.6030108,6.77870968 56.7737634,10.0643011 62.9905376,16.0294624 L62.8417204,16.1847312 C56.6649462,10.2578495 48.5470968,6.99376344 39.9836559,6.99376344 C21.7767742,6.99376344 6.96387097,21.8066667 6.96387097,40.0139785 C6.96387097,42.2488172 7.1883871,44.4815054 7.63096774,46.6501075 L7.42021505,46.6931183 Z" id="Fill-12" fill="#FFFFFF"></path>
                                <path d="M39.9836129,73.2484731 C28.116086,73.2484731 17.0670538,66.8493333 11.1474839,56.5486882 L11.3341505,56.4411613 C17.2145806,66.676 28.1930753,73.0334194 39.9836129,73.0334194 C46.0950108,73.0334194 52.0631828,71.3512688 57.243828,68.1689032 L57.3565161,68.352129 C52.1423226,71.5551398 46.1345806,73.2484731 39.9836129,73.2484731" id="Fill-14" fill="#FFFFFF"></path>
                                <path d="M68.6412043,56.8565161 L68.4553978,56.7472688 C71.4308817,51.6956559 73.0037849,45.9094194 73.0037849,40.0139355 C73.0037849,34.7055484 71.7827097,29.6367312 69.3736774,24.9476989 L69.5650753,24.8496344 C71.9891613,29.5692043 73.2188387,34.6711398 73.2188387,40.0139355 C73.2188387,45.9476989 71.6356129,51.7717849 68.6412043,56.8565161" id="Fill-16" fill="#FFFFFF"></path>
                            </g>
                            <path d="M43.8007742,37.6409462 L43.8007742,47.8418065 C43.8007742,48.8590108 42.975828,49.683957 41.9586237,49.683957 L34.0123871,49.683957 C32.4455054,49.683957 31.1753978,48.4138495 31.1753978,46.8469677 L31.1753978,40.2727742 C31.1753978,38.6211613 32.5143226,37.2826667 34.1655054,37.2826667 L45.7723871,37.2826667 C47.3814194,37.2826667 48.6962581,38.5669677 48.7341075,40.176 L48.7917419,55.7054624 L34.4730323,55.7054624 L34.5267957,49.683957" id="Stroke-19" stroke="#FFFFFF" stroke-width="0.5"></path>
                            <path d="M45.6556559,42.8022366 L45.6556559,55.7054624" id="Stroke-21" stroke="#FFFFFF" stroke-width="0.5"></path>
                            <path d="M34.9029677,49.683957 L42.9674839,37.2826667 C42.9674839,37.2826667 43.2543656,34.4508387 46.0500645,34.200086 C46.0500645,34.200086 45.9425376,37.0676129 42.9674839,37.2826667" id="Stroke-23" stroke="#FFFFFF" stroke-width="0.5"></path>
                            <polyline id="Stroke-25" stroke="#FFFFFF" stroke-width="0.5" points="35.3330753 42.8022366 35.3330753 45.7772903 37.4436129 45.7772903"></polyline>
                            <path d="M44.8384516,29.8990108 C44.8384516,32.5355699 42.7008172,34.6732043 40.0642581,34.6732043 C37.4276989,34.6732043 35.2900645,32.5355699 35.2900645,29.8990108 C35.2900645,27.2624516 37.4276989,25.1248172 40.0642581,25.1248172 C42.7008172,25.1248172 44.8384516,27.2624516 44.8384516,29.8990108 Z" id="Stroke-27" stroke="#FFFFFF" stroke-width="0.5"></path>
                        </g>
                    </g>
                </g>
            </g>
        </g>
    </g>
</svg>