<?xml version="1.0" encoding="UTF-8"?>
<svg width="82px" height="81px" viewBox="0 0 82 81" version="1.1" xmlns="http://www.w3.org/2000/svg" xmlns:xlink="http://www.w3.org/1999/xlink">
    <!-- Generator: sketchtool 50.2 (55047) - http://www.bohemiancoding.com/sketch -->
    <title>A36B4DED-BEE8-46D3-A6CB-B77FA958DAA9</title>
    <desc>Created with sketchtool.</desc>
    <defs></defs>
    <g id="Page-1" stroke="none" stroke-width="1" fill="none" fill-rule="evenodd">
        <g id="A-better-view" transform="translate(-689.000000, -3077.000000)" stroke="#FFFFFF" stroke-width="0.5">
            <g id="FEATURES-SECTION" transform="translate(0.000000, 2571.000000)">
                <g id="Group-25" transform="translate(690.000000, 506.000000)">
                    <g id="safe">
                        <g id="Group-17" transform="translate(0.000000, 0.400000)">
                            <path d="M66.3634839,40.0138065 C66.3634839,54.5832688 54.5527312,66.3935914 39.9836989,66.3935914 C25.4142366,66.3935914 13.603914,54.5832688 13.603914,40.0138065 C13.603914,25.4447742 25.4142366,13.6340215 39.9836989,13.6340215 C54.5527312,13.6340215 66.3634839,25.4447742 66.3634839,40.0138065 Z" id="Stroke-1"></path>
                            <path d="M19.7803871,74.4005591 C8.00791398,67.4689462 0.107698925,54.6637849 0.107698925,40.0138925" id="Stroke-3"></path>
                            <path d="M77.6621935,53.1014194 C72.0475699,68.7543226 56.7525161,80.0855054 39.9834839,79.8898065 C36.340043,79.8476559 32.8105806,79.4012043 29.4570323,78.4859355" id="Stroke-5"></path>
                            <path d="M55.3205591,3.19384946 C69.7308817,9.20331183 79.859914,23.4256774 79.859914,40.0136344 C79.859914,44.5985806 79.0861505,49.0020215 77.6620645,53.1013763" id="Stroke-7"></path>
                            <path d="M8.20404301,15.924 C15.4861935,6.33174194 27.0117849,0.137763441 39.983828,0.137763441 C41.5902796,0.137763441 43.1747957,0.232817204 44.7317849,0.417333333" id="Stroke-9"></path>
                            <path d="M7.52572043,46.6716559 C7.08658065,44.5211183 6.85604301,42.2944516 6.85604301,40.0140215 C6.85604301,21.7181075 21.687871,6.88627957 39.9837849,6.88627957 C48.884,6.88627957 56.964,10.3963871 62.9162581,16.1073548" id="Stroke-11"></path>
                            <path d="M57.2997419,68.2606022 C52.2610323,71.356086 46.3307097,73.1414624 39.9836129,73.1414624 C27.6876989,73.1414624 16.9565161,66.4421075 11.2403871,56.4954409" id="Stroke-13"></path>
                            <path d="M69.4695914,24.8987097 C71.7973333,29.4307527 73.1113118,34.5688172 73.1113118,40.0139785 C73.1113118,46.1408602 71.448086,51.8789247 68.547871,56.8019355" id="Stroke-15"></path>
                        </g>
                        <path d="M54.3061935,42.9956989 C54.3061935,50.8666667 47.8975914,57.3182796 39.9836129,57.3182796 C36.048129,57.3182796 32.4653333,55.7182796 29.8717849,53.1247312 C27.2739355,50.5316129 25.6610323,46.9526882 25.6610323,42.9956989 L25.6610323,29.4903226 L39.9836129,23.511828 L54.3061935,29.4903226 L54.3061935,42.9956989 Z" id="Stroke-18"></path>
                        <polygon id="Stroke-20" points="45.4028817 37.4043011 38.220086 44.5445161 34.564172 40.8886022 35.6824516 39.7698925 38.1211613 42.1139785 44.2846022 36.2860215"></polygon>
                    </g>
                </g>
            </g>
        </g>
    </g>
</svg>