<?xml version="1.0" encoding="UTF-8"?>
<svg width="43px" height="43px" viewBox="0 0 43 43" version="1.1" xmlns="http://www.w3.org/2000/svg" xmlns:xlink="http://www.w3.org/1999/xlink">
    <!-- Generator: sketchtool 50.2 (55047) - http://www.bohemiancoding.com/sketch -->
    <title>763F908F-791D-4C8D-B3FB-67CEDA983E56</title>
    <desc>Created with sketchtool.</desc>
    <defs></defs>
    <g id="Page-1" stroke="none" stroke-width="1" fill="none" fill-rule="evenodd">
        <g id="About-us" transform="translate(-1035.000000, -1281.000000)" fill="#FFFFFF">
            <g id="TEAM" transform="translate(0.000000, 865.000000)">
                <g id="Group-18" transform="translate(238.000000, 162.000000)">
                    <g id="Bitmap-Copy-5" transform="translate(673.000000, 254.000000)">
                        <g id="see-more" transform="translate(124.000000, 0.000000)">
                            <path d="M43,21.5 C43,16 40.8975553,10.5 36.6926659,6.3 C28.2828871,-2.1 14.6670547,-2.1 6.2572759,6.3 C2.1024447,10.5 0,16 0,21.5 C0,27 2.1024447,32.5 6.30733411,36.7 C14.7171129,45.1 28.3329453,45.1 36.7427241,36.7 C40.8975553,32.5 43,27 43,21.5 M41.7485448,21.5 C41.7485448,26.9 39.6461001,32 35.8416764,35.8 C27.9324796,43.7 15.0675204,43.7 7.20838184,35.8 C3.35389988,32 1.25145518,26.9 1.25145518,21.5 C1.25145518,16.1 3.35389988,11 7.15832363,7.2 C15.0675204,-0.7 27.9324796,-0.7 35.8416764,7.2 C39.6461001,11 41.7485448,16.1 41.7485448,21.5" id="Fill-1"></path>
                            <path d="M13.5,19.619403 C12.4552239,19.619403 11.619403,20.4552239 11.619403,21.5 C11.619403,22.5447761 12.4552239,23.380597 13.5,23.380597 C14.5447761,23.380597 15.380597,22.5447761 15.380597,21.5 C15.380597,20.4552239 14.4925373,19.619403 13.5,19.619403 M13.5,25 C11.5671642,25 10,23.4328358 10,21.5 C10,19.5671642 11.5671642,18 13.5,18 C15.4328358,18 17,19.5671642 17,21.5 C17,23.4328358 15.4328358,25 13.5,25" id="Fill-3"></path>
                            <path d="M21.5,19.619403 C20.4552239,19.619403 19.619403,20.4552239 19.619403,21.5 C19.619403,22.5447761 20.4552239,23.380597 21.5,23.380597 C22.5447761,23.380597 23.380597,22.5447761 23.380597,21.5 C23.380597,20.4552239 22.4925373,19.619403 21.5,19.619403 M21.5,25 C19.5671642,25 18,23.4328358 18,21.5 C18,19.5671642 19.5671642,18 21.5,18 C23.4328358,18 25,19.5671642 25,21.5 C25,23.4328358 23.4328358,25 21.5,25" id="Fill-5"></path>
                            <path d="M29.5,19.619403 C28.4552239,19.619403 27.619403,20.4552239 27.619403,21.5 C27.619403,22.5447761 28.4552239,23.380597 29.5,23.380597 C30.5447761,23.380597 31.380597,22.5447761 31.380597,21.5 C31.380597,20.4552239 30.5447761,19.619403 29.5,19.619403 M29.5,25 C27.5671642,25 26,23.4328358 26,21.5 C26,19.5671642 27.5671642,18 29.5,18 C31.4328358,18 33,19.5671642 33,21.5 C33,23.4328358 31.4328358,25 29.5,25" id="Fill-7"></path>
                        </g>
                    </g>
                </g>
            </g>
        </g>
    </g>
</svg>