<?xml version="1.0" encoding="UTF-8"?>
<svg width="82px" height="81px" viewBox="0 0 82 81" version="1.1" xmlns="http://www.w3.org/2000/svg" xmlns:xlink="http://www.w3.org/1999/xlink">
    <!-- Generator: sketchtool 50.2 (55047) - http://www.bohemiancoding.com/sketch -->
    <title>D4E5B294-B514-464D-83A7-B3136D9C8519</title>
    <desc>Created with sketchtool.</desc>
    <defs></defs>
    <g id="Page-1" stroke="none" stroke-width="1" fill="none" fill-rule="evenodd">
        <g id="A-broken-system" transform="translate(-239.000000, -1329.000000)" stroke="#FFFFFF" stroke-width="0.5">
            <g id="QUESTIONS-FACED" transform="translate(240.000000, 1027.000000)">
                <g id="QUESTIONS">
                    <g id="Group-15" transform="translate(0.000000, 302.000000)">
                        <g id="surgery">
                            <g id="Group-17" transform="translate(0.000000, 0.400000)">
                                <path d="M66.3635699,40.0138495 C66.3635699,54.5828817 54.5528172,66.3936344 39.9837849,66.3936344 C25.4143226,66.3936344 13.6035699,54.5828817 13.6035699,40.0138495 C13.6035699,25.4448172 25.4143226,13.6340645 39.9837849,13.6340645 C54.5528172,13.6340645 66.3635699,25.4448172 66.3635699,40.0138495 Z" id="Stroke-1"></path>
                                <path d="M19.7803871,74.4005161 C8.00791398,67.4689032 0.107698925,54.6637419 0.107698925,40.0138495" id="Stroke-3"></path>
                                <path d="M77.6623656,53.1014194 C72.0477419,68.7538925 56.7526882,80.0855054 39.9836559,79.8898065 C36.3402151,79.8476559 32.8103226,79.4012043 29.4567742,78.4859355" id="Stroke-5"></path>
                                <path d="M55.3204301,3.19380645 C69.7307527,9.20326882 79.8597849,23.4256344 79.8597849,40.0140215 C79.8597849,44.5981075 79.0860215,49.0019785 77.6623656,53.1013333" id="Stroke-7"></path>
                                <path d="M8.20387097,15.923914 C15.4860215,6.33208602 27.0116129,0.137677419 39.9836559,0.137677419 C41.5905376,0.137677419 43.1746237,0.232731183 44.7316129,0.417677419" id="Stroke-9"></path>
                                <path d="M7.52554839,46.671871 C7.08683871,44.5209032 6.85630108,42.2942366 6.85630108,40.0138065 C6.85630108,21.7183226 21.6876989,6.88649462 39.9836129,6.88649462 C48.883828,6.88649462 56.9642581,10.396172 62.9165161,16.1075699" id="Stroke-11"></path>
                                <path d="M57.299914,68.2606882 C52.2612043,71.356172 46.3308817,73.1411183 39.9837849,73.1411183 C27.687871,73.1411183 16.9566882,66.4421935 11.2405591,56.4950968" id="Stroke-13"></path>
                                <path d="M69.4696344,24.8988817 C71.7973763,29.4304946 73.1109247,34.5689892 73.1109247,40.0137204 C73.1109247,46.1406022 71.4476989,51.8790968 68.5483441,56.8021075" id="Stroke-15"></path>
                            </g>
                            <path d="M25.2733333,52.848086 L38.5352688,40.0717419 L40.6053763,42.1418495 L34.5602151,48.1900215 L35.2273118,50.0024946 C35.2273118,50.0024946 32.46,53.6343226 29.9658065,54.3822796 C27.4711828,55.1306667 25.9498925,53.5771183 25.2733333,52.848086 Z" id="Stroke-18"></path>
                            <polygon id="Stroke-20" points="38.0589247 39.5951398 41.1587097 36.4407312 44.3741935 39.5951398 41.1587097 42.6953548"></polygon>
                            <path d="M41.1585806,36.4406882 L49.9564301,26.8910108 C50.7108387,26.0716559 51.9908387,26.0307957 52.7964301,26.8006882 L54.0781505,28.0256344 C54.9177204,28.8273548 54.8957849,30.1744516 54.0308387,30.9486452 L44.3744946,39.5950968 L41.1585806,36.4406882 Z" id="Stroke-22"></path>
                        </g>
                    </g>
                </g>
            </g>
        </g>
    </g>
</svg>