<?xml version="1.0" encoding="UTF-8"?>
<svg width="329px" height="240px" viewBox="0 0 329 240" version="1.1" xmlns="http://www.w3.org/2000/svg" xmlns:xlink="http://www.w3.org/1999/xlink">
    <!-- Generator: Sketch 52.5 (67469) - http://www.bohemiancoding.com/sketch -->
    <title>Group</title>
    <desc>Created with Sketch.</desc>
    <g id="Page-1" stroke="none" stroke-width="1" fill="none" fill-rule="evenodd">
        <g id="Group">
            <g id="ER-Illustration-V1_Inpatient-Beds-Illustration" transform="translate(182.000000, 0.000000)">
                <polyline id="Fill-1" fill="#D1D3D4" points="109.874432 22.9025354 125.732995 22.9025354 125.732995 27.8583361 101.454383 44.9101398 18.1680617 45.9012999 18.1680617 35.5085527 21.9691127 40.0313223 90.8403084 35.03703 109.874432 22.9025354"></polyline>
                <polygon id="Stroke-4" fill="#FFFFFF" points="137.569179 13.3758505 137.569179 54.1288914 8.9204413 54.1288914 8.9204413 29.1189378 0.481145701 29.1189378 0.481145701 78.4267493 8.9204413 78.4267493 8.9204413 63.1936764 137.569179 63.1936764 137.569179 78.4267493 146.008474 78.4267493 146.008474 13.3758505"></polygon>
                <polyline id="Fill-2" fill="#9CDAF3" points="97.1721858 58.4784485 12.2114779 58.5939235 12.2114779 34.7964571 97.1721858 24.2112517 97.1721858 58.4784485"></polyline>
                <polyline id="Fill-3" fill="#50E3C2" points="133.34472 58.5939235 101.752693 58.5939235 101.752693 50.1161362 133.34472 28.2528756 133.34472 58.5939235"></polyline>
                <g id="Group-7">
                    <polygon id="Stroke-4" stroke="#808D99" stroke-linecap="round" stroke-linejoin="round" points="137.569179 13.3758505 137.569179 54.1288914 8.9204413 54.1288914 8.9204413 29.1189378 0.481145701 29.1189378 0.481145701 78.4267493 8.9204413 78.4267493 8.9204413 63.1936764 137.569179 63.1936764 137.569179 78.4267493 146.008474 78.4267493 146.008474 13.3758505"></polygon>
                    <path d="M124.29918,0.221327023 C129.295397,0.221327023 133.34472,4.27064924 133.34472,9.26686621 C133.34472,14.2621209 129.295397,18.3124054 124.29918,18.3124054 C119.302963,18.3124054 115.253641,14.2621209 115.253641,9.26686621 C115.253641,4.27064924 119.302963,0.221327023 124.29918,0.221327023" id="Fill-6" fill="#D1D3D4"></path>
                </g>
            </g>
            <g id="ER-Illustration-V1_Outpatient-Clinics-Illustration" transform="translate(5.000000, 126.000000)">
                <polygon id="Stroke-4" fill="#FFFFFF" points="9.58049629 77.5533214 140.129976 77.5533214 140.129976 71.4557054 9.58049629 71.4557054"></polygon>
                <path d="M74.8552364,48.2770854 C81.5063297,48.2770854 86.8987537,53.6685729 86.8987537,60.3206027 L86.8987537,79.2100074 L62.8126556,79.2100074 L62.8126556,60.3206027 C62.8126556,53.6685729 68.2032066,48.2770854 74.8552364,48.2770854" id="Fill-1" fill="#9CDAF3"></path>
                <path d="M37.3948403,48.2770854 C44.0459337,48.2770854 49.4383577,53.6685729 49.4383577,60.3206027 L49.4383577,79.2100074 L25.351323,79.2100074 L25.351323,60.3206027 C25.351323,53.6685729 30.7428105,48.2770854 37.3948403,48.2770854" id="Fill-2" fill="#9CDAF3"></path>
                <path d="M112.315632,48.2770854 C118.966726,48.2770854 124.35915,53.6695094 124.35915,60.3206027 L124.35915,79.2100074 L100.272115,79.2100074 L100.272115,60.3206027 C100.272115,53.6685729 105.663603,48.2770854 112.315632,48.2770854" id="Fill-3" fill="#9CDAF3"></path>
                <polygon id="Stroke-4" stroke="#808D99" stroke-linecap="round" stroke-linejoin="round" points="9.58049629 77.5533214 140.129976 77.5533214 140.129976 71.4557054 9.58049629 71.4557054"></polygon>
                <polygon id="Fill-5" fill="#FFFFFF" points="15.61162 94.119245 21.7082995 94.119245 21.7082995 59.8991733 15.61162 59.8991733"></polygon>
                <polygon id="Stroke-6" stroke="#808D99" stroke-linecap="round" stroke-linejoin="round" points="15.61162 94.119245 21.7082995 94.119245 21.7082995 59.8991733 15.61162 59.8991733"></polygon>
                <polygon id="Fill-8" fill="#FFFFFF" points="53.0720161 94.119245 59.1686955 94.119245 59.1686955 59.8991733 53.0720161 59.8991733"></polygon>
                <polygon id="Stroke-9" stroke="#808D99" stroke-linecap="round" stroke-linejoin="round" points="53.0720161 94.119245 59.1686955 94.119245 59.1686955 59.8991733 53.0720161 59.8991733"></polygon>
                <polygon id="Fill-11" fill="#FFFFFF" points="90.5324121 94.119245 96.6290916 94.119245 96.6290916 59.8991733 90.5324121 59.8991733"></polygon>
                <polygon id="Stroke-12" stroke="#808D99" stroke-linecap="round" stroke-linejoin="round" points="90.5324121 94.119245 96.6290916 94.119245 96.6290916 59.8991733 90.5324121 59.8991733"></polygon>
                <polygon id="Fill-14" fill="#FFFFFF" points="127.992808 94.119245 134.089488 94.119245 134.089488 59.8991733 127.992808 59.8991733"></polygon>
                <polygon id="Stroke-15" stroke="#808D99" stroke-linecap="round" stroke-linejoin="round" points="127.992808 94.119245 134.089488 94.119245 134.089488 59.8991733 127.992808 59.8991733"></polygon>
                <path d="M112.315632,2.33190965 C120.05776,2.33190965 126.335186,8.60839901 126.335186,16.3514629 C126.335186,24.0945267 120.05776,30.3710161 112.315632,30.3710161 C104.572569,30.3710161 98.2960792,24.0945267 98.2960792,16.3514629 C98.2960792,8.60839901 104.572569,2.33190965 112.315632,2.33190965" id="Fill-17" fill="#50E3C2"></path>
                <g id="Group-20" stroke="#808D99" stroke-linecap="round" stroke-linejoin="round">
                    <path d="M112.315632,0.458889851 C120.05776,0.458889851 126.335186,6.73537921 126.335186,14.4784431 C126.335186,22.2215069 120.05776,28.4979963 112.315632,28.4979963 C104.572569,28.4979963 98.2960792,22.2215069 98.2960792,14.4784431 C98.2960792,6.73537921 104.572569,0.458889851 112.315632,0.458889851 Z M112.315632,14.4784431 L119.086599,14.4784431 L112.315632,14.4784431 Z M112.315632,14.4784431 L112.315632,4.07381807 L112.315632,14.4784431 Z M0,94.1286101 L149.495075,94.1286101 L0,94.1286101 Z" id="Stroke-18"></path>
                </g>
            </g>
            <g id="ER-Illustration-V1_Surgery-Illustration" transform="translate(204.000000, 107.000000)">
                <path d="M67.7605657,127.926364 L6.66551515,67.2144646 C5.85076768,66.4041212 5.84636364,65.0862121 6.65560606,64.2714646 L9.10865657,61.803 L73.1489091,125.442485 L70.6958586,127.909848 C69.8888182,128.722394 68.5764141,128.730101 67.7605657,127.926364 Z M106.35097,35.2873737 L73.2667172,68.5797172 L65.3559596,60.7185051 L98.4391111,27.4250606 L106.35097,35.2873737 Z" id="Stroke-1" stroke="#808D99" stroke-linecap="round" stroke-linejoin="round"></path>
                <path d="M9.10535354,64.8494949 C8.30161616,64.0534646 8.2950101,62.7575758 9.0910404,61.9538384 C9.11746465,61.9274141 9.14388889,61.9020909 9.17141414,61.8767677 C27.5472727,45.0280101 56.1019697,46.2655455 72.9507273,64.641404 C88.7039798,81.8215657 88.7865556,108.170939 73.140101,125.449091 C72.380404,126.28696 71.0856162,126.350818 70.2477475,125.591121 C70.2235253,125.570202 70.2015051,125.548182 70.1783838,125.526162 C69.3955657,124.76096 69.3614343,123.514616 70.1013131,122.707576 C85.2611212,105.844505 83.8793535,79.8859899 67.0151818,64.7272828 C51.3312929,50.6277475 27.5164444,50.7048182 11.9239394,64.9045455 C11.119101,65.6389192 9.88156566,65.614697 9.10535354,64.8494949" id="Fill-2" fill="#9CDAF3"></path>
                <path d="M9.10535354,64.8494949 C8.30161616,64.0534646 8.2950101,62.7575758 9.0910404,61.9538384 C9.11746465,61.9274141 9.14388889,61.9020909 9.17141414,61.8767677 C27.5472727,45.0280101 56.1019697,46.2655455 72.9507273,64.641404 C88.7039798,81.8215657 88.7865556,108.170939 73.140101,125.449091 C72.380404,126.28696 71.0856162,126.350818 70.2477475,125.591121 C70.2235253,125.570202 70.2015051,125.548182 70.1783838,125.526162 C69.3955657,124.76096 69.3614343,123.514616 70.1013131,122.707576 C85.2611212,105.844505 83.8793535,79.8859899 67.0151818,64.7272828 C51.3312929,50.6277475 27.5164444,50.7048182 11.9239394,64.9045455 C11.119101,65.6389192 9.88156566,65.614697 9.10535354,64.8494949 Z" id="Stroke-3" stroke="#808D99" stroke-linecap="round" stroke-linejoin="round"></path>
                <path d="M0.550505051,12.2322222 L97.2962626,41.1557576 C97.9590707,41.2713636 98.5954545,40.8441717 98.7385859,40.1868687 L101.105758,32.2265657 C101.349081,31.5967879 101.045202,30.8888384 100.423131,30.630101 L0.550505051,0.231212121" id="Stroke-5" stroke="#808D99" stroke-linecap="round" stroke-linejoin="round"></path>
                <path d="M39.1629293,59.6307071 C59.0284545,59.6307071 75.1329293,75.7351818 75.1329293,95.6007071 C75.1329293,115.466232 59.0284545,131.570707 39.1629293,131.570707 C19.297404,131.570707 3.19292929,115.466232 3.19292929,95.6007071 C3.19292929,75.7351818 19.297404,59.6307071 39.1629293,59.6307071" id="Fill-7" fill="#FFFFFF"></path>
                <path d="M39.1629293,59.6307071 C59.0284545,59.6307071 75.1329293,75.7351818 75.1329293,95.6007071 C75.1329293,115.466232 59.0284545,131.570707 39.1629293,131.570707 C19.297404,131.570707 3.19292929,115.466232 3.19292929,95.6007071 C3.19292929,75.7351818 19.297404,59.6307071 39.1629293,59.6307071 Z" id="Stroke-8" stroke="#808D99" stroke-linecap="round" stroke-linejoin="round"></path>
                <path d="M97.8908081,25.4113131 C103.764697,25.4113131 108.526566,30.1731818 108.526566,36.0470707 C108.526566,41.9209596 103.764697,46.6828283 97.8908081,46.6828283 C92.0169192,46.6828283 87.2550505,41.9209596 87.2550505,36.0470707 C87.2550505,30.1731818 92.0169192,25.4113131 97.8908081,25.4113131" id="Fill-10" fill="#FFFFFF"></path>
                <path d="M97.8908081,25.4113131 C103.764697,25.4113131 108.526566,30.1731818 108.526566,36.0470707 C108.526566,41.9209596 103.764697,46.6828283 97.8908081,46.6828283 C92.0169192,46.6828283 87.2550505,41.9209596 87.2550505,36.0470707 C87.2550505,30.1731818 92.0169192,25.4113131 97.8908081,25.4113131 Z" id="Stroke-11" stroke="#808D99" stroke-linecap="round" stroke-linejoin="round"></path>
                <path d="M22.3064646,72.270303 C27.2929394,72.270303 31.3347475,76.3121111 31.3347475,81.2985859 C31.3347475,86.2850606 27.2929394,90.3268687 22.3064646,90.3268687 C17.3210909,90.3268687 13.2781818,86.2850606 13.2781818,81.2985859 C13.2781818,76.3121111 17.3210909,72.270303 22.3064646,72.270303" id="Fill-13" fill="#50E3C2"></path>
                <path d="M16.460101,94.1253535 C21.4465758,94.1253535 25.4872828,98.1671616 25.4872828,103.153636 C25.4872828,108.140111 21.4465758,112.181919 16.460101,112.181919 C11.4736263,112.181919 7.43181818,108.140111 7.43181818,103.153636 C7.43181818,98.1671616 11.4736263,94.1253535 16.460101,94.1253535" id="Fill-14" fill="#50E3C2"></path>
                <path d="M38.3041414,88.2679798 C43.2906162,88.2679798 47.3324242,92.3097879 47.3324242,97.2962626 C47.3324242,102.282737 43.2906162,106.324545 38.3041414,106.324545 C33.3176667,106.324545 29.2758586,102.282737 29.2758586,97.2962626 C29.2758586,92.3097879 33.3176667,88.2679798 38.3041414,88.2679798" id="Fill-15" fill="#50E3C2"></path>
                <path d="M32.4577778,110.12303 C37.4442525,110.12303 41.4860606,114.164838 41.4860606,119.151313 C41.4860606,124.137788 37.4442525,128.179596 32.4577778,128.179596 C27.471303,128.179596 23.4294949,124.137788 23.4294949,119.151313 C23.4294949,114.164838 27.471303,110.12303 32.4577778,110.12303" id="Fill-16" fill="#50E3C2"></path>
                <path d="M54.3018182,104.265657 C59.2882929,104.265657 63.330101,108.307465 63.330101,113.293939 C63.330101,118.280414 59.2882929,122.322222 54.3018182,122.322222 C49.3153434,122.322222 45.2735354,118.280414 45.2735354,113.293939 C45.2735354,108.307465 49.3153434,104.265657 54.3018182,104.265657" id="Fill-17" fill="#50E3C2"></path>
                <path d="M60.1591919,82.4106061 C65.1456667,82.4106061 69.1874747,86.4524141 69.1874747,91.4388889 C69.1874747,96.4253636 65.1456667,100.467172 60.1591919,100.467172 C55.1727172,100.467172 51.1309091,96.4253636 51.1309091,91.4388889 C51.1309091,86.4524141 55.1727172,82.4106061 60.1591919,82.4106061" id="Fill-18" fill="#50E3C2"></path>
                <path d="M44.1615152,66.4129293 C49.1479899,66.4129293 53.189798,70.4547374 53.189798,75.4412121 C53.189798,80.4276869 49.1479899,84.4694949 44.1615152,84.4694949 C39.1750404,84.4694949 35.1332323,80.4276869 35.1332323,75.4412121 C35.1332323,70.4547374 39.1750404,66.4129293 44.1615152,66.4129293" id="Fill-19" fill="#50E3C2"></path>
                <path d="M23.1652525,70.5747475 C28.1517273,70.5747475 32.1935354,74.6165556 32.1935354,79.6030303 C32.1935354,84.5895051 28.1517273,88.6313131 23.1652525,88.6313131 C18.1787778,88.6313131 14.1369697,84.5895051 14.1369697,79.6030303 C14.1369697,74.6165556 18.1787778,70.5747475 23.1652525,70.5747475 Z M17.3078788,92.4187879 C22.2943535,92.4187879 26.3361616,96.460596 26.3361616,101.447071 C26.3361616,106.433545 22.2943535,110.475354 17.3078788,110.475354 C12.3225051,110.475354 8.27959596,106.433545 8.27959596,101.447071 C8.27959596,96.460596 12.3225051,92.4187879 17.3078788,92.4187879 Z M39.1629293,86.5724242 C44.149404,86.5724242 48.1912121,90.6142323 48.1912121,95.6007071 C48.1912121,100.586081 44.149404,104.62899 39.1629293,104.62899 C34.1764545,104.62899 30.1346465,100.586081 30.1346465,95.6007071 C30.1346465,90.6142323 34.1764545,86.5724242 39.1629293,86.5724242 Z M33.3055556,108.416465 C38.2909293,108.416465 42.3338384,112.459374 42.3338384,117.444747 C42.3338384,122.430121 38.2909293,126.47303 33.3055556,126.47303 C28.3190808,126.47303 24.2772727,122.430121 24.2772727,117.444747 C24.2772727,112.459374 28.3190808,108.416465 33.3055556,108.416465 Z M55.1606061,102.570101 C60.1470808,102.570101 64.1888889,106.611909 64.1888889,111.598384 C64.1888889,116.584859 60.1470808,120.626667 55.1606061,120.626667 C50.1741313,120.626667 46.1323232,116.584859 46.1323232,111.598384 C46.1323232,106.611909 50.1741313,102.570101 55.1606061,102.570101 Z M61.0179798,80.7150505 C66.0033535,80.7150505 70.0462626,84.7568586 70.0462626,89.7433333 C70.0462626,94.7298081 66.0033535,98.7716162 61.0179798,98.7716162 C56.0326061,98.7716162 51.989697,94.7298081 51.989697,89.7433333 C51.989697,84.7568586 56.0326061,80.7150505 61.0179798,80.7150505 Z M45.020303,64.7173737 C50.0067778,64.7173737 54.0485859,68.7591818 54.0485859,73.7456566 C54.0485859,78.7321313 50.0067778,82.7739394 45.020303,82.7739394 C40.0338283,82.7739394 35.9909192,78.7321313 35.9909192,73.7456566 C35.9909192,68.7591818 40.0338283,64.7173737 45.020303,64.7173737 Z" id="Stroke-20" stroke="#808D99" stroke-linecap="round" stroke-linejoin="round"></path>
            </g>
            <g id="ER-Illustration-V1_ER-Illustration" transform="translate(0.000000, 9.000000)">
                <g id="Group-5" stroke="#808D99" stroke-linecap="round" stroke-linejoin="round">
                    <path d="M0.5,79.5 L137.47,79.5 M137.47,0.47 L0.5,0.47" id="Stroke-1"></path>
                    <polygon id="Stroke-4" points="20.46 22.35 31.25 79.5 22.13 79.5 11.34 22.35"></polygon>
                </g>
                <polygon id="Stroke-7" stroke="#808D99" stroke-linecap="round" stroke-linejoin="round" points="117.51 22.35 106.72 79.5 115.84 79.5 126.63 22.35"></polygon>
                <polygon id="Fill-9" fill="#9CDAF3" points="42.32 79.5 95.64 79.5 95.64 34.22 42.32 34.22"></polygon>
                <path d="M42.38,79.51 L69.01,79.51 L69.01,33.68 L42.38,33.68 L42.38,79.51 Z M69.01,79.51 L95.64,79.51 L95.64,33.68 L69.01,33.68 L69.01,79.51 Z" id="Stroke-10" stroke="#808D99" stroke-linecap="round" stroke-linejoin="round"></path>
                <polygon id="Fill-12" fill="#FFFFFF" points="5.41 24.62 132.55 24.62 132.55 15.76 5.41 15.76"></polygon>
                <polygon id="Stroke-13" stroke="#808D99" stroke-linecap="round" stroke-linejoin="round" points="5.41 24.62 132.55 24.62 132.55 15.76 5.41 15.76"></polygon>
                <polygon id="Fill-14" fill="#FFFFFF" points="58.62 30.47 79.349 30.47 79.349 9.89 58.62 9.89"></polygon>
                <polygon id="Stroke-15" stroke="#808D99" stroke-linecap="round" stroke-linejoin="round" points="58.62 30.47 79.349 30.47 79.349 9.89 58.62 9.89"></polygon>
                <polyline id="Fill-16" fill="#D1D3D4" points="71.08 18.1 71.08 13.93 66.88 13.93 66.88 18.1 62.69 18.1 62.69 22.27 66.88 22.27 66.88 26.44 71.08 26.44 71.08 22.27 75.28 22.27 75.28 18.1 71.08 18.1"></polyline>
            </g>
        </g>
    </g>
</svg>