<?xml version="1.0" encoding="UTF-8"?>
<svg width="139px" height="405px" viewBox="0 0 139 405" version="1.1" xmlns="http://www.w3.org/2000/svg" xmlns:xlink="http://www.w3.org/1999/xlink">
    <!-- Generator: Sketch 52.5 (67469) - http://www.bohemiancoding.com/sketch -->
    <title>Group</title>
    <desc>Created with Sketch.</desc>
    <g id="Page-1" stroke="none" stroke-width="1" fill="none" fill-rule="evenodd">
        <g id="Group" transform="translate(0.000000, 1.000000)">
            <g id="ER-Illustration-V1_Inpatient-Beds-Illustration" transform="translate(1.000000, 97.000000)">
                <polyline id="Fill-1" fill="#D1D3D4" points="102.912237 21.4513158 117.765921 21.4513158 117.765921 26.0930921 95.0257237 42.0644079 17.0168421 42.9927632 17.0168421 33.2585526 20.5770395 37.4947368 85.0842105 32.8169079 102.912237 21.4513158"></polyline>
                <polygon id="Stroke-4" fill="#FFFFFF" points="128.852105 12.5282895 128.852105 50.6990132 8.35519737 50.6990132 8.35519737 27.2738158 0.450657895 27.2738158 0.450657895 73.4572368 8.35519737 73.4572368 8.35519737 59.1894079 128.852105 59.1894079 128.852105 73.4572368 136.756645 73.4572368 136.756645 12.5282895"></polygon>
                <polyline id="Fill-2" fill="#9CDAF3" points="91.0148684 54.7729605 11.4376974 54.8811184 11.4376974 32.5915789 91.0148684 22.6771053 91.0148684 54.7729605"></polyline>
                <polyline id="Fill-3" fill="#50E3C2" points="124.895329 54.8811184 95.3051316 54.8811184 95.3051316 46.9405263 124.895329 26.4626316 124.895329 54.8811184"></polyline>
                <g id="Group-7">
                    <polygon id="Stroke-4" stroke="#808D99" stroke-linecap="round" stroke-linejoin="round" points="128.852105 12.5282895 128.852105 50.6990132 8.35519737 50.6990132 8.35519737 27.2738158 0.450657895 27.2738158 0.450657895 73.4572368 8.35519737 73.4572368 8.35519737 59.1894079 128.852105 59.1894079 128.852105 73.4572368 136.756645 73.4572368 136.756645 12.5282895"></polygon>
                    <path d="M116.422961,0.207302632 C121.102592,0.207302632 124.895329,4.00003947 124.895329,8.67967105 C124.895329,13.3584013 121.102592,17.1520395 116.422961,17.1520395 C111.743329,17.1520395 107.950592,13.3584013 107.950592,8.67967105 C107.950592,4.00003947 111.743329,0.207302632 116.422961,0.207302632" id="Fill-6" fill="#D1D3D4"></path>
                </g>
            </g>
            <g id="ER-Illustration-V1_Outpatient-Clinics-Illustration" transform="translate(3.000000, 182.000000)">
                <polygon id="Stroke-4" fill="#FFFFFF" points="8.567625 69.3542125 125.315125 69.3542125 125.315125 63.90125 8.567625 63.90125"></polygon>
                <path d="M66.941375,43.173125 C72.8893,43.173125 77.711625,47.9946125 77.711625,53.943375 L77.711625,70.83575 L56.1719625,70.83575 L56.1719625,53.943375 C56.1719625,47.9946125 60.9926125,43.173125 66.941375,43.173125" id="Fill-1" fill="#9CDAF3"></path>
                <path d="M33.441375,43.173125 C39.3893,43.173125 44.211625,47.9946125 44.211625,53.943375 L44.211625,70.83575 L22.671125,70.83575 L22.671125,53.943375 C22.671125,47.9946125 27.4926125,43.173125 33.441375,43.173125" id="Fill-2" fill="#9CDAF3"></path>
                <path d="M100.441375,43.173125 C106.3893,43.173125 111.211625,47.99545 111.211625,53.943375 L111.211625,70.83575 L89.671125,70.83575 L89.671125,53.943375 C89.671125,47.9946125 94.4926125,43.173125 100.441375,43.173125" id="Fill-3" fill="#9CDAF3"></path>
                <polygon id="Stroke-4" stroke="#808D99" stroke-linecap="round" stroke-linejoin="round" points="8.567625 69.3542125 125.315125 69.3542125 125.315125 63.90125 8.567625 63.90125"></polygon>
                <polygon id="Fill-5" fill="#FFFFFF" points="13.961125 84.16875 19.41325 84.16875 19.41325 53.5665 13.961125 53.5665"></polygon>
                <polygon id="Stroke-6" stroke="#808D99" stroke-linecap="round" stroke-linejoin="round" points="13.961125 84.16875 19.41325 84.16875 19.41325 53.5665 13.961125 53.5665"></polygon>
                <polygon id="Fill-8" fill="#FFFFFF" points="47.461125 84.16875 52.91325 84.16875 52.91325 53.5665 47.461125 53.5665"></polygon>
                <polygon id="Stroke-9" stroke="#808D99" stroke-linecap="round" stroke-linejoin="round" points="47.461125 84.16875 52.91325 84.16875 52.91325 53.5665 47.461125 53.5665"></polygon>
                <polygon id="Fill-11" fill="#FFFFFF" points="80.961125 84.16875 86.41325 84.16875 86.41325 53.5665 80.961125 53.5665"></polygon>
                <polygon id="Stroke-12" stroke="#808D99" stroke-linecap="round" stroke-linejoin="round" points="80.961125 84.16875 86.41325 84.16875 86.41325 53.5665 80.961125 53.5665"></polygon>
                <polygon id="Fill-14" fill="#FFFFFF" points="114.461125 84.16875 119.91325 84.16875 119.91325 53.5665 114.461125 53.5665"></polygon>
                <polygon id="Stroke-15" stroke="#808D99" stroke-linecap="round" stroke-linejoin="round" points="114.461125 84.16875 119.91325 84.16875 119.91325 53.5665 114.461125 53.5665"></polygon>
                <path d="M100.441375,2.085375 C107.364987,2.085375 112.97875,7.6983 112.97875,14.62275 C112.97875,21.5472 107.364987,27.160125 100.441375,27.160125 C93.516925,27.160125 87.904,21.5472 87.904,14.62275 C87.904,7.6983 93.516925,2.085375 100.441375,2.085375" id="Fill-17" fill="#50E3C2"></path>
                <g id="Group-20" stroke="#808D99" stroke-linecap="round" stroke-linejoin="round">
                    <path d="M100.441375,0.410375 C107.364987,0.410375 112.97875,6.0233 112.97875,12.94775 C112.97875,19.8722 107.364987,25.485125 100.441375,25.485125 C93.516925,25.485125 87.904,19.8722 87.904,12.94775 C87.904,6.0233 93.516925,0.410375 100.441375,0.410375 Z M100.441375,12.94775 L106.4965,12.94775 L100.441375,12.94775 Z M100.441375,12.94775 L100.441375,3.643125 L100.441375,12.94775 Z M0,84.177125 L133.690125,84.177125 L0,84.177125 Z" id="Stroke-18"></path>
                </g>
            </g>
            <g id="ER-Illustration-V1_Surgery-Illustration" transform="translate(21.000000, 283.587500)">
                <path d="M61.544,116.19 L6.054,61.048 C5.314,60.312 5.31,59.115 6.045,58.375 L8.273,56.133 L66.438,113.934 L64.21,116.175 C63.477,116.913 62.285,116.92 61.544,116.19 Z M96.594,32.05 L66.545,62.288 L59.36,55.148 L89.408,24.909 L96.594,32.05 Z" id="Stroke-1" stroke="#808D99" stroke-linecap="round" stroke-linejoin="round"></path>
                <path d="M8.27,58.9 C7.54,58.177 7.534,57 8.257,56.27 C8.281,56.246 8.305,56.223 8.33,56.2 C25.02,40.897 50.955,42.021 66.258,58.711 C80.566,74.315 80.641,98.247 66.43,113.94 C65.74,114.701 64.564,114.759 63.803,114.069 C63.781,114.05 63.761,114.03 63.74,114.01 C63.029,113.315 62.998,112.183 63.67,111.45 C77.439,96.134 76.184,72.557 60.867,58.789 C46.622,45.983 24.992,46.053 10.83,58.95 C10.099,59.617 8.975,59.595 8.27,58.9" id="Fill-2" fill="#9CDAF3"></path>
                <path d="M8.27,58.9 C7.54,58.177 7.534,57 8.257,56.27 C8.281,56.246 8.305,56.223 8.33,56.2 C25.02,40.897 50.955,42.021 66.258,58.711 C80.566,74.315 80.641,98.247 66.43,113.94 C65.74,114.701 64.564,114.759 63.803,114.069 C63.781,114.05 63.761,114.03 63.74,114.01 C63.029,113.315 62.998,112.183 63.67,111.45 C77.439,96.134 76.184,72.557 60.867,58.789 C46.622,45.983 24.992,46.053 10.83,58.95 C10.099,59.617 8.975,59.595 8.27,58.9 Z" id="Stroke-3" stroke="#808D99" stroke-linecap="round" stroke-linejoin="round"></path>
                <path d="M0.5,11.11 L88.37,37.38 C88.972,37.485 89.55,37.097 89.68,36.5 L91.83,29.27 C92.051,28.698 91.775,28.055 91.21,27.82 L0.5,0.21" id="Fill-4" fill="#FFFFFF"></path>
                <path d="M0.5,11.11 L88.37,37.38 C88.972,37.485 89.55,37.097 89.68,36.5 L91.83,29.27 C92.051,28.698 91.775,28.055 91.21,27.82 L0.5,0.21" id="Stroke-5" stroke="#808D99" stroke-linecap="round" stroke-linejoin="round"></path>
                <path d="M35.57,54.16 C53.613,54.16 68.24,68.787 68.24,86.83 C68.24,104.873 53.613,119.5 35.57,119.5 C17.527,119.5 2.9,104.873 2.9,86.83 C2.9,68.787 17.527,54.16 35.57,54.16" id="Fill-7" fill="#FFFFFF"></path>
                <path d="M35.57,54.16 C53.613,54.16 68.24,68.787 68.24,86.83 C68.24,104.873 53.613,119.5 35.57,119.5 C17.527,119.5 2.9,104.873 2.9,86.83 C2.9,68.787 17.527,54.16 35.57,54.16 Z" id="Stroke-8" stroke="#808D99" stroke-linecap="round" stroke-linejoin="round"></path>
                <path d="M88.91,23.08 C94.245,23.08 98.57,27.405 98.57,32.74 C98.57,38.075 94.245,42.4 88.91,42.4 C83.575,42.4 79.25,38.075 79.25,32.74 C79.25,27.405 83.575,23.08 88.91,23.08" id="Fill-10" fill="#FFFFFF"></path>
                <path d="M88.91,23.08 C94.245,23.08 98.57,27.405 98.57,32.74 C98.57,38.075 94.245,42.4 88.91,42.4 C83.575,42.4 79.25,38.075 79.25,32.74 C79.25,27.405 83.575,23.08 88.91,23.08 Z" id="Stroke-11" stroke="#808D99" stroke-linecap="round" stroke-linejoin="round"></path>
                <path d="M20.26,65.64 C24.789,65.64 28.46,69.311 28.46,73.84 C28.46,78.369 24.789,82.04 20.26,82.04 C15.732,82.04 12.06,78.369 12.06,73.84 C12.06,69.311 15.732,65.64 20.26,65.64" id="Fill-13" fill="#50E3C2"></path>
                <path d="M14.95,85.49 C19.479,85.49 23.149,89.161 23.149,93.69 C23.149,98.219 19.479,101.89 14.95,101.89 C10.421,101.89 6.75,98.219 6.75,93.69 C6.75,89.161 10.421,85.49 14.95,85.49" id="Fill-14" fill="#50E3C2"></path>
                <path d="M34.79,80.17 C39.319,80.17 42.99,83.841 42.99,88.37 C42.99,92.899 39.319,96.57 34.79,96.57 C30.261,96.57 26.59,92.899 26.59,88.37 C26.59,83.841 30.261,80.17 34.79,80.17" id="Fill-15" fill="#50E3C2"></path>
                <path d="M29.48,100.02 C34.009,100.02 37.68,103.691 37.68,108.22 C37.68,112.749 34.009,116.42 29.48,116.42 C24.951,116.42 21.28,112.749 21.28,108.22 C21.28,103.691 24.951,100.02 29.48,100.02" id="Fill-16" fill="#50E3C2"></path>
                <path d="M49.32,94.7 C53.849,94.7 57.52,98.371 57.52,102.9 C57.52,107.429 53.849,111.1 49.32,111.1 C44.791,111.1 41.12,107.429 41.12,102.9 C41.12,98.371 44.791,94.7 49.32,94.7" id="Fill-17" fill="#50E3C2"></path>
                <path d="M54.64,74.85 C59.169,74.85 62.84,78.521 62.84,83.05 C62.84,87.579 59.169,91.25 54.64,91.25 C50.111,91.25 46.44,87.579 46.44,83.05 C46.44,78.521 50.111,74.85 54.64,74.85" id="Fill-18" fill="#50E3C2"></path>
                <path d="M40.11,60.32 C44.639,60.32 48.31,63.991 48.31,68.52 C48.31,73.049 44.639,76.72 40.11,76.72 C35.581,76.72 31.91,73.049 31.91,68.52 C31.91,63.991 35.581,60.32 40.11,60.32" id="Fill-19" fill="#50E3C2"></path>
                <path d="M21.04,64.1 C25.569,64.1 29.24,67.771 29.24,72.3 C29.24,76.829 25.569,80.5 21.04,80.5 C16.511,80.5 12.84,76.829 12.84,72.3 C12.84,67.771 16.511,64.1 21.04,64.1 Z M15.72,83.94 C20.249,83.94 23.92,87.611 23.92,92.14 C23.92,96.669 20.249,100.34 15.72,100.34 C11.192,100.34 7.52,96.669 7.52,92.14 C7.52,87.611 11.192,83.94 15.72,83.94 Z M35.57,78.63 C40.099,78.63 43.77,82.301 43.77,86.83 C43.77,91.358 40.099,95.03 35.57,95.03 C31.041,95.03 27.37,91.358 27.37,86.83 C27.37,82.301 31.041,78.63 35.57,78.63 Z M30.25,98.47 C34.778,98.47 38.45,102.142 38.45,106.67 C38.45,111.198 34.778,114.87 30.25,114.87 C25.721,114.87 22.05,111.198 22.05,106.67 C22.05,102.142 25.721,98.47 30.25,98.47 Z M50.1,93.16 C54.629,93.16 58.3,96.831 58.3,101.36 C58.3,105.889 54.629,109.56 50.1,109.56 C45.571,109.56 41.9,105.889 41.9,101.36 C41.9,96.831 45.571,93.16 50.1,93.16 Z M55.42,73.31 C59.948,73.31 63.62,76.981 63.62,81.51 C63.62,86.039 59.948,89.71 55.42,89.71 C50.892,89.71 47.22,86.039 47.22,81.51 C47.22,76.981 50.892,73.31 55.42,73.31 Z M40.89,58.78 C45.419,58.78 49.09,62.451 49.09,66.98 C49.09,71.509 45.419,75.18 40.89,75.18 C36.361,75.18 32.689,71.509 32.689,66.98 C32.689,62.451 36.361,58.78 40.89,58.78 Z" id="Stroke-20" stroke="#808D99" stroke-linecap="round" stroke-linejoin="round"></path>
            </g>
            <g id="ER-Illustration-V1_ER-Illustration">
                <g id="Group-5" stroke="#808D99" stroke-linecap="round" stroke-linejoin="round">
                    <path d="M0.5,79.5 L137.47,79.5 M137.47,0.47 L0.5,0.47" id="Stroke-1"></path>
                    <polygon id="Stroke-4" points="20.46 22.35 31.25 79.5 22.13 79.5 11.34 22.35"></polygon>
                </g>
                <polygon id="Stroke-7" stroke="#808D99" stroke-linecap="round" stroke-linejoin="round" points="117.51 22.35 106.72 79.5 115.84 79.5 126.63 22.35"></polygon>
                <polygon id="Fill-9" fill="#9CDAF3" points="42.32 79.5 95.64 79.5 95.64 34.22 42.32 34.22"></polygon>
                <path d="M42.38,79.51 L69.01,79.51 L69.01,33.68 L42.38,33.68 L42.38,79.51 Z M69.01,79.51 L95.64,79.51 L95.64,33.68 L69.01,33.68 L69.01,79.51 Z" id="Stroke-10" stroke="#808D99" stroke-linecap="round" stroke-linejoin="round"></path>
                <polygon id="Fill-12" fill="#FFFFFF" points="5.41 24.62 132.55 24.62 132.55 15.76 5.41 15.76"></polygon>
                <polygon id="Stroke-13" stroke="#808D99" stroke-linecap="round" stroke-linejoin="round" points="5.41 24.62 132.55 24.62 132.55 15.76 5.41 15.76"></polygon>
                <polygon id="Fill-14" fill="#FFFFFF" points="58.62 30.47 79.349 30.47 79.349 9.89 58.62 9.89"></polygon>
                <polygon id="Stroke-15" stroke="#808D99" stroke-linecap="round" stroke-linejoin="round" points="58.62 30.47 79.349 30.47 79.349 9.89 58.62 9.89"></polygon>
                <polyline id="Fill-16" fill="#D1D3D4" points="71.08 18.1 71.08 13.93 66.88 13.93 66.88 18.1 62.69 18.1 62.69 22.27 66.88 22.27 66.88 26.44 71.08 26.44 71.08 22.27 75.28 22.27 75.28 18.1 71.08 18.1"></polyline>
            </g>
        </g>
    </g>
</svg>