<?xml version="1.0" encoding="UTF-8"?>
<svg width="2048px" height="2048px" viewBox="0 0 2048 2048" version="1.1" xmlns="http://www.w3.org/2000/svg" xmlns:xlink="http://www.w3.org/1999/xlink">
    <!-- Generator: Sketch 50.2 (55047) - http://www.bohemiancoding.com/sketch -->
    <title>logo</title>
    <desc>Created with Sketch.</desc>
    <defs>
        <polygon id="path-1" points="0 0 2048 0 2048 2048 0 2048"></polygon>
    </defs>
    <g id="Page-1" stroke="none" stroke-width="1" fill="none" fill-rule="evenodd">
        <g id="logo">
            <mask id="mask-2" fill="white">
                <use xlink:href="#path-1"></use>
            </mask>
            <g id="path-1"></g>
            <path d="M1608.62523,1556.40123 C1602.26461,1580.3799 1583.59631,1599.15323 1559.65046,1605.63856 L855.236919,1796.49641 C831.291081,1802.98174 805.704205,1796.20759 788.105846,1778.71426 L270.611692,1264.10174 C253.013334,1246.60185 246.094769,1221.0478 252.455385,1197.06913 L439.368205,491.598769 C445.72882,467.613539 464.397128,448.846769 488.342974,442.354872 L1192.76308,251.497026 C1216.70236,245.005128 1242.28923,251.785846 1259.88759,269.285744 L1777.38174,783.898256 C1794.9801,801.39159 1801.89866,826.945642 1795.54461,850.924306 L1608.62523,1556.40123 Z M1024,0 C458.456615,0 0,458.456615 0,1024 C0,1589.53682 458.456615,2048 1024,2048 C1589.53682,2048 2048,1589.53682 2048,1024 C2048,458.456615 1589.53682,0 1024,0 Z" id="Fill-1" fill="#33B5EA" fill-rule="nonzero" mask="url(#mask-2)"></path>
        </g>
    </g>
</svg>