<?xml version="1.0" standalone="no"?>
<!DOCTYPE svg PUBLIC "-//W3C//DTD SVG 20010904//EN"
 "http://www.w3.org/TR/2001/REC-SVG-20010904/DTD/svg10.dtd">
<svg version="1.0" xmlns="http://www.w3.org/2000/svg"
 width="784.000000pt" height="784.000000pt" viewBox="0 0 784.000000 784.000000"
 preserveAspectRatio="xMidYMid meet">
<metadata>
Created by potrace 1.11, written by Peter Selinger 2001-2013
</metadata>
<g transform="translate(0.000000,784.000000) scale(0.100000,-0.100000)"
fill="#000000" stroke="none">
<path d="M3857 7763 c-1 -1 -63 -5 -137 -8 -149 -8 -215 -12 -215 -15 0 -1
-16 -3 -35 -4 -19 -2 -55 -7 -80 -11 -25 -5 -56 -9 -70 -10 -14 -1 -50 -7 -80
-13 -30 -6 -66 -14 -80 -16 -23 -5 -61 -13 -100 -21 -8 -2 -17 -4 -20 -5 -3
-1 -9 -3 -15 -4 -5 -1 -23 -6 -40 -10 -266 -73 -462 -145 -661 -242 -61 -30
-116 -54 -123 -54 -6 0 -11 -4 -11 -9 0 -5 -15 -15 -32 -22 -58 -24 -349 -205
-356 -221 -2 -5 -8 -8 -13 -8 -15 0 -234 -171 -339 -264 -51 -45 -279 -275
-320 -321 -184 -210 -344 -436 -472 -665 -54 -97 -149 -283 -153 -300 -1 -3
-9 -23 -19 -45 -100 -222 -217 -597 -255 -822 -6 -32 -13 -71 -17 -88 -3 -16
-7 -43 -9 -60 -2 -27 -10 -88 -21 -154 -25 -165 -25 -765 1 -886 3 -11 7 -42
10 -70 5 -48 7 -64 21 -145 3 -19 8 -48 11 -65 2 -16 6 -36 9 -44 2 -7 11 -48
20 -90 39 -190 135 -487 224 -691 55 -129 63 -144 84 -175 12 -16 20 -32 20
-35 -3 -10 10 -36 58 -118 26 -46 48 -85 48 -87 0 -6 99 -162 139 -220 19 -27
47 -68 63 -91 15 -23 34 -47 43 -54 8 -7 15 -16 15 -21 0 -5 8 -18 18 -28 9
-11 22 -26 27 -33 158 -209 513 -552 730 -703 32 -22 63 -45 69 -50 20 -19
249 -162 326 -204 77 -43 317 -161 326 -161 3 0 26 -10 52 -21 143 -66 447
-161 632 -198 167 -34 164 -33 265 -46 33 -3 71 -9 85 -12 166 -31 672 -28
895 7 33 5 78 12 100 15 39 5 61 9 115 20 14 2 36 6 50 9 14 2 52 11 86 20 33
8 69 17 80 19 10 1 25 6 31 10 7 5 13 6 13 3 0 -3 12 -1 28 5 15 6 34 12 42
14 55 14 128 38 215 69 55 21 105 39 110 40 6 2 32 13 58 24 27 12 50 22 52
22 5 0 302 147 330 163 11 7 47 28 80 47 55 31 280 179 315 206 129 102 243
194 274 223 140 130 296 291 381 395 22 26 45 53 50 59 57 64 275 377 275 396
0 5 4 11 9 13 4 2 28 39 51 83 24 44 46 82 49 85 8 7 54 104 51 109 -1 2 2 7
7 10 7 5 67 130 108 226 41 96 128 338 140 390 2 11 14 51 25 90 21 72 65 264
74 325 3 19 8 46 11 60 2 13 7 42 10 65 4 22 8 51 10 65 2 14 7 54 10 90 3 36
8 85 11 110 2 25 6 114 9 198 2 84 7 157 10 162 3 6 3 10 -2 10 -4 0 -8 35 -9
78 0 87 -11 264 -18 302 -3 14 -8 50 -11 80 -2 30 -7 69 -10 85 -8 43 -12 65
-20 110 -30 180 -120 513 -178 655 -27 66 -30 75 -32 86 -2 5 -15 37 -30 70
-15 32 -28 65 -28 72 0 6 -4 12 -9 12 -4 0 -8 5 -8 11 0 13 -100 216 -141 284
-16 28 -33 59 -38 71 -5 11 -22 40 -38 65 -17 24 -56 85 -88 134 -33 50 -62
92 -65 95 -3 3 -30 39 -60 80 -30 41 -59 80 -65 86 -5 6 -28 33 -50 60 -122
149 -329 356 -502 501 -48 40 -59 49 -93 73 -19 13 -41 30 -48 37 -7 7 -26 20
-42 30 -17 9 -30 21 -30 25 0 4 -5 8 -12 8 -6 0 -21 8 -32 19 -43 39 -277 177
-436 258 -139 70 -397 181 -434 187 -6 1 -16 4 -21 8 -26 16 -353 105 -455
124 -14 2 -38 7 -55 11 -16 3 -39 7 -50 8 -48 7 -110 17 -115 20 -3 2 -36 6
-75 10 -38 4 -83 9 -100 11 -25 3 -137 9 -343 17 -24 1 -44 1 -45 0z m853
-978 c57 -29 102 -72 665 -651 138 -141 312 -320 388 -398 192 -197 652 -668
772 -791 126 -130 126 -129 154 -195 36 -81 35 -182 -3 -311 -9 -31 -19 -65
-21 -75 -7 -31 -44 -172 -76 -293 -17 -63 -32 -121 -34 -130 -4 -19 -68 -262
-89 -339 -8 -29 -14 -53 -15 -55 0 -1 -2 -9 -5 -17 -6 -21 -29 -124 -29 -130
1 -3 -3 -12 -8 -21 -4 -9 -10 -28 -13 -42 -2 -14 -14 -59 -25 -100 -11 -40
-22 -84 -25 -98 -3 -13 -17 -67 -31 -119 -14 -52 -27 -104 -29 -115 -3 -11 -5
-20 -6 -20 -1 0 -3 -7 -5 -15 -1 -8 -22 -87 -45 -175 -23 -88 -57 -221 -76
-295 -19 -74 -37 -141 -39 -148 -3 -7 -5 -16 -6 -20 -17 -61 -51 -191 -53
-202 -26 -106 -48 -149 -108 -211 -45 -47 -100 -72 -238 -109 -63 -17 -155
-43 -204 -57 -48 -14 -93 -26 -100 -27 -6 -2 -31 -8 -56 -15 -25 -8 -52 -15
-60 -16 -8 -2 -15 -4 -15 -5 0 -1 -7 -3 -15 -5 -8 -2 -51 -13 -95 -25 -44 -12
-86 -24 -95 -25 -8 -2 -15 -4 -15 -5 0 -1 -7 -3 -15 -5 -32 -8 -57 -15 -110
-30 -30 -9 -64 -18 -75 -20 -30 -7 -205 -55 -245 -68 -19 -6 -39 -12 -45 -13
-5 -1 -62 -16 -125 -34 -63 -17 -126 -33 -139 -36 -14 -3 -28 -7 -33 -10 -4
-3 -16 -7 -25 -9 -10 -2 -52 -13 -93 -25 -41 -11 -82 -22 -91 -25 -10 -2 -66
-17 -125 -33 -60 -16 -122 -33 -139 -38 -42 -11 -44 -11 -50 -14 -3 -1 -8 -3
-12 -4 -5 -1 -17 -5 -28 -9 -11 -3 -31 -8 -45 -11 -14 -3 -68 -17 -120 -31
-52 -15 -103 -29 -112 -30 -9 -2 -25 -8 -36 -14 -11 -6 -22 -8 -25 -5 -3 3
-14 1 -26 -5 -34 -19 -132 -21 -196 -5 -76 20 -105 44 -305 248 -317 323 -397
406 -680 696 -157 161 -334 343 -395 405 -60 61 -131 135 -157 162 -26 28 -49
48 -52 45 -3 -3 -6 -1 -6 4 0 5 -86 97 -191 204 -105 107 -203 213 -219 235
-61 89 -71 199 -30 355 12 47 24 92 25 100 2 8 4 15 5 15 1 0 3 7 5 15 1 8 12
51 24 96 12 44 23 87 25 95 1 8 8 34 15 59 8 25 15 52 16 60 2 8 4 15 5 15 1
0 3 9 5 20 3 11 18 72 35 135 37 136 40 147 46 180 3 14 12 50 21 80 9 30 17
65 19 77 1 12 6 28 10 35 5 7 10 24 12 38 1 14 5 32 9 40 3 8 8 26 10 39 2 14
8 32 12 40 5 9 7 24 6 34 -2 9 0 17 4 17 4 0 8 6 9 13 3 27 12 66 37 157 15
52 28 102 29 110 2 8 6 22 9 30 6 17 97 370 102 397 2 10 4 19 5 21 2 1 3 5 4
10 1 4 5 16 9 27 3 11 8 31 11 45 3 14 23 95 46 180 23 85 45 171 50 190 26
104 32 125 51 166 51 108 146 171 314 209 11 3 101 28 200 55 99 28 187 52
195 54 9 2 90 25 181 50 91 25 177 47 190 50 31 7 264 72 306 86 18 6 40 13
50 14 10 2 45 11 78 20 33 9 67 19 75 21 8 2 58 15 110 30 52 15 118 33 145
40 28 7 65 18 84 24 18 6 36 10 40 9 3 -1 13 2 21 5 8 4 80 24 160 46 80 22
160 44 178 50 18 5 33 10 35 9 1 0 22 5 47 12 25 7 50 13 55 15 6 1 17 4 25 8
21 7 138 38 166 43 12 2 33 8 46 13 13 5 57 8 98 7 59 -2 87 -9 130 -31z"/>
</g>
</svg>
