<svg width="92px" height="92px" viewBox="0 0 92 92" version="1.1" xmlns="http://www.w3.org/2000/svg" xmlns:xlink="http://www.w3.org/1999/xlink">
    <g id="Page-1" stroke="none" stroke-width="1" fill="none" fill-rule="evenodd">
        <g id="Artboard" transform="translate(-908.000000, -349.000000)" stroke="#FFFFFF">
            <g id="bed" transform="translate(909.000000, 350.000000)">
                <g id="Group-17-Copy-3">
                    <path d="M74.7695601,45.0001457 C74.7695601,61.4412567 61.4411596,74.7696572 45.0000485,74.7696572 C28.5584521,74.7696572 15.2300516,61.4412567 15.2300516,45.0001457 C15.2300516,28.5590346 28.5584521,15.2306341 45.0000485,15.2306341 C61.4411596,15.2306341 74.7695601,28.5590346 74.7695601,45.0001457 Z" id="Stroke-1"></path>
                    <path d="M22.2005721,83.8054002 C8.91537,75.9830949 0,61.5325072 0,45.0001457" id="Stroke-3"></path>
                    <path d="M87.5202186,59.7694307 C81.1841319,77.4332017 63.9237077,90.2208943 44.9999029,90.0000486 C40.8882905,89.9524818 36.9048169,89.4486625 33.1203472,88.4157843" id="Stroke-5"></path>
                    <path d="M62.3074086,3.44883284 C78.5694162,10.2304939 90,26.2803926 90,45.0003398 C90,50.1734677 89.1268102,55.1432234 87.5202186,59.7693336" id="Stroke-7"></path>
                    <path d="M9.1365069,17.8147226 C17.3543929,6.99037232 30.3609897,0 44.9999029,0 C46.8132643,0 48.6009009,0.1072679 50.3579588,0.315979196" id="Stroke-9"></path>
                    <path d="M8.37102182,52.5137038 C7.87593921,50.0863428 7.61577815,47.573556 7.61577815,45.0000972 C7.61577815,24.3536961 24.352968,7.61602083 44.9998544,7.61602083 C55.0437216,7.61602083 64.1624638,11.5766817 70.8795698,18.0219778" id="Stroke-11"></path>
                    <path d="M64.5412505,76.876622 C58.855081,80.3698666 52.162729,82.3841734 45.0000485,82.3841734 C31.124145,82.3841734 19.014036,74.824456 12.5634007,63.5991859" id="Stroke-13"></path>
                    <path d="M78.274745,27.9429479 C80.901595,33.0568601 82.3839306,38.8556365 82.3839306,45 C82.3839306,51.9141685 80.5069851,58.3900432 77.2350715,63.9456466" id="Stroke-15"></path>
                </g>
                <path d="M60.6898961,45.0789705 L57.1709265,45.0789705 L60.6898961,45.0789705 Z M63.480803,45.0789705 L62.3887089,45.0789705 L63.480803,45.0789705 Z M26.6325807,37.5175878 L26.6325807,36.3717812 L26.6325807,37.5175878 Z M29.3123368,39.7474831 L31.6222369,39.7474831 L29.3123368,39.7474831 Z M62.8410785,53.19784 C61.8266445,53.19784 61.0049045,54.0200655 61.0049045,55.0344994 C61.0049045,56.048448 61.8266445,56.8706735 62.8410785,56.8706735 C63.8555125,56.8706735 64.6777379,56.048448 64.6777379,55.0344994 C64.6777379,54.0200655 63.8555125,53.19784 62.8410785,53.19784 Z M28.4692402,53.19784 C27.4548062,53.19784 26.6325807,54.0200655 26.6325807,55.0344994 C26.6325807,56.048448 27.4548062,56.8706735 28.4692402,56.8706735 C29.4831887,56.8706735 30.3054142,56.048448 30.3054142,55.0344994 C30.3054142,54.0200655 29.4836741,53.19784 28.4692402,53.19784 Z M46.0665147,33.132433 L46.0665147,39.3073751 L46.0665147,33.132433 Z M42.9790437,36.219904 L49.1539858,36.219904 L42.9790437,36.219904 Z M62.8527275,52.9430181 L62.8527275,47.3534383 L62.8527275,52.9430181 Z M28.4808892,47.3534383 L28.4808892,52.9430181 L28.4808892,47.3534383 Z M28.4808892,50.6336033 L62.8527275,50.6336033 L28.4808892,50.6336033 Z M26.6325807,42.6414167 L65.6242194,42.6414167 L65.6242194,47.3534383 L26.6325807,47.3534383 L26.6325807,39.3073751 L26.6325807,42.6414167 Z" id="Stroke-18"></path>
            </g>
        </g>
    </g>
</svg>
