<?xml version="1.0" encoding="UTF-8"?>
<svg width="82px" height="81px" viewBox="0 0 82 81" version="1.1" xmlns="http://www.w3.org/2000/svg" xmlns:xlink="http://www.w3.org/1999/xlink">
    <!-- Generator: sketchtool 50.2 (55047) - http://www.bohemiancoding.com/sketch -->
    <title>7D8416FB-66A7-4546-A970-85363E00A332</title>
    <desc>Created with sketchtool.</desc>
    <defs></defs>
    <g id="Page-1" stroke="none" stroke-width="1" fill="none" fill-rule="evenodd">
        <g id="A-better-view" transform="translate(-188.000000, -3077.000000)" stroke="#FFFFFF" stroke-width="0.5">
            <g id="FEATURES-SECTION" transform="translate(0.000000, 2571.000000)">
                <g id="Group-24" transform="translate(189.000000, 506.000000)">
                    <g id="data">
                        <g id="Group-17" transform="translate(0.000000, 0.399999)">
                            <path d="M66.3634814,40.0139682 C66.3634814,54.582981 54.5527445,66.3937179 39.9837316,66.3937179 C25.4142887,66.3937179 13.6035518,54.582981 13.6035518,40.0139682 C13.6035518,25.4445252 25.4142887,13.6337883 39.9837316,13.6337883 C54.5527445,13.6337883 66.3634814,25.4445252 66.3634814,40.0139682 Z" id="Stroke-1"></path>
                            <path d="M19.7804898,74.4002879 C8.00803234,67.4686843 0.107827813,54.66354 0.107827813,40.0140972" id="Stroke-3"></path>
                            <path d="M77.662176,53.1011765 C72.0475599,68.7540589 56.7525265,80.0856567 39.9835166,79.889958 C36.3400806,79.8473774 32.8101928,79.4009264 29.4566489,78.4860889" id="Stroke-5"></path>
                            <path d="M55.3201413,3.19363015 C69.7308748,9.20308451 79.8598935,23.4254311 79.8598935,40.0137961 C79.8598935,44.5983061 79.0861311,49.0017411 77.662047,53.1010905" id="Stroke-7"></path>
                            <path d="M8.20368799,15.9238067 C15.4862589,6.33199156 27.011835,0.138021321 39.9838607,0.138021321 C41.5903101,0.138021321 43.1748242,0.233074958 44.7318113,0.417590841" id="Stroke-9"></path>
                            <path d="M7.52536631,46.6718087 C7.08665722,44.5208439 6.85611989,42.2941802 6.85611989,40.0141832 C6.85611989,21.7178635 21.6879281,6.88648544 39.9838177,6.88648544 C48.8835907,6.88648544 56.9640101,10.3961582 62.9162602,16.1071183" id="Stroke-11"></path>
                            <path d="M57.2997516,68.2607692 C52.2610486,71.3558189 46.3307339,73.1411928 39.9836456,73.1411928 C27.687748,73.1411928 16.9565795,66.442277 11.2404581,56.4951935" id="Stroke-13"></path>
                            <path d="M69.4695848,24.8988915 C71.7973236,29.4304984 73.1108703,34.5685561 73.1108703,40.0141402 C73.1108703,46.1405837 71.4476467,51.8790706 68.5478656,56.8020748" id="Stroke-15"></path>
                        </g>
                        <polygon id="Stroke-18" points="24.647279 51.4803615 55.3203564 51.4803615 55.3203564 29.3500684 24.647279 29.3500684"></polygon>
                        <polyline id="Stroke-19" points="55.3201413 29.3500684 46.9769266 33.0356549 43.8883286 38.3866155 37.9683365 41.8627399 35.5541462 46.0433795 29.3520039 46.150046 24.6470639 51.4803615"></polyline>
                    </g>
                </g>
            </g>
        </g>
    </g>
</svg>