<?xml version="1.0" encoding="UTF-8"?>
<svg width="82px" height="81px" viewBox="0 0 82 81" version="1.1" xmlns="http://www.w3.org/2000/svg" xmlns:xlink="http://www.w3.org/1999/xlink">
    <!-- Generator: sketchtool 50.2 (55047) - http://www.bohemiancoding.com/sketch -->
    <title>85B17E6D-EFE0-4B01-A7D5-1F56E0A967DE</title>
    <desc>Created with sketchtool.</desc>
    <defs></defs>
    <g id="Page-1" stroke="none" stroke-width="1" fill="none" fill-rule="evenodd">
        <g id="A-broken-system" transform="translate(-239.000000, -1027.000000)" stroke="#FFFFFF" stroke-width="0.5">
            <g id="QUESTIONS-FACED" transform="translate(240.000000, 1027.000000)">
                <g id="QUESTIONS">
                    <g id="Group-6">
                        <g id="emergency">
                            <g id="Group-17" transform="translate(0.000000, 0.399999)">
                                <path d="M66.3634814,40.0137961 C66.3634814,54.582809 54.5527445,66.3935459 39.9837316,66.3935459 C25.4142887,66.3935459 13.6035518,54.582809 13.6035518,40.0137961 C13.6035518,25.4447833 25.4142887,13.6340463 39.9837316,13.6340463 C54.5527445,13.6340463 66.3634814,25.4447833 66.3634814,40.0137961 Z" id="Stroke-1"></path>
                                <path d="M19.7803607,74.4004169 C8.0079033,67.4688133 0.107698781,54.6636691 0.107698781,40.0137961" id="Stroke-3"></path>
                                <path d="M77.6622621,53.1013486 C72.0476459,68.7538008 56.7526125,80.0853986 39.9836026,79.8897 C36.3401666,79.8475495 32.8102788,79.4010985 29.4567349,78.4858309" id="Stroke-5"></path>
                                <path d="M55.3203564,3.19380219 C69.7306597,9.20325655 79.8596785,23.4256032 79.8596785,40.0139682 C79.8596785,44.5980481 79.0859161,49.0019132 77.6622621,53.1012625" id="Stroke-7"></path>
                                <path d="M8.20386003,15.9238928 C15.4860009,6.33207758 27.0115769,0.137677236 39.9836026,0.137677236 C41.5904822,0.137677236 43.1745661,0.232730873 44.7315533,0.417676863" id="Stroke-9"></path>
                                <path d="M7.52553835,46.6718087 C7.08682926,44.5208439 6.85629194,42.2941802 6.85629194,40.0137531 C6.85629194,21.7182936 21.68767,6.88648544 39.9835596,6.88648544 C48.8837628,6.88648544 56.9641821,10.3961582 62.9164323,16.1075484" id="Stroke-11"></path>
                                <path d="M57.2998376,68.2605972 C52.2611346,71.3560769 46.33082,73.1410208 39.9837316,73.1410208 C27.6878341,73.1410208 16.9566656,66.442105 11.2405442,56.4950215" id="Stroke-13"></path>
                                <path d="M69.4695418,24.8988485 C71.7972806,29.4304554 73.1108273,34.5689432 73.1108273,40.0136671 C73.1108273,46.1405406 71.4476037,51.8790276 68.5482527,56.8020318" id="Stroke-15"></path>
                            </g>
                            <path d="M58.7126099,42.1655782 L58.7126099,50.2601911 L52.0244468,50.2601911 C52.03735,50.1483633 52.0416511,50.0279333 52.0416511,49.9118044 C52.0416511,47.8773985 50.3900404,46.2257878 48.3556345,46.2257878 C46.3212286,46.2257878 44.6696179,47.8773985 44.6696179,49.9118044 C44.6696179,50.0279333 44.6739189,50.1483633 44.6868221,50.2601911 L32.9707087,50.2601911 C32.9836119,50.1483633 32.987913,50.0279333 32.987913,49.9118044 C32.987913,47.8816996 31.3406034,46.23439 29.3104986,46.23439 C27.2803937,46.23439 25.6330841,47.8816996 25.6330841,49.9118044 C25.6330841,50.0279333 25.6373852,50.1483633 25.6502884,50.2601911 L21.2545953,50.2601911 L21.2545953,31.1935498 L40.0502692,31.1849477 L49.5814393,31.1806466 L55.4093885,38.935475 L56.1319682,39.6408504 L58.7126099,42.1655782 Z" id="Stroke-18"></path>
                            <polygon id="Stroke-20" points="40.8330638 27.2322648 44.9104778 27.2322648 46.1104762 31.1806466 40.0506993 31.1849477"></polygon>
                            <polyline id="Stroke-22" points="43.0804587 31.1935498 43.0804587 39.6408504 56.1307639 39.6408504"></polyline>
                            <path d="M31.8409468,35.7799523 L31.8409468,41.947686" id="Stroke-24"></path>
                            <path d="M34.9248137,38.8638192 L28.7570799,38.8638192" id="Stroke-26"></path>
                            <path d="M32.987913,49.9118044 C32.987913,50.0279333 32.9836119,50.1483633 32.9707087,50.2601911 C32.7943649,52.1268552 31.2244745,53.5892189 29.3104986,53.5892189 C27.3965226,53.5892189 25.8266322,52.1268552 25.6502884,50.2601911 C25.6373852,50.1483633 25.6330841,50.0279333 25.6330841,49.9118044 C25.6330841,47.8816996 27.2803937,46.23439 29.3104986,46.23439 C31.3406034,46.23439 32.987913,47.8816996 32.987913,49.9118044 Z" id="Stroke-28"></path>
                            <path d="M52.0416511,49.9118044 C52.0416511,50.0279333 52.03735,50.1483633 52.0244468,50.2601911 C51.8481029,52.1311563 50.2696104,53.597821 48.3556345,53.597821 C46.4416585,53.597821 44.863166,52.1311563 44.6868221,50.2601911 C44.6739189,50.1483633 44.6696179,50.0279333 44.6696179,49.9118044 C44.6696179,47.8773985 46.3212286,46.2257878 48.3556345,46.2257878 C50.3900404,46.2257878 52.0416511,47.8773985 52.0416511,49.9118044 Z" id="Stroke-30"></path>
                        </g>
                    </g>
                </g>
            </g>
        </g>
    </g>
</svg>