<svg width="92px" height="92px" viewBox="0 0 92 92" version="1.1" xmlns="http://www.w3.org/2000/svg" xmlns:xlink="http://www.w3.org/1999/xlink">
    <g id="Page-1" stroke="none" stroke-width="1" fill="none" fill-rule="evenodd">
        <g id="Artboard" transform="translate(-657.000000, -349.000000)" stroke="#FFFFFF">
            <g id="emergency" transform="translate(658.000000, 350.000000)">
                <path d="M67.263971,46.9769678 L67.263971,56.1117152 L59.7163982,56.1117152 C59.7309594,55.9855179 59.7358132,55.849613 59.7358132,55.7185618 C59.7358132,53.4227406 57.8719753,51.5589027 55.576154,51.5589027 C53.2803328,51.5589027 51.4164949,53.4227406 51.4164949,55.7185618 C51.4164949,55.849613 51.4213486,55.9855179 51.4359098,56.1117152 L38.2143094,56.1117152 C38.2288707,55.9855179 38.2337245,55.849613 38.2337245,55.7185618 C38.2337245,53.4275944 36.3747403,51.5686103 34.0837729,51.5686103 C31.7928053,51.5686103 29.9338212,53.4275944 29.9338212,55.7185618 C29.9338212,55.849613 29.9386749,55.9855179 29.9532362,56.1117152 L24.9927091,56.1117152 L24.9927091,34.5950653 L46.2035731,34.5853578 L56.9594712,34.5805041 L63.5362952,43.3318056 L64.3517243,44.1278198 L67.263971,46.9769678 Z" id="Stroke-18"></path>
                <polygon id="Stroke-20" points="47.0869546 30.1247665 51.6883046 30.1247665 53.0424993 34.5805041 46.2040585 34.5853578"></polygon>
                <polyline id="Stroke-22" points="49.6231333 34.5950653 49.6231333 44.1278198 64.3503652 44.1278198"></polyline>
                <line x1="36.9393764" y1="39.7708073" x2="36.9393764" y2="46.7310771" id="Stroke-24"></line>
                <line x1="40.4195113" y1="43.2509423" x2="33.4592414" y2="43.2509423" id="Stroke-26"></line>
                <path d="M38.2337245,55.7185618 C38.2337245,55.849613 38.2288707,55.9855179 38.2143094,56.1117152 C38.015306,58.2182403 36.2436892,59.8685135 34.0837729,59.8685135 C31.9238564,59.8685135 30.1522396,58.2182403 29.9532362,56.1117152 C29.9386749,55.9855179 29.9338212,55.849613 29.9338212,55.7185618 C29.9338212,53.4275944 31.7928053,51.5686103 34.0837729,51.5686103 C36.3747403,51.5686103 38.2337245,53.4275944 38.2337245,55.7185618 Z" id="Stroke-28"></path>
                <path d="M59.7358132,55.7185618 C59.7358132,55.849613 59.7309594,55.9855179 59.7163982,56.1117152 C59.5173946,58.2230941 57.7360703,59.878221 55.576154,59.878221 C53.4162376,59.878221 51.6349134,58.2230941 51.4359098,56.1117152 C51.4213486,55.9855179 51.4164949,55.849613 51.4164949,55.7185618 C51.4164949,53.4227406 53.2803328,51.5589027 55.576154,51.5589027 C57.8719753,51.5589027 59.7358132,53.4227406 59.7358132,55.7185618 Z" id="Stroke-30"></path>
                <g id="Group-17-Copy">
                    <path d="M74.7695601,45.0001457 C74.7695601,61.4412567 61.4411596,74.7696572 45.0000485,74.7696572 C28.5584521,74.7696572 15.2300516,61.4412567 15.2300516,45.0001457 C15.2300516,28.5590346 28.5584521,15.2306341 45.0000485,15.2306341 C61.4411596,15.2306341 74.7695601,28.5590346 74.7695601,45.0001457 Z" id="Stroke-1"></path>
                    <path d="M22.2005721,83.8054002 C8.91537,75.9830949 0,61.5325072 0,45.0001457" id="Stroke-3"></path>
                    <path d="M87.5202186,59.7694307 C81.1841319,77.4332017 63.9237077,90.2208943 44.9999029,90.0000486 C40.8882905,89.9524818 36.9048169,89.4486625 33.1203472,88.4157843" id="Stroke-5"></path>
                    <path d="M62.3074086,3.44883284 C78.5694162,10.2304939 90,26.2803926 90,45.0003398 C90,50.1734677 89.1268102,55.1432234 87.5202186,59.7693336" id="Stroke-7"></path>
                    <path d="M9.1365069,17.8147226 C17.3543929,6.99037232 30.3609897,0 44.9999029,0 C46.8132643,0 48.6009009,0.1072679 50.3579588,0.315979196" id="Stroke-9"></path>
                    <path d="M8.37102182,52.5137038 C7.87593921,50.0863428 7.61577815,47.573556 7.61577815,45.0000972 C7.61577815,24.3536961 24.352968,7.61602083 44.9998544,7.61602083 C55.0437216,7.61602083 64.1624638,11.5766817 70.8795698,18.0219778" id="Stroke-11"></path>
                    <path d="M64.5412505,76.876622 C58.855081,80.3698666 52.162729,82.3841734 45.0000485,82.3841734 C31.124145,82.3841734 19.014036,74.824456 12.5634007,63.5991859" id="Stroke-13"></path>
                    <path d="M78.274745,27.9429479 C80.901595,33.0568601 82.3839306,38.8556365 82.3839306,45 C82.3839306,51.9141685 80.5069851,58.3900432 77.2350715,63.9456466" id="Stroke-15"></path>
                </g>
            </g>
        </g>
    </g>
</svg>
