<?xml version="1.0" encoding="UTF-8"?>
<svg width="82px" height="82px" viewBox="0 0 82 82" version="1.1" xmlns="http://www.w3.org/2000/svg" xmlns:xlink="http://www.w3.org/1999/xlink">
    <!-- Generator: sketchtool 50.2 (55047) - http://www.bohemiancoding.com/sketch -->
    <title>FCEF1AF4-4CE9-4EB9-A2AC-01ECABEB9A66</title>
    <desc>Created with sketchtool.</desc>
    <defs></defs>
    <g id="Page-1" stroke="none" stroke-width="1" fill="none" fill-rule="evenodd">
        <g id="A-better-view" transform="translate(-689.000000, -2803.000000)" stroke="#FFFFFF" stroke-width="0.5">
            <g id="FEATURES-SECTION" transform="translate(0.000000, 2571.000000)">
                <g id="Group-28" transform="translate(690.000000, 233.000000)">
                    <g id="flag">
                        <g id="Group-17">
                            <path d="M66.3636989,40.0136774 C66.3636989,54.5831398 54.5529462,66.3938925 39.9834839,66.3938925 C25.4144516,66.3938925 13.6036989,54.5831398 13.6036989,40.0136774 C13.6036989,25.4446452 25.4144516,13.6338925 39.9834839,13.6338925 C54.5529462,13.6338925 66.3636989,25.4446452 66.3636989,40.0136774 Z" id="Stroke-1"></path>
                            <path d="M19.7802151,74.4004301 C8.00774194,67.4688172 0.107526882,54.6636559 0.107526882,40.0137634" id="Stroke-3"></path>
                            <path d="M77.6624516,53.1012903 C72.047828,68.7541935 56.7527742,80.0858065 39.9833118,79.8901075 C36.3403011,79.8475269 32.8104086,79.4010753 29.4568602,78.4858065" id="Stroke-5"></path>
                            <path d="M55.3203871,3.19367742 C69.7307097,9.20313978 79.8597419,23.4255054 79.8597419,40.0134624 C79.8597419,44.5984086 79.0864086,49.0018495 77.6623226,53.1012043" id="Stroke-7"></path>
                            <path d="M8.20387097,15.923871 C15.4864516,6.33204301 27.0116129,0.137634409 39.9836559,0.137634409 C41.5905376,0.137634409 43.1750538,0.23311828 44.732043,0.417204301" id="Stroke-9"></path>
                            <path d="M7.52550538,46.671957 C7.08636559,44.5209892 6.85625806,42.2943226 6.85625806,40.0138925 C6.85625806,21.7179785 21.688086,6.88658065 39.9835699,6.88658065 C48.8837849,6.88658065 56.9642151,10.3962581 62.916043,16.1072258" id="Stroke-11"></path>
                            <path d="M57.299957,68.2604731 C52.2612473,71.355957 46.3309247,73.1413333 39.9833978,73.1413333 C27.6874839,73.1413333 16.9567312,66.4419785 11.2406022,56.4953118" id="Stroke-13"></path>
                            <path d="M69.4698065,24.8990108 C71.7971183,29.4306237 73.1110968,34.5686882 73.1110968,40.0138495 C73.1110968,46.1407312 71.447871,51.8792258 68.548086,56.8022366" id="Stroke-15"></path>
                        </g>
                        <path d="M53.3197849,37.7022796 L53.3197849,24.9465806 C53.3197849,25.2596989 52.1705376,25.8313118 51.9636559,25.9414194 C49.2729032,27.3741075 46.4677419,26.9044301 43.6716129,26.1994839 C40.7696774,25.4683011 37.7980645,24.559914 34.7795699,24.559914 C30.3950538,24.559914 28.983871,25.504 28.983871,25.504 L28.983871,40.5728172 C28.983871,40.5728172 31.6883871,39.156043 35.6165591,39.156043 C37.5843011,39.156043 39.4264516,39.8313118 41.2677419,40.4442151 C44.9051613,41.6549677 49.8780645,42.4867957 53.3197849,40.1861505 L53.3197849,37.7022796 Z" id="Stroke-18"></path>
                        <path d="M28.983871,40.5727312 L28.983871,55.4699355" id="Stroke-20"></path>
                        <path d="M26.6476559,55.4698065 L31.319914,55.4698065" id="Stroke-22"></path>
                    </g>
                </g>
            </g>
        </g>
    </g>
</svg>