<svg width="92px" height="92px" viewBox="0 0 92 92" version="1.1" xmlns="http://www.w3.org/2000/svg" xmlns:xlink="http://www.w3.org/1999/xlink">
    <g id="Page-1" stroke="none" stroke-width="1" fill="none" fill-rule="evenodd">
        <g id="Artboard" transform="translate(-1058.000000, -349.000000)" stroke="#FFFFFF">
            <g id="imaging" transform="translate(1059.000000, 350.000000)">
                <g id="Group-17-Copy-3">
                    <path d="M74.7695601,45.0001457 C74.7695601,61.4412567 61.4411596,74.7696572 45.0000485,74.7696572 C28.5584521,74.7696572 15.2300516,61.4412567 15.2300516,45.0001457 C15.2300516,28.5590346 28.5584521,15.2306341 45.0000485,15.2306341 C61.4411596,15.2306341 74.7695601,28.5590346 74.7695601,45.0001457 Z" id="Stroke-1"></path>
                    <path d="M22.2005721,83.8054002 C8.91537,75.9830949 0,61.5325072 0,45.0001457" id="Stroke-3"></path>
                    <path d="M87.5202186,59.7694307 C81.1841319,77.4332017 63.9237077,90.2208943 44.9999029,90.0000486 C40.8882905,89.9524818 36.9048169,89.4486625 33.1203472,88.4157843" id="Stroke-5"></path>
                    <path d="M62.3074086,3.44883284 C78.5694162,10.2304939 90,26.2803926 90,45.0003398 C90,50.1734677 89.1268102,55.1432234 87.5202186,59.7693336" id="Stroke-7"></path>
                    <path d="M9.1365069,17.8147226 C17.3543929,6.99037232 30.3609897,0 44.9999029,0 C46.8132643,0 48.6009009,0.1072679 50.3579588,0.315979196" id="Stroke-9"></path>
                    <path d="M8.37102182,52.5137038 C7.87593921,50.0863428 7.61577815,47.573556 7.61577815,45.0000972 C7.61577815,24.3536961 24.352968,7.61602083 44.9998544,7.61602083 C55.0437216,7.61602083 64.1624638,11.5766817 70.8795698,18.0219778" id="Stroke-11"></path>
                    <path d="M64.5412505,76.876622 C58.855081,80.3698666 52.162729,82.3841734 45.0000485,82.3841734 C31.124145,82.3841734 19.014036,74.824456 12.5634007,63.5991859" id="Stroke-13"></path>
                    <path d="M78.274745,27.9429479 C80.901595,33.0568601 82.3839306,38.8556365 82.3839306,45 C82.3839306,51.9141685 80.5069851,58.3900432 77.2350715,63.9456466" id="Stroke-15"></path>
                </g>
                <g id="Group-5-Copy" transform="translate(25.999618, 24.000146)">
                    <path d="M8.04087407,34.5227309 C3.17609196,31.08189 0,25.4118331 0,19.0000326 C0,8.50669127 8.50669127,0 19.0003424,0 C29.4936837,0 38.000375,8.50669127 38.000375,19.0000326 C38.000375,25.4350258 34.8012644,31.1228997 29.9067155,34.559982" id="Path"></path>
                    <path d="M22.763814,5.33343673 C28.6290522,6.97538173 32.9307796,12.3601676 32.9307796,18.7495775 C32.9307796,22.6437154 31.3329001,26.164685 28.7570381,28.6925893 M9.33357986,28.7803307 C6.70483479,26.2464824 5.06959538,22.6889766 5.06959538,18.7495775 C5.06959538,12.3426407 9.39495549,6.94584708 15.2849945,5.32000913" id="Shape"></path>
                    <path d="M16.64003,0 L15.3492799,5.33160021 C15.0261912,6.66615767 15.9146911,7.99434034 17.3338001,8.29817925 C17.5257337,8.33927327 17.721959,8.36001435 17.918804,8.36001435 L20.0824688,8.36001435 C21.5378919,8.36001435 22.7177455,7.25045726 22.7177455,5.88174923 C22.7177455,5.65809561 22.6855523,5.43547123 22.6220427,5.21993983 L21.0839075,0 L21.0839075,0" id="Path-Copy-2" fill-rule="nonzero"></path>
                    <path d="M23.8854872,17.3477356 L24.8476983,17.3477356 C25.6224929,17.3477356 26.2932144,17.886145 26.4607757,18.6426038 L30.5655851,37.1738565 L30.5655851,37.1738565 L30.5655851,39.6521217 C30.5655851,40.5645937 29.8258804,41.3042984 28.9134083,41.3042984 L9.08728736,41.3042984 C8.17481534,41.3042984 7.43511062,40.5645937 7.43511062,39.6521217 L7.43511062,37.1738565 L7.43511062,37.1738565 L11.6445419,18.634098 C11.8153693,17.8817164 12.4841806,17.3477356 13.2557116,17.3477356 L14.2377589,17.3477356 L14.2377589,17.3477356" id="Path" fill-rule="nonzero"></path>
                    <path d="M22.340367,16.263749 C22.6948613,16.263749 23.0251502,16.387849 23.2851256,16.5986605 C23.545101,16.8094719 23.734763,17.1069949 23.8080035,17.4538407 C23.9120733,17.946685 23.877349,18.3663984 23.7179648,18.6838246 C23.5784791,18.9616213 23.340848,19.1479508 23.0483783,19.2223609 L23.0483783,19.2223609 L15.2861048,19.2578105 C14.971061,19.2578105 14.6858425,19.1301138 14.4793849,18.9236562 C14.2829956,18.7272669 14.1578726,18.4596112 14.1461408,18.1626954 C14.2842009,17.4971801 14.497246,17.0156183 14.7792317,16.6977129 C15.0474546,16.3953233 15.3770181,16.263749 15.7325338,16.263749 L15.7325338,16.263749 Z" id="Rectangle-Copy-2" fill-rule="nonzero"></path>
                    <line x1="7.43511062" y1="37.1738565" x2="30.5655851" y2="37.1738565" id="Path-2" fill-rule="nonzero"></line>
                </g>
            </g>
        </g>
    </g>
</svg>
