<svg width="92px" height="92px" viewBox="0 0 92 92" version="1.1" xmlns="http://www.w3.org/2000/svg" xmlns:xlink="http://www.w3.org/1999/xlink">
    <g id="Page-1" stroke="none" stroke-width="1" fill="none" fill-rule="evenodd">
        <g id="Artboard" transform="translate(-786.000000, -349.000000)" stroke="#FFFFFF">
            <g id="patient" transform="translate(787.000000, 350.000000)">
                <g id="Group-17-Copy-2">
                    <path d="M74.7695601,45.0001457 C74.7695601,61.4412567 61.4411596,74.7696572 45.0000485,74.7696572 C28.5584521,74.7696572 15.2300516,61.4412567 15.2300516,45.0001457 C15.2300516,28.5590346 28.5584521,15.2306341 45.0000485,15.2306341 C61.4411596,15.2306341 74.7695601,28.5590346 74.7695601,45.0001457 Z" id="Stroke-1"></path>
                    <path d="M22.2005721,83.8054002 C8.91537,75.9830949 0,61.5325072 0,45.0001457" id="Stroke-3"></path>
                    <path d="M87.5202186,59.7694307 C81.1841319,77.4332017 63.9237077,90.2208943 44.9999029,90.0000486 C40.8882905,89.9524818 36.9048169,89.4486625 33.1203472,88.4157843" id="Stroke-5"></path>
                    <path d="M62.3074086,3.44883284 C78.5694162,10.2304939 90,26.2803926 90,45.0003398 C90,50.1734677 89.1268102,55.1432234 87.5202186,59.7693336" id="Stroke-7"></path>
                    <path d="M9.1365069,17.8147226 C17.3543929,6.99037232 30.3609897,0 44.9999029,0 C46.8132643,0 48.6009009,0.1072679 50.3579588,0.315979196" id="Stroke-9"></path>
                    <path d="M8.37102182,52.5137038 C7.87593921,50.0863428 7.61577815,47.573556 7.61577815,45.0000972 C7.61577815,24.3536961 24.352968,7.61602083 44.9998544,7.61602083 C55.0437216,7.61602083 64.1624638,11.5766817 70.8795698,18.0219778" id="Stroke-11"></path>
                    <path d="M64.5412505,76.876622 C58.855081,80.3698666 52.162729,82.3841734 45.0000485,82.3841734 C31.124145,82.3841734 19.014036,74.824456 12.5634007,63.5991859" id="Stroke-13"></path>
                    <path d="M78.274745,27.9429479 C80.901595,33.0568601 82.3839306,38.8556365 82.3839306,45 C82.3839306,51.9141685 80.5069851,58.3900432 77.2350715,63.9456466" id="Stroke-15"></path>
                </g>
                <path d="M48.3004052,41.9923246 L48.3004052,53.5039661 C48.3004052,54.6518783 47.3694557,55.5828277 46.2215436,55.5828277 L37.2542384,55.5828277 C35.4860169,55.5828277 34.0527042,54.149515 34.0527042,52.3812934 L34.0527042,44.9623349 C34.0527042,43.0984945 35.5636769,41.5880072 37.427032,41.5880072 L50.5253647,41.5880072 C52.341153,41.5880072 53.8249447,43.0373372 53.8676576,44.8531255 L53.9326979,62.3780792 L37.7740752,62.3780792 L37.8347471,55.5828277" id="Stroke-19"></path>
                <line x1="50.3936338" y1="47.816826" x2="50.3936338" y2="62.3780792" id="Stroke-21"></line>
                <path d="M38.2592561,55.5828277 L47.3600395,41.5880072 C47.3600395,41.5880072 47.6837846,38.3922974 50.8387228,38.1093237 C50.8387228,38.1093237 50.717379,41.3453196 47.3600395,41.5880072" id="Stroke-23"></path>
                <polyline id="Stroke-25" points="38.7446313 47.816826 38.7446313 51.1741655 41.1263669 51.1741655"></polyline>
                <path d="M49.4714211,33.2555727 C49.4714211,36.2309221 47.0591068,38.6432364 44.0837575,38.6432364 C41.108408,38.6432364 38.6960937,36.2309221 38.6960937,33.2555727 C38.6960937,30.2802232 41.108408,27.867909 44.0837575,27.867909 C47.0591068,27.867909 49.4714211,30.2802232 49.4714211,33.2555727 Z" id="Stroke-27"></path>
            </g>
        </g>
    </g>
</svg>
