<svg width="92px" height="92px" viewBox="0 0 92 92" version="1.1" xmlns="http://www.w3.org/2000/svg" xmlns:xlink="http://www.w3.org/1999/xlink">
    <g id="Page-1" stroke="none" stroke-width="1" fill="none" fill-rule="evenodd">
        <g id="Artboard" transform="translate(-516.000000, -349.000000)" stroke="#FFFFFF">
            <g id="surgery" transform="translate(517.000000, 350.000000)">
                <g id="Group-17">
                    <path d="M74.7695601,45.0001457 C74.7695601,61.4412567 61.4411596,74.7696572 45.0000485,74.7696572 C28.5584521,74.7696572 15.2300516,61.4412567 15.2300516,45.0001457 C15.2300516,28.5590346 28.5584521,15.2306341 45.0000485,15.2306341 C61.4411596,15.2306341 74.7695601,28.5590346 74.7695601,45.0001457 Z" id="Stroke-1"></path>
                    <path d="M22.2005721,83.8054002 C8.91537,75.9830949 0,61.5325072 0,45.0001457" id="Stroke-3"></path>
                    <path d="M87.5202186,59.7694307 C81.1841319,77.4332017 63.9237077,90.2208943 44.9999029,90.0000486 C40.8882905,89.9524818 36.9048169,89.4486625 33.1203472,88.4157843" id="Stroke-5"></path>
                    <path d="M62.3074086,3.44883284 C78.5694162,10.2304939 90,26.2803926 90,45.0003398 C90,50.1734677 89.1268102,55.1432234 87.5202186,59.7693336" id="Stroke-7"></path>
                    <path d="M9.1365069,17.8147226 C17.3543929,6.99037232 30.3609897,0 44.9999029,0 C46.8132643,0 48.6009009,0.1072679 50.3579588,0.315979196" id="Stroke-9"></path>
                    <path d="M8.37102182,52.5137038 C7.87593921,50.0863428 7.61577815,47.573556 7.61577815,45.0000972 C7.61577815,24.3536961 24.352968,7.61602083 44.9998544,7.61602083 C55.0437216,7.61602083 64.1624638,11.5766817 70.8795698,18.0219778" id="Stroke-11"></path>
                    <path d="M64.5412505,76.876622 C58.855081,80.3698666 52.162729,82.3841734 45.0000485,82.3841734 C31.124145,82.3841734 19.014036,74.824456 12.5634007,63.5991859" id="Stroke-13"></path>
                    <path d="M78.274745,27.9429479 C80.901595,33.0568601 82.3839306,38.8556365 82.3839306,45 C82.3839306,51.9141685 80.5069851,58.3900432 77.2350715,63.9456466" id="Stroke-15"></path>
                </g>
                <path d="M28.3993461,59.0321459 L43.3654023,44.6140782 L45.7015126,46.9501887 L38.8795656,53.7755335 L39.6323823,55.8209041 C39.6323823,55.8209041 36.5094789,59.9194116 33.6947887,60.7634789 C30.879613,61.6080316 29.1628412,59.8548567 28.3993461,59.0321459 Z" id="Stroke-18"></path>
                <polygon id="Stroke-20" points="42.8278493 44.0762341 46.3259478 40.5164931 49.954612 44.0762341 46.3259478 47.5748179"></polygon>
                <path d="M46.3258021,40.5164446 L56.25415,29.739661 C57.1054979,28.8150214 58.5499742,28.7689108 59.4590818,29.6377322 L60.9054996,31.0200805 C61.8529518,31.9248197 61.8281977,33.4450146 60.8521084,34.3186898 L49.9549518,44.0761856 L46.3258021,40.5164446 Z" id="Stroke-22"></path>
            </g>
        </g>
    </g>
</svg>
